<svg xmlns="http://www.w3.org/2000/svg" xmlns:xlink="http://www.w3.org/1999/xlink" viewBox="0 0 750 500.13"><defs><style>.cls-1,.cls-11,.cls-12,.cls-14,.cls-18,.cls-20,.cls-21,.cls-22,.cls-26,.cls-32,.cls-34,.cls-36,.cls-4,.cls-41,.cls-44,.cls-45,.cls-6,.cls-7{fill:none;}.cls-2{isolation:isolate;}.cls-3,.cls-9{fill:#ffdad7;}.cls-4{stroke:#ff9a92;}.cls-18,.cls-20,.cls-21,.cls-22,.cls-26,.cls-32,.cls-34,.cls-36,.cls-4,.cls-41,.cls-6,.cls-7{stroke-miterlimit:10;}.cls-14,.cls-4,.cls-44,.cls-45,.cls-7,.cls-9{stroke-width:1.5px;}.cls-5{fill:#ff5061;}.cls-6{stroke:#ffdad7;}.cls-18,.cls-20,.cls-21,.cls-22,.cls-32,.cls-34,.cls-41,.cls-6{stroke-width:0.75px;}.cls-32,.cls-34,.cls-7{stroke:#000;}.cls-13,.cls-8{fill:#ffc9c2;}.cls-11,.cls-12,.cls-36,.cls-44,.cls-45,.cls-9{stroke:#fff;}.cls-11,.cls-12,.cls-14,.cls-44,.cls-45,.cls-9{stroke-linejoin:round;}.cls-10,.cls-28{fill:#fff;}.cls-11,.cls-12,.cls-14,.cls-26,.cls-32,.cls-36,.cls-44{stroke-linecap:round;}.cls-12{stroke-width:3px;}.cls-13{opacity:0.45;}.cls-13,.cls-27{mix-blend-mode:multiply;}.cls-14{stroke:#ffc9c2;}.cls-15{fill:#f7a89a;}.cls-16{fill:#f28b7c;}.cls-17{fill:#2433bc;}.cls-18,.cls-20,.cls-21{stroke:#152377;}.cls-19{fill:#3e49e1;}.cls-20{stroke-dasharray:1.46 0.87;}.cls-21{stroke-dasharray:2.81 1.69;}.cls-22{stroke:#db6653;}.cls-23{fill:#0a172b;}.cls-24{fill:#00276f;}.cls-25,.cls-27{fill:#8dade0;}.cls-26{stroke:#8dade0;stroke-width:0.25px;}.cls-27{opacity:0.55;}.cls-28{opacity:0.51;}.cls-29{clip-path:url(#clip-path);}.cls-30{fill:url(#linear-gradient);}.cls-31{fill:url(#linear-gradient-2);}.cls-33{fill:#071242;}.cls-35{fill:#db6653;}.cls-37{fill:#0f1470;}.cls-38{clip-path:url(#clip-path-2);}.cls-39{fill:url(#linear-gradient-3);}.cls-40{fill:url(#linear-gradient-4);}.cls-41{stroke:#b74539;}.cls-42{fill:#611223;}.cls-43{fill:#3f111d;}</style><clipPath id="clip-path"><path class="cls-1" d="M436.31,268.07l-1.56-5.5a1.61,1.61,0,0,0-.48-.69l-11.58-9.8c-.25-.21-.43-.17-.36.07l1.58,5.57a1.61,1.61,0,0,0,.48.69l11.52,9.74C436.19,268.39,436.39,268.35,436.31,268.07Z"/></clipPath><linearGradient id="linear-gradient" x1="560.65" y1="226.28" x2="567.12" y2="215.07" gradientTransform="matrix(0.56, -0.74, -0.97, -0.51, 329.6, 789.37)" gradientUnits="userSpaceOnUse"><stop offset="0" stop-color="#fff" stop-opacity="0.6"/><stop offset="0.89" stop-color="#fff" stop-opacity="0.1"/></linearGradient><linearGradient id="linear-gradient-2" x1="561.79" y1="227.88" x2="568.11" y2="216.93" xlink:href="#linear-gradient"/><clipPath id="clip-path-2"><path class="cls-1" d="M314.17,262.54l-3.34-5.93a.71.71,0,0,1,.19-.82l12.74-13c.28-.29.7-.3.85,0l3.38,6a.71.71,0,0,1-.19.83l-12.67,13C314.82,262.82,314.34,262.84,314.17,262.54Z"/></clipPath><linearGradient id="linear-gradient-3" x1="747.44" y1="123.01" x2="757.88" y2="104.92" gradientTransform="matrix(-0.82, -0.42, 0.65, -0.88, 862.56, 672.42)" xlink:href="#linear-gradient"/><linearGradient id="linear-gradient-4" x1="748.47" y1="124.74" x2="758.9" y2="106.67" gradientTransform="matrix(-0.82, -0.42, 0.65, -0.88, 862.56, 672.42)" xlink:href="#linear-gradient"/></defs><title>2760247</title><g class="cls-2"><g id="BACKGROUND"><rect class="cls-3" width="750" height="500"/></g><g id="OBJECTS"><path class="cls-4" d="M602.46,481c-16-2.21-36.75,10.77-54.91,7-18.91-3.93-19.92-27.54-44.54-41.57-33.81-19.28-50.52,28.83-69.52,28.83-10.95,0-17-9.28-38.48-10.34-36.18-1.8-43.56,34.45-43.56,34.45H639.76S628,484.57,602.46,481Z"/><path class="cls-5" d="M148.58,401.72a10.7,10.7,0,0,0-17,11.11,10.7,10.7,0,1,0-5.3,20.41l24.27,2,2-24.27A10.69,10.69,0,0,0,148.58,401.72Z"/><path class="cls-6" d="M144.79,428.48s-13.57-13-27.17-.6"/><path class="cls-6" d="M138.87,424.5c-2.71-12,8.35-17.12,13.81-15.82"/><path class="cls-6" d="M129.47,422.45c-.85-2.56,2.42-10.2,10.32-7.26"/><path class="cls-6" d="M120.69,425.45s-1.54-10,11.63-9.61"/><path class="cls-6" d="M147.15,409c-4.92-8.79-18.74-4.62-14.45,6.6"/><path d="M150.35,426.13a1.17,1.17,0,0,0-1,.16,2.94,2.94,0,0,0-1.3,2.47,4.32,4.32,0,0,0-.88-1.54,1.5,1.5,0,0,0-2.54.35,6.91,6.91,0,0,0,.22,3.3.55.55,0,0,1,0,.25c0,.2-.31.19-.52.17a2.3,2.3,0,0,0-2.48,2.52,1.32,1.32,0,0,0,.17.65,1.43,1.43,0,0,0,1.19.53c2.33.12,7.48.7,7.48.7s.88-4.56,1-6.7a3.91,3.91,0,0,0-.17-1.57A2.13,2.13,0,0,0,150.35,426.13Z"/><path class="cls-7" d="M173.35,493.27s-5.27-36.94-25.71-61.19"/><path d="M165.46,423.16a48.24,48.24,0,0,0-8.88,12c-2,4.44-1,10,3.4,10.29C167,445.07,169.31,432,165.46,423.16Z"/><path d="M135,448.82a48.35,48.35,0,0,0,14.53,3.49c4.88.13,9.56-3,8.15-7.15C154.56,438.86,141.66,441.81,135,448.82Z"/><path class="cls-5" d="M390.42,369a15.42,15.42,0,0,0-24.15-16.54,15.43,15.43,0,1,0-30.11,4.17L346.79,390l33.45-10.63A15.44,15.44,0,0,0,390.42,369Z"/><path class="cls-6" d="M351.6,381.19c2.31-7.14,9.6-27.83-13.06-39.07"/><path class="cls-6" d="M354.46,368.59c14.51-10.22,27.68,1.66,28.94,9.66"/><path class="cls-6" d="M352.3,354.9c2.94-2.54,14.91-2.39,15.34,9.76"/><path class="cls-6" d="M343.46,344.86s12.49-7.55,19.2,10.21"/><path class="cls-6" d="M379.92,371.06c9-11.39-4.16-27.5-16.74-15.62"/><path d="M344.22,378.3a1.53,1.53,0,0,1,1.38,0,4,4,0,0,1,2.39,3,5.75,5.75,0,0,1,.79-2.28,2,2,0,0,1,3.49-.19c.67,1.15.57,2.89.54,4.49a.91.91,0,0,0,0,.34c.12.26.47.18.75.1a3.14,3.14,0,0,1,4,2.75,1.79,1.79,0,0,1-.06.91,2,2,0,0,1-1.46,1c-3.11.75-9.86,2.85-9.86,2.85s-2.35-5.89-3-8.74a5.47,5.47,0,0,1-.18-2.16A3,3,0,0,1,344.22,378.3Z"/><path class="cls-7" d="M326.5,485.25s-2.1-59.39,22.86-99.66"/><path d="M366.33,403.87a59.24,59.24,0,0,0-18-2.47c-5.92.43-11.22,4.78-9,9.65C343.82,418.31,359.09,413.17,366.33,403.87Z"/><path d="M321.11,386.3a58.88,58.88,0,0,0,4.76,17.56c2.71,5.29,8.77,8.47,12.4,4.53C343.19,401.39,332.5,389.34,321.11,386.3Z"/><path class="cls-5" d="M400.18,415a11.91,11.91,0,0,0-17.33-14.54,11.92,11.92,0,1,0-23.47.93L365,427.94l26.53-5.64A12,12,0,0,0,400.18,415Z"/><path class="cls-6" d="M369.39,421.51c2.32-5.32,9.49-20.68-7.09-31"/><path class="cls-6" d="M372.55,412c11.93-6.76,21.16,3.37,21.53,9.62"/><path class="cls-6" d="M371.92,401.34c2.45-1.73,11.65-.71,11.06,8.67"/><path class="cls-6" d="M365.88,393s10.17-4.87,14,9.3"/><path class="cls-6" d="M392,415.86c7.78-8.08-1.13-21.47-11.71-13.28"/><path d="M363.93,418.73a1.2,1.2,0,0,1,1.07.07,3.08,3.08,0,0,1,1.61,2.47,4.54,4.54,0,0,1,.78-1.7,1.58,1.58,0,0,1,2.7.12,7.17,7.17,0,0,1,.08,3.5.56.56,0,0,0,0,.26c.07.21.34.17.57.14a2.41,2.41,0,0,1,2.84,2.41,1.32,1.32,0,0,1-.12.69,1.46,1.46,0,0,1-1.2.67c-2.44.35-7.8,1.46-7.8,1.46s-1.36-4.72-1.67-7a4.1,4.1,0,0,1,0-1.67A2.25,2.25,0,0,1,363.93,418.73Z"/><path class="cls-7" d="M342.23,499.65s2.87-45.84,25.11-74.93"/><path d="M379,440.07a45.36,45.36,0,0,0-13.68-3.26c-4.59-.12-9,2.82-7.66,6.74C360.61,449.47,372.74,446.68,379,440.07Z"/><path d="M345.55,423.14A45.68,45.68,0,0,0,347.89,437c1.68,4.27,6.11,7.17,9.2,4.42C361.4,436.41,354.09,426.34,345.55,423.14Z"/><path class="cls-5" d="M266.7,415A11.92,11.92,0,0,1,284,400.48a11.92,11.92,0,1,1,23.47.93l-5.65,26.53-26.54-5.64A12,12,0,0,1,266.7,415Z"/><path class="cls-6" d="M297.49,421.51c-2.32-5.32-9.49-20.68,7.09-31"/><path class="cls-6" d="M294.34,412c-11.94-6.76-21.17,3.37-21.53,9.62"/><path class="cls-6" d="M295,401.34c-2.46-1.73-11.65-.71-11.07,8.67"/><path class="cls-6" d="M301,393s-10.18-4.87-14,9.3"/><path class="cls-6" d="M274.94,415.86c-7.79-8.08,1.13-21.47,11.7-13.28"/><path d="M303,418.73a1.21,1.21,0,0,0-1.07.07,3.1,3.1,0,0,0-1.61,2.47,4.54,4.54,0,0,0-.78-1.7,1.58,1.58,0,0,0-2.7.12,7.29,7.29,0,0,0-.08,3.5.75.75,0,0,1,0,.26c-.07.21-.35.17-.57.14a2.42,2.42,0,0,0-2.85,2.41,1.32,1.32,0,0,0,.12.69,1.48,1.48,0,0,0,1.2.67c2.44.35,7.8,1.46,7.8,1.46s1.36-4.72,1.67-7a4.28,4.28,0,0,0,0-1.67A2.26,2.26,0,0,0,303,418.73Z"/><path class="cls-7" d="M324.65,499.65s-2.87-45.84-25.11-74.93"/><path d="M287.87,440.07a45.42,45.42,0,0,1,13.68-3.26c4.59-.12,9,2.82,7.66,6.74C306.28,449.47,294.15,446.68,287.87,440.07Z"/><path d="M321.33,423.14A45.38,45.38,0,0,1,319,437c-1.68,4.27-6.11,7.17-9.19,4.42C305.49,436.41,312.8,426.34,321.33,423.14Z"/><path class="cls-8" d="M276.52,499.38H98.12A56.34,56.34,0,0,1,140.93,470c16.14-2,24.57,12,37.09,7s22.54-54.79,58.61-51.79S304.74,483.46,327.4,477s31.9-12.93,50.25-7c17.91,5.8,29.63,15.11,42,29.38Z"/><path class="cls-4" d="M318.77,484.83c-20-.83-30.68,8.44-43.84,8.44S261.49,477,242.51,475.34s-42.94,24-42.94,24H343.71S333.39,485.44,318.77,484.83Z"/><path class="cls-9" d="M416.68,442.82l146.89,33.92a9.71,9.71,0,0,0,11.64-7.27l64.3-278.54a9.71,9.71,0,0,0-7.27-11.64L485.35,145.38a9.71,9.71,0,0,0-11.64,7.27l-64.3,278.54A9.69,9.69,0,0,0,416.68,442.82Z"/><path class="cls-8" d="M574.63,444.07l-.17,0L421.22,408.67a.8.8,0,0,1-.47-.33.77.77,0,0,1-.1-.57l55.21-239.1a.75.75,0,0,1,.72-.58l.17,0L630,203.49a.8.8,0,0,1,.47.33.76.76,0,0,1,.09.57l-55.2,239.1A.75.75,0,0,1,574.63,444.07Z"/><path class="cls-10" d="M476.59,168.84l153.24,35.38-55.2,239.1L421.39,407.94l55.2-239.1m0-1.5a1.5,1.5,0,0,0-1.46,1.16l-55.2,239.1a1.51,1.51,0,0,0,1.13,1.8L574.3,444.78a1.24,1.24,0,0,0,.33,0,1.52,1.52,0,0,0,.8-.23,1.45,1.45,0,0,0,.66-.93l55.2-239.1a1.49,1.49,0,0,0-1.12-1.8L476.92,167.38a1.27,1.27,0,0,0-.34,0Z"/><path class="cls-11" d="M488.68,439.59a5.95,5.95,0,1,0,7.14-4.46A6,6,0,0,0,488.68,439.59Z"/><line class="cls-12" x1="569.66" y1="178.76" x2="541.83" y2="172.33"/><line class="cls-12" x1="579.97" y1="181.14" x2="574.84" y2="179.95"/><path class="cls-13" d="M504.54,238.33l104.19,24-7.06-9.58,3.43-14.86a23,23,0,0,0-17.24-27.58l-73-16.85a23,23,0,0,0-27.59,17.24h0A23,23,0,0,0,504.54,238.33Z"/><line class="cls-14" x1="588.77" y1="222.2" x2="506.49" y2="203.2"/><line class="cls-14" x1="518.59" y1="213.98" x2="504.74" y2="210.78"/><line class="cls-14" x1="587.02" y1="229.78" x2="529.83" y2="216.57"/><line class="cls-14" x1="585.27" y1="237.35" x2="502.99" y2="218.36"/><line class="cls-14" x1="583.52" y1="244.93" x2="543.58" y2="235.71"/><path class="cls-13" d="M464.13,398.83l104.19,24.06-7.07-9.59,3.43-14.86a23,23,0,0,0-17.23-27.58l-73-16.85a23,23,0,0,0-27.59,17.24h0A23,23,0,0,0,464.13,398.83Z"/><line class="cls-14" x1="548.36" y1="382.7" x2="466.08" y2="363.71"/><line class="cls-14" x1="478.18" y1="374.48" x2="464.33" y2="371.28"/><line class="cls-14" x1="546.61" y1="390.28" x2="489.42" y2="377.08"/><line class="cls-14" x1="544.86" y1="397.86" x2="462.58" y2="378.86"/><line class="cls-14" x1="543.11" y1="405.43" x2="503.17" y2="396.21"/><path class="cls-13" d="M556.6,342.74,452.41,318.69,463,313.17l3.43-14.86A23,23,0,0,1,494,281.08l73,16.84a23,23,0,0,1,17.24,27.59h0A23,23,0,0,1,556.6,342.74Z"/><line class="cls-14" x1="487.96" y1="291.32" x2="570.24" y2="310.32"/><line class="cls-14" x1="554.64" y1="314.7" x2="568.49" y2="317.89"/><line class="cls-14" x1="486.21" y1="298.9" x2="543.4" y2="312.1"/><line class="cls-14" x1="484.46" y1="306.48" x2="566.74" y2="325.47"/><line class="cls-14" x1="482.71" y1="314.05" x2="522.66" y2="323.28"/><path class="cls-15" d="M450.46,462.06l.9,23.29s-19.1,11.23-19.1,11.47,18.18.89,18.18.89l8.05-3.93h7.87a1.43,1.43,0,0,0,1.39-1.75l-1.63-7.18L469,460.33"/><path class="cls-5" d="M433.57,494.13c2.86-1.66,13.61-7,13.61-7l11.25,6.62h9.72v5.6h-8.54v-4.23h-1.24a2,2,0,0,0-1.2.41l-4.24,3.28a2.67,2.67,0,0,1-1.61.54H432.26C429.75,499.38,429.19,496.67,433.57,494.13Z"/><polygon class="cls-5" points="462.48 494.83 467.11 488.61 466.56 486.23 461.08 493.8 462.48 494.83"/><path class="cls-16" d="M512.48,241.3c7.69,9.16,15.67,27.93,15.33,36.33-.53,13.2-12.84,44.56-12.84,44.56l-3.72-4.79,8.46-39.82S497.27,256.83,492,252.65s-11.17-16.54.78-21.91C501.51,226.8,508.88,237,512.48,241.3Z"/><path class="cls-17" d="M487.71,308.27s-1,66.86,3.47,83.49c2.74,10.12,15.53,35.88,15.53,35.88L557,439.26S539.23,413.09,524,387.43c0-14.8,1.45-24.8,3-53.28,4-20.08,0-24.74-2.12-31.73"/><path class="cls-18" d="M522.66,431.37s-19.24-37.12-22.44-48c-1.59-5.38-3.16-72.32-3.16-72.32"/><path class="cls-19" d="M525.4,302c5,7.59,13.13,23.61-4.73,41.47C506.73,358.19,486,389.88,486,389.88l6.63,83.21-48.49-5.46s2.42-65.46,7.5-87.5c4.58-19.87,40.81-66.84,40.81-66.84l.65-6.76"/><path class="cls-18" d="M506.71,312.33a19.37,19.37,0,0,1-2.53,7.89c-3.75,6.35-35.76,56.75-36.3,62.48-1.95,20.73-2.68,87.3-2.68,87.3"/><path class="cls-18" d="M487.66,313s15.94,3.28,40.15-6.87"/><path class="cls-18" d="M513.22,310.94s-1.07-4.36-1.48-6.08"/><path class="cls-18" d="M524.67,307.19a55.21,55.21,0,0,0-2.81-5.31"/><path class="cls-18" d="M501.51,324.24s-1.76-5-2.29-7a13.56,13.56,0,0,1-.4-4"/><path class="cls-18" d="M456,393s5.15,27.88,7.49,37.24"/><path class="cls-18" d="M452.48,394.25s.64,15.15,1.19,20.28"/><path class="cls-18" d="M531.65,319.8l-7-.66L521.53,331a2.21,2.21,0,0,0,.13,1.48l3,6.49"/><line class="cls-18" x1="531.65" y1="321.23" x2="530.41" y2="321.1"/><line class="cls-20" x1="529.54" y1="321.01" x2="527.66" y2="320.82"/><polyline class="cls-18" points="527.22 320.77 525.98 320.64 525.69 321.86"/><path class="cls-21" d="M525.3,323.5l-1.87,7.79a2.11,2.11,0,0,0,.13,1.36l1.35,3"/><line class="cls-18" x1="525.26" y1="336.4" x2="525.77" y2="337.53"/><path class="cls-15" d="M487.37,298.41s.34,3.34.34,9.86c9.35,1.53,31.29-3.13,37.69-6.23a61.72,61.72,0,0,1-3.71-9c-1-6.79-25.52-7.16-25.52-7.16Z"/><path class="cls-22" d="M492.63,303.86a3,3,0,0,1-.15,2.56"/><path class="cls-10" d="M493.09,233.18c-3.64,2.49-11.16,16-11.16,16s-7.22,8.88-6.05,15.07c1.57,8.33,6.81,12,7.34,13.57,1.82,5.38,4.28,22.34,4.28,22.34s19.66,1,35.16-5.36c-4.78-19.27,4.23-32.14-4.17-48.84-4.08-8.13-15.07-15.55-15.07-15.55"/><path class="cls-16" d="M432.79,268.07c-.19-.12-5.86-3.12-6.87-4.07s-5-6.13-4.21-6.7,4.16,3.3,4.16,3.3l5.35,3.54"/><path class="cls-16" d="M428,261.07l1.23-1.22s-4.41-5.52-3.82-6.33,5,4.72,5,4.72a35,35,0,0,1,5.36,2.29c1.81,1.11,4.09,4.49,4.09,4.49l-3.08,5.11"/><path class="cls-15" d="M503.92,240.71C491.24,251.52,473.8,276,473.8,276l-35.19-12.26-2.46,7.52s30.48,23,42.92,19.91c7.68-1.92,20.55-14.46,28.66-25.46a8.56,8.56,0,0,0,7.24-3.92C518.66,255.06,516.41,230.07,503.92,240.71Z"/><path class="cls-23" d="M436.29,268.29l-2.21-5.05a1.61,1.61,0,0,0-.48-.69L422.34,252s-.63.56-.68.65a.29.29,0,0,0,0,.21l1.58,5.56a1.61,1.61,0,0,0,.48.69l11.52,9.74c.17.15.31.19.38.14Z"/><path class="cls-24" d="M436.31,268.07l-1.56-5.5a1.61,1.61,0,0,0-.48-.69l-11.58-9.8c-.25-.21-.43-.17-.36.07l1.58,5.57a1.61,1.61,0,0,0,.48.69l11.52,9.74C436.19,268.39,436.39,268.35,436.31,268.07Z"/><polygon class="cls-25" points="433.44 261.18 435.27 267.61 425.19 259.08 423.36 252.65 433.44 261.18"/><path class="cls-25" d="M434.87,264.77c.15.15.26.17.25.06a.9.9,0,0,0-.3-.47c-.15-.15-.26-.17-.25-.06A1,1,0,0,0,434.87,264.77Z"/><line class="cls-26" x1="423.45" y1="254.66" x2="423.78" y2="255.8"/><path class="cls-27" d="M426.11,255.61c.15.13.25.16.24,0a.92.92,0,0,0-.28-.44c-.14-.14-.25-.16-.24-.06A1,1,0,0,0,426.11,255.61Z"/><path class="cls-28" d="M426,258.92l-1-3.38c-.11-.37.15-.42.52-.11l.85.72.14-.06,1.16,4.12c.1.37-.16.42-.52.11l-.52-.43A2.25,2.25,0,0,1,426,258.92Z"/><line class="cls-26" x1="425.62" y1="255.96" x2="426.59" y2="259.37"/><line class="cls-26" x1="426.26" y1="256.51" x2="426.81" y2="258.46"/><path class="cls-27" d="M432.36,260.78c.14.14.25.16.24.05a1,1,0,0,0-.28-.44c-.14-.14-.25-.16-.24-.05A1,1,0,0,0,432.36,260.78Z"/><path class="cls-28" d="M432.23,264.1l-1-3.39c-.1-.36.16-.41.53-.11l.84.72.14-.06,1.17,4.13c.1.36-.16.41-.53.1l-.51-.43A2.19,2.19,0,0,1,432.23,264.1Z"/><line class="cls-26" x1="431.87" y1="261.14" x2="432.83" y2="264.54"/><line class="cls-26" x1="432.51" y1="261.68" x2="433.06" y2="263.64"/><path class="cls-27" d="M430.57,263.44c.14.14.25.16.24.05a1.06,1.06,0,0,0-.28-.44c-.15-.14-.25-.16-.24-.05A.93.93,0,0,0,430.57,263.44Z"/><path class="cls-28" d="M429,261.11l-1-3.66c-.09-.3.13-.34.44-.08l.8.67a1.61,1.61,0,0,1,.47.68l1.26,4.49-.32-.46-1.13-.95A1.61,1.61,0,0,1,429,261.11Z"/><line class="cls-26" x1="428.55" y1="258" x2="429.51" y2="261.41"/><line class="cls-26" x1="429.19" y1="258.54" x2="429.74" y2="260.5"/><line class="cls-26" x1="429.84" y1="260.81" x2="430.06" y2="261.57"/><g class="cls-29"><polygon class="cls-30" points="422.5 256 422.96 257.39 436.99 265.39 436.53 264 422.5 256"/><polygon class="cls-31" points="421.59 254.86 421.7 255.21 435.73 263.2 435.62 262.85 421.59 254.86"/></g><path class="cls-15" d="M438.32,272.62c-2.28-1.38-8.77-5.68-9.07-5.95-.69-.6-3.09-4.87-3.18-6.73,0-.28,0-.62.28-.71s.47.12.64.31c.73.83,2.83,4,2.89,4,1.83.14,3.6-2.65,9.29.47"/><line class="cls-22" x1="507.73" y1="265.7" x2="513.22" y2="260.2"/><path class="cls-15" d="M484.75,203.55c-1.78,5.07-2.6,19.26,1.1,21.47s9.08-1.1,10.76-2.68c2.46-2.32,7.82-12.71,4.6-16.62S487.24,196.43,484.75,203.55Z"/><path class="cls-15" d="M491.48,222.49l1.61,10.69s-3.31,4.58-1.14,6c3.26,2.13,12.23-6.29,12.23-6.29l-4.74-15.69"/><path d="M503.85,206.72c-.53-5.07-6.35-8.95-11.78-8.77-3.78-1-13.26,1.8-10.56,11.3,0,0,9.42,1.15,12.5-2.79.05,9,7.63,10.93,7.63,10.93A18.13,18.13,0,0,0,503.85,206.72Z"/><path d="M490.79,198.07c2.65-2.77,6.78-2.55,10.07-1.18,3.55,1.49,3.5,4,5.75,7,1.89,2.56,6.5,5.87,9.22,7.57,1.22.77,2.53,1.39,3.69,2.25a11.15,11.15,0,0,1,4.45,8.72c0,1.68-.34,3.4.14,5,.81,2.69,3.65,4.14,5.46,6.28a8.87,8.87,0,0,1,2,7c-.45,2.92-2.44,5.39-4.71,7.27a20.67,20.67,0,0,1-14,4.9,16.4,16.4,0,0,1-12.79-7c-1.12-1.71-1.88-3.89-1.13-5.8.43-1.1,1.34-2,1.54-3.18.39-2.26-1.9-4-3-6a8.2,8.2,0,0,1-.36-6.16c.57-1.91,2.37-3.85,2.43-5.8a7.93,7.93,0,0,0-2.33-5"/><path class="cls-15" d="M497.12,215.6c0-.2.24-.31.42-.41a2.83,2.83,0,0,1,2.61-.38A1.85,1.85,0,0,1,501,216a4.59,4.59,0,0,1-1.26,4.56c-1.13,1-3.85,1.38-4.05-.67"/><path class="cls-22" d="M487.41,212.86s-3.09,4.15-2.38,5,2.4.61,2.4.61"/><path d="M490.59,213.08a4.29,4.29,0,0,0,0,1,.6.6,0,0,0,.91.44c.71-.37.34-2.19-.56-1.94A.56.56,0,0,0,490.59,213.08Z"/><path d="M484,212.29a4.21,4.21,0,0,0,0,1,.59.59,0,0,0,.91.44c.71-.37.34-2.19-.57-1.93A.55.55,0,0,0,484,212.29Z"/><path class="cls-32" d="M489.06,211.06s1.84-1.8,4.33.52"/><path class="cls-32" d="M483.94,210.57a1.83,1.83,0,0,1,2.68.2"/><path class="cls-10" d="M485.87,220.57,491,220s-1.24,2.89-3.7,2.6C486.08,222.42,485.87,220.57,485.87,220.57Z"/><path class="cls-22" d="M492,225.57a8.62,8.62,0,0,0,5.11-3.35"/><path class="cls-5" d="M491.13,197.74s3.2,5.06,15.48,6.15c-.37-2.26-.88-5.71-5.89-7.51C494.3,194.06,491.13,197.74,491.13,197.74Z"/><path class="cls-5" d="M500.34,197.15l-.17-.05a.52.52,0,0,1-.22-.68l.68-1.32a.51.51,0,0,1,.68-.21.49.49,0,0,1,.21.67l-.68,1.32A.5.5,0,0,1,500.34,197.15Z"/><path class="cls-9" d="M341.72,442.82,194.83,476.74a9.7,9.7,0,0,1-11.63-7.27L118.89,190.93a9.71,9.71,0,0,1,7.27-11.64l146.89-33.91a9.71,9.71,0,0,1,11.64,7.27L349,431.19A9.7,9.7,0,0,1,341.72,442.82Z"/><path class="cls-8" d="M183.77,444.07a.76.76,0,0,1-.73-.58l-55.2-239.1a.75.75,0,0,1,.56-.9l153.25-35.38.17,0a.76.76,0,0,1,.73.58l55.2,239.1a.77.77,0,0,1-.1.57.78.78,0,0,1-.46.33L183.94,444.05Z"/><path class="cls-10" d="M281.82,168.84,337,407.94,183.77,443.32l-55.2-239.1,153.25-35.38m0-1.5a1.32,1.32,0,0,0-.34,0L128.23,202.76a1.5,1.5,0,0,0-1.12,1.8l55.2,239.1a1.51,1.51,0,0,0,.67.93,1.48,1.48,0,0,0,.79.23,1.32,1.32,0,0,0,.34,0L337.36,409.4a1.5,1.5,0,0,0,1.12-1.8l-55.2-239.1a1.5,1.5,0,0,0-1.46-1.16Z"/><path class="cls-11" d="M269.72,439.59a5.95,5.95,0,1,1-7.13-4.46A5.95,5.95,0,0,1,269.72,439.59Z"/><line class="cls-12" x1="188.74" y1="178.76" x2="216.57" y2="172.33"/><line class="cls-12" x1="178.44" y1="181.14" x2="183.57" y2="179.95"/><path class="cls-13" d="M254.69,237.74,150.51,261.8l7.06-9.59-3.43-14.86a23,23,0,0,1,17.23-27.58l73-16.85a23,23,0,0,1,27.59,17.24h0A23,23,0,0,1,254.69,237.74Z"/><line class="cls-14" x1="170.46" y1="221.61" x2="252.74" y2="202.62"/><line class="cls-14" x1="240.64" y1="213.39" x2="254.49" y2="210.2"/><line class="cls-14" x1="172.21" y1="229.19" x2="229.4" y2="215.99"/><line class="cls-14" x1="173.96" y1="236.77" x2="256.24" y2="217.77"/><line class="cls-14" x1="175.71" y1="244.35" x2="215.66" y2="235.13"/><path class="cls-13" d="M295.1,398.25,190.92,422.3l7.06-9.59-3.43-14.85a23,23,0,0,1,17.23-27.59l73-16.84a23,23,0,0,1,27.58,17.23h0A23,23,0,0,1,295.1,398.25Z"/><line class="cls-14" x1="210.87" y1="382.11" x2="293.15" y2="363.12"/><line class="cls-14" x1="281.05" y1="373.89" x2="294.9" y2="370.7"/><line class="cls-14" x1="212.62" y1="389.69" x2="269.81" y2="376.49"/><line class="cls-14" x1="214.37" y1="397.27" x2="296.65" y2="378.28"/><line class="cls-14" x1="216.12" y1="404.85" x2="256.07" y2="395.63"/><path class="cls-13" d="M202.64,342.16,306.82,318.1l-10.55-5.52-3.43-14.85a23,23,0,0,0-27.58-17.24l-73,16.85a23,23,0,0,0-17.24,27.58h0A23,23,0,0,0,202.64,342.16Z"/><line class="cls-14" x1="271.27" y1="290.73" x2="188.99" y2="309.73"/><line class="cls-14" x1="204.59" y1="314.11" x2="190.74" y2="317.31"/><line class="cls-14" x1="273.02" y1="298.31" x2="215.83" y2="311.52"/><line class="cls-14" x1="274.77" y1="305.89" x2="192.49" y2="324.89"/><line class="cls-14" x1="276.52" y1="313.47" x2="236.57" y2="322.69"/><path class="cls-33" d="M260.07,306.54c-2.58,33.5-14.4,77.92-24.4,90.59-8.7,11-54.67,34.2-54.67,34.2l-7.55-32.72,29.21-20.48,8.51-47.29s-5-18.71.5-31.57"/><polyline class="cls-34" points="175.29 406.58 211.51 381.76 220.72 318.77"/><path class="cls-10" d="M292.15,498.56v-2.34h30.47a4.2,4.2,0,0,0,3.61-2l.26-.05v3.76a.54.54,0,0,1-.15.38l-.09.09a3.23,3.23,0,0,1-2.36,1H293A.82.82,0,0,1,292.15,498.56Z"/><path class="cls-35" d="M280.68,455.76l12.69,29.36.89,10.28h29.31a1.76,1.76,0,0,0,1.76-1.76h0A1.78,1.78,0,0,0,324.2,492l-16.9-6.77-7.94-32.6"/><path class="cls-10" d="M294.46,489.5c.29-.29-1.2-4.28-1.2-4.28l-2.89-6.77L305,475l2.49,9.84Z"/><path class="cls-19" d="M307.18,483.47,325.24,492a2.21,2.21,0,0,1,1.25,2.06h0a2.42,2.42,0,0,1-2.33,2.21h-32l.94-11.39S299,488.09,307.18,483.47Z"/><path class="cls-36" d="M310.92,484.8a21.88,21.88,0,0,0-2.6,4.3"/><path class="cls-36" d="M313.21,486.18a19,19,0,0,0-2.14,3.67"/><path class="cls-36" d="M315.14,487.2a25.9,25.9,0,0,0-1.93,3.36"/><path class="cls-37" d="M248.24,321s31.63,52.66,36.13,65.16,20.37,76.5,20.37,76.5l-35.81,5s-16.49-66.44-19.47-70.88c-5.18-7.7-30.8-38.13-30.8-38.13S195.54,341,197.5,312.13"/><path class="cls-34" d="M276.64,466l-17.9-70.08-35.25-43s-15.87-11.93-19.7-29.7"/><path class="cls-34" d="M206.32,331h8.82a8.52,8.52,0,0,0,7.81-5.12l3-6.74"/><path class="cls-35" d="M311.11,268.84l-3.2-10.16s14.24-12.44,14.86-11.94c1.27,1-4.71,6.37-4.71,6.37s7.29-5.24,7.56-4.51c.49,1.31-5.87,7.24-5.87,7.24s6.79-5.41,7-4.35-8.25,10.5-8.25,10.5Z"/><path class="cls-35" d="M306.27,258.75l2.47-1.77a40.74,40.74,0,0,1,5.09-6.37c2.59-2.45,3.52-3.15,4.07-2.86s-1.8,4.31-1.8,4.31-1.1,4.5-3.82,6.4"/><path class="cls-23" d="M314.29,262.67l-2.94-5.78a.72.72,0,0,1,.19-.83l12.92-13.5.41.21a.59.59,0,0,1,.26.21l3.38,6a.71.71,0,0,1-.19.82l-12.67,13a.76.76,0,0,1-.64.25Z"/><path class="cls-24" d="M314.17,262.54l-3.34-5.93a.71.71,0,0,1,.19-.82l12.74-13c.28-.29.7-.3.85,0l3.38,6a.71.71,0,0,1-.19.83l-12.67,13C314.82,262.82,314.34,262.84,314.17,262.54Z"/><polygon class="cls-25" points="311.93 254.86 315.83 261.78 326.93 250.42 323.02 243.5 311.93 254.86"/><path class="cls-25" d="M313.25,258.84c-.15.19-.36.24-.47.13a.46.46,0,0,1,.06-.55c.15-.19.36-.25.47-.13A.46.46,0,0,1,313.25,258.84Z"/><line class="cls-26" x1="325.26" y1="245.52" x2="325.93" y2="246.75"/><path class="cls-27" d="M320.75,247.22c-.13.18-.33.23-.44.12a.42.42,0,0,1,.06-.52c.13-.18.33-.23.44-.12A.42.42,0,0,1,320.75,247.22Z"/><path class="cls-28" d="M325.06,250.49,323,246.84c-.22-.39-.84-.37-1.25,0l-.92,1-.37,0,2.52,4.44c.22.39.84.37,1.24,0l.57-.57A1,1,0,0,0,325.06,250.49Z"/><line class="cls-26" x1="322.23" y1="247.43" x2="324.3" y2="251.1"/><line class="cls-26" x1="321.53" y1="248.16" x2="322.72" y2="250.26"/><path class="cls-27" d="M313.74,254.15c-.14.18-.33.23-.44.12a.42.42,0,0,1,.06-.52c.13-.17.33-.23.44-.12A.43.43,0,0,1,313.74,254.15Z"/><path class="cls-28" d="M318,257.42,316,253.77c-.22-.39-.84-.37-1.25,0l-.92,1-.37,0,2.52,4.44c.22.39.84.37,1.24,0l.57-.58A1,1,0,0,0,318,257.42Z"/><line class="cls-26" x1="315.22" y1="254.37" x2="317.29" y2="258.03"/><line class="cls-26" x1="314.52" y1="255.09" x2="315.71" y2="257.2"/><path class="cls-27" d="M320.77,256.29c-.13.18-.33.23-.44.12a.42.42,0,0,1,.06-.52c.13-.18.33-.23.44-.12A.42.42,0,0,1,320.77,256.29Z"/><path class="cls-28" d="M321.4,253.51l-2.23-3.94c-.18-.33-.7-.31-1,0l-.88.9a.72.72,0,0,0-.18.82l2.75,4.82.14-.55,1.25-1.27A.72.72,0,0,0,321.4,253.51Z"/><line class="cls-26" x1="318.48" y1="250.3" x2="320.55" y2="253.97"/><line class="cls-26" x1="317.78" y1="251.02" x2="318.97" y2="253.13"/><line class="cls-26" x1="319.13" y1="253.46" x2="319.59" y2="254.28"/><g class="cls-38"><polygon class="cls-39" points="328.91 246.59 329.61 248.1 309.48 260.06 308.78 258.55 328.91 246.59"/><polygon class="cls-40" points="329.46 245.19 329.63 245.56 309.51 257.52 309.33 257.14 329.46 245.19"/></g><path class="cls-35" d="M277.75,258.37l5.49,13.48L308.74,257s6.78,6.66,5.9,10.54c-12.88,11.3-30.28,31.36-41.67,26.28-9.75-4.36-19.74-34.77-19.74-34.77"/><path class="cls-41" d="M283.24,271.85A51.15,51.15,0,0,0,273,279.3"/><path class="cls-35" d="M312.05,269.75s9.16-7.84,10.63-9.47,5.43-6.17,4.6-6.6-5.35,3.55-6,4.27c-2.12,0-6.64,1.72-8.09,4.62"/><path class="cls-19" d="M258.41,222.61s14.83,5,23.56,42.84c-4.4,4-23.81,10.05-28.49,8.85-3.34-8.65-3.64-28.86-3.64-28.86"/><path class="cls-19" d="M263.22,234.63s6.39,10.77,2.67,40.39-6.76,45.34-6.76,45.34-28,13.85-64,0c.69-19.72,5.39-63.21,20-81.72,15.9-20.1,28.81-19.28,28.81-19.28l15.22,4.37Z"/><path class="cls-18" d="M266.26,271.85s3.4-18.51-.78-30.48"/><path class="cls-35" d="M202.66,235.2s-18,29.43-23.09,41.58c-6.58,15.59-5.47,59.32-5.47,59.32l7.88,1.61,15.52-53.78,23.22-30.64"/><path class="cls-19" d="M244,219.36s-25.28-2.94-37.69,9.47c-12.15,12.15-19.92,29.4-19.92,29.4s16,18.88,36,16.59l14.22-35.56"/><path class="cls-18" d="M186.4,258.23s16,18.88,36,16.59l14.22-35.56"/><path class="cls-35" d="M183.83,330.14c-.23,2.92.33,8.9.09,11.82-.13,1.73-.53,4.73-1.17,4.81-1.64.21-.27-4.64-1.11-4.53-.51.06-.7,3.8-.81,5.72-.1,1.71-.42,4-1.31,4.16-1.14.22-.53-9.36-.53-9.36s-1,10-2,10.16c-1.4.17-.42-9.92-.42-9.92s-1,8.53-2,8.66-.19-6.11-.21-8.72c-.35,1.84-.85,6.75-1.6,6.85s-.8-3.61-.73-4.52c.46-5.49,2.27-16.21,2.27-16.21"/><path class="cls-35" d="M260.77,211.12l-8.21-14.24-6.44,11.36.43,2.62-2.54,8.5c2.54,7.53,13,8.38,15.22,4.37l1.54-12.61"/><path class="cls-35" d="M268,192c1.34,5.06,1.7,22.27-2.37,24.09s-12.28.08-14.68-3c-2.08-2.67-4-17-.3-20.47S266.13,184.91,268,192Z"/><path class="cls-42" d="M256.62,195.93c.63-1.12,1.22-2.26,1.77-3.43L270.91,196a.75.75,0,0,0,.55,0,.66.66,0,0,0,.27-.34,7.43,7.43,0,0,0,.23-4.71,12.18,12.18,0,0,0-2.87-5.88,10.51,10.51,0,0,0-8-3.1,13.92,13.92,0,0,0-8.08,3.19,2,2,0,0,1-.63.39,2.16,2.16,0,0,1-.67,0c-3.73-.15-7.71,3.1-8.77,6.58-.6,2-1.34,5.25.27,7.62.76,1.12,3,9.18,3,9.18s2.57-1.84,2.85-2.07a12.24,12.24,0,0,0,2.36-3c.7-1.13,1.41-2.19,2.21-3.29A51.85,51.85,0,0,0,256.62,195.93Z"/><path class="cls-35" d="M253.06,202.76c-.49-.9-1.14-1.92-2.09-2a1.73,1.73,0,0,0-1.31.52,4.87,4.87,0,0,0,0,6.82c.8.73,1.91,1.06,2.65.05l1-4.76A.83.83,0,0,0,253.06,202.76Z"/><path class="cls-41" d="M260.07,217.08s-6.58-.24-9.33-4.31"/><path class="cls-41" d="M264.92,200.7s2.28,4.76,1.35,5.94-3,.24-3,.24"/><path class="cls-43" d="M261.37,200.14a4.19,4.19,0,0,1,.1,1,.65.65,0,0,1-.9.58c-.79-.26-.64-2.12.34-2A.56.56,0,0,1,261.37,200.14Z"/><path class="cls-43" d="M267.92,200.14a4.19,4.19,0,0,1,.1,1,.64.64,0,0,1-.89.58c-.79-.26-.65-2.12.33-2A.55.55,0,0,1,267.92,200.14Z"/><path class="cls-10" d="M265.89,210.07l-6.75-1.93s-.27,5.15,3.82,5.91C265.44,214.52,265.89,210.07,265.89,210.07Z"/><path class="cls-43" d="M261.9,197.65a10.15,10.15,0,0,0-3.84.81,1.08,1.08,0,0,1-.27-1.05,7.6,7.6,0,0,1,4-.95S262.15,197.48,261.9,197.65Z"/><path class="cls-43" d="M265.52,197.58a5.05,5.05,0,0,1,2.62.76,1.22,1.22,0,0,0,.26-.92,3.64,3.64,0,0,0-2.72-.9S265.37,197.42,265.52,197.58Z"/><path class="cls-41" d="M248.8,207.07s1.34,2,3.13,1.43"/><path class="cls-5" d="M188.18,411.22a12.53,12.53,0,0,1,22.65,7.31A12.55,12.55,0,1,1,223.14,440l-26.81,9.81L186.52,423A12.53,12.53,0,0,1,188.18,411.22Z"/><path class="cls-6" d="M200.72,440.32s11.34-18.86,30.54-9.07"/><path class="cls-6" d="M206.19,434c-.65-14.42-14.73-16.78-20.5-13.61"/><path class="cls-6" d="M216.18,428.76c.18-3.16-5.88-10.78-13.91-5"/><path class="cls-6" d="M227,429.45s-1.35-11.8-16.12-7.28"/><path class="cls-6" d="M192,419c2.85-11.46,19.77-11,18.39,3"/><path d="M193.41,441.32a1.38,1.38,0,0,1,1.17-.16,3.4,3.4,0,0,1,2.28,2.29,4.83,4.83,0,0,1,.46-2,1.73,1.73,0,0,1,2.92-.49c.67.91.75,2.38.88,3.74a.77.77,0,0,0,.06.28c.13.21.41.11.65,0a2.65,2.65,0,0,1,3.6,1.94,1.42,1.42,0,0,1,0,.77,1.67,1.67,0,0,1-1.13,1c-2.55.92-8.05,3.33-8.05,3.33s-2.53-4.75-3.37-7.09a4.38,4.38,0,0,1-.35-1.8A2.52,2.52,0,0,1,193.41,441.32Z"/><path class="cls-7" d="M186.85,499.38s-.26-28.72,11.58-52.39"/><path d="M208.58,456.87a33,33,0,0,0-10.12-.84c-3.29.42-6.11,3-4.73,5.65C196.47,465.59,204.82,462.27,208.58,456.87Z"/><path d="M182.85,448.44a32.8,32.8,0,0,0,3.18,9.64c1.67,2.87,5.15,4.46,7.05,2.15C195.61,456.19,189.29,449.79,182.85,448.44Z"/><path class="cls-5" d="M573.7,410.23a13.91,13.91,0,0,0-25.64,6.36,13.92,13.92,0,1,0-15.27,22.79l28.93,12.91,12.91-28.92A14,14,0,0,0,573.7,410.23Z"/><path class="cls-6" d="M559.81,446.87s-9.63-29.17-35.33-17.77"/><path class="cls-6" d="M552,434c1.82-15.91,17.58-17.44,23.73-13.5"/><path class="cls-6" d="M541.35,427.5c0-3.51,7.34-11.49,15.79-4.49"/><path class="cls-6" d="M529.28,427.43s2.4-12.95,18.4-6.82"/><path class="cls-6" d="M568.82,418.58c-2.27-12.91-21-13.7-20.58,1.91"/><path d="M566,444.39a1.47,1.47,0,0,0-1.29-.16,3.75,3.75,0,0,0-2.5,2.58,5.53,5.53,0,0,0-.54-2.21,1.92,1.92,0,0,0-3.25-.49c-.73,1-.79,2.65-.91,4.16a.74.74,0,0,1-.07.31c-.13.24-.45.13-.71,0a3,3,0,0,0-4,2.22,1.53,1.53,0,0,0,0,.85,1.82,1.82,0,0,0,1.27,1.09c2.84,1,9,3.56,9,3.56s2.72-5.32,3.61-7.93a5,5,0,0,0,.36-2A2.78,2.78,0,0,0,566,444.39Z"/><path class="cls-7" d="M574.68,499.38s-2.49-25.74-14.13-48.64"/><path d="M579,447.44a45.27,45.27,0,0,0-10.71,8.9c-2.82,3.56-3.11,8.8.79,10.07C575.51,467.61,580.51,456.34,579,447.44Z"/><path d="M545.71,463.88a45.13,45.13,0,0,0,12.37,6.39c4.38,1.21,9.31-.58,9-4.66C565.64,459.22,553.31,459,545.71,463.88Z"/><path class="cls-5" d="M589.36,427.83a9.47,9.47,0,0,1,17.33,4.78,9.47,9.47,0,1,1,10,15.78l-19.91,8.27-8.26-19.92A9.47,9.47,0,0,1,589.36,427.83Z"/><path class="cls-6" d="M599.76,449.37s8-14.59,22.75-7.82"/><path class="cls-6" d="M603.68,444.42c-.95-10.86-11.65-12.19-15.9-9.62"/><path class="cls-6" d="M611.05,440.15c0-2.38-4.78-7.94-10.65-3.33"/><path class="cls-6" d="M619.27,440.32s-1.4-8.85-12.4-5"/><path class="cls-6" d="M592.53,433.59c1.77-8.74,14.56-8.94,14,1.67"/><path d="M594.28,450.37a1,1,0,0,1,.87-.16,2.57,2.57,0,0,1,1.8,1.65,3.84,3.84,0,0,1,.28-1.53,1.3,1.3,0,0,1,2.19-.45,6,6,0,0,1,.78,2.79.51.51,0,0,0,.06.21c.1.15.31.06.48,0a2,2,0,0,1,2.78,1.35,1,1,0,0,1,.05.58,1.21,1.21,0,0,1-.82.78c-1.89.78-6,2.78-6,2.78a56.94,56.94,0,0,1-2.77-5.24,3.44,3.44,0,0,1-.33-1.35A1.85,1.85,0,0,1,594.28,450.37Z"/><path class="cls-7" d="M585.33,499.38s.5-26.29,12.6-43"/><path d="M581.19,461.33a30.64,30.64,0,0,1,7.64,5.62c2,2.31,2.46,5.85-.14,6.87C584.37,474.89,580.52,467.43,581.19,461.33Z"/><path d="M604.47,471.17a30.7,30.7,0,0,1-8.16,4.84c-2.93,1-6.35,0-6.27-2.81C590.74,468.8,599.11,468.18,604.47,471.17Z"/><path class="cls-10" d="M347.44,210.36H280.62l5.88-5V195.4a15,15,0,0,1,15-15h46a15,15,0,0,1,15,15h0A15,15,0,0,1,347.44,210.36Z"/><path class="cls-9" d="M400.59,296.72H333.77l5.88-5v-9.92a15,15,0,0,1,15-15h46a15,15,0,0,1,15,15h0A15,15,0,0,1,400.59,296.72Z"/><line class="cls-44" x1="106.37" y1="361.16" x2="122.95" y2="361.16"/><line class="cls-44" x1="127.61" y1="361.16" x2="134.9" y2="361.16"/><line class="cls-44" x1="415.68" y1="195.61" x2="432.26" y2="195.61"/><line class="cls-44" x1="436.92" y1="195.61" x2="444.21" y2="195.61"/><line class="cls-44" x1="432.71" y1="422.89" x2="432.71" y2="427.51"/><line class="cls-44" x1="435.03" y1="425.2" x2="430.4" y2="425.2"/><line class="cls-44" x1="552.67" y1="352.75" x2="552.67" y2="357.38"/><line class="cls-44" x1="554.98" y1="355.07" x2="550.35" y2="355.07"/><line class="cls-44" x1="428.88" y1="285.17" x2="428.88" y2="289.79"/><line class="cls-44" x1="431.19" y1="287.48" x2="426.57" y2="287.48"/><line class="cls-44" x1="166.04" y1="272.14" x2="166.04" y2="276.76"/><line class="cls-44" x1="168.35" y1="274.45" x2="163.73" y2="274.45"/><line class="cls-44" x1="403.49" y1="173.23" x2="403.49" y2="177.86"/><line class="cls-44" x1="405.8" y1="175.55" x2="401.17" y2="175.55"/><line class="cls-44" x1="514.81" y1="132.01" x2="514.81" y2="136.63"/><line class="cls-44" x1="517.12" y1="134.32" x2="512.5" y2="134.32"/><line class="cls-44" x1="632.15" y1="316.82" x2="632.15" y2="321.45"/><line class="cls-44" x1="634.46" y1="319.14" x2="629.83" y2="319.14"/><circle class="cls-44" cx="344.48" cy="234.45" r="2.21"/><path class="cls-44" d="M433.09,159.36a2.21,2.21,0,1,1-2.21-2.21A2.21,2.21,0,0,1,433.09,159.36Z"/><path class="cls-44" d="M227.25,134.32a2.21,2.21,0,1,1-2.21-2.21A2.21,2.21,0,0,1,227.25,134.32Z"/><circle class="cls-44" cx="583.52" cy="285.27" r="2.21"/><path class="cls-44" d="M622.53,383.09a2.21,2.21,0,1,1-2.2-2.21A2.2,2.2,0,0,1,622.53,383.09Z"/><path class="cls-44" d="M107.16,435a2.21,2.21,0,1,1-2.21-2.21A2.21,2.21,0,0,1,107.16,435Z"/><circle class="cls-44" cx="317.13" cy="392.97" r="2.21"/><circle class="cls-44" cx="147.21" cy="247.03" r="2.21"/><line class="cls-44" x1="349.79" y1="283.95" x2="385.84" y2="283.95"/><line class="cls-44" x1="613.42" y1="414.48" x2="631.65" y2="414.48"/><path class="cls-5" d="M594.13,238.6a6.75,6.75,0,0,0-12.76-1.8,6.75,6.75,0,1,0-10.87,7.68l9.63,9.63a1.76,1.76,0,0,0,2.48,0l9.63-9.63A6.76,6.76,0,0,0,594.13,238.6Z"/><line class="cls-44" x1="581.37" y1="220" x2="581.37" y2="223.79"/><line class="cls-44" x1="581.37" y1="260.67" x2="581.37" y2="264.46"/><line class="cls-44" x1="603.6" y1="242.23" x2="599.81" y2="242.23"/><line class="cls-44" x1="562.93" y1="242.23" x2="559.14" y2="242.23"/><line class="cls-44" x1="565.65" y1="226.51" x2="568.33" y2="229.19"/><line class="cls-44" x1="594.41" y1="255.27" x2="597.09" y2="257.95"/><line class="cls-44" x1="597.09" y1="226.51" x2="594.41" y2="229.19"/><line class="cls-44" x1="568.33" y1="255.27" x2="565.65" y2="257.95"/><line class="cls-44" x1="572.86" y1="221.69" x2="574.31" y2="225.19"/><line class="cls-44" x1="588.43" y1="259.27" x2="589.88" y2="262.77"/><line class="cls-44" x1="601.91" y1="233.72" x2="598.41" y2="235.17"/><line class="cls-44" x1="564.33" y1="249.29" x2="560.83" y2="250.74"/><line class="cls-44" x1="560.83" y1="233.72" x2="564.33" y2="235.17"/><line class="cls-44" x1="598.41" y1="249.29" x2="601.91" y2="250.74"/><line class="cls-44" x1="589.88" y1="221.69" x2="588.43" y2="225.19"/><line class="cls-44" x1="574.31" y1="259.27" x2="572.86" y2="262.77"/><path class="cls-5" d="M129.07,294.69a6.75,6.75,0,0,0-12.77-1.81,6.75,6.75,0,1,0-10.86,7.68l9.63,9.63a1.73,1.73,0,0,0,2.47,0l9.63-9.63A6.75,6.75,0,0,0,129.07,294.69Z"/><line class="cls-44" x1="116.3" y1="276.08" x2="116.3" y2="279.87"/><line class="cls-44" x1="116.3" y1="316.75" x2="116.3" y2="320.54"/><line class="cls-44" x1="138.54" y1="298.31" x2="134.75" y2="298.31"/><line class="cls-44" x1="97.86" y1="298.31" x2="94.07" y2="298.31"/><line class="cls-44" x1="100.58" y1="282.59" x2="103.26" y2="285.27"/><line class="cls-44" x1="129.34" y1="311.35" x2="132.02" y2="314.03"/><line class="cls-44" x1="132.02" y1="282.59" x2="129.34" y2="285.27"/><line class="cls-44" x1="103.26" y1="311.35" x2="100.58" y2="314.03"/><line class="cls-44" x1="107.8" y1="277.77" x2="109.25" y2="281.28"/><line class="cls-44" x1="123.36" y1="315.35" x2="124.81" y2="318.85"/><line class="cls-44" x1="136.84" y1="289.81" x2="133.34" y2="291.26"/><line class="cls-44" x1="99.27" y1="305.37" x2="95.77" y2="306.82"/><line class="cls-44" x1="95.77" y1="289.81" x2="99.27" y2="291.26"/><line class="cls-44" x1="133.34" y1="305.37" x2="136.84" y2="306.82"/><line class="cls-44" x1="124.81" y1="277.77" x2="123.36" y2="281.28"/><line class="cls-44" x1="109.25" y1="315.35" x2="107.8" y2="318.85"/><path class="cls-5" d="M366.42,137.65a8.79,8.79,0,0,0-16.63-2.35,8.79,8.79,0,1,0-14.15,10l12.54,12.55a2.29,2.29,0,0,0,3.23,0L364,145.3A8.8,8.8,0,0,0,366.42,137.65Z"/><line class="cls-44" x1="349.79" y1="113.41" x2="349.79" y2="118.35"/><line class="cls-44" x1="349.79" y1="166.4" x2="349.79" y2="171.33"/><line class="cls-44" x1="378.75" y1="142.37" x2="373.82" y2="142.37"/><line class="cls-44" x1="325.77" y1="142.37" x2="320.84" y2="142.37"/><line class="cls-44" x1="329.32" y1="121.9" x2="332.81" y2="125.39"/><line class="cls-44" x1="366.78" y1="159.36" x2="370.27" y2="162.85"/><line class="cls-44" x1="370.27" y1="121.9" x2="366.78" y2="125.39"/><line class="cls-44" x1="332.81" y1="159.36" x2="329.32" y2="162.85"/><line class="cls-44" x1="338.71" y1="115.62" x2="340.6" y2="120.18"/><line class="cls-44" x1="358.99" y1="164.57" x2="360.88" y2="169.13"/><line class="cls-44" x1="376.55" y1="131.29" x2="371.99" y2="133.18"/><line class="cls-44" x1="327.6" y1="151.57" x2="323.04" y2="153.46"/><line class="cls-44" x1="323.04" y1="131.29" x2="327.6" y2="133.18"/><line class="cls-44" x1="371.99" y1="151.57" x2="376.55" y2="153.46"/><line class="cls-44" x1="360.88" y1="115.62" x2="358.99" y2="120.18"/><line class="cls-44" x1="340.6" y1="164.57" x2="338.71" y2="169.13"/><circle class="cls-8" cx="301.14" cy="195.4" r="9.83" transform="translate(-53.09 137.19) rotate(-23.65)"/><path class="cls-5" d="M311.94,199.16a1.63,1.63,0,0,0-.56-1.78,2.12,2.12,0,0,1-3.08-1.58,1.63,1.63,0,0,0-1.77.58,1.6,1.6,0,0,0-.24,1.45l1,3.09a.42.42,0,0,0,.53.27l3.09-1A1.63,1.63,0,0,0,311.94,199.16Z"/><path class="cls-10" d="M298.64,195.4c0,.83-.4,1.5-.91,1.5s-.9-.67-.9-1.5.4-1.5.9-1.5S298.64,194.57,298.64,195.4Z"/><path class="cls-10" d="M295.35,193a.42.42,0,0,1-.15,0,.34.34,0,0,1-.16-.45,4,4,0,0,1,3.6-2.13.34.34,0,1,1,0,.68,3.34,3.34,0,0,0-3,1.74A.35.35,0,0,1,295.35,193Z"/><path class="cls-10" d="M307.4,193.56a.34.34,0,0,1-.26-.12,3.31,3.31,0,0,0-3.34-.87.35.35,0,0,1-.18-.67,4,4,0,0,1,4,1.09.34.34,0,0,1-.26.57Z"/><path class="cls-10" d="M303.84,195.74a.31.31,0,0,1-.21-.07.35.35,0,0,1-.07-.48,2.32,2.32,0,0,1,3.19-.52.34.34,0,0,1,.1.48.34.34,0,0,1-.47.1,1.64,1.64,0,0,0-2.27.35A.35.35,0,0,1,303.84,195.74Z"/><path class="cls-10" d="M301.52,202.11a.37.37,0,0,1-.27-.13.34.34,0,0,1,.06-.48l1-.8-.63-.27a.33.33,0,0,1-.21-.25.36.36,0,0,1,.1-.31l.64-.62-1.19-.46a.34.34,0,0,1-.2-.44.35.35,0,0,1,.45-.2l1.68.65a.37.37,0,0,1,.22.25.36.36,0,0,1-.1.31l-.65.64.69.3a.33.33,0,0,1,.2.27.33.33,0,0,1-.12.31L301.74,202A.32.32,0,0,1,301.52,202.11Z"/><circle class="cls-8" cx="324.27" cy="195.4" r="9.83" transform="translate(-49.95 138.04) rotate(-22.36)"/><path class="cls-5" d="M335.06,199.16a1.63,1.63,0,0,0-.56-1.78,2.12,2.12,0,0,1-3.08-1.58,1.61,1.61,0,0,0-2,2l1,3.09a.41.41,0,0,0,.52.27l3.09-1A1.59,1.59,0,0,0,335.06,199.16Z"/><path class="cls-10" d="M321.77,195.4c0,.83-.41,1.5-.91,1.5s-.91-.67-.91-1.5.41-1.5.91-1.5S321.77,194.57,321.77,195.4Z"/><path class="cls-10" d="M318.47,193a.33.33,0,0,1-.14,0,.33.33,0,0,1-.17-.45,4,4,0,0,1,3.61-2.13.34.34,0,1,1,0,.68,3.34,3.34,0,0,0-3,1.74A.35.35,0,0,1,318.47,193Z"/><path class="cls-10" d="M330.52,193.56a.35.35,0,0,1-.26-.12,3.31,3.31,0,0,0-3.34-.87.34.34,0,0,1-.42-.24.35.35,0,0,1,.24-.43,4,4,0,0,1,4,1.09.35.35,0,0,1,0,.49A.4.4,0,0,1,330.52,193.56Z"/><path class="cls-10" d="M327,195.74a.31.31,0,0,1-.2-.07.34.34,0,0,1-.08-.48,2.33,2.33,0,0,1,3.2-.52.36.36,0,0,1,.1.48.35.35,0,0,1-.48.1,1.63,1.63,0,0,0-2.26.35A.35.35,0,0,1,327,195.74Z"/><path class="cls-10" d="M324.65,202.11a.34.34,0,0,1-.22-.61l1-.8-.63-.27a.32.32,0,0,1-.2-.25.33.33,0,0,1,.1-.31l.63-.62-1.19-.46a.34.34,0,1,1,.25-.64l1.69.65a.34.34,0,0,1,.11.56l-.65.64.69.3a.36.36,0,0,1,.21.27.33.33,0,0,1-.13.31L324.86,202A.29.29,0,0,1,324.65,202.11Z"/><circle class="cls-8" cx="347.39" cy="195.4" r="9.83" transform="translate(77.11 488.33) rotate(-76.66)"/><path class="cls-5" d="M358.18,199.16a7.48,7.48,0,0,1-3.63-3.36,1.62,1.62,0,0,0-1.77.58,1.6,1.6,0,0,0-.24,1.45l1,3.09a.41.41,0,0,0,.52.27l3.09-1A1.59,1.59,0,0,0,358.18,199.16Z"/><path class="cls-10" d="M344.89,195.4c0,.83-.41,1.5-.91,1.5s-.91-.67-.91-1.5.41-1.5.91-1.5S344.89,194.57,344.89,195.4Z"/><path class="cls-10" d="M341.6,193a.42.42,0,0,1-.15,0,.33.33,0,0,1-.16-.45,4,4,0,0,1,3.6-2.13.34.34,0,0,1,0,.68,3.34,3.34,0,0,0-3,1.74A.35.35,0,0,1,341.6,193Z"/><path class="cls-10" d="M353.65,193.56a.32.32,0,0,1-.26-.12,3.32,3.32,0,0,0-3.34-.87.36.36,0,0,1-.43-.24.35.35,0,0,1,.24-.43,4,4,0,0,1,4.05,1.09.36.36,0,0,1,0,.49A.35.35,0,0,1,353.65,193.56Z"/><path class="cls-10" d="M350.08,195.74a.31.31,0,0,1-.2-.07.34.34,0,0,1-.07-.48,2.32,2.32,0,0,1,3.19-.52.35.35,0,0,1,.1.48.34.34,0,0,1-.47.1,1.64,1.64,0,0,0-2.27.35A.35.35,0,0,1,350.08,195.74Z"/><path class="cls-10" d="M347.77,202.11a.37.37,0,0,1-.27-.13.34.34,0,0,1,.06-.48l1-.8-.64-.27a.34.34,0,0,1-.2-.25.36.36,0,0,1,.1-.31l.64-.62-1.19-.46a.34.34,0,1,1,.24-.64l1.69.65a.33.33,0,0,1,.21.25.33.33,0,0,1-.09.31l-.65.64.69.3a.33.33,0,0,1,.2.27.31.31,0,0,1-.13.31L348,202A.28.28,0,0,1,347.77,202.11Z"/><path class="cls-10" d="M380.63,242h66.82l-5.88-5V227a15,15,0,0,0-15-15h-46a15,15,0,0,0-15,15h0A15,15,0,0,0,380.63,242Z"/><path class="cls-5" d="M416.83,223.57a4.48,4.48,0,0,1,8.48-1.2,4.49,4.49,0,1,1,7.23,5.11l-6.4,6.4a1.18,1.18,0,0,1-1.65,0l-6.4-6.4A4.5,4.5,0,0,1,416.83,223.57Z"/><path class="cls-5" d="M395,223.57a4.49,4.49,0,0,1,8.49-1.2,4.49,4.49,0,1,1,7.22,5.11l-6.4,6.4a1.18,1.18,0,0,1-1.65,0l-6.4-6.4A4.5,4.5,0,0,1,395,223.57Z"/><path class="cls-5" d="M373.18,223.57a4.48,4.48,0,0,1,8.48-1.2,4.49,4.49,0,1,1,7.22,5.11l-6.4,6.4a1.16,1.16,0,0,1-1.64,0l-6.4-6.4A4.5,4.5,0,0,1,373.18,223.57Z"/><line class="cls-45" x1="73.11" y1="499.38" x2="685.3" y2="499.38"/><line class="cls-44" x1="390.23" y1="283.95" x2="402.11" y2="283.95"/><path class="cls-9" d="M403,334.87h66.82l-5.88-5V319.9a15,15,0,0,0-15-15H403a15,15,0,0,0-15,15h0A15,15,0,0,0,403,334.87Z"/><line class="cls-44" x1="400.22" y1="323.28" x2="446.3" y2="323.28"/></g></g></svg>