<?xml version="1.0" encoding="utf-8"?>
<!-- Generator: Adobe Illustrator 23.0.2, SVG Export Plug-In . SVG Version: 6.00 Build 0)  -->
<svg version="1.1" xmlns="http://www.w3.org/2000/svg" xmlns:xlink="http://www.w3.org/1999/xlink" x="0px" y="0px"
	 viewBox="0 0 500 500" style="enable-background:new 0 0 500 500;" xml:space="preserve">
<style type="text/css">
	.st0{fill:#FFFFFF;}
	.st1{fill:#EBEBFF;}
	.st2{fill:#EFE6E8;}
	.st3{fill:#35357C;}
	.st4{fill:#5F59CE;}
	.st5{opacity:0.5;fill:#47E2CC;}
	.st6{fill:#40409B;}
	.st7{fill:#6A6ADB;}
	.st8{fill:#6D63CE;}
	.st9{fill:#6B6BDD;}
	.st10{fill:url(#SVGID_1_);}
	.st11{fill:#564BBC;}
	.st12{fill:#7268D8;}
	.st13{fill:#B4A7F9;}
	.st14{fill:#F4F3FF;}
	.st15{fill:#8C7AE9;}
	.st16{opacity:0.5;fill:#E0E0E0;}
	.st17{fill:#C4306C;}
	.st18{fill:#FFA4A4;}
	.st19{fill:#D83972;}
	.st20{fill:#C62C6B;}
	.st21{fill:#BD66CC;}
	.st22{fill:#E74479;}
	.st23{opacity:0.7;fill:#E8C4BA;}
	.st24{fill:#7365DE;}
	.st25{fill:#9B48AA;}
	.st26{fill:#AF57BC;}
	.st27{fill:#F29191;}
	.st28{fill:none;stroke:#FFFFFF;stroke-miterlimit:10;}
	.st29{fill:#4949B7;}
	.st30{fill:#9B49AA;}
	.st31{fill:#EF5299;}
	.st32{fill:#2C2C6B;}
</style>
<g id="BACKGROUND">
	<rect class="st0" width="500" height="500"/>
</g>
<g id="OBJECTS">
	<g>
		<g>
			<g>
				<path class="st1" d="M207.11,88.47c0,4.75-3.85,8.61-8.61,8.61H93.01c-4.75,0-8.61-3.85-8.61-8.61l0,0
					c0-4.75,3.85-8.61,8.61-8.61h105.5C203.26,79.86,207.11,83.71,207.11,88.47L207.11,88.47z"/>
				<path class="st1" d="M242.2,143.22c0,4.75-3.85,8.61-8.61,8.61H128.1c-4.75,0-8.61-3.85-8.61-8.61l0,0
					c0-4.75,3.85-8.61,8.61-8.61h105.5C238.35,134.62,242.2,138.47,242.2,143.22L242.2,143.22z"/>
				<path class="st1" d="M185.42,171.3c0,4.75-3.85,8.61-8.61,8.61H71.31c-4.75,0-8.61-3.85-8.61-8.61l0,0
					c0-4.75,3.85-8.61,8.61-8.61h105.5C181.56,162.7,185.42,166.55,185.42,171.3L185.42,171.3z"/>
				<path class="st1" d="M206.94,200.03c0,4.75-3.85,8.61-8.61,8.61H92.83c-4.75,0-8.61-3.85-8.61-8.61l0,0
					c0-4.75,3.85-8.61,8.61-8.61h105.5C203.09,191.42,206.94,195.27,206.94,200.03L206.94,200.03z"/>
				<path class="st1" d="M112.93,115.06c0,4.75-3.85,8.61-8.61,8.61H46.04c-4.75,0-8.61-3.85-8.61-8.61l0,0
					c0-4.75,3.85-8.61,8.61-8.61h58.28C109.07,106.45,112.93,110.3,112.93,115.06L112.93,115.06z"/>
				<path class="st1" d="M202.99,115.06c0,4.75-3.85,8.61-8.61,8.61H136.1c-4.75,0-8.61-3.85-8.61-8.61l0,0
					c0-4.75,3.85-8.61,8.61-8.61h58.28C199.13,106.45,202.99,110.3,202.99,115.06L202.99,115.06z"/>
			</g>
			<g>
				<path class="st1" d="M295.04,287.5c0,4.96,4.02,8.98,8.98,8.98h110.02c4.96,0,8.98-4.02,8.98-8.98l0,0
					c0-4.96-4.02-8.98-8.98-8.98H304.02C299.06,278.52,295.04,282.54,295.04,287.5L295.04,287.5z"/>
				<path class="st1" d="M307.07,344.6c0,4.96,4.02,8.98,8.98,8.98h110.02c4.96,0,8.98-4.02,8.98-8.98l0,0
					c0-4.96-4.02-8.98-8.98-8.98H316.04C311.08,335.62,307.07,339.64,307.07,344.6L307.07,344.6z"/>
				<path class="st1" d="M317.67,373.89c0,4.96,4.02,8.98,8.98,8.98h110.02c4.96,0,8.98-4.02,8.98-8.98l0,0
					c0-4.96-4.02-8.98-8.98-8.98H326.65C321.69,364.91,317.67,368.93,317.67,373.89L317.67,373.89z"/>
				<path class="st1" d="M295.22,403.84c0,4.96,4.02,8.98,8.98,8.98h110.02c4.96,0,8.98-4.02,8.98-8.98l0,0
					c0-4.96-4.02-8.98-8.98-8.98H304.2C299.24,394.87,295.22,398.89,295.22,403.84L295.22,403.84z"/>
				<path class="st1" d="M383.83,315.23c0,4.96,4.02,8.98,8.98,8.98h60.78c4.96,0,8.98-4.02,8.98-8.98l0,0
					c0-4.96-4.02-8.98-8.98-8.98h-60.78C387.85,306.25,383.83,310.27,383.83,315.23L383.83,315.23z"/>
				<path class="st1" d="M299.35,315.23c0,4.96,4.02,8.98,8.98,8.98h60.78c4.96,0,8.98-4.02,8.98-8.98l0,0
					c0-4.96-4.02-8.98-8.98-8.98h-60.78C303.37,306.25,299.35,310.27,299.35,315.23L299.35,315.23z"/>
			</g>
		</g>
		<g>
			<ellipse class="st2" cx="250" cy="438.04" rx="180.99" ry="10.81"/>
			<g>
				<g>
					<g>
						<g>
							<path class="st3" d="M129.95,378.68c0,0,28.43-6.94,26.58-23.62c-1.85-16.68-10.42-20.88-13.25-29.91
								c-2.82-9.03,18.36-22.39,13.33-38.27c-5.03-15.88-20.96-20.15-22.58-26.05c-1.62-5.9,6.66-17.64,9.63-25.68
								c2.97-8.04-7.54-36.16-22.06-39.87c-14.53-3.71-15.76,12.98-12.36,27.81c3.4,14.83-7.11,20.92-13.29,38.58
								c-6.18,17.67,1.24,32.81,3.09,40.23c1.85,7.42-11.44,11.43-16.38,26.58c-4.94,15.14,0.93,34.3,22.87,53.77
								C127.48,401.73,129.95,378.68,129.95,378.68z"/>
						</g>
					</g>
					<g>
						<g>
							<g>
								<path class="st4" d="M125.08,384.47c0.01-0.27,1.32-27.1-6.02-44.89c-4.15-10.07,0.33-15.75,4.67-21.24
									c3.25-4.12,6.33-8,5.55-13.41c-0.79-5.56-3.47-10.07-6.06-14.43c-3.27-5.51-6.36-10.72-5.82-17.8
									c0.7-9.24,3.62-15.71,6.2-21.41c1.05-2.32,2.04-4.5,2.84-6.76c2.9-8.14-1.13-26.49-5.2-32.94l-0.85,0.53
									c3.88,6.15,7.86,24.32,5.1,32.08c-0.79,2.22-1.77,4.39-2.81,6.68c-2.61,5.78-5.58,12.33-6.29,21.75
									c-0.56,7.39,2.75,12.98,5.96,18.38c2.54,4.28,5.16,8.7,5.93,14.06c0.71,4.98-2.23,8.71-5.35,12.65
									c-4.31,5.45-9.19,11.63-4.81,22.24c7.25,17.58,5.96,44.19,5.95,44.46L125.08,384.47z"/>
							</g>
							<g>
								<polygon class="st4" points="125.52,225.06 132.26,214.59 131.41,214.05 125.14,223.8 113.06,218.43 112.65,219.34 								
									"/>
							</g>
							<g>
								<polygon class="st4" points="126.48,243.24 141.75,231.5 141.14,230.71 126.43,242.01 113.94,234.05 113.41,234.89 								
									"/>
							</g>
							<g>
								<polygon class="st4" points="117.38,269.16 130.92,260.11 130.36,259.28 117.39,267.95 104.24,258.66 103.66,259.48 
																	"/>
							</g>
							<g>
								<polygon class="st4" points="124.46,293.86 139.7,277.81 138.97,277.12 124.13,292.76 99.25,287.41 99.04,288.38 								
									"/>
							</g>
							<g>
								<polygon class="st4" points="124.57,317.66 124.73,317.61 148.27,310.05 147.97,309.1 124.59,316.6 101.82,307.89 
									101.46,308.82 								"/>
							</g>
							<g>
								<polygon class="st4" points="122.32,352.7 141.79,333.66 141.09,332.94 122.12,351.49 88.76,335.13 88.32,336.03 								
									"/>
							</g>
							<g>
								<polygon class="st4" points="124.75,379.03 150.17,360.77 149.59,359.96 124.61,377.9 98.92,367.63 98.55,368.56 								
									"/>
							</g>
						</g>
					</g>
				</g>
				<g>
					<path class="st5" d="M156.62,286.88c-3.1-9.79-10.34-15.16-15.82-19.23c0.21,1.95,0.59,3.96,1.12,5.92
						c2.77,10.38-5.79,14.63-10.83,26.99c-5.04,12.36,1.01,22.95,2.52,28.14c1.51,5.19-9.32,8-13.35,18.59
						c-3.38,8.88-0.55,19.74,10.99,31.04c5.52-1.59,26.9-8.73,25.29-23.27c-1.85-16.68-10.42-20.88-13.25-29.91
						C140.46,316.13,161.65,302.77,156.62,286.88z"/>
					<g>
						<path class="st6" d="M162.16,382.48c0,0,19.68-4.8,18.4-16.35c-1.28-11.55-7.21-14.46-9.17-20.7
							c-1.96-6.25,12.71-15.5,9.23-26.49c-3.48-10.99-14.51-13.95-15.63-18.03c-1.12-4.08,4.61-12.21,6.67-17.78
							c2.05-5.56-5.22-25.03-15.27-27.6c-10.06-2.57-10.91,8.99-8.56,19.25c2.35,10.27-4.92,14.48-9.2,26.71
							c-4.28,12.23,0.86,22.71,2.14,27.85c1.28,5.13-7.92,7.92-11.34,18.4c-3.42,10.48,0.64,23.75,15.83,37.23
							C160.45,398.44,162.16,382.48,162.16,382.48z"/>
					</g>
					<g>
						<g>
							<path class="st4" d="M157.89,384.47c0.01-0.19,0.94-19.31-4.29-31.99c-2.92-7.08,0.24-11.09,3.3-14.96
								c2.33-2.95,4.54-5.74,3.98-9.65c-0.57-3.98-2.48-7.2-4.33-10.32c-2.31-3.9-4.5-7.59-4.12-12.57
								c0.5-6.55,2.57-11.13,4.4-15.18c0.75-1.65,1.45-3.21,2.02-4.82c2.07-5.83-0.8-18.95-3.71-23.56l-0.85,0.53
								c2.74,4.35,5.56,17.2,3.61,22.69c-0.56,1.57-1.26,3.11-1.99,4.74c-1.86,4.12-3.98,8.79-4.48,15.51
								c-0.4,5.3,1.97,9.3,4.26,13.16c1.8,3.03,3.66,6.17,4.2,9.95c0.5,3.48-1.58,6.11-3.77,8.89c-3.09,3.91-6.59,8.33-3.44,15.96
								c5.15,12.47,4.23,31.37,4.22,31.56L157.89,384.47z"/>
						</g>
						<g>
							<polygon class="st4" points="158.11,271.27 162.97,263.71 162.13,263.17 157.74,270 149.26,266.23 148.85,267.15 							"/>
						</g>
						<g>
							<polygon class="st4" points="158.7,284.21 169.68,276.18 169.09,275.37 158.75,282.94 150.46,275.89 149.81,276.66 							
								"/>
						</g>
						<g>
							<polygon class="st4" points="152.26,302.62 163.48,295.7 162.96,294.85 152.29,301.42 143.01,294.87 142.43,295.68 							
								"/>
						</g>
						<g>
							<polygon class="st4" points="157.31,320.16 170.2,310.08 169.58,309.3 157.07,319.09 139.41,315.28 139.2,316.26 							"/>
						</g>
						<g>
							<polygon class="st4" points="154.15,340.89 176.86,329.51 176.41,328.62 154.3,339.69 144.09,330.81 143.43,331.57 							
								"/>
						</g>
						<g>
							<polygon class="st4" points="155.81,362.04 169.74,348.42 169.04,347.71 155.62,360.83 131.98,349.24 131.54,350.14 							
								"/>
						</g>
						<g>
							<polygon class="st4" points="157.54,380.76 175.68,367.72 175.1,366.91 157.4,379.62 139.2,372.35 138.83,373.28 							"/>
						</g>
					</g>
				</g>
				<path class="st4" d="M184.24,376.43H91.86c0,0,2.87,59.1,20.26,59.1c22.91,0,37.97,0,49.33,0
					C183.59,435.53,184.24,376.43,184.24,376.43z"/>
				<path class="st7" d="M119.21,376.43H91.86c0,0,2.87,59.1,20.26,59.1c10.69,0,19.66,0,27.35,0
					C122.08,435.53,119.21,376.43,119.21,376.43z"/>
			</g>
			<g>
				<path class="st8" d="M413.79,142.95c0,0.97-0.79,1.76-1.76,1.76h-7c-0.97,0-1.76-0.79-1.76-1.76v-24.56
					c0-0.97,0.79-1.76,1.76-1.76h7c0.97,0,1.76,0.79,1.76,1.76V142.95z"/>
				<path class="st8" d="M413.79,173.45c0,0.97-0.79,1.76-1.76,1.76h-7c-0.97,0-1.76-0.79-1.76-1.76v-24.56
					c0-0.97,0.79-1.76,1.76-1.76h7c0.97,0,1.76,0.79,1.76,1.76V173.45z"/>
				<path class="st8" d="M413.79,224.33c0,0.97-0.79,1.76-1.76,1.76h-7c-0.97,0-1.76-0.79-1.76-1.76v-24.56
					c0-0.97,0.79-1.76,1.76-1.76h7c0.97,0,1.76,0.79,1.76,1.76V224.33z"/>
				<g>
					<g>
						<g>
							<g>
								<path class="st4" d="M410.2,417.32c0,9.25-7.5,16.75-16.75,16.75H216.31c-9.25,0-16.75-7.5-16.75-16.75V68.89
									c0-9.25,7.5-16.75,16.75-16.75h177.14c9.25,0,16.75,7.5,16.75,16.75V417.32z"/>
							</g>
						</g>
						<g>
							<g>
								<path class="st9" d="M393.45,435.07H216.31c-9.79,0-17.75-7.96-17.75-17.75V68.89c0-9.79,7.96-17.75,17.75-17.75h177.14
									c9.79,0,17.75,7.96,17.75,17.75v348.43C411.2,427.11,403.23,435.07,393.45,435.07z M216.31,53.15
									c-8.68,0-15.75,7.06-15.75,15.75v348.43c0,8.68,7.06,15.75,15.75,15.75h177.14c8.68,0,15.75-7.06,15.75-15.75V68.89
									c0-8.68-7.06-15.75-15.75-15.75H216.31z"/>
							</g>
						</g>
					</g>
					<linearGradient id="SVGID_1_" gradientUnits="userSpaceOnUse" x1="176.4194" y1="115.5991" x2="433.3442" y2="372.5239">
						<stop  offset="0" style="stop-color:#FCFFFF"/>
						<stop  offset="0.186" style="stop-color:#F4F6FD"/>
						<stop  offset="0.6655" style="stop-color:#E4E3F9"/>
						<stop  offset="1" style="stop-color:#DEDCF7"/>
					</linearGradient>
					<rect x="209.21" y="82.8" class="st10" width="191.33" height="322.52"/>
					<path class="st11" d="M226.89,65.89c0,2.44-1.98,4.42-4.42,4.42c-2.44,0-4.42-1.98-4.42-4.42c0-2.44,1.98-4.42,4.42-4.42
						C224.91,61.47,226.89,63.45,226.89,65.89z"/>
					<path class="st11" d="M239.55,65.89c0,1.52-1.23,2.75-2.75,2.75s-2.75-1.23-2.75-2.75c0-1.52,1.23-2.74,2.75-2.74
						S239.55,64.37,239.55,65.89z"/>
					<path class="st12" d="M331.13,65.89c0,3.31-2.69,6-6,6h-40.5c-3.31,0-6-2.69-6-6l0,0c0-3.31,2.69-6,6-6h40.5
						C328.45,59.89,331.13,62.57,331.13,65.89L331.13,65.89z"/>
				</g>
				<g>
					<g>
						<path class="st13" d="M394.66,159.4c0,5.31-4.31,9.62-9.62,9.62h-96.79c-5.31,0-9.62-4.31-9.62-9.62v-36.27
							c0-5.31,4.31-9.62,9.62-9.62h96.79c5.31,0,9.62,4.31,9.62,9.62V159.4z"/>
					</g>
					<g>
						<polygon class="st13" points="363.3,167.25 380.55,181 380.55,167.25 						"/>
					</g>
					<g>
						<g>
							<rect x="289.8" y="121.29" class="st14" width="48.75" height="2"/>
						</g>
						<g>
							<rect x="289.8" y="128.71" class="st14" width="92.75" height="2"/>
						</g>
						<g>
							<rect x="289.8" y="136.13" class="st14" width="92.75" height="2"/>
						</g>
						<g>
							<rect x="289.8" y="143.54" class="st14" width="92.75" height="2"/>
						</g>
						<g>
							<rect x="289.8" y="150.96" class="st14" width="92.75" height="2"/>
						</g>
						<g>
							<rect x="289.8" y="158.38" class="st14" width="92.75" height="2"/>
						</g>
					</g>
				</g>
				<g>
					<g>
						<path class="st0" d="M216.13,229.78c0,5.31,4.31,9.62,9.62,9.62h96.79c5.31,0,9.62-4.31,9.62-9.62v-36.27
							c0-5.31-4.31-9.62-9.62-9.62h-96.79c-5.31,0-9.62,4.31-9.62,9.62V229.78z"/>
					</g>
					<g>
						<polygon class="st0" points="247.49,237.63 230.24,251.38 230.24,237.63 						"/>
					</g>
					<g>
						<g>
							<rect x="272.24" y="191.68" class="st13" width="48.75" height="2"/>
						</g>
						<g>
							<rect x="228.24" y="199.09" class="st13" width="92.75" height="2"/>
						</g>
						<g>
							<rect x="228.24" y="206.51" class="st13" width="92.75" height="2"/>
						</g>
						<g>
							<rect x="228.24" y="213.93" class="st13" width="92.75" height="2"/>
						</g>
						<g>
							<rect x="228.24" y="221.34" class="st13" width="92.75" height="2"/>
						</g>
						<g>
							<rect x="228.24" y="228.76" class="st13" width="92.75" height="2"/>
						</g>
					</g>
				</g>
				<g>
					<g>
						<path class="st13" d="M394.66,299.83c0,5.31-4.31,9.62-9.62,9.62h-96.79c-5.31,0-9.62-4.31-9.62-9.62v-36.27
							c0-5.31,4.31-9.62,9.62-9.62h96.79c5.31,0,9.62,4.31,9.62,9.62V299.83z"/>
					</g>
					<g>
						<polygon class="st13" points="363.3,307.69 380.55,321.44 380.55,307.69 						"/>
					</g>
					<g>
						<g>
							<rect x="289.8" y="261.73" class="st14" width="48.75" height="2"/>
						</g>
						<g>
							<rect x="289.8" y="269.14" class="st14" width="92.75" height="2"/>
						</g>
						<g>
							<rect x="289.8" y="276.56" class="st14" width="92.75" height="2"/>
						</g>
						<g>
							<rect x="289.8" y="283.98" class="st14" width="92.75" height="2"/>
						</g>
						<g>
							<rect x="289.8" y="291.39" class="st14" width="92.75" height="2"/>
						</g>
						<g>
							<rect x="289.8" y="298.81" class="st14" width="92.75" height="2"/>
						</g>
					</g>
				</g>
				<g>
					<g>
						<path class="st0" d="M216.13,368.87c0,5.31,4.31,9.62,9.62,9.62h96.79c5.31,0,9.62-4.31,9.62-9.62V332.6
							c0-5.31-4.31-9.62-9.62-9.62h-96.79c-5.31,0-9.62,4.31-9.62,9.62V368.87z"/>
					</g>
					<g>
						<polygon class="st0" points="247.49,376.73 230.24,390.48 230.24,376.73 						"/>
					</g>
					<g>
						<g>
							<rect x="272.24" y="330.77" class="st15" width="48.75" height="2"/>
						</g>
						<g>
							<rect x="228.24" y="338.18" class="st15" width="92.75" height="2"/>
						</g>
						<g>
							<rect x="228.24" y="345.6" class="st15" width="92.75" height="2"/>
						</g>
						<g>
							<rect x="228.24" y="353.02" class="st15" width="92.75" height="2"/>
						</g>
						<g>
							<rect x="228.24" y="360.43" class="st15" width="92.75" height="2"/>
						</g>
						<g>
							<rect x="228.24" y="367.85" class="st15" width="92.75" height="2"/>
						</g>
					</g>
				</g>
			</g>
			<path class="st16" d="M382.06,337.98l-6.48-25.35c-0.15-0.11-0.33-0.2-0.54-0.27c-0.01,0-0.02-0.01-0.03-0.01
				c-0.2-0.07-0.43-0.11-0.67-0.14c-0.02,0-0.04,0-0.05-0.01c-0.25-0.03-0.51-0.04-0.8-0.04c-0.02,0-0.04,0-0.06,0
				c-0.29,0-0.6,0.02-0.91,0.05c-0.01,0-0.01,0-0.02,0v0c-4.31,0.42-10.92,3.13-10.92,3.13l0.28,1.12l-6.85,1.71
				c-0.22-0.56-0.37-0.89-0.37-0.89s-19.46,5.69-26.85,4.98c-7.39-0.71-15.73,2.83-18.62,4.43c-2.88,1.6-7.03,0.18-6.3-8.53
				c0.72-8.71,0.96-18.34,2.58-24.92c0.86-3.48,4.21-8.45,4.79-15.03c0,0,0,0,0,0c5.4-5.15,6.57-16.26,3.5-21.6
				c-3.06-5.33-0.72-10.13,2.7-14.05c3.43-3.91,4.51-13.33-0.72-16.71c-5.22-3.38-5.04-8.18,0-14.22
				c5.05-6.04,5.59-17.07-1.98-19.97c-0.86-0.33-1.69-0.62-2.5-0.91c0.49-0.19,0.93-0.51,1.25-0.96c0.87-1.23,0.57-2.92-0.68-3.79
				l-8.02-5.56c2.07-3.44,5.33-9.41,5.66-13.5c0.49-6.03-15.27-14.21-22.19-16.91c-6.49-2.53-6.83,0.92-13.19,9.8l-7.6-5.27
				c-1.25-0.87-2.97-0.58-3.85,0.65c-0.87,1.22-0.57,2.92,0.69,3.79l9.23,6.4c-0.73,0.52-1.35,1-1.69,1.33
				c-1.35,1.33-6.76,0.45-8.92,0c-1.44-0.09-0.68,2.89,0.36,4.36c-0.13,0.98-1.49,1.56-1.98,1.78c-0.5,0.22,0.81,2.13,2.12,2.75
				c-0.5,0.62-2.07,0.09-2.79,0c-0.72-0.09-1.04,1.47,0.27,2.18c0.63,0.62-1.67,4.13-1.76,5.47c-0.09,1.33,2.25,2.49,5.68,3.02
				c2.31,0.36,5.72,1.31,6.18,5.62c-4.28-1.42-8.74-3.07-13.05-5.04c-3.5-6.78-7.61-10.54-11.52-12.87
				c-1.51-1.04-3.12-1.98-4.78-2.83c0.78-0.78,1.18-2.09,0.88-3.58c0.07-0.57,0.13-1.1,0.26-1.45c1.09-2.82,2.33-1.72,2.8-2.68
				c0.47-0.96-1.7-4.08-1.7-4.08s1.43,1.68,3.55,1.68c0.03-0.62,0.02-1.69,0.77-4.25c3.08,1.15,5.37,0.35,5.73-0.51
				c0.36-0.86-0.56-2.39-1.21-5.13c-0.64-2.73-0.27-5.25,0.26-6.62c0.24-0.64,0.35-1.4,1.1-3.92l10.05,2.6
				c1.48,0.38-1.79,7.15-1.4,5.7c0.38-1.45,0.9-3.99-0.58-4.37l-5.69-6.75c-4.64-11.13-1.67-7.78-3.47-14.5
				c-2-7.46-22.37-18.39-29.96-7.46c-2.35,3.39-0.3,6.95-1.63,10.73l-9.48-2.45c-1.48-0.38-2.99,0.48-3.38,1.93
				c-0.38,1.45,0.5,2.93,1.98,3.32l9.28,2.4c-1.58,3.69-2.22,9.73-2.02,11.94c0.24,2.72-2.45,10.29-2.58,10.65
				c-0.71,1.58-1.48,3.13-2.33,4.57c-1.56-0.85-2.46-1.32-2.46-1.32l-0.79,1.13v0c0,0-4.53-1.23-10.09,1.13v157.31
				c2.01,11.49,3.25,27.08,3.41,34.32c0.06,2.42,0.08,7.8,0.09,14.49c-1.15,1.16-2.32,2.33-3.51,3.52v26.1
				c1.13-0.95,2.29-1.92,3.49-2.94c-0.03,13.41-0.07,24.8-0.07,24.8h2.25v7.45h-1.36c0,0-0.21,1.44-0.41,3.47
				c3.25,4.07,8.25,6.69,13.86,6.69h30.32c-1.49-2.21-4.1-4.28-8.66-4.79c-0.6-0.07-1.18-0.13-1.75-0.18
				c-0.44-0.04-0.87-0.08-1.29-0.12c-0.07-0.01-0.14-0.01-0.2-0.02v0c-9.01-0.78-15.1-0.45-15.3-2.31
				c-0.22-2.08-0.33-2.74-0.33-2.74H217l0.55-7.45h1.31c0,0,1.92-23.38,3.11-42.54c29.9-29.85,38.65-36.14,38.32-49.95
				c-0.21-8.91-5.59-28.5-9.53-41.76l1.31-0.43l-2.29-7.5c1.52-0.54,2.99-1.14,4.4-1.81c-3.35-5.02-5.03-20.59-5.48-35.47
				c3.96-0.76,7.73-1.71,11.27-2.79c1.3,1.8,2.68,3.56,3.91,5.28c5.77,8.06,6.11,19.1,6.11,30.24c0.69,0.02,1.54,0.06,2.51,0.11
				c-0.51,11.84-1.49,39.33-0.38,55.01c1.44,20.38,20.99,78.37,25.31,97.81c0.25,0.06,0.51,0.09,0.77,0.13l0.67,4.03h-1.54
				c0,0-0.09,0.56-0.29,2.34c-0.17,1.6-5.38,1.31-13.09,1.98v0c-0.15,0.01-0.3,0.03-0.45,0.04c-0.27,0.02-0.53,0.05-0.8,0.07
				c-0.5,0.05-1.01,0.1-1.53,0.16c-2.89,0.32-4.85,1.37-6.2,2.66h36.84c-0.06-3.62-0.61-7.26-0.61-7.26h-0.87l-1.25-5.52
				c1.16-0.38,1.88-0.67,1.88-0.67s-7.71-34.16-8.91-47.2c-0.85-9.19-1.13-19.32-3.74-29.36c12.79-2.39,55.64-15.07,59.13-16.1
				c0-0.35-0.01-0.71-0.04-1.08l6.9-1.72l0.63,2.46c0,0,0.58-0.05,2.38-0.3c1.8-0.25,2.83,6.07,6.1,14.64
				c3.27,8.57,11.54,6.41,11.54,6.41L382.06,337.98L382.06,337.98z M201.53,166.42c-0.16,0.05-0.32,0.1-0.48,0.15
				C201.35,166.43,201.53,166.41,201.53,166.42C201.53,166.41,201.53,166.42,201.53,166.42z M233.96,323.32
				c-0.26,7.79-4.89,13.12-10.82,19.87c0.74-13.48,2.61-32.35,2.98-41.75C230.49,310.26,234.21,315.98,233.96,323.32z
				 M248.75,220.85c0.02-0.4,0.03-0.79,0.05-1.18c0.16,0.32,0.34,0.65,0.51,0.98C249.12,220.72,248.94,220.79,248.75,220.85z
				 M265.41,207.85c-0.12-0.27-0.23-0.52-0.34-0.79c0.2,0.08,0.4,0.16,0.6,0.24C265.58,207.49,265.5,207.67,265.41,207.85z"/>
			<g>
				<path class="st17" d="M260.83,189.4c0,0,6.39,1.9,5.88,7.57c-0.51,5.67-4.67,7.14-6.88,7.72c-2.2,0.58-33-4.72-58.8-26.73
					c-25.8-22.01-33.04-21.43-33.04-21.43l7.5-10.83c0,0,19.71,10.42,35.93,22.89C227.65,181.06,253.57,184.98,260.83,189.4z"/>
				<g>
					<g>
						<g>
							<polygon class="st18" points="146.43,388.6 135.99,399.36 144.04,409.3 157.24,398.52 							"/>
							<path class="st19" d="M213.71,262.63c0,0,13.7,42.71,14.04,57.43c0.34,14.73-9.08,21.24-41.62,54.29
								c-11.53,10.96-33.74,29.29-33.74,29.29s-7.02-5.65-11.99-11.99c12.67-14.73,35.74-36.31,44.07-46.59
								c8.34-10.28,15.87-16.44,16.21-26.72c0.34-10.28-6.67-17.47-12.75-33.57c-6.09-16.1-3.46-22.15-3.46-22.15H213.71z"/>
							<path class="st20" d="M161,369.81v26.64c5.94-5.01,13.9-11.83,20.39-17.71l0.72-30.9C177.05,353.59,169.1,361.57,161,369.81z
								"/>
							<path class="st21" d="M119.05,411.53l16.94,24.26h24.38c0,0,1.26-12.22-13.82-11.36c-3.2-0.06-7.99-8.73-0.23-12.96
								c-3.54-5.59-10.33-13.36-10.33-13.36S123.05,401.82,119.05,411.53z"/>
							<path class="st0" d="M147.13,424.41l-1.8,11.38h15.04C160.37,435.79,161.58,423.89,147.13,424.41z"/>
							<g>
								<g>
									<g>
										<path class="st0" d="M136.67,432.25l-16.26-23.28c-0.51,0.81-0.99,1.65-1.36,2.56l16.94,24.26h24.38
											c0,0,0.16-1.57-0.33-3.54H136.67z"/>
									</g>
								</g>
							</g>
						</g>
						<g>
							<polygon class="st18" points="170.12,414.18 170.12,428.22 182.86,429.46 184.08,412.81 							"/>
							<path class="st22" d="M194.3,262.63c0,0-1.71,19.75-1.6,29.57c0.11,9.82-3.65,43.86-3.43,57.33
								c0.23,13.47-4.11,66.9-4.11,66.9h-17.36c0,0,0.23-58.69,0-68.74c-0.23-10.05-2.4-35.51-5.82-45.79
								c-3.43-10.28-8.45-34.6-3.03-42.48C164.38,251.56,194.3,262.63,194.3,262.63z"/>
							<path class="st19" d="M213.71,262.63c0,0,13.7,42.71,14.04,57.43c0.34,14.73-9.08,21.24-41.62,54.29
								c-11.53,10.96-33.74,29.29-33.74,29.29s-7.02-5.65-11.99-11.99c12.67-14.73,35.74-36.31,44.07-46.59
								c8.34-10.28,15.87-16.44,16.21-26.72c0.34-10.28-6.67-17.47-12.75-33.57c-6.09-16.1-3.46-22.15-3.46-22.15H213.71z"/>
							<path class="st23" d="M163.75,367.02v27.11c5.97-5.07,13.22-11.32,19-16.62v-30.38
								C178.28,352.28,171.21,359.44,163.75,367.02z"/>
							<path class="st22" d="M194.3,262.63c0,0-1.71,19.75-1.6,29.57c0.11,9.82-3.65,43.86-3.43,57.33
								c0.23,13.47-4.11,66.9-4.11,66.9h-17.36c0,0,0.23-58.69,0-68.74c-0.23-10.05-2.4-35.51-5.82-45.79
								c-3.43-10.28-8.45-34.6-3.03-42.48C164.38,251.56,194.3,262.63,194.3,262.63z"/>
							<path class="st21" d="M169.63,441.33h46.13c0,0,0.11-10.28-10.96-11.53c-11.08-1.26-18.84-0.57-19.07-2.74
								c-0.23-2.17-0.34-2.86-0.34-2.86h-16.67C168.72,424.2,166.55,438.82,169.63,441.33z"/>
							<path class="st0" d="M204.8,429.8c-1.15-0.13-2.26-0.24-3.34-0.33v11.86h14.3C215.76,441.33,215.88,431.05,204.8,429.8z"/>
							<line class="st24" x1="169.63" y1="441.33" x2="215.76" y2="441.33"/>
							<path class="st0" d="M168.23,437.86c0.24,1.6,0.67,2.88,1.4,3.47h46.13c0,0,0.01-1.53-0.6-3.47H168.23z"/>
						</g>
						<g>
							<path class="st25" d="M211.31,197.43c0,0,3.45,20.56,22.63,33.57c19.18,13.02,42.11,16.78,42.11,16.78l2.4-13.7
								c0,0-28.43-6.8-37.68-21.53c-9.25-14.73-11.08-24.03-14.96-33.16c-3.88-9.13-8.75-13.86-13.34-16.63
								C205.72,171.17,211.31,197.43,211.31,197.43z"/>
							<path class="st26" d="M182.31,152.56c0,0,24.21,2.4,35.17,14.56c2.91,16.1,2.91,22.44,0,30.49c-2.91,8.05-2.63,58.75,4,68.8
								c-23.29,11.19-62.8,4.57-68.51,0c0.91-15.07,0.46-53.21-2.51-67.6c-2.97-14.39-2.97-32.2-2.97-32.2
								S161.64,152.22,182.31,152.56z"/>
						</g>
						<g>
							<path class="st18" d="M199.02,105.68c0,0,5.19-2.11,10.89,0.66c8.64,4.2,13.68,11.49,11.71,17.58
								c-1.97,6.08-2.04,7.23-2.39,8.16c-0.54,1.43-0.93,4.05-0.27,6.9c0.66,2.85,1.61,4.44,1.24,5.34
								c-0.37,0.9-2.73,1.73-5.89,0.53c-0.77,2.67-0.77,3.78-0.79,4.43c-2.18,0-3.65-1.75-3.65-1.75s2.23,3.25,1.74,4.26
								c-0.48,1-1.75-0.14-2.88,2.8c-0.4,1.04-0.13,3.64-1.49,4.51c-1.36,0.87-5.06,0.05-8.28-2.54c-2.09-1.38-1.98,9.93-2.65,11.32
								c-0.75,4.8-6.23,7.68-6.23,7.68s-21.05-13.59-19.34-20.74c6.53-3.33,9.97-12.88,12.91-20.59
								C186.58,126.49,181.16,114.02,199.02,105.68z"/>
							<path class="st27" d="M203.48,127.69c2.59-0.66,4.97-5.35,4.97-5.35s-16.98-7.69-21.19-6.35
								c-3.25,6.47-1.75,13.31-3.61,18.21c-0.99,2.59-2.04,5.39-3.23,8.1c0,0.01-0.01,0.04-0.01,0.04s5.4-0.99,6.95-6.36
								c2.94-10.65,4.82-11.73,6.83-10.02c2,1.71,0.57,8.31-1.06,11.2c-1.64,2.89-6.28,7.17-6.01,12.94
								c0.23,4.83,5.2,10.41,9.69,14.25c0.33-3.7,0.72-8.76,2.16-7.81c3.22,2.59,6.91,3.41,8.28,2.54c0.9-0.57,1.09-1.88,1.23-3.02
								c-0.01-0.04-0.01-0.09-0.02-0.13c-0.12,0.77-1.77,0.76-3.99-0.68c-2.22-1.44-2.1-3.28-1.07-9.39
								c1.03-6.11-3.98-8.6-3.92-9.79C199.52,134.88,200.88,128.35,203.48,127.69z"/>
							<path class="st3" d="M208.44,122.34c0,0-2.37,4.69-4.97,5.35c-2.59,0.66-3.95,7.19-4.02,8.38c-0.06,1.19,4.95,3.68,3.92,9.79
								c-1.03,6.11-1.15,7.95,1.07,9.39c2.22,1.44,3.87,1.46,3.99,0.68c0.61,2.66-0.93,4.83-2.88,4.66
								c-1.94-0.17-16.61-6.56-17.82-12.21c-1.22-5.65,3.74-8.34,5.38-11.22c1.64-2.89,3.07-9.49,1.06-11.2
								c-2.01-1.71-3.89-0.63-6.83,10.02c-1.55,5.36-6.95,6.36-6.95,6.36s2.92-8.23,2.66-11.14c-0.06-0.73-0.04-1.86,0.07-3.18
								c0.33-3.97,1.46-9.72,3.51-11.69C189.36,113.7,208.44,122.34,208.44,122.34z"/>
							<path class="st3" d="M182.91,136.13c0,0,0.21-3.5-0.79-9.81s-0.71-19.06,6.54-21.98c4.25-1.58,6.83,0,6.83,0
								s2.14-3.42,7.49-4.08c5.35-0.67,11.32,0.7,16.85,8.17c5.53,7.46,7.42,15.08,14.33,14.17c-2.25,2.75-10.41,3.58-12.12,2
								c1.46,2.17,4.71,2.67,5.37,3c-3.67,1.67-11.83-1-14.08-3.17c0.92,2.58,1.17,3.33,2.67,3.5c-2.92,0.17-7.69-2.42-8.89-5.08
								c-1.2-2.67-2.11,3.87-6.99,1.92c-1.94-0.78-7.07-8.23-9.68-5.55c-0.59,0.6-1.16,1.26-1.72,1.97
								C185.49,125.26,182.86,130.99,182.91,136.13z"/>
							<path class="st18" d="M195.06,128.61c0,0,0.29-2.59-2.25-4.56c-2.54-1.97-4.74,1.84-5.3,5.38c-0.55,3.53-1.05,8.8,2.19,8.52
								c1.47-0.44,2.29-1.88,2.29-1.88L195.06,128.61z"/>
							<path class="st28" d="M185.17,120.31"/>
						</g>
					</g>
					<g>
						<g>
							<g>
								<polygon class="st18" points="323.85,313.31 335.5,310.36 338.41,320.39 325.27,323.71 								"/>
								<path class="st19" d="M346.28,307.22l9.66,38.28c0,0-8.5,2.25-11.87-6.68c-3.36-8.93-4.42-15.51-6.27-15.25
									c-1.85,0.26-2.44,0.31-2.44,0.31l-3.49-13.83C331.87,310.05,343.55,305.18,346.28,307.22z"/>
								<path class="st0" d="M344.07,338.82c-0.35-0.93-0.67-1.83-0.97-2.7l9.85-2.48l2.99,11.87
									C355.94,345.5,347.44,347.74,344.07,338.82z"/>
								<path class="st0" d="M343.11,306.78c1.38-0.14,2.53-0.04,3.17,0.44l9.66,38.28c0,0-1.26,0.33-3,0.23L343.11,306.78z"/>
							</g>
							<g>
								<polygon class="st18" points="277.31,418.65 279.88,430.14 268.06,431.04 266.35,420.6 								"/>
								<path class="st19" d="M279.33,441.88h-39.48c0,0-0.1-8.79,9.38-9.87c9.48-1.08,16.12-0.49,16.32-2.35
									c0.2-1.86,0.29-2.44,0.29-2.44h14.27C280.12,427.23,281.97,439.74,279.33,441.88z"/>
								<path class="st0" d="M249.23,432.01c0.99-0.11,1.94-0.2,2.86-0.29v10.15h-12.24C239.85,441.88,239.75,433.09,249.23,432.01z
									"/>
								<path class="st0" d="M280.54,438.92c-0.21,1.37-0.58,2.46-1.2,2.97h-39.48c0,0-0.01-1.3,0.51-2.97H280.54z"/>
							</g>
							<g>
								<path class="st29" d="M240.58,257.73c0,0-2.14,42.01-0.66,63.25c1.48,21.24,21.58,81.65,26.02,101.91
									c5.73,1.28,13.93-2.11,13.93-2.11s-7.93-35.59-9.16-49.18c-1.23-13.58-1.28-29.13-8.69-43.58
									c1.11-20.01,4.49-36.45,5.97-41.64c1.48-5.19,16.3-18.03,1.98-37.54C256.88,254.76,240.58,257.73,240.58,257.73z"/>
								<path class="st23" d="M262.03,328.02c1.11-20.01,4.49-36.45,5.97-41.64c0.87-3.05,6.35-8.75,7.81-16.9
									c-1.33-3.84-3.76-8.05-7.83-12.65c-16.36,2.96-23.15,3.16-23.15,3.16l3.39,64.3c0,0,4.02,26.77,15.5,24.91
									c1.2-0.19,2.79-0.52,4.66-0.95C267.26,341.48,265.42,334.63,262.03,328.02z"/>
								<path class="st4" d="M250.22,316.3c0,0,4.02,26.77,15.5,24.91c11.49-1.85,58.23-15.87,61.94-16.98
									c0-5.56-2.92-12.18-2.92-12.18s-20.01,5.93-27.6,5.19c-7.6-0.74-16.17,2.95-19.14,4.61c-2.96,1.67-7.22,0.19-6.48-8.89
									c0.74-9.08,0.98-19.11,2.65-25.97c1.67-6.86,12.54-19.26-4.2-38.16c-16.36,2.96-25.93,2.96-25.93,2.96L250.22,316.3z"/>
								<path class="st18" d="M245.92,150.1c0,0-5.93,3.71-7.32,5.09c-1.39,1.39-6.95,0.46-9.17,0c-1.48-0.09-0.7,3.01,0.37,4.54
									c-0.14,1.02-1.53,1.62-2.04,1.85c-0.51,0.23,0.83,2.22,2.18,2.87c-0.51,0.65-2.13,0.09-2.87,0
									c-0.74-0.09-1.07,1.53,0.28,2.27c0.65,0.65-1.71,4.31-1.81,5.7c-0.09,1.39,2.32,2.59,5.84,3.15
									c3.52,0.55,9.5,2.45,4.48,15.01c5.09,0.09,11.92-3.71,11.92-3.71l1.48-10.28c0,0,5.84-4.5,8.99-8.08
									C261.39,164.92,245.92,150.1,245.92,150.1z"/>
								<path class="st27" d="M258.24,168.51c3.15-3.59-12.32-18.41-12.32-18.41s-5.93,3.71-7.32,5.09
									c-0.53,0.53-1.68,0.72-3.02,0.73l21.78,13.52C257.68,169.13,257.97,168.82,258.24,168.51z"/>
								<path class="st23" d="M269.98,248.84c-16.36,2.96-25.93,2.96-25.93,2.96l0.49,5.11c-2.45,0.54-3.95,0.82-3.95,0.82
									s-0.28,5.46-0.56,13.44c8.72-0.04,29.18-1.71,37.74-9.82C276.41,257.54,274,253.38,269.98,248.84z"/>
								<path class="st22" d="M247.25,181.16c0,0,15.81,6.67,17.54,23.46c1.73,16.8,9.88,47.32,13.58,50.53
									c-7.16,11.11-32.99,8.64-40.64,8.39c0-11.61-0.36-23.11-6.29-31.5c-5.93-8.4-15.41-17.8-2.78-28.33
									c6.17-5.14,6.98-14.65,6.98-14.65S246.82,187.21,247.25,181.16z"/>
								<path class="st30" d="M216.31,239.4c-0.29-6.08-0.66-17.23-0.57-22.76c-5.69,2.01-11.59,3.5-17.34,3.84
									c-20.44,1.18-43.7-6.41-43.7-6.41l-1.85,9.93c0.02,0.44,0.04,0.87,0.06,1.31c1.73,1.68,13.16,12.67,44,14.31
									C204.08,240,210.21,240.6,216.31,239.4z"/>
								<path class="st17" d="M258.67,214.07c1.3-2.13,3.51-3.61,0.22-8.92c-3.29-5.31-9.38-2.23-9.38-2.23
									c-5.09,0.93-15.28,7.12-27.07,12.11c0.19,6.08,5.3,11.74,9.01,17.01c0.04,0.05,0.07,0.11,0.11,0.16
									C247.57,225.2,257.85,215.42,258.67,214.07z"/>
								<path class="st31" d="M249.5,196.92c0,0,6.09-3.08,9.38,2.23c3.29,5.31,1.08,9.68-0.22,11.82
									c-1.3,2.13-28.17,20.39-62.08,20.39c-33.91,0-43.92-11.3-43.92-11.3l2.05-10.98c0,0,23.26,7.59,43.7,6.41
									S241.11,198.46,249.5,196.92z"/>
								<path class="st3" d="M243.74,151.5c0,0,0.8-5.48,5.43-6.4c4.63-0.93,20.75,2.59,20.38,17.78
									c-0.37,15.19,5.37,15.25,13.15,18.28c7.78,3.03,7.22,14.51,2.04,20.81c-5.19,6.3-5.37,11.3,0,14.82
									c5.37,3.52,4.26,13.34,0.74,17.41c-3.52,4.08-5.93,9.08-2.78,14.64c3.15,5.56,1.95,17.14-3.6,22.5
									c-0.37-5.19-2.23-16.86-11.6-22.5c-5.82-3.5-15.54-11.12-12.58-19.27c2.96-8.15,3.89-17.97,0.37-21.49
									c-3.52-3.52-6.48-5.03-6.66-9.1c-0.19-4.07-9.84,2.33-9.84,2.33c-2.06-1.85-2.54-16.69,1.15-20.15
									c3.68-3.46,3.64-6.61,2.18-9.76c-1.46-3.15,0.95-6.85,4.47-7.78c3.52-0.93,3.24-5.74,2.59-7.87
									C248.52,153.62,245.71,151.7,243.74,151.5z"/>
								<path class="st32" d="M277.44,179.22c-4.96-2.01-8.18-4.84-7.9-16.33c0.37-15.19-15.75-18.71-20.38-17.78
									c-4.63,0.93-5.43,6.4-5.43,6.4c1.98,0.2,4.78,2.12,5.43,4.25c0.56,1.85,0.84,5.71-1.39,7.31l29.33,16.32L277.44,179.22z"/>
							</g>
						</g>
						<g>
							<g>
								<g>
									<path class="st26" d="M270.71,172.29c0,0,7.07-10.6,7.58-16.88c0.51-6.28-15.7-14.8-22.81-17.62
										c-7.12-2.82-7.04,1.47-14.98,12.18C250.92,158.53,270.71,172.29,270.71,172.29z"/>
								</g>
								<g>
									<path class="st25" d="M230.14,143.19c-0.9,1.28-0.58,3.05,0.71,3.95l46.6,32.75c1.29,0.9,3.06,0.6,3.96-0.68l0,0
										c0.9-1.28,0.58-3.05-0.71-3.95l-46.61-32.75C232.81,141.61,231.04,141.91,230.14,143.19L230.14,143.19z"/>
								</g>
							</g>
						</g>
					</g>
					<g>
						<path class="st23" d="M205.43,292.08l15.47-5.17c-1.51-5.49-3.03-10.68-4.28-14.84L201.86,277c-5.13-5.29-7.67-0.82-10.3-0.82
							c-1.66,0-4.37-1.42-6.14-2.46c0.67-1.24,0.89-1.88,0.89-1.88s-6.59-6.91-13.12-14.75c-6.31-0.9-12.13-0.71-14.23,2.35
							c-1.46,2.12-2.16,5.43-2.34,9.33c8.14,7.81,16.92,13.95,20.67,15.74c0.84-0.92,1.6-1.78,2.3-2.61
							c1.24,1.41,2.87,3.42,4.1,5.58c1.59,2.79,4.91,7.12,8.9,9.34c0.02-0.43,0.04-0.86,0.06-1.26c0.29,0.59,0.57,1.16,0.85,1.73
							c1.47,0.67,3.01,1.04,4.58,0.92C204.04,297.78,207.72,295.17,205.43,292.08z"/>
						<polygon class="st4" points="190.76,269.37 214.85,261.32 219.3,276.11 193.33,284.78 						"/>
						<polygon class="st1" points="193.01,269.95 213.3,263.17 217.06,275.63 195.17,282.94 						"/>
						<path class="st18" d="M179.68,262.63c0,0,5.25,3.54,7.88,3.54c2.63,0,5.17-4.47,10.3,0.82c-1.71,3.65,0.09,11.28,3.17,14.59
							c3.08,3.31-0.68,6.17-6.96,6.62c-6.28,0.46-12.1-6.74-14.39-10.73c-2.28-4-5.94-7.54-5.94-7.54L179.68,262.63z"/>
						<path class="st21" d="M160.27,194.01c0.52-6.15,3.6-20.04-3.71-25.52c-6.38-4.79-9.77-3.94-13.42,4.74
							c-3.65,8.68-7.19,39.62-7.54,57.09c-0.34,17.47,29.8,40.42,37.68,44.19c7.54-8.22,9.02-12.67,9.02-12.67
							s-23.58-24.74-25.74-33.68C154.39,219.21,158.94,209.74,160.27,194.01z"/>
					</g>
				</g>
				<path class="st18" d="M174.67,146.87c0,0-6.81-1.89-14.06,3.24c-7.25,5.13-5.75,13.25-3.25,16.63c2.63,3.38,3-0.25,2.25-1.63
					c1.31,2.44,2.75,2.13,3.38,2s0.31-1.81-0.63-3.38s-0.81-3.5-0.44-4.06c0.06,1.13,0.19,3.13,1.25,4s2.25-0.44,2.06-1.31
					s-1.56-3.56-0.25-5.5c1.31-1.94,2.36-1.99,2.36-1.99s-0.8,1.31-0.3,2.46c0.5,1.15,2.53-0.25,3.58-1.66
					C171.69,154.26,174.67,146.87,174.67,146.87z"/>
			</g>
		</g>
	</g>
</g>
<g id="DESIGNED_BY_FREEPIK">
</g>
</svg>
