<?xml version="1.0" encoding="utf-8"?>
<!-- Generator: Adobe Illustrator 23.0.2, SVG Export Plug-In . SVG Version: 6.00 Build 0)  -->
<svg version="1.1" xmlns="http://www.w3.org/2000/svg" xmlns:xlink="http://www.w3.org/1999/xlink" x="0px" y="0px"
	 viewBox="0 0 500 500" style="enable-background:new 0 0 500 500;" xml:space="preserve">
<style type="text/css">
	.st0{fill:#FFFFFF;}
	.st1{fill:#E8E5FF;}
	.st2{fill:#F564BC;}
	.st3{fill:url(#SVGID_1_);}
	.st4{fill:url(#SVGID_2_);}
	.st5{fill:url(#SVGID_3_);}
	.st6{fill:url(#SVGID_4_);}
	.st7{fill:url(#SVGID_5_);}
	.st8{fill:url(#SVGID_6_);}
	.st9{fill:url(#SVGID_7_);}
	.st10{fill:url(#SVGID_8_);}
	.st11{fill:url(#SVGID_9_);}
	.st12{fill:url(#SVGID_10_);}
	.st13{fill:url(#SVGID_11_);}
	.st14{fill:url(#SVGID_12_);}
	.st15{fill:url(#SVGID_13_);}
	.st16{fill:url(#SVGID_14_);}
	.st17{fill:url(#SVGID_15_);}
	.st18{fill:#66478C;}
	.st19{fill:#432D67;}
	.st20{fill:url(#SVGID_16_);}
	.st21{fill:#4F4992;}
	.st22{fill:#ADA1DA;}
	.st23{fill:#534D82;}
	.st24{fill:#393468;}
	.st25{fill:#DBD0E4;}
	.st26{opacity:0.72;}
	.st27{opacity:0.52;fill:#FFFEF1;}
	.st28{clip-path:url(#SVGID_18_);}
	.st29{fill:#D50073;}
	.st30{fill:#E8C0A8;}
	.st31{fill:#2D2A25;}
	.st32{fill:#EFEDED;}
	.st33{fill:#EAE7E4;}
	.st34{fill:#6F63AB;}
	.st35{fill:#3D3F44;}
	.st36{fill:#303135;}
	.st37{fill:#CF9F82;}
	.st38{fill:#887EAB;}
	.st39{fill:#3D150C;}
	.st40{fill:#A56052;}
	.st41{fill:url(#SVGID_19_);}
	.st42{fill:#67423A;}
	.st43{fill:none;stroke:#4B2B19;stroke-width:0.8097;stroke-miterlimit:10;}
	.st44{fill:url(#SVGID_20_);}
	.st45{fill:#F9C285;}
	.st46{fill:#9289BD;}
	.st47{fill:#AF3A28;}
	.st48{fill:#E1AE8A;}
	.st49{fill:#CA537D;}
	.st50{fill:#FDFFFF;}
	.st51{fill:#71385D;}
	.st52{fill:#4F383E;}
	.st53{fill:#F9CBBF;}
	.st54{fill:#DC6C52;}
	.st55{fill:url(#SVGID_21_);}
	.st56{fill:#C44830;}
	.st57{fill:none;stroke:#4B2B19;stroke-width:0.8676;stroke-miterlimit:10;}
	.st58{fill:url(#SVGID_22_);}
	.st59{fill:url(#SVGID_23_);}
	.st60{fill:url(#SVGID_24_);}
	.st61{fill:url(#SVGID_25_);}
	.st62{fill:url(#SVGID_26_);}
	.st63{fill:url(#SVGID_27_);}
	.st64{fill:url(#SVGID_28_);}
	.st65{fill:url(#SVGID_29_);}
	.st66{fill:url(#SVGID_30_);}
	.st67{fill:url(#SVGID_31_);}
	.st68{fill:url(#SVGID_32_);}
	.st69{fill:url(#SVGID_33_);}
	.st70{fill:url(#SVGID_34_);}
	.st71{fill:url(#SVGID_35_);}
	.st72{fill:url(#SVGID_36_);}
	.st73{fill:url(#SVGID_37_);}
	.st74{fill:url(#SVGID_38_);}
	.st75{fill:url(#SVGID_39_);}
	.st76{fill:url(#SVGID_40_);}
	.st77{fill:url(#SVGID_41_);}
	.st78{fill:url(#SVGID_42_);}
	.st79{fill:url(#SVGID_43_);}
	.st80{fill:none;stroke:#F564BC;stroke-width:1.02;stroke-miterlimit:10;}
</style>
<g id="BACKGROUND">
	<rect class="st0" width="500" height="500"/>
</g>
<g id="OBJECTS">
	<g>
		<path class="st1" d="M439.23,254.96c0,25.68-26.2,45.97-35.46,68.3c-9.6,23.15-5.78,55.93-23.23,73.38
			c-17.45,17.45-50.23,13.63-73.38,23.23c-22.33,9.26-42.62,35.46-68.3,35.46s-45.97-26.2-68.3-35.46
			c-23.15-9.6-55.93-5.78-73.38-23.23c-17.45-17.45-13.63-50.23-23.23-73.38c-9.26-22.33-35.46-42.62-35.46-68.3
			c0-25.68,26.2-45.97,35.46-68.3c9.6-23.15,5.78-55.93,23.23-73.38c17.45-17.45,50.23-13.63,73.38-23.23
			c22.33-9.26,42.62-35.46,68.3-35.46s45.97,26.2,68.3,35.46c23.15,9.6,55.93,5.78,73.38,23.23c17.45,17.45,13.63,50.23,23.23,73.38
			C413.03,208.98,439.23,229.27,439.23,254.96z"/>
		<g>
			<circle class="st1" cx="290.37" cy="69.83" r="14.7"/>
			<path class="st1" d="M324.66,54.38c0,1.67-1.35,3.01-3.01,3.01c-1.67,0-3.01-1.35-3.01-3.01s1.35-3.01,3.01-3.01
				C323.31,51.37,324.66,52.72,324.66,54.38z"/>
			<circle class="st1" cx="439.97" cy="259.76" r="14.32"/>
			<path class="st1" d="M441.1,295.94c0,2.5-2.02,4.52-4.52,4.52s-4.52-2.02-4.52-4.52s2.02-4.52,4.52-4.52
				S441.1,293.44,441.1,295.94z"/>
			
				<ellipse transform="matrix(0.1612 -0.9869 0.9869 0.1612 -174.0692 656.9)" class="st1" cx="299.41" cy="430.85" rx="19.97" ry="19.97"/>
			<path class="st1" d="M352.17,425.95c0,3.12-2.53,5.65-5.65,5.65c-3.12,0-5.65-2.53-5.65-5.65c0-3.12,2.53-5.65,5.65-5.65
				C349.64,420.3,352.17,422.83,352.17,425.95z"/>
			
				<ellipse transform="matrix(0.7071 -0.7071 0.7071 0.7071 -255.1157 248.8154)" class="st1" cx="172.79" cy="432.36" rx="18.09" ry="18.09"/>
			<circle class="st1" cx="123.8" cy="426.71" r="6.41"/>
			<circle class="st1" cx="46.92" cy="284.64" r="13.57"/>
			<circle class="st1" cx="49.18" cy="323.07" r="7.54"/>
			
				<ellipse transform="matrix(0.9205 -0.3908 0.3908 0.9205 -14.7123 77.9272)" class="st1" cx="184.09" cy="75.11" rx="15.45" ry="15.45"/>
			<circle class="st1" cx="202.94" cy="41.57" r="4.9"/>
		</g>
		<g>
			<path class="st2" d="M129.09,303.12L129.09,303.12c-3.55-3.74-7.42-7.16-11.42-10.42c-3.54-2.87-7.16-5.63-10.75-8.43
				c-0.47,0.76-1.6,2.55-2.2,3.21c-0.77,0.84-3.34,4.39-7.18,6.02c-6.1,2.59-10.77,3.28-10.4,2.69c0.68-1.1,8.47-8.71,12.61-10.19
				c0.63-0.23,5.76-2.17,6.67-2.13c-0.87-0.68-1.74-1.37-2.6-2.06c-1.31-1.04-2.6-2.1-3.89-3.16c-0.58,1.03-2.02,3.52-2.81,4.41
				c-1.01,1.13-5.26,5.11-10.5,7.04c-8.32,3.06-21.29,1.8-21.74,0.79c-0.04-0.09,0-0.17,0.1-0.25c0.7-0.55,4.59-0.94,8.5-2.77
				c0.9-0.42,10.1-6.22,10.2-6.29c1.09-0.68,3.88-2.35,4.02-2.42c0.01-0.01,0.02-0.01,0.04-0.02c0.14-0.07,3.71-1.15,5.36-1.28
				c0.05,0,0.1-0.01,0.14-0.01c0.1-0.01,0.2-0.01,0.3-0.02c2.27-0.14,4.38,0.04,5.65,0.21c-2.64-2.19-5.24-4.43-7.8-6.71
				c-0.51,0.65-2.42,3.05-3.34,3.85c-1.07,0.92-5.46,4.14-10.43,5.6c-7.88,2.32-19.27,0.85-19.51-0.02
				c-0.08-0.29,0.76-0.45,2.11-0.7c1.53-0.29,6.81-1.91,7.41-2.19c0.03-0.01,0.06-0.03,0.09-0.04c0.34-0.16,4.95-2.48,5.59-2.81
				c0.08-0.04,0.16-0.08,0.24-0.12c1.96-1,6.54-3.24,6.67-3.29c0.01,0,0.46-0.17,0.47-0.17c1.46-0.49,3.05-0.7,4.54-0.76
				c0.04,0,0.09,0,0.13-0.01c0.09,0,0.18-0.01,0.28-0.01c2.37-0.06,4.48,0.25,5.48,0.43c-0.31-0.28-0.62-0.55-0.93-0.83
				c-1.85-1.67-3.69-3.35-5.5-5.06c-0.73,0.6-2.56,2.08-3.41,2.58c-1.07,0.63-5.37,2.8-9.72,3.58c-6.91,1.24-15.82-0.65-15.82-1.33
				c0-0.02,0-0.03,0.01-0.04c0.01-0.01,0.02-0.03,0.03-0.04c0.02-0.02,0.06-0.05,0.11-0.07c0.12-0.05,0.31-0.09,0.56-0.13
				c0.15-0.02,0.33-0.04,0.52-0.06c0.39-0.04,10.99-2.55,11.28-2.65c0.29-0.1,2.25-0.78,2.94-1.02c0.15-0.05,0.31-0.11,0.46-0.16
				c0.08-0.03,0.15-0.05,0.23-0.08c1.07-0.37,6.91-1.7,8.14-1.65c0.04,0,0.07,0,0.11,0c0.08,0,0.15,0.01,0.23,0.01
				c1.59,0.1,2.98,0.36,3.85,0.57c-1.8-1.71-3.58-3.43-5.34-5.18c-0.57,0.31-2.65,1.43-3.55,1.75c-1.04,0.37-5.13,1.55-9.08,1.53
				c-6.26-0.02-13.79-3.02-13.68-3.6c0.07-0.41,11.82-0.65,12.05-0.68c0.11-0.02,1.96-0.3,2.7-0.41c0.05-0.01,0.1-0.01,0.14-0.02
				c0.97-0.14,1.92-0.28,2.81-0.4c0.11-0.02,0.58-0.06,0.69-0.07c0.01,0,0.02,0,0.03,0c0.11-0.01,0.23-0.01,0.34-0.01
				c0,0,2.37,0.13,3.44,0.37c0.03,0.01,0.06,0.01,0.09,0.02c0.07,0.02,0.13,0.03,0.2,0.05c1.54,0.37,2.84,0.88,3.53,1.2
				c-0.44-0.44-0.89-0.89-1.33-1.33c-1.62-1.63-3.22-3.29-4.81-4.95c-0.52,0.2-2.69,1.02-3.61,1.2c-1.05,0.21-5.19,0.78-9.18,0.24
				c-6.33-0.86-13.97-4.74-13.87-5.27c0.02-0.13,1.2,0.07,1.33,0.1c0.06,0.01,7.92,0.9,10.24,0.88c0.14,0,0.27,0,0.41,0
				c1.94-0.02,4.08-0.04,5.92-0.03c0.11,0,0.36,0.01,0.37,0.01c0.11,0,0.22,0.01,0.33,0.02c0.01,0,0.02,0,0.03,0
				c0.11,0.01,2.74,0.47,3.83,0.84c0.03,0.01,0.06,0.02,0.09,0.03c0.07,0.02,0.13,0.05,0.2,0.07c1.63,0.58,3,1.28,3.68,1.67
				c-0.4-0.42-0.8-0.84-1.19-1.27c-1.48-1.58-2.98-3.17-4.39-4.81c-0.65,0.1-2.78,0.41-3.67,0.43c-1.06,0.02-5.16-0.15-8.88-1.2
				c-5.9-1.67-12.38-6.01-12.16-6.43c0.06-0.11,0.45,0,1.09,0.23c0.79,0.28,1.96,0.72,3.36,1.13c0.5,0.15,6.59,1.22,7.26,1.33
				c1.76,0.26,5.99,0.95,6,0.95c0.11,0.02,0.33,0.08,0.33,0.08c1.12,0.29,2.2,0.73,3.16,1.19c0.03,0.01,0.05,0.03,0.08,0.04
				c0.06,0.03,0.12,0.06,0.18,0.09c1.22,0.62,2.23,1.27,2.86,1.71c-0.3-0.36-0.6-0.72-0.89-1.08c0,0.02,0,0.03,0,0.03
				c-0.47-0.3-3.78-3.19-3.78-3.19c-0.08-0.08-0.16-0.16-0.23-0.25c-0.02-0.02-0.04-0.04-0.06-0.06c-0.03-0.03-0.06-0.06-0.08-0.09
				c-0.23-0.25-2.24-3.05-2.27-3.11c-0.04-0.07-1.16-2.45-1.56-3.34c-0.27-0.6-5.97-12.1-6.71-13.11c-0.74-1.01-1.3-1.73-1.43-2.07
				c-0.04-0.1-0.04-0.17,0-0.21c0.01-0.01,0.02-0.01,0.03-0.02c0.69-0.2,7.67,5.26,11.38,11.18c2.38,3.8,3.81,8.43,4.11,9.65
				c0.22,0.91,0.45,3.05,0.55,4.07c0.06,0,0.12,0.02,0.18,0.08c0.52,0.52,1.02,1.05,1.53,1.59c0.23,0.25,0.47,0.5,0.7,0.75
				c-0.28-0.63-0.67-1.63-0.95-2.77c0,0,0,0,0,0c-0.02-0.08-0.04-0.16-0.06-0.24c0-0.02-0.01-0.04-0.01-0.06
				c-0.01-0.03-0.01-0.06-0.02-0.09c-0.05-0.24-0.22-1.22-0.23-1.29c0-0.02,0.29-5.1,0.34-5.57c0.04-0.35,0.51-4.58,0.52-4.66
				c0.03-0.31,0.09-1.16,0.1-1.23c0.04-1.28-0.07-2.44-0.17-3.35c-0.1-0.91-0.2-1.56-0.15-1.83c0.01-0.08,0.04-0.12,0.08-0.13
				c0.01,0,0.02,0,0.03,0c0.53,0.14,3.02,6.19,3.19,11.26c0.11,3.26-0.72,6.66-1,7.52c-0.22,0.7-0.99,2.3-1.27,2.87
				c1.31,1.4,2.62,2.79,3.94,4.18c-0.24-0.73-0.56-1.84-0.77-3.11c-0.01-0.06-0.02-0.12-0.03-0.19c0-0.03-0.01-0.06-0.01-0.09
				c-0.01-0.09-0.02-0.18-0.04-0.26v0c-0.12-0.95-0.16-1.96-0.05-2.96c0,0,0-0.01,0-0.01c0.01-0.1,0.03-0.21,0.04-0.31
				c0-0.01,0-0.02,0-0.03c0.02-0.1,0.03-0.2,0.05-0.3c0-0.01,0-0.02,0.01-0.03c0.02-0.1,0.04-0.2,0.06-0.3
				c0.14-0.59,0.29-1.21,0.44-1.84c0.25-1.01,0.51-2.06,0.76-3.06c0.03-0.13,0.06-0.25,0.09-0.37c0.22-0.87,1.38-9.54,1.38-9.81
				c0-0.07,0.01-0.62,0.03-0.76c0.03-0.18,0.07-0.27,0.15-0.27c0.57-0.01,2.89,7.41,2.42,13.19c-0.29,3.64-1.75,7.24-2.2,8.14
				c-0.35,0.71-1.43,2.24-1.87,2.86c1.42,1.49,2.85,2.97,4.3,4.44c-0.19-0.74-0.46-2.07-0.55-3.61c0-0.07-0.01-0.13-0.01-0.2
				c0-0.03,0-0.06,0-0.09c-0.05-1.08,0.49-4.33,0.52-4.44c0.08-0.25,0.41-1.21,0.45-1.34c0.09-0.26,0.81-2.35,0.9-2.62
				c0.05-0.13,0.8-2.3,0.88-2.55c0.02-0.06,0.04-0.12,0.06-0.19c0.04-0.11,0.57-1.67,0.59-1.72c0.14-0.42,0.27-0.8,0.38-1.14
				c0.03-0.08,0.05-0.17,0.08-0.24c0.12-0.39,0.22-0.7,0.27-0.92c0.16-0.64,0.48-2.51,0.5-2.69c0.02-0.18,0.1-0.87,0.12-1.03
				c0.03-0.32,0.11-1.16,0.12-1.28c0.08-0.79,0.14-1.26,0.31-1.26c0.59,0,2.23,7.88,1.13,13.98c-0.69,3.84-2.59,7.63-3.15,8.57
				c-0.46,0.78-1.84,2.49-2.32,3.08c0.77,0.77,1.54,1.55,2.31,2.31c1.3,1.28,2.61,2.55,3.93,3.8c-0.23-0.77-0.64-2.38-0.8-4.28
				c-0.01-0.07-0.01-0.15-0.02-0.22c0-0.04,0-0.07-0.01-0.11c-0.08-1.22,0.18-3.87,0.18-3.87c0.02-0.12,0.14-0.65,0.17-0.77
				c0-0.01,0.01-0.02,0.01-0.03c0.03-0.12,0.51-1.67,0.72-2.35c0.02-0.08,0.85-2.65,0.9-2.82c0.04-0.12,0.08-0.23,0.11-0.35
				c0.01-0.04,2.93-13.21,2.94-13.32c0.01-0.09,0.1-0.65,0.13-0.73c0.01-0.02,0.02-0.05,0.03-0.06c0.01-0.02,0.02-0.03,0.03-0.05
				c0.02-0.03,0.05-0.04,0.08-0.04c0.68-0.02,2.79,8.82,1.72,15.76c-0.68,4.37-2.74,8.71-3.35,9.8c-0.53,0.94-2.2,3.09-2.64,3.65
				c2.15,2.04,4.33,4.06,6.54,6.04c-0.31-1-1.28-9.31-0.14-13.29c0.05-0.17,1.48-4.38,1.52-4.49c0.06-0.18,1.31-3.82,1.36-3.97
				c0.05-0.15,0.78-2.35,0.8-2.41c0.04-0.11,0.37-1.22,0.39-1.3c0.04-0.15,0.66-8.94,1.28-8.85c0.87,0.12,3.76,11.33,2.51,19.54
				c-0.78,5.17-3.35,10.02-4.11,11.21c-0.65,1.02-2.69,3.21-3.29,3.85c0.69,0.62,1.39,1.24,2.09,1.85c1.82,1.61,3.67,3.19,5.53,4.75
				c-0.36-1.23-1.17-6.68-1.17-6.68c-0.08-1.55-0.01-3.16,0.36-4.64c0-0.01,0.23-0.82,0.28-0.96c0-0.01,2.87-6.76,2.95-6.94
				c0.16-0.36,1.44-3.31,1.48-3.4c0.37-0.86,2.14-5.58,2.24-6.02c0.71-3.07,0.74-5.84,0.96-7.06c0.01-0.06,0.02-0.11,0.03-0.16
				c0.03-0.15,0.07-0.27,0.12-0.36c0.06-0.11,0.14-0.16,0.23-0.13c1.07,0.3,4.28,13.13,2.51,21.9c-1.11,5.52-4.41,10.35-5.38,11.52
				c-0.77,0.93-3.08,2.76-3.99,3.47c2.49,2.09,5.02,4.13,7.57,6.14c0.23,0.18,0.45,0.35,0.68,0.53c-0.18-0.86-0.44-2.46-0.45-4.26
				c0-0.07,0-0.15,0-0.22c0-0.03,0-0.07,0-0.1c0.01-1.22,0.56-3.97,0.6-4.08c0-0.01,0.01-0.02,0.01-0.03
				c0.04-0.11,0.55-1.33,0.69-1.66c0.03-0.07,1.2-2.65,1.29-2.86c0.09-0.19,3.01-6.73,3.03-6.79c0.05-0.12,1.23-7.12,1.72-7
				c0.7,0.17,2.17,9.38,0.52,15.87c-1.04,4.09-3.49,7.77-4.2,8.67c-0.57,0.72-2.23,2.19-2.86,2.74c4.3,3.36,8.66,6.64,12.86,10.14
				c3.46,2.88,7.21,6.23,10.24,9.56C130.37,304.43,129.76,304.1,129.09,303.12z"/>
			<path class="st2" d="M355.24,312.89L355.24,312.89c5.55-1.64,10.95-3.77,16.25-6.12c4.68-2.08,9.28-4.3,13.92-6.46
				c-0.52-0.86-1.74-2.9-2.09-3.84c-0.45-1.2-2.68-5.58-2.36-10.26c0.52-7.42,2.21-12.45,2.62-11.78
				c0.75,1.25,4.39,12.92,3.76,17.81c-0.1,0.75-0.76,6.87-1.27,7.76c1.13-0.52,2.25-1.04,3.38-1.55c1.71-0.77,3.43-1.53,5.15-2.28
				c-0.74-1.11-2.5-3.82-2.98-5.06c-0.62-1.58-2.43-7.87-1.68-14.1c1.18-9.88,9.06-22.22,10.3-22.15c0.11,0.01,0.17,0.08,0.2,0.22
				c0.19,0.98-1.41,5.07-1.56,9.92c-0.04,1.12,1.07,13.28,1.09,13.41c0.13,1.44,0.37,5.08,0.37,5.25c0,0.02,0,0.03,0,0.05
				c-0.01,0.18-0.74,4.3-1.45,6.02c-0.02,0.05-0.04,0.1-0.06,0.15c-0.04,0.11-0.09,0.21-0.13,0.32c-1.02,2.34-2.27,4.36-3.09,5.54
				c3.54-1.52,7.1-2.98,10.69-4.38c-0.39-0.84-1.82-3.98-2.14-5.3c-0.38-1.54-1.36-7.58-0.28-13.29c1.7-9.07,8.98-19.71,9.97-19.52
				c0.33,0.07,0.06,0.98-0.37,2.47c-0.49,1.68-1.56,7.79-1.59,8.53c0,0.04,0,0.07,0,0.11c-0.01,0.42-0.05,6.21-0.05,7.03
				c0,0.1,0,0.2,0,0.31c0,2.47-0.09,8.2-0.11,8.36c0,0.01-0.07,0.55-0.07,0.56c-0.26,1.71-0.85,3.41-1.56,4.93
				c-0.02,0.04-0.04,0.09-0.06,0.13c-0.04,0.09-0.09,0.19-0.13,0.28c-1.15,2.4-2.53,4.36-3.23,5.26c0.44-0.17,0.87-0.34,1.31-0.51
				c2.61-1,5.24-1.98,7.87-2.92c-0.23-1.03-0.78-3.62-0.84-4.73c-0.09-1.4-0.07-6.8,1.37-11.55c2.29-7.55,8.73-15.5,9.41-15.15
				c0.02,0.01,0.03,0.02,0.04,0.03c0.01,0.01,0.02,0.03,0.02,0.05c0.01,0.04,0.02,0.09,0.01,0.14c-0.01,0.15-0.07,0.36-0.16,0.63
				c-0.06,0.16-0.13,0.35-0.2,0.55c-0.16,0.41-3.06,12.3-3.1,12.64c-0.05,0.34-0.36,2.65-0.48,3.46c-0.03,0.18-0.05,0.36-0.08,0.54
				c-0.01,0.09-0.03,0.18-0.04,0.27c-0.18,1.26-1.82,7.78-2.5,8.98c-0.02,0.03-0.04,0.07-0.06,0.1c-0.04,0.07-0.09,0.15-0.13,0.22
				c-0.9,1.54-1.88,2.79-2.54,3.56c2.63-0.93,5.26-1.84,7.91-2.7c-0.02-0.72-0.08-3.39,0.05-4.44c0.16-1.23,1.07-5.93,3.1-9.86
				c3.21-6.25,10.06-12.25,10.59-11.85c0.37,0.28-5.38,12.16-5.46,12.41c-0.04,0.12-0.71,2.12-0.97,2.91
				c-0.02,0.05-0.03,0.1-0.05,0.15c-0.35,1.04-0.7,2.07-1.03,3.01c-0.04,0.12-0.24,0.62-0.29,0.73c0,0.01-0.01,0.02-0.01,0.03
				c-0.05,0.12-0.1,0.23-0.16,0.35c0,0-1.34,2.31-2.12,3.25c-0.02,0.03-0.04,0.05-0.07,0.08c-0.05,0.06-0.1,0.12-0.15,0.17
				c-1.16,1.36-2.33,2.39-3,2.92c0.67-0.22,1.34-0.44,2.01-0.65c2.46-0.79,4.93-1.55,7.41-2.28c0.07-0.62,0.36-3.21,0.64-4.23
				c0.32-1.16,1.87-5.59,4.45-9.3c4.1-5.89,11.87-11.56,12.35-11.19c0.12,0.09-0.69,1.16-0.78,1.27c-0.04,0.06-4.94,7.47-6.11,9.8
				c-0.07,0.14-0.14,0.28-0.21,0.42c-0.98,1.95-2.05,4.1-2.99,5.94c-0.06,0.11-0.19,0.35-0.2,0.36c-0.06,0.11-0.13,0.22-0.19,0.32
				c-0.01,0.01-0.01,0.02-0.02,0.03c-0.07,0.11-1.87,2.5-2.8,3.4c-0.03,0.03-0.05,0.05-0.08,0.08c-0.06,0.05-0.11,0.11-0.17,0.16
				c-1.42,1.34-2.81,2.34-3.54,2.83c0.62-0.18,1.25-0.37,1.88-0.55c2.33-0.67,4.69-1.37,7.05-1.94c0.23-0.7,1-2.99,1.44-3.89
				c0.52-1.07,2.78-5.09,5.73-8.27c4.68-5.05,12.33-9.32,12.64-8.88c0.08,0.11-0.23,0.45-0.78,0.97c-0.68,0.65-1.72,1.59-2.84,2.79
				c-0.4,0.43-4.59,5.97-5.03,6.59c-1.16,1.63-4,5.51-4.01,5.51c-0.08,0.1-0.25,0.29-0.25,0.29c-0.86,0.98-1.85,1.83-2.81,2.55
				c-0.03,0.02-0.05,0.04-0.08,0.06c-0.06,0.04-0.12,0.09-0.18,0.13c-1.24,0.91-2.41,1.59-3.17,1.99c0.51-0.12,1.02-0.23,1.54-0.34
				c-0.02-0.01-0.04-0.01-0.04-0.01c0.55-0.32,5.12-2.15,5.12-2.15c0.12-0.04,0.24-0.07,0.37-0.11c0.03-0.01,0.06-0.02,0.09-0.03
				c0.04-0.01,0.09-0.02,0.13-0.04c0.36-0.1,4.19-0.69,4.27-0.69c0.09,0,3.04,0.09,4.14,0.15c0.73,0.04,15.15,0.2,16.54-0.03
				c1.39-0.23,2.39-0.42,2.8-0.38c0.12,0.01,0.19,0.05,0.21,0.11c0,0.01,0,0.03,0,0.04c-0.15,0.79-9.18,4.99-17,5.68
				c-5.02,0.45-10.38-0.49-11.75-0.81c-1.03-0.24-3.29-1.11-4.35-1.52c-0.03,0.06-0.08,0.11-0.17,0.14
				c-0.79,0.26-1.58,0.49-2.37,0.72c-0.37,0.11-0.74,0.21-1.11,0.32c0.78,0.04,1.97,0.16,3.26,0.46c0,0,0,0,0,0
				c0.09,0.02,0.18,0.04,0.27,0.07c0.02,0.01,0.04,0.01,0.07,0.02c0.03,0.01,0.07,0.02,0.1,0.03c0.27,0.07,1.33,0.4,1.41,0.43
				c0.03,0.01,4.96,2.89,5.4,3.18c0.33,0.22,4.32,2.85,4.4,2.9c0.3,0.19,1.11,0.69,1.19,0.73c1.26,0.69,2.47,1.18,3.43,1.54
				c0.96,0.36,1.66,0.6,1.9,0.78c0.07,0.05,0.1,0.1,0.09,0.14c0,0.01-0.01,0.02-0.02,0.03c-0.41,0.46-7.73-0.14-12.9-2.55
				c-3.32-1.55-6.29-4.12-7.02-4.84c-0.59-0.58-1.8-2.17-2.23-2.74c-2.07,0.6-4.13,1.2-6.2,1.81c0.85,0.13,2.13,0.38,3.5,0.82
				c0.07,0.02,0.13,0.04,0.2,0.07c0.03,0.01,0.06,0.02,0.1,0.03c0.09,0.03,0.19,0.06,0.28,0.1v0c1.01,0.36,2.05,0.84,2.98,1.46
				c0,0,0.01,0.01,0.01,0.01c0.1,0.06,0.19,0.13,0.29,0.2c0.01,0.01,0.02,0.01,0.03,0.02c0.09,0.07,0.18,0.13,0.27,0.2
				c0.01,0.01,0.02,0.01,0.02,0.02c0.09,0.07,0.18,0.14,0.27,0.22c0.52,0.44,1.06,0.9,1.61,1.38c0.89,0.76,1.8,1.56,2.68,2.32
				c0.11,0.1,0.22,0.19,0.33,0.28c0.76,0.66,8.84,6.24,9.11,6.38c0.07,0.04,0.61,0.33,0.74,0.42c0.16,0.12,0.24,0.21,0.2,0.29
				c-0.28,0.57-8.89-0.89-14.43-4.3c-3.49-2.15-6.35-5.45-7.03-6.35c-0.53-0.71-1.51-2.57-1.91-3.33c-2.22,0.66-4.43,1.34-6.64,2.04
				c0.84,0.19,2.31,0.6,3.89,1.3c0.07,0.03,0.14,0.06,0.2,0.09c0.03,0.01,0.06,0.03,0.1,0.04c1.11,0.51,4.09,2.7,4.17,2.79
				c0.21,0.21,1,1.02,1.11,1.13c0.22,0.22,1.94,2,2.16,2.23c0.11,0.12,1.9,1.97,2.1,2.19c0.05,0.05,0.1,0.11,0.15,0.16
				c0.09,0.09,1.38,1.42,1.42,1.47c0.35,0.36,0.67,0.68,0.95,0.96c0.07,0.07,0.14,0.14,0.2,0.2c0.33,0.32,0.59,0.58,0.78,0.74
				c0.56,0.48,2.27,1.76,2.44,1.87c0.17,0.12,0.82,0.55,0.97,0.65c0.31,0.2,1.1,0.7,1.22,0.78c0.75,0.48,1.19,0.79,1.1,0.96
				c-0.31,0.59-9.02-1.79-14.56-6c-3.49-2.65-6.31-6.48-6.97-7.52c-0.55-0.86-1.55-3.12-1.89-3.89c-1.17,0.37-2.33,0.75-3.49,1.13
				c-1.94,0.65-3.88,1.31-5.81,1.99c0.89,0.16,2.71,0.58,4.69,1.39c0.08,0.03,0.16,0.06,0.23,0.1c0.04,0.02,0.07,0.03,0.11,0.05
				c1.27,0.54,3.77,2.16,3.78,2.16c0.11,0.09,0.58,0.47,0.68,0.56c0.01,0.01,0.02,0.02,0.03,0.03c0.11,0.09,1.41,1.36,1.98,1.92
				c0.06,0.06,2.22,2.2,2.36,2.34c0.1,0.1,0.2,0.19,0.29,0.29c0.04,0.04,11.72,9.67,11.83,9.73c0.09,0.06,0.6,0.43,0.66,0.5
				c0.02,0.02,0.04,0.04,0.05,0.06c0.01,0.02,0.02,0.04,0.03,0.06c0.01,0.04,0.01,0.07,0,0.1c-0.33,0.69-10.25-1.71-16.64-6.32
				c-4.02-2.91-7.31-7.19-8.09-8.35c-0.67-1.01-1.97-3.78-2.3-4.51c-3.14,1.11-6.27,2.26-9.38,3.46c1.16,0.2,9.97,3.47,13.37,6.64
				c0.15,0.14,3.62,3.72,3.71,3.81c0.14,0.15,3.16,3.26,3.28,3.38c0.12,0.13,1.96,1.98,2.01,2.03c0.1,0.09,1.03,0.99,1.1,1.06
				c0.13,0.12,8.6,5.22,8.2,5.79c-0.57,0.81-13.25-2.02-20.83-7.45c-4.78-3.42-8.31-8.46-9.12-9.83c-0.69-1.17-1.84-4.33-2.17-5.25
				c-0.97,0.38-1.95,0.76-2.92,1.14c-2.54,1.01-5.06,2.04-7.58,3.11c1.41,0.27,7.28,2.24,7.28,2.24c1.59,0.71,3.16,1.6,4.46,2.72
				c0.01,0,0.7,0.65,0.82,0.77c0.01,0.01,5.29,6.32,5.43,6.49c0.28,0.34,2.57,3.13,2.65,3.22c0.67,0.81,4.5,4.99,4.88,5.31
				c2.71,2.27,5.46,3.71,6.57,4.56c0.05,0.04,0.1,0.08,0.15,0.12c0.14,0.11,0.24,0.21,0.3,0.3c0.08,0.12,0.09,0.22,0.01,0.3
				c-0.85,0.92-15.32-2.41-23.19-8.66c-4.96-3.93-8.1-9.69-8.78-11.25c-0.54-1.25-1.19-4.49-1.44-5.76
				c-3.36,1.43-6.7,2.91-10.01,4.44c-0.29,0.13-0.58,0.27-0.87,0.41c0.95,0.26,2.69,0.82,4.5,1.72c0.07,0.04,0.15,0.08,0.23,0.11
				c0.03,0.02,0.07,0.04,0.1,0.05c1.21,0.63,3.68,2.59,3.78,2.68c0.01,0.01,0.02,0.02,0.03,0.03c0.09,0.09,1.05,1.22,1.3,1.54
				c0.05,0.06,2.04,2.55,2.2,2.75c0.15,0.18,5.2,6.44,5.24,6.5c0.1,0.11,6.49,4.86,6.13,5.29c-0.52,0.61-10.49-2.62-16.14-7.58
				c-3.56-3.12-6-7.46-6.54-8.63c-0.43-0.94-1.06-3.35-1.28-4.26c-5.55,2.59-11.06,5.27-16.71,7.69c-4.65,1.99-9.91,4.03-14.79,5.36
				C353.27,313.5,353.92,313.05,355.24,312.89z"/>
			<g>
				
					<linearGradient id="SVGID_1_" gradientUnits="userSpaceOnUse" x1="3725.3816" y1="-467.1491" x2="3691.9336" y2="-354.0632" gradientTransform="matrix(-0.7275 0.6861 0.6861 0.7275 3063.866 -1955.7903)">
					<stop  offset="0" style="stop-color:#6A6DB1"/>
					<stop  offset="1" style="stop-color:#926DD1"/>
				</linearGradient>
				<path class="st3" d="M126.7,295.33c0,0-0.41,0.14-1.17,0.39c-0.76,0.26-1.89,0.65-3.33,1.05c-1.43,0.45-3.2,0.87-5.23,1.35
					c-1.02,0.2-2.1,0.45-3.25,0.64c-1.16,0.17-2.36,0.42-3.63,0.57c-1.27,0.15-2.59,0.34-3.96,0.43c-0.69,0.06-1.38,0.12-2.09,0.18
					c-0.71,0.04-1.43,0.07-2.16,0.11c-1.46,0.1-2.96,0.06-4.5,0.09c-1.53-0.07-3.1-0.03-4.69-0.15c-3.19-0.13-6.46-0.55-9.76-1.03
					c-3.31-0.48-6.62-1.24-9.9-2.1c-3.29-0.85-6.5-1.94-9.63-3.12c-3.1-1.24-6.11-2.57-8.93-4.04c-2.79-1.53-5.47-3.04-7.86-4.72
					c-2.42-1.63-4.59-3.35-6.56-4.98c-0.94-0.86-1.87-1.66-2.72-2.46c-0.83-0.82-1.63-1.59-2.35-2.33c-0.7-0.77-1.36-1.49-1.97-2.15
					c-0.6-0.67-1.11-1.33-1.6-1.9c-0.98-1.14-1.65-2.11-2.14-2.75c-0.49-0.65-0.74-0.99-0.74-0.99s0.22,0.37,0.63,1.06
					c0.43,0.68,0.97,1.75,1.86,2.97c0.43,0.62,0.89,1.32,1.43,2.06c0.56,0.72,1.17,1.5,1.82,2.33c0.68,0.81,1.43,1.65,2.21,2.54
					c0.8,0.88,1.7,1.74,2.61,2.68c0.96,0.88,1.95,1.82,3.02,2.73c1.09,0.89,2.2,1.84,3.42,2.7c2.38,1.82,5.06,3.51,7.9,5.13
					c2.87,1.57,5.9,3.08,9.09,4.35c3.2,1.25,6.5,2.39,9.87,3.29c3.38,0.86,6.79,1.6,10.19,2.07c3.4,0.48,6.76,0.77,10.03,0.84
					c1.63,0.08,3.24,0.03,4.81,0.01c1.57-0.1,3.1-0.12,4.59-0.28c0.74-0.07,1.48-0.14,2.2-0.2c0.72-0.08,1.43-0.18,2.12-0.28
					c1.39-0.17,2.73-0.44,4.01-0.67c1.28-0.23,2.49-0.54,3.65-0.8c1.15-0.29,2.23-0.62,3.24-0.9c2.02-0.62,3.75-1.22,5.16-1.8
					c1.42-0.52,2.48-1.06,3.21-1.39C126.3,295.51,126.7,295.33,126.7,295.33z"/>
				
					<linearGradient id="SVGID_2_" gradientUnits="userSpaceOnUse" x1="3727.9451" y1="-466.3911" x2="3694.4985" y2="-353.3106" gradientTransform="matrix(-0.7275 0.6861 0.6861 0.7275 3063.866 -1955.7903)">
					<stop  offset="0" style="stop-color:#6A6DB1"/>
					<stop  offset="1" style="stop-color:#926DD1"/>
				</linearGradient>
				<path class="st4" d="M29.94,269.32c0.21-5.48,0.21-9.81-3.08-15.88c-3.29-6.07-9.14-3.62-6.38,3.53
					C22.84,263.08,26.55,266.86,29.94,269.32z"/>
				
					<linearGradient id="SVGID_3_" gradientUnits="userSpaceOnUse" x1="3731.1675" y1="-465.4372" x2="3697.7224" y2="-352.3604" gradientTransform="matrix(-0.7275 0.6861 0.6861 0.7275 3063.866 -1955.7903)">
					<stop  offset="0" style="stop-color:#6A6DB1"/>
					<stop  offset="1" style="stop-color:#926DD1"/>
				</linearGradient>
				<path class="st5" d="M38.71,279.7c1.99-4.33,3.43-7.81,2.8-13.78c-0.63-5.97-6.14-5.94-6.3,0.72
					C35.07,272.33,36.8,276.59,38.71,279.7z"/>
				
					<linearGradient id="SVGID_4_" gradientUnits="userSpaceOnUse" x1="3744.6228" y1="-461.4592" x2="3711.1733" y2="-348.3685" gradientTransform="matrix(-0.7275 0.6861 0.6861 0.7275 3063.866 -1955.7903)">
					<stop  offset="0" style="stop-color:#6A6DB1"/>
					<stop  offset="1" style="stop-color:#926DD1"/>
				</linearGradient>
				<path class="st6" d="M37.67,278.68c-4.11-0.19-7.36-0.21-11.93,2.22c-4.57,2.44-2.76,6.84,2.62,4.81
					C32.95,283.98,35.81,281.22,37.67,278.68z"/>
				
					<linearGradient id="SVGID_5_" gradientUnits="userSpaceOnUse" x1="3747.3013" y1="-460.668" x2="3713.8516" y2="-347.5764" gradientTransform="matrix(-0.7275 0.6861 0.6861 0.7275 3063.866 -1955.7903)">
					<stop  offset="0" style="stop-color:#6A6DB1"/>
					<stop  offset="1" style="stop-color:#926DD1"/>
				</linearGradient>
				<path class="st7" d="M46.41,286.29c-4.5-0.21-8.06-0.23-13.06,2.43c-5,2.67-3.03,7.48,2.86,5.26
					C41.24,292.08,44.37,289.06,46.41,286.29z"/>
				
					<linearGradient id="SVGID_6_" gradientUnits="userSpaceOnUse" x1="3747.0083" y1="-460.7556" x2="3713.5586" y2="-347.6646" gradientTransform="matrix(-0.7275 0.6861 0.6861 0.7275 3063.866 -1955.7903)">
					<stop  offset="0" style="stop-color:#6A6DB1"/>
					<stop  offset="1" style="stop-color:#926DD1"/>
				</linearGradient>
				<path class="st8" d="M62.28,295.17c-4.5-0.21-8.05-0.23-13.06,2.43c-5,2.67-3.03,7.48,2.86,5.26
					C57.11,300.97,60.24,297.94,62.28,295.17z"/>
				
					<linearGradient id="SVGID_7_" gradientUnits="userSpaceOnUse" x1="3746.6335" y1="-460.8678" x2="3713.1841" y2="-347.777" gradientTransform="matrix(-0.7275 0.6861 0.6861 0.7275 3063.866 -1955.7903)">
					<stop  offset="0" style="stop-color:#6A6DB1"/>
					<stop  offset="1" style="stop-color:#926DD1"/>
				</linearGradient>
				<path class="st9" d="M77.65,299.44c-5.62,1.7-10,3.21-15,8.67s-0.47,10.51,5.81,5.22C73.82,308.81,76.35,303.74,77.65,299.44z"
					/>
				
					<linearGradient id="SVGID_8_" gradientUnits="userSpaceOnUse" x1="3728.197" y1="-466.3143" x2="3694.7507" y2="-353.2344" gradientTransform="matrix(-0.7275 0.6861 0.6861 0.7275 3063.866 -1955.7903)">
					<stop  offset="0" style="stop-color:#6A6DB1"/>
					<stop  offset="1" style="stop-color:#926DD1"/>
				</linearGradient>
				<path class="st10" d="M78.76,299.42c0.79-5.82,1.24-10.43-1.64-17.24c-2.88-6.81-9.37-4.8-7.16,3.11
					C71.83,292.03,75.39,296.44,78.76,299.42z"/>
				
					<linearGradient id="SVGID_9_" gradientUnits="userSpaceOnUse" x1="3723.1453" y1="-467.8078" x2="3689.699" y2="-354.7271" gradientTransform="matrix(-0.7275 0.6861 0.6861 0.7275 3063.866 -1955.7903)">
					<stop  offset="0" style="stop-color:#6A6DB1"/>
					<stop  offset="1" style="stop-color:#926DD1"/>
				</linearGradient>
				<path class="st11" d="M95.22,301.21c0.16-5.31,0.12-9.5-3.11-15.35c-3.24-5.85-8.88-3.43-6.15,3.47
					C88.28,295.22,91.91,298.85,95.22,301.21z"/>
				
					<linearGradient id="SVGID_10_" gradientUnits="userSpaceOnUse" x1="3739.5122" y1="-462.9739" x2="3706.063" y2="-349.884" gradientTransform="matrix(-0.7275 0.6861 0.6861 0.7275 3063.866 -1955.7903)">
					<stop  offset="0" style="stop-color:#6A6DB1"/>
					<stop  offset="1" style="stop-color:#926DD1"/>
				</linearGradient>
				<path class="st12" d="M93.97,301.28c-4.9,2.05-8.71,3.81-12.7,9.18c-3.99,5.36,0.55,9.5,5.7,4.17
					C91.38,310.07,93.19,305.27,93.97,301.28z"/>
				
					<linearGradient id="SVGID_11_" gradientUnits="userSpaceOnUse" x1="3730.4236" y1="-465.66" x2="3696.9751" y2="-352.5726" gradientTransform="matrix(-0.7275 0.6861 0.6861 0.7275 3063.866 -1955.7903)">
					<stop  offset="0" style="stop-color:#6A6DB1"/>
					<stop  offset="1" style="stop-color:#926DD1"/>
				</linearGradient>
				<path class="st13" d="M111.37,300.29c-4.64,2.58-8.23,4.75-11.61,10.52c-3.37,5.77,1.59,9.39,6.13,3.51
					C109.77,309.31,111.04,304.34,111.37,300.29z"/>
				
					<linearGradient id="SVGID_12_" gradientUnits="userSpaceOnUse" x1="3714.2703" y1="-470.4324" x2="3680.8235" y2="-357.3513" gradientTransform="matrix(-0.7275 0.6861 0.6861 0.7275 3063.866 -1955.7903)">
					<stop  offset="0" style="stop-color:#6A6DB1"/>
					<stop  offset="1" style="stop-color:#926DD1"/>
				</linearGradient>
				<path class="st14" d="M113.64,299.88c-0.66-5.27-1.35-9.41-5.45-14.69s-9.3-2.01-5.54,4.38
					C105.87,295.04,110.01,298.07,113.64,299.88z"/>
				
					<linearGradient id="SVGID_13_" gradientUnits="userSpaceOnUse" x1="3721.5056" y1="-468.2964" x2="3688.0576" y2="-355.2107" gradientTransform="matrix(-0.7275 0.6861 0.6861 0.7275 3063.866 -1955.7903)">
					<stop  offset="0" style="stop-color:#6A6DB1"/>
					<stop  offset="1" style="stop-color:#926DD1"/>
				</linearGradient>
				<path class="st15" d="M123.64,296.63c-4.5,2.81-7.98,5.17-11.05,11.1c-3.07,5.94,2.07,9.29,6.3,3.19
					C122.5,305.72,123.51,300.7,123.64,296.63z"/>
				
					<linearGradient id="SVGID_14_" gradientUnits="userSpaceOnUse" x1="3731.6533" y1="-465.293" x2="3698.2073" y2="-352.2142" gradientTransform="matrix(-0.7275 0.6861 0.6861 0.7275 3063.866 -1955.7903)">
					<stop  offset="0" style="stop-color:#6A6DB1"/>
					<stop  offset="1" style="stop-color:#926DD1"/>
				</linearGradient>
				<path class="st16" d="M46.11,285.11c3.01-3.35,5.29-6.08,6.4-11.64c1.11-5.56-3.87-7.08-5.88-1.12
					C44.91,277.44,45.26,281.78,46.11,285.11z"/>
				
					<linearGradient id="SVGID_15_" gradientUnits="userSpaceOnUse" x1="3731.864" y1="-465.2298" x2="3698.4185" y2="-352.1516" gradientTransform="matrix(-0.7275 0.6861 0.6861 0.7275 3063.866 -1955.7903)">
					<stop  offset="0" style="stop-color:#6A6DB1"/>
					<stop  offset="1" style="stop-color:#926DD1"/>
				</linearGradient>
				<path class="st17" d="M63.21,294.64c1.37-4.99,2.31-8.98,0.59-15.27c-1.72-6.29-7.62-5.3-6.63,1.87
					C58.02,287.37,60.62,291.65,63.21,294.64z"/>
			</g>
			<g>
				<path class="st18" d="M380.03,270.04c0,0,0.1,0.42,0.28,1.21c0.18,0.79,0.43,1.95,0.84,3.39c0.36,1.45,0.93,3.19,1.58,5.17
					c0.36,0.98,0.72,2.03,1.15,3.11c0.46,1.07,0.87,2.23,1.41,3.39c0.53,1.16,1.06,2.39,1.7,3.61c0.31,0.62,0.62,1.24,0.94,1.88
					c0.34,0.62,0.69,1.26,1.04,1.9c0.68,1.3,1.5,2.56,2.27,3.88c0.86,1.27,1.64,2.63,2.58,3.92c1.78,2.65,3.84,5.22,5.97,7.79
					c2.14,2.57,4.51,5.01,6.96,7.36c2.44,2.36,5.05,4.54,7.69,6.58c2.67,2,5.38,3.87,8.11,5.51c2.76,1.58,5.45,3.08,8.13,4.25
					c2.65,1.22,5.25,2.17,7.67,2.99c1.22,0.36,2.39,0.73,3.52,1.03c1.13,0.28,2.2,0.56,3.22,0.79c1.02,0.2,1.98,0.39,2.87,0.56
					c0.89,0.16,1.71,0.26,2.45,0.37c1.48,0.24,2.66,0.3,3.47,0.39c0.8,0.08,1.23,0.12,1.23,0.12s-0.43,0.01-1.24,0.02
					c-0.81-0.01-2,0.08-3.51-0.04c-0.75-0.05-1.59-0.07-2.5-0.15c-0.91-0.1-1.89-0.22-2.94-0.34c-1.04-0.15-2.15-0.36-3.32-0.56
					c-1.17-0.23-2.37-0.54-3.65-0.83c-1.25-0.36-2.57-0.71-3.9-1.15c-1.33-0.47-2.72-0.91-4.09-1.51c-2.8-1.08-5.63-2.49-8.5-4.06
					c-2.83-1.63-5.7-3.43-8.45-5.48c-2.73-2.08-5.43-4.29-7.96-6.7c-2.49-2.44-4.91-4.96-7.08-7.61c-2.18-2.64-4.19-5.37-5.95-8.11
					c-0.92-1.35-1.71-2.75-2.52-4.09c-0.73-1.39-1.52-2.71-2.15-4.06c-0.33-0.67-0.65-1.33-0.97-1.98
					c-0.31-0.66-0.59-1.31-0.87-1.96c-0.58-1.28-1.04-2.56-1.52-3.77c-0.48-1.21-0.84-2.41-1.22-3.53
					c-0.36-1.13-0.64-2.22-0.93-3.23c-0.52-2.05-0.92-3.84-1.15-5.34c-0.29-1.49-0.39-2.67-0.49-3.47
					C380.08,270.47,380.03,270.04,380.03,270.04z"/>
				<path class="st18" d="M452.7,339.01c4.56-3.04,8.26-5.3,15.15-5.66c6.89-0.36,7.85,5.91,0.32,7.28
					C461.73,341.81,456.57,340.62,452.7,339.01z"/>
				<path class="st18" d="M439.27,336.95c2.66-3.95,4.88-7,10.3-9.57c5.42-2.58,8.27,2.14,2.67,5.75
					C447.46,336.2,442.92,336.96,439.27,336.95z"/>
				<path class="st18" d="M440.68,337.3c2.3,3.41,4.02,6.17,4.33,11.34c0.31,5.17-4.39,5.93-5.47,0.28
					C438.63,344.1,439.49,340.22,440.68,337.3z"/>
				<path class="st18" d="M429.63,333.82c2.52,3.73,4.4,6.75,4.74,12.41c0.34,5.66-4.8,6.49-5.98,0.3
					C427.39,341.25,428.33,337.01,429.63,333.82z"/>
				<path class="st18" d="M413.78,324.92c2.52,3.73,4.4,6.75,4.74,12.41c0.34,5.66-4.8,6.48-5.98,0.3
					C411.53,332.35,412.47,328.11,413.78,324.92z"/>
				<path class="st18" d="M402.11,314.03c1.48,5.68,2.48,10.21,0.43,17.31c-2.05,7.1-8.73,5.88-7.49-2.23
					C396.12,322.19,399.13,317.39,402.11,314.03z"/>
				<path class="st18" d="M401.56,313.07c4.55-3.71,8.26-6.5,15.57-7.59c7.31-1.09,8.98,5.49,1.09,7.73
					C411.47,315.13,405.85,314.39,401.56,313.07z"/>
				<path class="st18" d="M391.44,299.97c4.44-2.9,8.04-5.06,14.72-5.36c6.68-0.29,7.56,5.79,0.24,7.06
					C400.16,302.76,395.18,301.56,391.44,299.97z"/>
				<path class="st18" d="M392.03,301.07c0.81,5.25,1.29,9.42-1.2,15.62c-2.49,6.2-8.39,4.49-6.53-2.69
					C385.89,307.86,389.04,303.82,392.03,301.07z"/>
				<path class="st18" d="M383.8,285.7c0.22,5.3,0.24,9.5-2.92,15.39c-3.16,5.89-8.84,3.54-6.19-3.4
					C376.94,291.78,380.52,288.1,383.8,285.7z"/>
				<path class="st18" d="M382.96,283.56c4.84-2.18,8.73-3.76,15.37-3.02c6.64,0.75,6.57,6.89-0.85,7.01
					C391.15,287.66,386.4,285.71,382.96,283.56z"/>
				<path class="st18" d="M380.51,273.34c-0.05,5.31-0.25,9.5-3.71,15.22c-3.46,5.72-9.01,3.08-6.01-3.71
					C373.35,279.05,377.12,275.56,380.51,273.34z"/>
				<path class="st18" d="M430.79,333.46c1.28-4.31,2.43-7.68,6.59-11.53c4.16-3.85,8.06-0.4,4.03,4.43
					C437.96,330.49,434.08,332.44,430.79,333.46z"/>
				<path class="st18" d="M413.74,323.85c3.54-3.78,6.45-6.65,12.71-8.47c6.26-1.82,8.5,3.74,1.86,6.63
					C422.65,324.48,417.65,324.5,413.74,323.85z"/>
			</g>
			<g>
				<path class="st18" d="M116.6,297.43c0,0-36.41-4.91-41.27,3.85c-3.11,5.62,0.91,10.4,0.91,10.4s-18.48,0.41-22.66,7.83
					c-3.39,6.02,3.58,10.04,3.58,10.04s-17.66,18.3-14.68,23.47c3.52,6.1,27.78-8.08,27.78-8.08s0.31,6.94,5.42,6.53
					c7.82-0.62,16.48-21.44,16.48-21.44s1.57,6.92,8.33,5.06C111.13,332.16,116.6,297.43,116.6,297.43z"/>
				<path class="st19" d="M114.51,298.71c-3.36,1.49-8.49,4.71-14.22,8.69c-5.23,1.31-11.83-0.69-15.76-3.01
					c2.12,3.65,8.22,5.56,12.68,5.18c-5.71,4.08-11.78,8.7-17.17,12.99c-4.6,1.12-13.68-0.69-15.76-1.53
					c5.3,2.7,11.55,2.94,14.01,2.92c-6.01,4.83-10.97,9.1-13.27,11.45c0,0,6.45-4.51,14.75-10.44c-1.21,3.29-4,11.74-1.67,14.51
					c-1.05-3.7,0.66-10.74,3.81-16.05c5.3-3.8,11.14-8.03,16.49-12c-0.78,2.23-2.62,8.34-0.32,11.02c-1.56-3.72,0.55-9.62,2.31-12.5
					C106.67,305.25,112.01,301.08,114.51,298.71z"/>
			</g>
			<g>
				
					<linearGradient id="SVGID_16_" gradientUnits="userSpaceOnUse" x1="5240.4971" y1="2718.2551" x2="5314.4473" y2="2718.2551" gradientTransform="matrix(-0.9511 0.3089 -0.3089 -0.9511 6279.6416 1201.5577)">
					<stop  offset="0" style="stop-color:#6A6DB1"/>
					<stop  offset="1" style="stop-color:#926DD1"/>
				</linearGradient>
				<path class="st20" d="M390.37,273.17c0,0,32.19,1.11,35.66-6.95c2.23-5.17-1.7-9-1.7-9s16.09-1.96,19.08-8.8
					c2.43-5.55-4-8.45-4-8.45s13.81-17.51,10.76-21.75c-3.6-5.02-23.53,9.47-23.53,9.47s-0.88-6.03-5.3-5.23
					c-6.76,1.22-12.51,20.14-12.51,20.14s-1.97-5.9-7.71-3.68C392.12,242.39,390.37,273.17,390.37,273.17z"/>
				<path class="st21" d="M391.72,270.73c2.8-1.59,7-4.85,11.65-8.82c4.44-1.6,10.38-0.42,14.01,1.26c-2.16-3-7.65-4.14-11.52-3.42
					c4.62-4.05,9.52-8.61,13.85-12.83c3.91-1.38,12-0.59,13.88-0.04c-4.86-1.9-10.33-1.56-12.48-1.33
					c4.82-4.74,8.78-8.89,10.58-11.14c0,0-5.23,4.49-11.96,10.39c0.77-2.97,2.47-10.59,0.19-12.81c1.24,3.14,0.36,9.42-1.93,14.33
					c-4.29,3.77-9.02,7.98-13.33,11.91c0.49-2.02,1.56-7.5-0.68-9.64c1.68,3.11,0.36,8.44-0.93,11.11
					C397.98,264.35,393.69,268.45,391.72,270.73z"/>
			</g>
		</g>
		<g>
			<path class="st22" d="M234.06,384.44c0,2.83-37.65,5.12-84.09,5.12c-46.44,0-84.09-2.29-84.09-5.12c0-2.83,37.65-5.12,84.09-5.12
				C196.41,379.32,234.06,381.61,234.06,384.44z"/>
			<path class="st23" d="M203.05,131.77H93.31c-9.06,0-16.4,7.34-16.4,16.4v220.18c0,9.06,7.34,16.4,16.4,16.4h109.74
				c9.06,0,16.4-7.34,16.4-16.4V148.17C219.45,139.11,212.11,131.77,203.05,131.77z"/>
			<path class="st24" d="M201.58,137.26H94.77c-6.53,0-11.83,5.3-11.83,11.83V366.7c0,6.53,5.3,11.83,11.83,11.83h106.81
				c6.53,0,11.83-5.3,11.83-11.83V149.09C213.41,142.56,208.12,137.26,201.58,137.26z"/>
			<path class="st25" d="M199.54,138.79H96.82c-6.53,0-11.83,5.3-11.83,11.83v214.55c0,6.53,5.3,11.83,11.83,11.83h102.72
				c6.53,0,11.83-5.3,11.83-11.83V150.62C211.37,144.08,206.07,138.79,199.54,138.79z"/>
			<path class="st23" d="M165.3,149.78h-33.08c-2.79,0-5.31-1.16-6.38-2.95l-6.16-10.24h58.15l-6.16,10.24
				C170.61,148.61,168.09,149.78,165.3,149.78z"/>
			<g class="st26">
				<path class="st27" d="M211.37,155.17L84.99,281.55v83.62c0,1.83,0.43,3.57,1.18,5.12l125.21-125.21V155.17z"/>
				<path class="st27" d="M199.54,138.79h-9.48L84.99,243.86v17.16l120.57-120.57C203.79,139.4,201.74,138.79,199.54,138.79z"/>
				<polygon class="st27" points="211.37,263.97 98.34,377 115.5,377 211.37,281.13 				"/>
			</g>
		</g>
		<g>
			<path class="st22" d="M414.48,384.44c0,2.83-37.65,5.12-84.09,5.12s-84.09-2.29-84.09-5.12c0-2.83,37.65-5.12,84.09-5.12
				S414.48,381.61,414.48,384.44z"/>
			<path class="st23" d="M385.38,131.77H275.64c-9.06,0-16.4,7.34-16.4,16.4v220.18c0,9.06,7.34,16.4,16.4,16.4h109.74
				c9.06,0,16.4-7.34,16.4-16.4V148.17C401.78,139.11,394.43,131.77,385.38,131.77z"/>
			<path class="st24" d="M383.91,137.26H277.1c-6.53,0-11.83,5.3-11.83,11.83V366.7c0,6.53,5.3,11.83,11.83,11.83h106.81
				c6.53,0,11.83-5.3,11.83-11.83V149.09C395.74,142.56,390.44,137.26,383.91,137.26z"/>
			<path class="st25" d="M381.87,138.79H279.14c-6.53,0-11.83,5.3-11.83,11.83v214.55c0,6.53,5.3,11.83,11.83,11.83h102.72
				c6.53,0,11.83-5.3,11.83-11.83V150.62C393.7,144.08,388.4,138.79,381.87,138.79z"/>
			<path class="st23" d="M347.62,149.78h-33.08c-2.79,0-5.31-1.16-6.38-2.95l-6.16-10.24h58.15l-6.16,10.24
				C352.93,148.61,350.42,149.78,347.62,149.78z"/>
			<g class="st26">
				<path class="st27" d="M393.7,155.17L267.32,281.55v83.62c0,1.83,0.43,3.57,1.18,5.12L393.7,245.08V155.17z"/>
				<path class="st27" d="M381.87,138.79h-9.48L267.32,243.86v17.16l120.57-120.57C386.12,139.4,384.07,138.79,381.87,138.79z"/>
				<polygon class="st27" points="393.7,263.97 280.67,377 297.83,377 393.7,281.13 				"/>
			</g>
		</g>
		<g>
			<defs>
				<rect id="SVGID_17_" x="102.01" y="138.79" width="279.86" height="238.21"/>
			</defs>
			<clipPath id="SVGID_18_">
				<use xlink:href="#SVGID_17_"  style="overflow:visible;"/>
			</clipPath>
			<g class="st28">
				<path class="st29" d="M251.76,208.65c-5.48,0-10.27,2.93-12.91,7.3c-2.63-4.37-7.43-7.3-12.91-7.3
					c-8.32,0-15.06,6.74-15.06,15.06c0,19.36,27.96,31.25,27.96,31.25s27.96-14.17,27.96-31.25
					C266.81,215.39,260.07,208.65,251.76,208.65z"/>
				<path class="st30" d="M223.57,258.05l-0.65-2.48c0,0-7.24-7.49-6.09-11.64c1.16-4.16,5.85-2.5,8.49-2.19
					c2.63,0.3,1.68,3.29-1.96,4.43c3.93-0.07,7.06,4.72,7.96,8.23c0.47,2.05-0.21,3.58-0.69,4.82
					C229.67,261.7,223.57,258.05,223.57,258.05z"/>
				<path class="st30" d="M252.63,257.24l0.65-2.48c0,0,7.24-7.49,6.09-11.64c-1.16-4.16-5.85-2.5-8.49-2.19
					c-2.63,0.3-1.68,3.29,1.96,4.43c-3.93-0.07-7.06,4.72-7.96,8.23c-0.47,2.05,0.21,3.58,0.69,4.82
					C246.53,260.89,252.63,257.24,252.63,257.24z"/>
				<g>
					<g>
						<g>
							<path class="st31" d="M190.81,469.02c0,0-8.33-4.02-9.81-6.93c0,0-4.62,0.01-5.91,4.61c0,0-6.32,1.1-9.51-2.63L164.81,476
								l37.89-0.02C201.66,473.24,200.83,470.26,190.81,469.02z"/>
							<path class="st31" d="M165.58,464.06c0.64,0.75,1.37,1.35,2.19,1.7c0.92,2.43,2.69,6.94,5.45,10.24l-8.41,0L165.58,464.06z"
								/>
							<path class="st32" d="M164.81,476l-0.2,2.75l38.29-0.02c0.04-1.1,0.29-1.65-0.2-2.75L164.81,476z"/>
						</g>
					</g>
					<g>
						<g>
							<path class="st31" d="M145.68,474.07l-1.87-7.28c0,0-1.76-5-7.17-5c-5.41,0-7.17,5-7.17,5l-1.34,8.14L145.68,474.07z"/>
						</g>
						<g>
							<path class="st33" d="M146.39,476.09c0.1,0.55,0.12,1.55-0.55,2.57h-17.43c0,0-0.6-1.11-0.57-2.61L146.39,476.09z"/>
							<path class="st31" d="M127.85,475.95c0.09-1.58,3.42-6.4,8.99-6.4c7.13,0,8.76,4.04,9.42,6.13c0,0,0.07,0.18,0.13,0.47
								l-18.54-0.02C127.85,476.07,127.85,476.01,127.85,475.95z"/>
						</g>
					</g>
					<g>
						<g>
							<path class="st34" d="M207.19,275.44l13.67-19.7l10.82,4.35c0,0-10.62,24.63-13.76,29.79c-2.86,4.72-7.54,3.47-13.07,0.69
								c-10.02-5.04-28.02-14.14-30.5-21.79c-2.48-7.65,4.59-10.23,7.82-8.35C190.12,265.04,203.5,273.47,207.19,275.44z"/>
						</g>
					</g>
					<path class="st35" d="M183.73,338.13l0.68,126.24c0,0-9.88,4.96-19.19,1.09l-3.56-105.08l-2.75-0.13l-13.45,105.22
						c0,0-7.11,3.2-17.61-0.67l10.66-126.67H183.73z"/>
					<path class="st36" d="M138.51,338.13h45.32v17.63c-3.72,1.63-11.22,4.24-22.04,6.15l-0.1-1.52l-2.76-0.13l-0.31,2.16
						c-6.3,0.96-13.66,1.64-22.08,1.79L138.51,338.13z"/>
					<g>
						<path class="st30" d="M163.88,253.45l0.23,8.38l-13.88,0.38l-0.3-10.9C155.77,253.95,161.52,253.73,163.88,253.45z"/>
						<path class="st37" d="M149.94,251.31l-0.23-8.4l13.88-0.38l0.3,10.92C161.52,253.73,155.77,253.95,149.94,251.31z"/>
					</g>
					<path class="st30" d="M158.16,263.72c-8.22,0-10.19-4.56-10.47-5.98c5.83-1.17,11.61-1.65,18.79-0.68
						C166.65,258.71,166.23,263.72,158.16,263.72z"/>
					<path class="st38" d="M129.21,263.88c0,0,7.91-4.32,17.53-6.42c0.42-0.09,0.83-0.18,1.24-0.26c0.28,1.42,1.82,5.78,10.04,5.78
						c8.07,0,8.33-4.64,8.16-6.29c0.6,0.08,1.21,0.17,1.83,0.27c4.38,0.69,9.8,1.44,14.17,3.48c0,0,5.88,26.42,3.29,86.58
						c0,0-19.55,7.03-50.94,1.05c0,0,2.95-42.14-1.12-58.61C133.41,289.46,130.5,274.23,129.21,263.88z"/>
					<g>
						<g>
							<path class="st39" d="M173.62,245.65c0,0,12.31-13.55,12.59-32.17c0.3-20.2-11.92-28.67-27.27-28.9
								c-16.87-0.25-24.68,5.3-29.98,16.13c-4.77,9.74-3.15,19.7,0.69,28.81C135.59,243.64,148.67,246.25,173.62,245.65z"/>
							<path class="st30" d="M183.31,215.15c0,17.41,1.69,23.19-1.1,28.25c-2.63,4.76-10.42,11.32-28.62,6.76
								c-13.04-3.26-16.32-13.28-16.32-13.28s-1.73,1.03-3.99,0.73c-1.88-0.25-4.37-2.1-4.14-5.4c0.32-4.6,2.44-5.99,4.21-6.48
								c3.15-0.87,5.28,2.12,5.28,2.12s0-6.62,0.75-11.49c0.74-4.87,1.57-9.98,24.58-11.39c5.68-0.35,13.38-0.49,16.43,0.97
								C183.2,207.29,183.31,210.47,183.31,215.15z"/>
							<g>
								<g>
									<path class="st40" d="M169.09,228.46c0.77-0.43,1.62-0.73,2.52-0.84c0.89-0.1,1.88,0,2.66,0.65
										c0.36,0.33,0.61,0.89,0.47,1.39c-0.01,0.26-0.16,0.46-0.24,0.69c-0.14,0.19-0.27,0.38-0.43,0.55
										c-0.64,0.67-1.45,1.07-2.25,1.43c0.71-0.52,1.45-1.01,1.97-1.67c0.55-0.62,0.77-1.54,0.15-2.03
										c-0.56-0.53-1.47-0.66-2.3-0.64C170.79,228.01,169.94,228.22,169.09,228.46z"/>
								</g>
							</g>
							<g>
								<path class="st40" d="M158.2,237.05c-0.12,1.02,0.51,1.91,1.17,2.56c0.69,0.66,1.59,1.06,2.54,1.21
									c0.95,0.15,1.93,0.1,2.91-0.04c0.49-0.07,0.97-0.2,1.47-0.29c0.49-0.13,0.97-0.27,1.47-0.38c-0.45,0.24-0.91,0.45-1.37,0.67
									c-0.48,0.16-0.96,0.35-1.47,0.47c-1,0.24-2.06,0.33-3.11,0.17c-1.04-0.18-2.08-0.67-2.78-1.48
									C158.34,239.17,157.83,238.05,158.2,237.05z"/>
							</g>
							<g>
								
									<linearGradient id="SVGID_19_" gradientUnits="userSpaceOnUse" x1="1627.8301" y1="1258.7875" x2="1624.9741" y2="1265.4155" gradientTransform="matrix(-0.9915 -0.13 -0.13 0.9915 1939.573 -817.3545)">
									<stop  offset="0" style="stop-color:#C9926A"/>
									<stop  offset="1" style="stop-color:#C9926A;stop-opacity:0"/>
								</linearGradient>
								<path class="st41" d="M166.68,218.09c0.54,2.05,2.47,8.02-3.34,9.24c-5.8,1.22-5.29-6.04-5.29-6.04
									S164.03,218.7,166.68,218.09z"/>
								<path class="st42" d="M165.37,217.87c-6.67,1.3-10.02,4.43-5.75,3.87C163.88,221.18,169.76,217.01,165.37,217.87z"/>
								<path class="st43" d="M166.39,227.15c-1.04-2.33-3.56-1.94-4.33,0.47"/>
							</g>
							<g>
								
									<linearGradient id="SVGID_20_" gradientUnits="userSpaceOnUse" x1="1612.603" y1="1257.1202" x2="1613.6808" y2="1263.964" gradientTransform="matrix(-0.9915 -0.13 -0.13 0.9915 1939.573 -817.3545)">
									<stop  offset="0" style="stop-color:#C9926A"/>
									<stop  offset="1" style="stop-color:#C9926A;stop-opacity:0"/>
								</linearGradient>
								<path class="st44" d="M173.79,217.87c-0.56,1.58-2.45,7.29,2.04,8.63c4.49,1.34,4.65-6.02,4.65-6.02
									S175.84,218.52,173.79,217.87z"/>
								<path class="st42" d="M174.93,217.71c4.96,0.9,7.99,4.07,3.49,2.96C173.92,219.56,172.34,217.24,174.93,217.71z"/>
								<path class="st43" d="M177.4,226.29c-0.78-2.88-3.85-2.48-4.22-0.23"/>
							</g>
						</g>
						<path class="st39" d="M136.93,195.27c3.85-15.53,30.36-16.59,30.36-16.59c13.93-8.47,8.7,2.37,8.7,2.37
							c23.3-8.34,12.2,12.65,12.2,12.65c8.63-0.3-0.14,7.85-0.14,7.85s-15.22,7.29-19.97,7.8c-4.75,0.52-24.48-8.87-24.48-8.87
							L136.93,195.27z"/>
					</g>
				</g>
				<path class="st45" d="M126.1,345.78c0.13,0.43,5.1,5.2,6.43,6.46c0.22,0.21,0.4,0.44,0.56,0.69l3.65,6.02
					c0.12,0.2,0.14,0.45,0.04,0.67l0,0c-0.21,0.45-0.8,0.56-1.15,0.21l-3.75-3.7c-0.27-0.26-0.71-0.01-0.62,0.36l1.13,4.28
					l1.52,7.52c0.08,0.4-0.14,0.79-0.53,0.92l-0.05,0.02c-0.42,0.14-0.88-0.08-1.02-0.5l-2.92-8.38c0,0,1.73,7.99,1.84,8.42
					c0.1,0.43-0.77,0.21-0.9-0.1l-3.13-7.36c0,0,2.59,6.47,2.69,6.69c0.16,0.38-0.6,0.29-0.6,0.29c-0.22-0.05-0.4-0.19-0.51-0.39
					l-3.52-6.28c0,0,2,4.69,2.26,5.27c0.26,0.58-0.62,0.34-0.62,0.34c-0.2-0.06-0.36-0.19-0.46-0.37l-3.21-5.67
					c-0.12-0.21-0.19-0.46-0.19-0.7l-0.18-13.6L126.1,345.78z"/>
				<path class="st46" d="M139.87,273.84c1.73-7.59-5.58-11.85-9.93-10.32c-2.15,0.76-3.24,2.46-4.17,5.29
					c-4.29,12.98-8.52,28.09-11.46,42.83c-1.21,6.05,6.43,37.69,6.43,37.69l10.46-2.6c0,0-1.88-34.32-1.61-35.29
					C132.2,301.98,138.4,280.29,139.87,273.84z"/>
			</g>
			<g class="st28">
				<path class="st47" d="M311.08,197.35c-2.3,2.6-5.05,12.55-4.44,25.56c0.61,13.01-0.61,35.36-0.61,35.36s32.6,1.68,41.78-6.73
					c9.18-8.42,2.73-41.85,2.73-41.85l-11.45-18.76L311.08,197.35z"/>
				<path class="st30" d="M329.66,247.58l19.78,4.21c1.56-0.52,2.72,17.92-0.86,22.34c-1.75,2.16-14.24,11.8-16.28,25.56
					c-0.86,5.75,0.23,8.2-2.09,18.23l-20.51,4.09c0,0,2.77-1.96,1.54-13.54c-1.2-11.3-6.39-32.14-7.15-40.12
					c-1.02-10.83,2.59-16.84,2.59-16.84L329.66,247.58z"/>
				<path class="st30" d="M334.02,251.13l1.69-15.2l-8.57-0.03l-3.52,15.23C326.45,253.97,329.62,256.4,334.02,251.13z"/>
				<path class="st48" d="M324.94,245.42l2.2-9.52l8.57,0.03l-1.17,10.53C332.22,246.71,328.38,246.81,324.94,245.42z"/>
				<path class="st30" d="M359.32,266.6c0.42,2.33,2.85,19.77,6.39,38.91c-3.25,1.33-8.85,3.4-9.55,3.48
					c-3.63-10.11-11.51-33.33-14.11-36.61c-2.63-3.33,0.18-23.43,5.08-21.05C351.52,253.46,357.59,256.94,359.32,266.6z"/>
				<path class="st30" d="M313.66,268.52c-2.25,0.75-25.25,14.49-42.57,18.48c-1.78-3.02-3.63-7.35-3.81-8.04
					c18.65-11.6,35.3-23.66,38.18-26.7c2.91-3.09,23.21-3.2,21.56,2C325.54,258.91,322.97,265.41,313.66,268.52z"/>
				<path class="st30" d="M264.63,283.35l-19.06-24.93l7.06-1.17c0,0,12.5,10.52,21.86,21.88
					C278.93,284.5,269.93,291.06,264.63,283.35z"/>
				<path class="st49" d="M311.69,300.88c3.75,0.64,12.65,0.52,21.34,1.86c13.55,14.44,37.48,68.42,39,76.77
					c0.22,1.24-9.23,7.75-20.29,10.74c-16.65,4.5-43.62,5.08-50.49,1.79C301.25,392.04,296.13,324.05,311.69,300.88z"/>
				<g>
					<path class="st50" d="M367.98,356.09L367.98,356.09L367.98,356.09L367.98,356.09C367.97,356.09,367.98,356.09,367.98,356.09
						L367.98,356.09z"/>
				</g>
				<g>
					<path class="st51" d="M339.56,267.6c0.79-9.9,4.91-17.2,4.91-17.2l-2.73-0.33c0,0-9.91,17.73-19.52,16.36
						c-7.92-1.13-2.86-17.16-2.86-17.16l-5.7,0.9l-4.89,13.44c-1.68,1.5-7.05,6.02-6.72,11.92c0.26,4.77,3.81,9.47,3.81,9.47
						s3.19,17.87,3.84,21.45c1.47,8.09,23.53,5.56,24.55,0.55c1.03-5.01,2.35-17.1,10.1-28.43
						C339.18,276.34,338.94,275.3,339.56,267.6z"/>
				</g>
				<path class="st52" d="M330.16,284.01c-0.04,0.79-5.16,1.15-11.43,0.81c-6.27-0.34-11.32-1.25-11.27-2.04
					c0.04-0.79,5.16-1.15,11.43-0.81C325.16,282.31,330.21,283.22,330.16,284.01z"/>
				<path class="st53" d="M334.72,342.26c0,0.02,0,0.04,0.01,0.06c-0.04,0.03-0.08,0.07-0.12,0.11
					C334.64,342.37,334.68,342.32,334.72,342.26z"/>
				<path class="st53" d="M308.11,324.19c0.02-0.01,0.04-0.02,0.05-0.03c0.05,0.02,0.09,0.05,0.14,0.07
					C308.24,324.22,308.17,324.2,308.11,324.19z"/>
				<path class="st53" d="M305.88,359.96c0.02-0.01,0.04-0.02,0.05-0.03c0.05,0.03,0.09,0.05,0.14,0.07
					C306.01,359.99,305.95,359.97,305.88,359.96z"/>
				<g>
					<path class="st54" d="M339.29,234.06c0,0-1.4,5.21-4.15,7.18c-2.75,1.97-4.52,1.38-4.52,1.38l-0.56-5.23l8.63-8.74
						L339.29,234.06z"/>
					<g>
						<path class="st30" d="M328.3,243.54c-6.44-1.21-12.62-7.14-14.34-13.75c-1.72-6.61-0.07-11.81-0.45-14.39
							c-0.38-2.58-0.82-9.42,2.99-21.05c1.77-5.41,16.46-7.68,26.04,0.42c5.29,4.47,7.59,3.8,8,14.91
							c0.14,3.92-1.2,10.22-1.92,14.31c-0.72,4.08-1.85,9.04-6.04,14.25C339.6,241.95,335.28,244.85,328.3,243.54z"/>
						<g>
							<g>
								<path class="st40" d="M325.8,220.24c-0.92-0.21-1.84-0.39-2.75-0.37c-0.9,0.02-1.85,0.22-2.43,0.8
									c-0.63,0.56-0.35,1.53,0.27,2.17c0.6,0.68,1.42,1.16,2.2,1.68c-0.88-0.33-1.77-0.72-2.49-1.4
									c-0.17-0.17-0.33-0.37-0.49-0.57c-0.1-0.24-0.27-0.45-0.3-0.72c-0.17-0.53,0.07-1.14,0.44-1.51
									c0.79-0.75,1.86-0.9,2.81-0.84C324.02,219.54,324.95,219.83,325.8,220.24z"/>
							</g>
						</g>
						<g>
							<path class="st40" d="M333.43,228.93c0.34,0.77-0.02,1.66-0.47,2.33c-0.47,0.69-1.17,1.21-1.94,1.53
								c-0.77,0.31-1.61,0.45-2.42,0.39c-0.41,0-0.81-0.1-1.2-0.15c-0.39-0.1-0.77-0.22-1.15-0.35c0.8,0.05,1.58,0.14,2.35,0.08
								c0.77-0.03,1.52-0.19,2.21-0.47c0.69-0.28,1.32-0.72,1.81-1.28c0.26-0.28,0.46-0.6,0.61-0.95
								C333.4,229.71,333.5,229.32,333.43,228.93z"/>
						</g>
						<g>
							
								<linearGradient id="SVGID_21_" gradientUnits="userSpaceOnUse" x1="-14421.2813" y1="-562.1347" x2="-14424.3418" y2="-555.0334" gradientTransform="matrix(0.9837 -0.1796 0.1796 0.9837 14621.2266 -1827.348)">
								<stop  offset="0" style="stop-color:#C9926A"/>
								<stop  offset="1" style="stop-color:#C9926A;stop-opacity:0"/>
							</linearGradient>
							<path class="st55" d="M328.92,208.9c-0.46,2.22-2.21,8.71,4.07,9.7c6.28,0.99,5.34-6.75,5.34-6.75
								S331.79,209.41,328.92,208.9z"/>
							<path class="st56" d="M330.31,208.6c7.2,1.04,10.96,4.21,6.36,3.83C332.08,212.05,325.56,207.91,330.31,208.6z"/>
							<path class="st57" d="M329.73,218.58c0.99-2.55,3.71-2.27,4.66,0.27"/>
						</g>
						<g>
							
								<linearGradient id="SVGID_22_" gradientUnits="userSpaceOnUse" x1="-14439.8965" y1="961.7629" x2="-14438.7422" y2="969.095" gradientTransform="matrix(1 3.500000e-03 -3.500000e-03 1 14760.1191 -701.2361)">
								<stop  offset="0" style="stop-color:#C9926A"/>
								<stop  offset="1" style="stop-color:#C9926A;stop-opacity:0"/>
							</linearGradient>
							<path class="st58" d="M320.61,208.84c0.37,1.75,1.55,8.09-3.4,8.87c-4.96,0.78-3.52-7.07-3.52-7.07
								S318.35,209.24,320.61,208.84z"/>
							<path class="st56" d="M319.43,208.51c-5.39,0.25-9.07,3.18-4.13,2.64C320.24,210.61,322.24,208.38,319.43,208.51z"/>
							<path class="st57" d="M315.58,217.26c1.24-2.94,4.44-2.08,4.51,0.36"/>
						</g>
					</g>
				</g>
				<path class="st56" d="M313.47,192.48c-1.43,6.15-2.99,13.62-1.5,16.5c9.27-1.36,20.03-0.9,21.69-1.56
					c1.66-0.66,1.71-6.52,3.2-12.46c0.35,9.42,4.09,15.55,6.83,17.1c4.71,3.24,5.83,11.59,7.67,15.57
					c4.79-18.73-1.87-37.87-9.12-41.18c-7.25-3.31-21.45-3.69-28.28,5.9"/>
				<path class="st56" d="M342,263.77c0,0,2.62-17.13,2.85-34.3c0.22-17.17-3.12-24.81-3.12-24.81s-1.63-18.44-12.77-9.61
					c-15.12-1.93-18.06,7.41-19.75,14.38c-0.9,3.73-1.66,11.17-1.66,11.17s-1.11-1.54-1.87-5.71c-0.76-4.17,0.07-9.8,1.36-15.95
					c1.3-6.14,7.61-12.64,17.37-15.78c9.76-3.13,21.02-0.73,24.89,5.55l0,0l0,0c3.69,0.18,6.9,2.56,8.13,6.04v0
					c4.7,13.23,3.76,27,2.79,42.96c-0.97,15.97-1.23,19.52-1.29,23.07L342,263.77z"/>
				<path class="st30" d="M361.87,337.14c-0.01,0.48-5,7.32-5,7.32l-1.17,7.43l0.81,0.99l3.44-6.13l0.06,5.37l0.52,7.77l1.41,0.1
					l0.57-8.98l0.43,8.37l0.68-0.15l1.02-7.88l-0.79,7.15l0.93-0.53l1.63-6.81l-0.81,5.91l0.97-0.63l1.59-6.5l-2.74-12.86
					L361.87,337.14z"/>
				<path class="st30" d="M358.45,300.03c-3.34,0.75-4.63,3.1-3.06,7.61c6.89,19.93,6.47,32.62,6.47,32.62l3.78,2.3
					c0,0,1.69-18.99,1.19-28.48C366.25,303.24,364.29,298.72,358.45,300.03z"/>
			</g>
		</g>
		<g>
			<linearGradient id="SVGID_23_" gradientUnits="userSpaceOnUse" x1="416.8969" y1="198.386" x2="442.461" y2="176.8013">
				<stop  offset="0" style="stop-color:#6A6DB1"/>
				<stop  offset="1" style="stop-color:#926DD1"/>
			</linearGradient>
			<path class="st59" d="M445.28,174.82h-28.04c-1.33,0-2.4,1.08-2.4,2.4v18.08c0,1.33,1.08,2.4,2.4,2.4h28.04
				c1.33,0,2.4-1.08,2.4-2.4v-18.08C447.68,175.9,446.6,174.82,445.28,174.82z"/>
			<path class="st0" d="M434.35,180.89c-1.33,0-2.49,0.71-3.13,1.77c-0.64-1.06-1.8-1.77-3.13-1.77c-2.02,0-3.65,1.63-3.65,3.65
				c0,4.69,6.78,7.57,6.78,7.57s6.78-3.43,6.78-7.57C438,182.52,436.37,180.89,434.35,180.89z"/>
			<linearGradient id="SVGID_24_" gradientUnits="userSpaceOnUse" x1="420.2789" y1="202.2426" x2="448.7108" y2="178.2365">
				<stop  offset="0" style="stop-color:#6A6DB1"/>
				<stop  offset="1" style="stop-color:#926DD1"/>
			</linearGradient>
			<path class="st60" d="M421.29,197.01v7.83c0,0.45,0.48,0.57,0.82,0.24c0.34-0.33,6.21-7.65,6.21-7.65L421.29,197.01z"/>
		</g>
		<g>
			
				<linearGradient id="SVGID_25_" gradientUnits="userSpaceOnUse" x1="5328.8232" y1="116.8457" x2="5354.3872" y2="95.261" gradientTransform="matrix(-1 0 0 1 5485.3486 0)">
				<stop  offset="0" style="stop-color:#6A6DB1"/>
				<stop  offset="1" style="stop-color:#926DD1"/>
			</linearGradient>
			<path class="st61" d="M128.15,93.28h28.04c1.33,0,2.4,1.08,2.4,2.4v18.08c0,1.33-1.08,2.4-2.4,2.4h-28.04
				c-1.33,0-2.4-1.08-2.4-2.4V95.68C125.74,94.36,126.82,93.28,128.15,93.28z"/>
			<path class="st0" d="M139.07,99.35c1.33,0,2.49,0.71,3.13,1.77c0.64-1.06,1.8-1.77,3.13-1.77c2.02,0,3.65,1.63,3.65,3.65
				c0,4.69-6.78,7.57-6.78,7.57s-6.78-3.43-6.78-7.57C135.42,100.98,137.06,99.35,139.07,99.35z"/>
			
				<linearGradient id="SVGID_26_" gradientUnits="userSpaceOnUse" x1="5332.2051" y1="120.7023" x2="5360.6367" y2="96.6963" gradientTransform="matrix(-1 0 0 1 5485.3486 0)">
				<stop  offset="0" style="stop-color:#6A6DB1"/>
				<stop  offset="1" style="stop-color:#926DD1"/>
			</linearGradient>
			<path class="st62" d="M152.14,115.47v7.83c0,0.45-0.48,0.57-0.82,0.24c-0.34-0.33-6.21-7.65-6.21-7.65L152.14,115.47z"/>
		</g>
		<g>
			
				<linearGradient id="SVGID_27_" gradientUnits="userSpaceOnUse" x1="5237.8931" y1="123.5769" x2="5258.4199" y2="106.2453" gradientTransform="matrix(-1 0 0 1 5485.3486 0)">
				<stop  offset="0" style="stop-color:#6A6DB1"/>
				<stop  offset="1" style="stop-color:#926DD1"/>
			</linearGradient>
			<path class="st63" d="M223.25,106.16h25.35c0.89,0,1.61,0.72,1.61,1.61v12.14c0,0.89-0.72,1.61-1.61,1.61h-25.35
				c-0.89,0-1.61-0.72-1.61-1.61v-12.14C221.64,106.88,222.36,106.16,223.25,106.16z"/>
			
				<linearGradient id="SVGID_28_" gradientUnits="userSpaceOnUse" x1="5245.311" y1="124.5727" x2="5264.4033" y2="108.4526" gradientTransform="matrix(-1 0 0 1 5485.3486 0)">
				<stop  offset="0" style="stop-color:#6A6DB1"/>
				<stop  offset="1" style="stop-color:#926DD1"/>
			</linearGradient>
			<path class="st64" d="M239.36,121.06v5.26c0,0.3-0.33,0.38-0.55,0.16c-0.23-0.22-4.17-5.14-4.17-5.14L239.36,121.06z"/>
			<g>
				<path class="st0" d="M229.87,113.79c0,0.71-0.57,1.28-1.28,1.28s-1.28-0.57-1.28-1.28c0-0.71,0.57-1.28,1.28-1.28
					S229.87,113.08,229.87,113.79z"/>
				<path class="st0" d="M237.25,113.79c0,0.71-0.57,1.28-1.28,1.28c-0.71,0-1.28-0.57-1.28-1.28c0-0.71,0.57-1.28,1.28-1.28
					C236.67,112.51,237.25,113.08,237.25,113.79z"/>
				<path class="st0" d="M244.63,113.79c0,0.71-0.57,1.28-1.28,1.28c-0.71,0-1.28-0.57-1.28-1.28c0-0.71,0.57-1.28,1.28-1.28
					C244.05,112.51,244.63,113.08,244.63,113.79z"/>
			</g>
		</g>
		<g>
			<path class="st29" d="M37.29,188.96h25.35c0.89,0,1.61,0.72,1.61,1.61v12.14c0,0.89-0.72,1.61-1.61,1.61H37.29
				c-0.89,0-1.61-0.72-1.61-1.61v-12.14C35.68,189.68,36.4,188.96,37.29,188.96z"/>
			<path class="st29" d="M53.4,203.86v5.26c0,0.3-0.33,0.38-0.55,0.16c-0.23-0.22-4.17-5.14-4.17-5.14L53.4,203.86z"/>
			<g>
				<path class="st0" d="M43.91,196.59c0,0.71-0.57,1.28-1.28,1.28c-0.71,0-1.28-0.57-1.28-1.28c0-0.71,0.57-1.28,1.28-1.28
					C43.34,195.31,43.91,195.88,43.91,196.59z"/>
				<path class="st0" d="M51.29,196.59c0,0.71-0.57,1.28-1.28,1.28c-0.71,0-1.28-0.57-1.28-1.28c0-0.71,0.57-1.28,1.28-1.28
					C50.72,195.31,51.29,195.88,51.29,196.59z"/>
				<path class="st0" d="M58.67,196.59c0,0.71-0.57,1.28-1.28,1.28c-0.71,0-1.28-0.57-1.28-1.28c0-0.71,0.57-1.28,1.28-1.28
					C58.1,195.31,58.67,195.88,58.67,196.59z"/>
			</g>
		</g>
		<g>
			<path class="st29" d="M369.76,70.29h-44.9c-2.12,0-3.85,1.72-3.85,3.85v28.95c0,2.12,1.72,3.85,3.85,3.85h44.9
				c2.12,0,3.85-1.72,3.85-3.85V74.14C373.61,72.01,371.88,70.29,369.76,70.29z"/>
			<path class="st0" d="M352.26,80.01c-2.13,0-3.99,1.14-5.01,2.83c-1.02-1.7-2.88-2.83-5.01-2.83c-3.23,0-5.84,2.62-5.84,5.84
				c0,7.51,10.85,12.13,10.85,12.13s10.85-5.5,10.85-12.13C358.11,82.63,355.49,80.01,352.26,80.01z"/>
			<path class="st29" d="M331.35,105.82v12.54c0,0.71,0.78,0.91,1.31,0.38c0.54-0.52,9.95-12.25,9.95-12.25L331.35,105.82z"/>
		</g>
		<g>
			<linearGradient id="SVGID_29_" gradientUnits="userSpaceOnUse" x1="419.9233" y1="159.4037" x2="416.4445" y2="160.5337">
				<stop  offset="0" style="stop-color:#6A6DB1"/>
				<stop  offset="1" style="stop-color:#926DD1"/>
			</linearGradient>
			<circle class="st65" cx="418.18" cy="159.97" r="1.83"/>
			<linearGradient id="SVGID_30_" gradientUnits="userSpaceOnUse" x1="294.7177" y1="108.767" x2="285.6726" y2="111.7049">
				<stop  offset="0" style="stop-color:#6A6DB1"/>
				<stop  offset="1" style="stop-color:#926DD1"/>
			</linearGradient>
			<path class="st66" d="M294.95,110.24c0,2.63-2.13,4.75-4.75,4.75s-4.75-2.13-4.75-4.75s2.13-4.75,4.75-4.75
				S294.95,107.61,294.95,110.24z"/>
			<linearGradient id="SVGID_31_" gradientUnits="userSpaceOnUse" x1="296.7419" y1="97.2111" x2="295.3503" y2="97.6631">
				<stop  offset="0" style="stop-color:#6A6DB1"/>
				<stop  offset="1" style="stop-color:#926DD1"/>
			</linearGradient>
			<circle class="st67" cx="296.05" cy="97.44" r="0.73"/>
			<linearGradient id="SVGID_32_" gradientUnits="userSpaceOnUse" x1="243.6824" y1="154.3971" x2="240.8993" y2="155.3011">
				<stop  offset="0" style="stop-color:#6A6DB1"/>
				<stop  offset="1" style="stop-color:#926DD1"/>
			</linearGradient>
			<path class="st68" d="M243.75,154.85c0,0.81-0.65,1.46-1.46,1.46c-0.81,0-1.46-0.65-1.46-1.46c0-0.81,0.65-1.46,1.46-1.46
				C243.1,153.39,243.75,154.04,243.75,154.85z"/>
			<linearGradient id="SVGID_33_" gradientUnits="userSpaceOnUse" x1="182.5602" y1="110.1764" x2="177.6897" y2="111.7583">
				<stop  offset="0" style="stop-color:#6A6DB1"/>
				<stop  offset="1" style="stop-color:#926DD1"/>
			</linearGradient>
			<path class="st69" d="M182.68,110.97c0,1.41-1.15,2.56-2.56,2.56s-2.56-1.15-2.56-2.56c0-1.41,1.15-2.56,2.56-2.56
				S182.68,109.55,182.68,110.97z"/>
			<linearGradient id="SVGID_34_" gradientUnits="userSpaceOnUse" x1="103.5017" y1="114.1125" x2="95.848" y2="116.5985">
				<stop  offset="0" style="stop-color:#6A6DB1"/>
				<stop  offset="1" style="stop-color:#926DD1"/>
			</linearGradient>
			<path class="st70" d="M103.7,115.36c0,2.22-1.8,4.02-4.02,4.02c-2.22,0-4.02-1.8-4.02-4.02c0-2.22,1.8-4.02,4.02-4.02
				C101.9,111.33,103.7,113.13,103.7,115.36z"/>
			<linearGradient id="SVGID_35_" gradientUnits="userSpaceOnUse" x1="72.4898" y1="80.5561" x2="67.6194" y2="82.1381">
				<stop  offset="0" style="stop-color:#6A6DB1"/>
				<stop  offset="1" style="stop-color:#926DD1"/>
			</linearGradient>
			<circle class="st71" cx="70.05" cy="81.35" r="2.56"/>
			<linearGradient id="SVGID_36_" gradientUnits="userSpaceOnUse" x1="59.2541" y1="165.6737" x2="51.6005" y2="168.1597">
				<stop  offset="0" style="stop-color:#6A6DB1"/>
				<stop  offset="1" style="stop-color:#926DD1"/>
			</linearGradient>
			<circle class="st72" cx="55.43" cy="166.92" r="4.02"/>
			<linearGradient id="SVGID_37_" gradientUnits="userSpaceOnUse" x1="26.0305" y1="318.1364" x2="20.4642" y2="319.9444">
				<stop  offset="0" style="stop-color:#6A6DB1"/>
				<stop  offset="1" style="stop-color:#926DD1"/>
			</linearGradient>
			<path class="st73" d="M26.17,319.04c0,1.62-1.31,2.93-2.93,2.93c-1.62,0-2.93-1.31-2.93-2.93s1.31-2.93,2.93-2.93
				C24.86,316.11,26.17,317.42,26.17,319.04z"/>
			<linearGradient id="SVGID_38_" gradientUnits="userSpaceOnUse" x1="69.9301" y1="370.9076" x2="65.0596" y2="372.4896">
				<stop  offset="0" style="stop-color:#6A6DB1"/>
				<stop  offset="1" style="stop-color:#926DD1"/>
			</linearGradient>
			<path class="st74" d="M70.05,371.7c0,1.41-1.15,2.56-2.56,2.56c-1.41,0-2.56-1.15-2.56-2.56s1.15-2.56,2.56-2.56
				C68.91,369.14,70.05,370.28,70.05,371.7z"/>
			<linearGradient id="SVGID_39_" gradientUnits="userSpaceOnUse" x1="240.3912" y1="301.4014" x2="237.6082" y2="302.3053">
				<stop  offset="0" style="stop-color:#6A6DB1"/>
				<stop  offset="1" style="stop-color:#926DD1"/>
			</linearGradient>
			<path class="st75" d="M240.46,301.85c0,0.81-0.65,1.46-1.46,1.46s-1.46-0.65-1.46-1.46c0-0.81,0.65-1.46,1.46-1.46
				S240.46,301.05,240.46,301.85z"/>
			<linearGradient id="SVGID_40_" gradientUnits="userSpaceOnUse" x1="432.3031" y1="368.2349" x2="426.7369" y2="370.0428">
				<stop  offset="0" style="stop-color:#6A6DB1"/>
				<stop  offset="1" style="stop-color:#926DD1"/>
			</linearGradient>
			<path class="st76" d="M432.45,369.14c0,1.62-1.31,2.93-2.93,2.93s-2.93-1.31-2.93-2.93c0-1.62,1.31-2.93,2.93-2.93
				S432.45,367.52,432.45,369.14z"/>
			<linearGradient id="SVGID_41_" gradientUnits="userSpaceOnUse" x1="472.2932" y1="312.3667" x2="465.3354" y2="314.6267">
				<stop  offset="0" style="stop-color:#6A6DB1"/>
				<stop  offset="1" style="stop-color:#926DD1"/>
			</linearGradient>
			<circle class="st77" cx="468.81" cy="313.5" r="3.66"/>
			<linearGradient id="SVGID_42_" gradientUnits="userSpaceOnUse" x1="461.9589" y1="238.278" x2="457.7842" y2="239.634">
				<stop  offset="0" style="stop-color:#6A6DB1"/>
				<stop  offset="1" style="stop-color:#926DD1"/>
			</linearGradient>
			<circle class="st78" cx="459.87" cy="238.96" r="2.19"/>
			<linearGradient id="SVGID_43_" gradientUnits="userSpaceOnUse" x1="480.0848" y1="214.003" x2="474.5186" y2="215.8109">
				<stop  offset="0" style="stop-color:#6A6DB1"/>
				<stop  offset="1" style="stop-color:#926DD1"/>
			</linearGradient>
			<path class="st79" d="M480.23,214.91c0,1.62-1.31,2.93-2.93,2.93c-1.62,0-2.93-1.31-2.93-2.93c0-1.62,1.31-2.93,2.93-2.93
				C478.92,211.98,480.23,213.29,480.23,214.91z"/>
		</g>
		<g>
			<path class="st80" d="M479.1,250.59c0,1.63-1.32,2.95-2.95,2.95s-2.95-1.32-2.95-2.95c0-1.63,1.32-2.95,2.95-2.95
				S479.1,248.95,479.1,250.59z"/>
			<path class="st80" d="M460.83,204.65c0,0.89-0.72,1.61-1.61,1.61c-0.89,0-1.61-0.72-1.61-1.61s0.72-1.61,1.61-1.61
				C460.11,203.04,460.83,203.76,460.83,204.65z"/>
			<path class="st80" d="M458.7,353.5c0,0.89-0.72,1.61-1.61,1.61c-0.89,0-1.61-0.72-1.61-1.61s0.72-1.61,1.61-1.61
				C457.98,351.89,458.7,352.61,458.7,353.5z"/>
			<circle class="st80" cx="469.16" cy="135.62" r="3.49"/>
			<path class="st80" d="M415.17,89.41c0,2.67-2.16,4.84-4.84,4.84c-2.67,0-4.84-2.16-4.84-4.84c0-2.67,2.16-4.84,4.84-4.84
				C413,84.58,415.17,86.74,415.17,89.41z"/>
			<path class="st80" d="M309.06,118.42c0,1.19-0.96,2.15-2.15,2.15s-2.15-0.96-2.15-2.15c0-1.19,0.96-2.15,2.15-2.15
				S309.06,117.24,309.06,118.42z"/>
			<path class="st80" d="M253.46,79.21c0,1.63-1.32,2.95-2.95,2.95c-1.63,0-2.95-1.32-2.95-2.95c0-1.63,1.32-2.95,2.95-2.95
				C252.13,76.25,253.46,77.57,253.46,79.21z"/>
			<path class="st80" d="M238.15,185.85c0,1.48-1.2,2.69-2.69,2.69c-1.48,0-2.69-1.2-2.69-2.69c0-1.48,1.2-2.69,2.69-2.69
				C236.94,183.16,238.15,184.36,238.15,185.85z"/>
			<path class="st80" d="M175.83,95.05c0,1.19-0.96,2.15-2.15,2.15c-1.19,0-2.15-0.96-2.15-2.15c0-1.19,0.96-2.15,2.15-2.15
				C174.86,92.9,175.83,93.87,175.83,95.05z"/>
			<circle class="st80" cx="101.69" cy="87.8" r="4.03"/>
			<path class="st80" d="M71.87,124.87c0,1.19-0.96,2.15-2.15,2.15c-1.19,0-2.15-0.96-2.15-2.15c0-1.19,0.96-2.15,2.15-2.15
				C70.91,122.72,71.87,123.68,71.87,124.87z"/>
			<path class="st80" d="M26.74,172.42c0,1.04-0.84,1.88-1.88,1.88c-1.04,0-1.88-0.84-1.88-1.88s0.84-1.88,1.88-1.88
				C25.9,170.54,26.74,171.38,26.74,172.42z"/>
			<path class="st80" d="M31.31,230.71c0,1.19-0.96,2.15-2.15,2.15c-1.19,0-2.15-0.96-2.15-2.15c0-1.19,0.96-2.15,2.15-2.15
				C30.35,228.56,31.31,229.52,31.31,230.71z"/>
			<path class="st80" d="M41.78,323.11c0,0.89-0.72,1.61-1.61,1.61c-0.89,0-1.61-0.72-1.61-1.61c0-0.89,0.72-1.61,1.61-1.61
				C41.06,321.5,41.78,322.22,41.78,323.11z"/>
		</g>
	</g>
</g>
<g id="DESIGNED_BY_FREEPIK">
</g>
</svg>
