<?xml version="1.0" encoding="utf-8"?>
<!-- Generator: Adobe Illustrator 23.0.2, SVG Export Plug-In . SVG Version: 6.00 Build 0)  -->
<svg version="1.1" xmlns="http://www.w3.org/2000/svg" xmlns:xlink="http://www.w3.org/1999/xlink" x="0px" y="0px"
	 viewBox="0 0 750 500" style="enable-background:new 0 0 750 500;" xml:space="preserve">
<style type="text/css">
	.st0{fill:#FFDAD7;}
	.st1{fill:#FFFFFF;}
	.st2{fill:#F4404C;}
	.st3{fill:#8BAAE1;}
	.st4{fill:#0A0942;}
	.st5{fill:#C3D2F1;}
	.st6{fill:#13117D;}
	.st7{opacity:0.3;}
	.st8{opacity:0.4;fill:#C3D2F1;}
	.st9{fill:#EFC863;}
	.st10{fill:#CC6F49;}
	.st11{fill:#C4533A;}
	.st12{fill:#FA9778;}
</style>
<g id="BACKGROUND">
	<rect class="st0" width="750" height="500"/>
</g>
<g id="OBJECTS">
	<g>
		<path class="st1" d="M446.33,236.66h107.31c-0.92-1.48-2.66-2.7-4.4-3.17c-3.02-0.82-6.43-0.65-8.97-2.48
			c-2.45-1.77-3.54-5.09-6.19-6.56c-5.57-3.1-13.42,4.06-18.45,0.15c-3-2.33-3.14-7.59-6.7-8.9c-3.44-1.27-6.68,2.3-10.25,3.13
			c-4.84,1.12-9.34-2.99-11.79-7.31c-2.45-4.32-4.03-9.37-7.87-12.52c-3.04-2.5-7.31-3.44-11.12-2.44c-3.81,1-7.07,3.91-8.49,7.59
			c-1.05,2.71-1.12,5.69-1.7,8.54c-0.58,2.85-1.88,5.82-4.46,7.15c-1.67,0.86-3.66,0.93-5.34,1.78c-3.06,1.56-4.32,5.45-3.85,8.86
			C444.38,232.66,445.26,234.7,446.33,236.66z"/>
		<path class="st1" d="M637.71,357.03h88.11c-0.75-1.22-2.19-2.21-3.61-2.6c-2.48-0.68-5.28-0.53-7.36-2.04
			c-2.01-1.46-2.91-4.18-5.08-5.39c-4.58-2.54-11.02,3.34-15.15,0.13c-2.46-1.91-2.58-6.23-5.5-7.31c-2.83-1.04-5.48,1.89-8.42,2.57
			c-3.97,0.92-7.67-2.46-9.68-6.01c-2.01-3.55-3.31-7.69-6.46-10.28c-2.5-2.05-6-2.82-9.13-2c-3.13,0.82-5.8,3.21-6.97,6.23
			c-0.86,2.23-0.92,4.67-1.4,7.01c-0.48,2.34-1.54,4.78-3.66,5.87c-1.37,0.71-3.01,0.76-4.39,1.46c-2.51,1.28-3.55,4.48-3.16,7.27
			C636.11,353.75,636.84,355.43,637.71,357.03z"/>
		<path class="st1" d="M225.71,212.03h88.11c-0.75-1.22-2.19-2.21-3.61-2.6c-2.48-0.68-5.28-0.53-7.36-2.04
			c-2.01-1.46-2.91-4.18-5.08-5.39c-4.58-2.54-11.02,3.34-15.15,0.13c-2.46-1.91-2.58-6.23-5.5-7.31c-2.83-1.04-5.48,1.89-8.42,2.57
			c-3.97,0.92-7.67-2.46-9.68-6.01c-2.01-3.55-3.31-7.69-6.46-10.28c-2.5-2.06-6-2.82-9.13-2c-3.13,0.82-5.8,3.21-6.97,6.23
			c-0.86,2.23-0.92,4.67-1.4,7.01c-0.48,2.34-1.54,4.78-3.66,5.87c-1.37,0.71-3.01,0.76-4.39,1.46c-2.51,1.28-3.55,4.48-3.16,7.27
			C224.11,208.75,224.84,210.43,225.71,212.03z"/>
		<path class="st1" d="M163.5,345.99c-0.68-2.36-1.46-4.71-2.89-6.69c-1.65-2.28-4.36-4-7.16-3.67c-3.06,0.36-5.77,3.05-8.8,2.44
			c-4.37-0.88-6.23-8.08-10.6-7.23c-1.91,0.37-3.1,2.23-4.68,3.38c-3.7,2.71-9.2,1.07-12.44-2.18c-3.24-3.25-4.91-7.69-7.01-11.77
			c-2.1-4.08-5.06-8.16-9.46-9.47c-5.42-1.62-11.34,1.66-14.57,6.3c-3.24,4.64-4.41,10.36-5.58,15.9c-0.68,3.23-2.13,7.16-5.42,7.44
			c-2.25,0.19-4.23-1.54-6.47-1.84c-1.98-0.26-4.07,0.74-5.11,2.44c-0.89,1.47-0.96,3.38-0.24,4.93H163.5z"/>
	</g>
	<g>
		<g>
			<g>
				<g>
					<g>
						<path class="st2" d="M358.8,265.41c-3.67-2.98-7.33-2.89-10.96-0.72c-3.6,2.14-4.91,6.33-3.58,10.53
							c1.16,3.68,3.85,6.02,6.97,7.91c4.9,2.97,10.31,4.46,15.96,5.16c0.56,0.07,1.43-0.19,1.74-0.61
							c3.92-5.21,7.2-10.75,8.19-17.34c0.73-4.85-0.36-9.08-4.59-11.99c-5.12-3.54-12.56-0.27-13.58,5.87
							C358.9,264.52,358.87,264.82,358.8,265.41z"/>
					</g>
				</g>
			</g>
		</g>
		<g>
			<g>
				<g>
					<g>
						<path class="st2" d="M391.11,225.13c-1.04-3.06-3.19-4.33-6.08-4.4c-2.86-0.07-5.14,1.88-5.9,4.79
							c-0.66,2.55,0.04,4.88,1.16,7.11c1.76,3.5,4.35,6.33,7.36,8.78c0.3,0.24,0.9,0.4,1.23,0.28c4.16-1.59,8.07-3.61,11.04-7.06
							c2.19-2.54,3.08-5.38,1.7-8.6c-1.68-3.9-7.17-4.72-9.99-1.53C391.5,224.65,391.37,224.81,391.11,225.13z"/>
					</g>
				</g>
			</g>
		</g>
		<g>
			<g>
				<g>
					<g>
						<path class="st2" d="M355.66,207.93c-1.19-1.45-2.63-1.7-4.22-1.15c-1.57,0.55-2.41,2.08-2.23,3.82
							c0.16,1.53,1.02,2.65,2.09,3.63c1.67,1.54,3.67,2.55,5.81,3.27c0.21,0.07,0.57,0.04,0.73-0.1c1.94-1.72,3.65-3.62,4.56-6.11
							c0.67-1.83,0.58-3.57-0.84-5.03c-1.72-1.78-4.87-1.1-5.76,1.22C355.77,207.59,355.73,207.7,355.66,207.93z"/>
					</g>
				</g>
			</g>
		</g>
		<g>
			<g>
				<g>
					<g>
						<path class="st2" d="M383.19,187.46c-0.37-1.21-1.2-1.74-2.33-1.8c-1.12-0.06-2.04,0.67-2.37,1.81
							c-0.29,0.99-0.04,1.91,0.37,2.8c0.65,1.39,1.63,2.54,2.78,3.54c0.11,0.1,0.35,0.17,0.48,0.12c1.65-0.57,3.21-1.31,4.42-2.63
							c0.89-0.97,1.28-2.07,0.77-3.35c-0.61-1.55-2.75-1.94-3.9-0.73C383.34,187.28,383.29,187.34,383.19,187.46z"/>
					</g>
				</g>
			</g>
		</g>
	</g>
	<g>
		<g>
			<g>
				<g>
					<g>
						<path class="st3" d="M279.46,423.2c-3.78-22.76-0.48-46.64,9.32-67.53c4.15-8.85,9.7-17.43,17.95-22.68
							c0.37-0.24,0.75-0.47,1.14-0.69c19.85-11.35,39.19,15.85,22.38,31.36c-14.62,13.5-28.05,28.68-35.33,47.06
							c-1.64,4.13-3.1,8.42-5.8,11.95C286.43,426.2,283.88,423.65,279.46,423.2z"/>
						<g>
							<path class="st4" d="M325.02,332.81c-2.81,3.07-5.45,6.28-7.96,9.59c-2.53,3.3-4.93,6.69-7.19,10.17
								c-4.53,6.95-8.6,14.21-11.88,21.83c-1.69,3.78-3.16,7.66-4.42,11.61c-1.3,3.94-2.28,7.97-3.1,12.03
								c-1.63,8.13-2.08,16.48-1.45,24.78c-0.19-2.07-0.51-4.14-0.54-6.22c-0.04-1.04-0.1-2.08-0.11-3.12l0.04-3.13
								c0.17-4.17,0.54-8.34,1.31-12.44c0.71-4.12,1.72-8.18,2.99-12.16c1.25-3.99,2.69-7.91,4.38-11.74
								c3.38-7.64,7.47-14.95,12.16-21.85C313.93,345.26,319.12,338.69,325.02,332.81z"/>
						</g>
					</g>
					<g>
						<g>
							<path class="st5" d="M308.06,473.16c7.21-5.86,7.62-13.49,8.85-21.56c0.91-5.97-0.53-11.95,3.46-17.02
								c3.36-4.27,8.37-5.79,13.17-7.98c4.8-2.19,9.7-4.63,11.91-9.58c2.75-6.15-0.29-12.32,1.77-18.58
								c2.39-7.27,9.9-11.91,12.63-19.11c0.81-2.13,1.51-4.54,0.28-6.71c-1.95-3.43-5.5-3.74-9.25-2.7c-3.75,1.04-7,3.54-10.88,4.89
								c-7.21,2.51-15.61,1.97-23.07,2.51c-7.46,0.54-15.21,1.76-19.83,7.71c-5.59,7.2-4.49,16.59-9.1,24.15
								c-3.23,5.3-9.22,7.8-13.54,11.99c-8.78,8.5-16.09,19.91-13.7,32.5C265.38,477.89,288.73,488.87,308.06,473.16z"/>
						</g>
						<g>
							<g>
								<path class="st4" d="M355.44,374.32c-4.13,3.51-8.17,7.13-12.13,10.82c-3.98,3.68-7.88,7.44-11.7,11.28
									c-7.63,7.69-15.04,15.6-21.92,23.96c-6.95,8.29-13.43,17-19.14,26.19c-5.72,9.17-10.6,18.92-13.88,29.27
									c1.42-5.24,3.37-10.32,5.58-15.28c2.22-4.96,4.87-9.72,7.64-14.39c2.76-4.68,5.86-9.16,9.03-13.56
									c3.17-4.41,6.54-8.68,10-12.86c3.48-4.17,7.08-8.23,10.78-12.21c3.7-3.97,7.47-7.88,11.37-11.66
									C338.86,388.32,346.92,381.04,355.44,374.32z"/>
							</g>
							<g>
								<path class="st4" d="M345.04,405.37c-2.15,2.06-4.57,3.83-7.14,5.36c-2.57,1.53-5.32,2.76-8.15,3.74
									c-2.84,0.95-5.77,1.64-8.74,1.98l-2.23,0.2l-2.24,0.1l-2.23-0.05c-0.74-0.05-1.49-0.11-2.22-0.17
									c0.74-0.04,1.48-0.07,2.22-0.09l2.21-0.18l2.2-0.24l2.18-0.34c2.9-0.51,5.76-1.22,8.53-2.17c2.78-0.93,5.48-2.11,8.1-3.46
									C340.13,408.7,342.63,407.11,345.04,405.37z"/>
							</g>
							<g>
								<path class="st4" d="M307.86,385.09c-1.41,3.73-2.68,7.49-3.73,11.32c-1.05,3.83-1.94,7.69-2.54,11.61
									c-0.68,3.9-1.08,7.85-1.32,11.81l-0.14,2.97l-0.05,2.98l0,2.98c0.04,0.99,0.06,1.99,0.08,2.99
									c-0.12-0.99-0.24-1.98-0.34-2.97l-0.23-2.99l-0.09-2.99l0-3c0.08-4,0.49-7.99,1.1-11.94c0.69-3.94,1.58-7.85,2.8-11.66
									C304.6,392.38,306.07,388.65,307.86,385.09z"/>
							</g>
							<g>
								<path class="st4" d="M314.77,446.57c-2.21,1.67-4.57,3.12-7.03,4.42c-2.45,1.31-5,2.41-7.61,3.36
									c-2.62,0.93-5.29,1.71-8.01,2.25c-1.36,0.27-2.73,0.5-4.1,0.7c-1.38,0.15-2.75,0.3-4.14,0.36c0.68-0.14,1.35-0.28,2.03-0.4
									l2.02-0.44l2.01-0.45l2-0.51c2.65-0.72,5.27-1.51,7.85-2.44c2.58-0.91,5.11-1.97,7.61-3.1
									C309.9,449.17,312.34,447.89,314.77,446.57z"/>
							</g>
							<g>
								<path class="st4" d="M275.47,430.65c-0.15,3.38-0.25,6.75-0.23,10.12c0.04,3.37,0.14,6.73,0.4,10.08
									c0.23,3.35,0.6,6.7,1.05,10.03c0.23,1.67,0.49,3.33,0.77,4.99l0.43,2.49c0.17,0.83,0.32,1.66,0.46,2.49
									c-0.52-1.61-0.94-3.25-1.37-4.89c-0.38-1.65-0.73-3.31-1.05-4.97c-0.63-3.33-1.03-6.7-1.29-10.09
									c-0.23-3.38-0.31-6.78-0.17-10.17C274.62,437.37,274.92,433.99,275.47,430.65z"/>
							</g>
						</g>
					</g>
				</g>
				<g>
					<g>
						<g>
							<path class="st3" d="M168.93,447.48c-7.9-4.89-9.28-12.41-11.53-20.26c-1.66-5.8-1-11.92-5.61-16.44
								c-3.87-3.8-9.04-4.67-14.08-6.23c-5.04-1.56-10.21-3.36-13.04-7.98c-3.51-5.74-1.28-12.26-4.12-18.2
								c-3.3-6.91-11.34-10.55-14.97-17.34c-1.07-2.01-2.08-4.31-1.14-6.62c1.5-3.65,4.98-4.41,8.83-3.85
								c3.85,0.56,7.39,2.62,11.41,3.46c7.47,1.57,15.74-0.04,23.2-0.45c7.47-0.41,15.31-0.19,20.65,5.12
								c6.46,6.43,6.57,15.88,12.11,22.8c3.88,4.84,10.14,6.56,14.96,10.16c9.79,7.31,18.5,17.7,17.73,30.49
								C211.87,446.72,190.11,460.59,168.93,447.48z"/>
						</g>
						<g>
							<g>
								<path class="st4" d="M108.02,353.81c9.42,5.38,18.48,11.38,27.3,17.7c4.42,3.15,8.72,6.46,12.98,9.84
									c4.25,3.38,8.42,6.86,12.48,10.47c4.04,3.62,8.01,7.34,11.8,11.23c3.79,3.89,7.52,7.85,10.95,12.07
									c3.44,4.21,6.76,8.52,9.7,13.09c2.93,4.58,5.61,9.31,7.79,14.28c-4.78-9.74-11.06-18.66-18.08-26.88
									c-7.02-8.24-14.71-15.88-22.82-23.05c-8.05-7.24-16.56-13.96-25.24-20.43c-4.35-3.23-8.77-6.37-13.25-9.42
									C117.16,359.64,112.63,356.67,108.02,353.81z"/>
							</g>
							<g>
								<path class="st4" d="M122.92,382.96c2.64,1.36,5.34,2.56,8.13,3.52c2.79,0.95,5.63,1.71,8.52,2.21
									c2.89,0.53,5.82,0.8,8.76,0.87l2.21,0.01l2.21-0.09l2.21-0.15c0.73-0.09,1.47-0.17,2.21-0.24c-0.72,0.18-1.44,0.35-2.17,0.5
									l-2.2,0.38l-2.23,0.24l-2.24,0.13c-2.99,0.1-5.99-0.14-8.94-0.66c-2.95-0.54-5.85-1.35-8.61-2.48
									C128.01,386.08,125.35,384.68,122.92,382.96z"/>
							</g>
							<g>
								<path class="st4" d="M156.67,357.38c2.3,3.26,4.31,6.73,6.07,10.31c1.77,3.59,3.23,7.32,4.5,11.12
									c1.19,3.82,2.19,7.7,2.87,11.65l0.45,2.96l0.35,2.98l0.22,2.99c0.05,1,0.08,1.99,0.1,2.99c-0.13-0.99-0.26-1.98-0.37-2.96
									l-0.44-2.95l-0.49-2.94l-0.58-2.92c-0.82-3.88-1.8-7.72-3.06-11.48c-1.18-3.78-2.64-7.47-4.24-11.1
									C160.44,364.39,158.62,360.85,156.67,357.38z"/>
							</g>
							<g>
								<path class="st4" d="M158.99,419.2c2.6,0.95,5.2,1.84,7.84,2.6c2.64,0.75,5.3,1.42,7.99,1.94c2.69,0.54,5.4,0.93,8.13,1.25
									l2.05,0.21l2.06,0.15l2.06,0.13c0.69,0.02,1.38,0.05,2.07,0.09c-1.38,0.15-2.76,0.21-4.14,0.26
									c-1.38,0.01-2.77-0.02-4.16-0.08c-2.77-0.14-5.53-0.51-8.26-1.03c-2.72-0.55-5.41-1.26-8.03-2.19
									C163.98,421.61,161.42,420.53,158.99,419.2z"/>
							</g>
							<g>
								<path class="st4" d="M195.48,397.61c1.05,3.22,1.85,6.51,2.49,9.84c0.65,3.33,1.07,6.7,1.35,10.08
									c0.25,3.38,0.35,6.78,0.23,10.16c-0.07,1.69-0.17,3.38-0.3,5.07c-0.18,1.68-0.36,3.37-0.63,5.04
									c0.02-0.85,0.05-1.69,0.09-2.53l0.05-2.53c0.04-1.69,0.05-3.37,0.02-5.05c-0.06-3.37-0.18-6.73-0.46-10.08
									c-0.25-3.35-0.64-6.69-1.11-10.03C196.73,404.25,196.12,400.93,195.48,397.61z"/>
							</g>
						</g>
					</g>
					<g>
						<path class="st5" d="M195.2,467.47c-7.86-15.75-30.81-52.51-75.37-56.37c-3.17-0.27-5.45,3-4.07,5.87
							c6.68,13.92,27.3,47.17,74.99,56.38C194.08,473.99,196.72,470.51,195.2,467.47z"/>
						<g>
							<path class="st4" d="M119.02,414.48c5.5,3.24,10.94,6.58,16.37,9.93c5.43,3.35,10.82,6.77,16.23,10.15
								c5.37,3.45,10.76,6.86,16.11,10.35l8.01,5.24c2.65,1.78,5.32,3.53,7.95,5.33c-2.76-1.61-5.48-3.28-8.21-4.92l-8.16-5.01
								c-5.43-3.35-10.82-6.77-16.23-10.15c-5.37-3.45-10.76-6.86-16.1-10.35C129.63,421.57,124.29,418.07,119.02,414.48z"/>
						</g>
					</g>
					<g>
						<path class="st3" d="M141.04,444.82c-9.46-0.81-19.14-1.06-28.31,1.41c-9.17,2.47-17.87,8-22.32,16.39
							c-4.45,8.39-3.72,19.77,3.11,26.36c6.25,6.02,16.01,6.96,24.46,5c8.45-1.97,16.09-6.38,24-9.96
							c14.49-6.55,30.21-10.35,46.09-11.15c4.89-0.25,19.66,0.78,21.01-5.65c1.41-6.72-11.23-10.08-15.25-11.48
							C176.81,449.83,158.98,446.35,141.04,444.82z"/>
						<g>
							<path class="st4" d="M93.02,475.14c8.5-4.21,17.66-6.98,26.88-9.16c9.25-2.14,18.68-3.43,28.14-4.22l7.11-0.32
								c1.19-0.04,2.37-0.13,3.56-0.13l3.56,0.01c2.37,0.02,4.75-0.01,7.12,0.06l7.11,0.4l3.55,0.21l3.54,0.39l7.07,0.78
								c1.18,0.11,2.35,0.32,3.52,0.52l3.51,0.59l7,1.2c-4.71-0.57-9.38-1.34-14.09-1.82l-7.07-0.64L180,462.7l-3.54-0.14l-7.09-0.3
								c-2.36-0.05-4.73,0-7.09-0.01l-3.54,0.01c-1.18,0-2.36,0.1-3.54,0.15l-7.08,0.36c-9.43,0.7-18.8,2-28.05,3.97l-3.47,0.75
								c-1.15,0.27-2.29,0.58-3.44,0.87c-1.14,0.3-2.29,0.57-3.43,0.9l-3.4,1.01C101.81,471.64,97.34,473.2,93.02,475.14z"/>
						</g>
					</g>
				</g>
			</g>
			<g>
				<path class="st4" d="M130.81,212.66l53.44,272.33c0.44,2.26,1.46,4.41,3.11,6.16c1.96,2.08,5.12,4.08,9.89,3.72
					c9.54-0.71,89.34-16.95,89.34-16.95s7.9-1.55,9.97-11.6c0.57-2.76,0.49-5.56-0.04-8.26l-48.85-248.95c0,0-1.3-13.68-19.16-13.08
					l-82.49,1.63c-7.8,0.15-14.77,5.44-15.37,12.08c-0.03,0.35-0.05,0.71-0.05,1.08C130.61,211.44,130.7,212.05,130.81,212.66z"/>
				<path class="st6" d="M139.42,212.48l53.17,270.95c0.44,2.25,1.45,4.39,3.1,6.13c1.96,2.07,5.12,4.05,9.89,3.69
					c9.54-0.72,89.34-16.96,89.34-16.96s7.9-1.55,9.98-11.55c0.57-2.75,0.5-5.53-0.03-8.22l-48.61-247.68c0,0-1.29-13.61-19.15-13
					l-82.47,1.7c-7.8,0.16-14.77,5.42-15.38,12.04c-0.03,0.35-0.05,0.71-0.05,1.07C139.22,211.26,139.3,211.88,139.42,212.48z"/>
				<g>
					<path class="st5" d="M300.68,463.01c-1.21,1.94-3.47,3.3-5.96,3.79l-88.27,17.32c-0.71,0.14-1.43,0.2-2.15,0.19
						c-0.16,0-0.33-0.01-0.51-0.01c-1.05-0.05-2.49-0.17-4.02-0.49c-3.01-0.64-5.21-2.73-5.72-5.34l-8.6-43.83l-11.05-56.28
						l-4.67-23.81l-2.54-12.92l-9.09-46.31l-7.62-38.86L142,213.28c-0.16-0.83-0.15-1.69,0.05-2.54c0.01-0.03,0.01-0.06,0.02-0.09
						c0.83-3.4,4.46-5.94,8.51-6.09l53.78-1.98l39.69-1.46c0,0,3.2-0.39,6.05,2.2c1.59,1.44,3.08,3.81,3.84,7.7
						c0.58,2.96,4.43,22.6,9.73,49.59c1.46,7.44,3.03,15.44,4.68,23.81c3.48,17.75,7.28,37.14,11.03,56.29
						c3.91,19.9,7.77,39.54,11.16,56.84c2.73,13.91,5.16,26.3,7.08,36.08c2.77,14.09,4.47,22.77,4.47,22.77
						S302.61,459.9,300.68,463.01z"/>
					<g class="st7">
						<path class="st1" d="M250.1,203.32l-92,92l-7.62-38.86l53.88-53.88l39.69-1.46C244.05,201.12,247.25,200.73,250.1,203.32z"/>
						<path class="st1" d="M268.35,284.42l-93.95,93.94l-4.67-23.81l93.94-93.94C265.13,268.05,266.7,276.05,268.35,284.42z"/>
						<path class="st1" d="M290.54,397.55l-86.75,86.75c-1.05-0.05-2.49-0.17-4.02-0.49c-3.01-0.64-5.21-2.73-5.72-5.34l-8.6-43.83
							l93.93-93.93C283.29,360.61,287.15,380.25,290.54,397.55z"/>
					</g>
					<path class="st8" d="M300.68,463.01c-1.21,1.94-3.47,3.3-5.96,3.79l-88.27,17.32c-0.71,0.14-1.43,0.2-2.15,0.19
						c-0.16,0-0.33-0.01-0.51-0.01c-1.05-0.05-2.49-0.17-4.02-0.49c-3.01-0.64-5.21-2.73-5.72-5.34l-8.6-43.83l-11.05-56.28
						l-4.67-23.81l-2.54-12.92c29.13,53.94,78.27,121.66,130.43,92c2.77,14.09,4.47,22.77,4.47,22.77S302.61,459.9,300.68,463.01z"
						/>
				</g>
			</g>
		</g>
		<g>
			<g>
				<path class="st9" d="M386.31,416.85h-87.63h-3.9h-12.85l9.51,11.15v20.91c0,1.84,1.49,3.33,3.33,3.33h91.53
					c1.84,0,3.33-1.49,3.33-3.33v-28.73C389.64,418.35,388.15,416.85,386.31,416.85z"/>
				<g>
					<rect x="297.06" y="424.1" class="st1" width="83.92" height="3.04"/>
				</g>
				<g>
					<rect x="297.06" y="430.76" class="st1" width="83.92" height="3.04"/>
				</g>
				<g>
					<rect x="297.06" y="437.43" class="st1" width="31.08" height="3.04"/>
				</g>
			</g>
			<g>
				<path class="st9" d="M66.26,254.85h87.63h3.9h12.85l-9.51,11.15v20.91c0,1.84-1.49,3.33-3.33,3.33H66.26
					c-1.84,0-3.33-1.49-3.33-3.33v-28.73C62.93,256.35,64.42,254.85,66.26,254.85z"/>
				<g>
					
						<rect x="71.6" y="262.1" transform="matrix(-1 -1.224647e-16 1.224647e-16 -1 227.1162 527.2285)" class="st1" width="83.92" height="3.04"/>
				</g>
				<g>
					
						<rect x="71.6" y="268.76" transform="matrix(-1 -1.224647e-16 1.224647e-16 -1 227.1162 540.5618)" class="st1" width="83.92" height="3.04"/>
				</g>
				<g>
					
						<rect x="124.43" y="275.43" transform="matrix(-1 -1.224647e-16 1.224647e-16 -1 279.9495 553.8951)" class="st1" width="31.08" height="3.04"/>
				</g>
			</g>
		</g>
		<g>
			<g>
				<g>
					<g>
						<path class="st10" d="M273.9,487.91c-6.47-1.13-12.39-4.46-12.53-4.54c1.89-14.13,9.77-74.17,12.49-110.38h-28.41l1.32,112.36
							l0.18,0.01c-0.81,3.01-0.68,6.22-0.47,7.65c0.02,0.17,0.07,0.33,0.12,0.48c0.02,0,0.03,0,0.05,0h25.91
							c0.23-0.56,0.45-1.12,0.67-1.68c-0.02-0.2-0.04-0.4-0.03-0.61C273.22,489.99,273.48,488.94,273.9,487.91z"/>
						<path class="st9" d="M271.81,487.26c0,0,6.14,1.42,7.66,4.49c1.52,3.06-12.46,3.06-16.02,3.05s-16.1,0.44-17.13-0.39
							c-1.02-0.83-1.36-5.85-0.01-9.44c0,0,3.17,3.87,8.9,5.22C260.94,491.54,273.67,491.08,271.81,487.26z"/>
					</g>
					<g>
						<g>
							<path class="st10" d="M262.78,398.64l-4.31-17.44l-2.03-8.22h-29.47c2.7,8.05,6.12,17.85,9.84,28.29
								c-22.11,20.62-42.36,40.08-44.49,42.11c-0.03,0.03-0.08,0.06-0.13,0.09c-3.19,0.99-6.04,3.14-7.17,4.19
								c-0.12,0.12-0.23,0.24-0.33,0.38c0.01,0.01,0.02,0.02,0.03,0.04l14.8,21.27c0.59-0.13,1.18-0.27,1.76-0.42
								c0.15-0.13,0.31-0.26,0.48-0.37c1.01-0.66,2.02-1.04,3.1-1.29c-2-4.31-2.89-9.03-3.24-11.38l0.14,0.19l43.13-32.3l12.13-9.08
								C262,410.98,264.26,404.66,262.78,398.64z"/>
							<path class="st9" d="M204.22,465.19c0,0,2.34,5.85,0.69,8.85c-1.65,3-9.62-8.48-11.65-11.41
								c-2.03-2.92-9.56-12.97-9.46-14.28c0.1-1.31,4.03-4.46,7.75-5.4c0,0-1.36,4.81,0.8,10.29
								C194.5,458.71,202.15,468.89,204.22,465.19z"/>
						</g>
						<g>
							<g>
								<path class="st4" d="M246.02,423.31l6.64-5.27c2.19-1.78,4.4-3.54,6.44-5.45c1.02-0.94,2.05-1.94,2.74-3.03
									c0.7-1.1,0.92-2.5,1.08-3.86c0.14-1.38,0.12-2.78,0.03-4.18c-0.06-1.41-0.24-2.81-0.44-4.21c0.8,2.72,1.26,5.56,1.17,8.45
									c-0.06,1.43-0.27,2.93-1.03,4.28c-0.81,1.31-1.84,2.3-2.88,3.28c-2.11,1.94-4.34,3.68-6.66,5.33
									c-1.16,0.82-2.32,1.63-3.5,2.42C248.43,421.83,247.25,422.61,246.02,423.31z"/>
							</g>
							<path class="st4" d="M235.27,396.81c0,0,23.54,0.5,27.37,1C262.64,397.81,241.6,400.48,235.27,396.81z"/>
						</g>
					</g>
				</g>
				<g>
					<path class="st2" d="M224.85,321.65c0,0-7.83,12-5,30.67c2.83,18.67,14.67,44.5,14.67,44.5s31.83,2.33,37.83,0
						c0,0,4.17-39.83,2.83-50.17c-1.33-10.33-6.67-25-6.67-25H224.85z"/>
					<g>
						<g>
							<path class="st4" d="M226.68,325.48c-0.79,2.98-1.39,6-1.8,9.04c-0.44,3.04-0.67,6.1-0.62,9.16c0.07,3.05,0.36,6.1,1.2,9.02
								l2.74,8.82c1.76,5.9,3.57,11.78,5.29,17.69l2.57,8.87c0.82,2.97,1.67,5.93,2.47,8.91c-1.01-2.91-1.95-5.84-2.93-8.76
								l-2.83-8.79c-1.88-5.87-3.67-11.76-5.51-17.64l-2.66-8.85c-0.83-3.03-1.14-6.16-1.09-9.26
								C223.59,337.47,224.75,331.33,226.68,325.48z"/>
						</g>
						<g>
							<path class="st4" d="M247.89,365.96c1.21-2.4,2.47-4.71,3.63-7.09c1.18-2.36,2.24-4.77,3.41-7.2
								c-0.42,2.66-1.34,5.22-2.52,7.64C251.21,361.72,249.75,364,247.89,365.96z"/>
						</g>
						<g>
							<path class="st4" d="M253.48,364.8c0.05-1.2,0.38-2.29,0.79-3.35c0.43-1.05,0.93-2.07,1.71-2.98
								c-0.05,1.2-0.38,2.29-0.79,3.35C254.77,362.87,254.27,363.89,253.48,364.8z"/>
						</g>
					</g>
				</g>
			</g>
			<g>
				<g>
					<g>
						<g>
							<path class="st10" d="M314.96,258.53c-0.57,0.07-1.71,0.52-3.86,2.36c0,0,3.47-4.91,3.29-5.97
								c-0.18-1.07-5.48,4.54-5.48,4.54s3.31-5.93,2.78-6.76c-0.54-0.83-5.1,5.32-5.1,5.32s3.06-6.31,2.51-6.47
								c-1.37-0.42-5.91,8.32-6.77,7.75c-0.77-0.51-0.57-2.93-0.25-4.15c0.07-0.26-0.09-0.5-0.36-0.53
								c-0.52-0.06-1.34,0.08-1.76,1.34c-0.54,1.62-1.53,4.83-1.28,8.9c-0.01,0.01-0.01,0.01-0.02,0.02
								c-3.53,4.03-12.18,13.86-21.96,24.85c-0.99-3.45-1.89-6.63-2.65-9.44c-2.29,4.64-4.33,9.4-6.12,14.26
								c-1.78,4.8-3.28,9.66-4.6,14.59c4.04,6.8,14.1,7.89,19.31,1.2c0.05-0.06,0.09-0.12,0.14-0.18
								c9.51-12.21,18.55-26.89,23.5-43.05c0,0,0-0.01,0-0.01c2.97-2.12,7.6-5.67,8.98-8.1C315.4,258.75,315.23,258.5,314.96,258.53
								z"/>
							<polygon class="st4" points="304.83,272.19 295.95,267.38 297.08,265.94 305.83,270.69 							"/>
						</g>
						<path class="st9" d="M261.52,260.06c0,0,9.25,2.88,10.88,7.38s4.63,21.63,4.63,21.63s-6.5,24.5-5.38,26.75
							c0,0-7.38-3-10.75-14.63s-5.87-33.63-4.13-37.63C258.52,259.56,261.52,260.06,261.52,260.06z"/>
					</g>
					<g>
						<g>
							<g>
								<g>
									<path class="st2" d="M313.53,247.3c-2.04-3.36-4.94-4.32-8.4-3.64c-3.42,0.67-5.63,3.59-5.76,7.26
										c-0.12,3.21,1.33,5.8,3.25,8.16c3.01,3.7,6.84,6.39,11.07,8.52c0.42,0.21,1.17,0.25,1.54,0.01
										c4.54-2.99,8.65-6.41,11.28-11.31c1.94-3.6,2.26-7.22-0.24-10.69c-3.03-4.21-9.78-3.73-12.3,0.8
										C313.86,246.63,313.75,246.85,313.53,247.3z"/>
								</g>
							</g>
						</g>
					</g>
				</g>
				<g>
					<g>
						<path class="st10" d="M267.64,262.37c-4.11-2.47-6.94-3.37-8.94-5.81c-0.22-0.8-0.74-2.77-1.13-4.99
							c-0.34-1.98-0.59-4.16-0.42-5.87v-0.01c0.08-0.84,0.26-1.57,0.58-2.11l-19.18-10.78c0.01,0.06,0.02,0.12,0.04,0.19
							c0.3,1.78,2.62,15.75,0.24,23.16c-1.44,0.66-3.22,1.13-5.42,1.21c-2.37,0.08-4.69,0.93-6.42,2.55
							c-2.41,2.27-4.49,6.52-3.13,14.47c0.22,1.26,0.47,2.51,0.73,3.75c2.19,0.23,4.39,0.48,6.6,0.64
							c8.12,0.59,17.18,5.95,25.31,6.38c5.87,0.31,10.81-4.32,16.68-4.09C274.03,272.78,272.61,265.35,267.64,262.37z"/>
						<path class="st11" d="M257.57,251.57c-10.43,1.32-15.71-11.14-15.9-11.6c1.93,3.06,4.72,4.6,7.44,5.34
							c3.36,0.92,6.61,0.61,7.98,0.41c0.02-0.01,0.04-0.01,0.06-0.01C256.98,247.41,257.23,249.59,257.57,251.57z"/>
					</g>
					<g>
						<path class="st9" d="M238.27,255.94l18.12,28.5l2.63-27.88c0,0,8.88,6,11.63,7.88s3.5,15.5,4.25,17.88s-4.13,11.25-5.38,14.5
							s-2.63,19.5-1.38,21.13s2.63,4.13,2.75,5.75s-33.87,6.5-47.62,0.13c0,0,6.88-10.25,7-14.38s-5.25-21.38-6.38-28.75
							s-1.75-16.38,0.63-19.25S233.52,255.94,238.27,255.94z"/>
						<g>
							<path class="st4" d="M267.72,312.65c-0.14-2.1-0.01-4.21,0.21-6.31c0.25-2.1,0.62-4.17,1.01-6.24
								c0.8-4.13,1.77-8.21,2.07-12.36c0.4-4.13,0.08-8.32-1.39-12.21c-0.69-1.96-1.55-3.89-2.23-5.89c-0.66-2-1.15-4.11-1.02-6.22
								c0.1,2.1,0.68,4.13,1.48,6.05c0.77,1.94,1.7,3.82,2.49,5.79c1.67,3.94,2,8.35,1.66,12.56c-0.39,4.23-1.37,8.35-2.32,12.43
								c-0.48,2.04-0.93,4.08-1.28,6.15C268.03,308.47,267.81,310.55,267.72,312.65z"/>
						</g>
					</g>
				</g>
			</g>
			<g>
				<g>
					<path class="st10" d="M267.39,228.2c-0.22-5.65-0.91-11.47-2.85-16.47c-2.51-6.44-14.32-8.94-22.55-1.79
						c-3.82,3.33-4.62,9.36-4.4,14.86c-0.2-0.1-0.38-0.17-0.5-0.2c-1.68-0.42-3.36,0.85-3.86,2.42c-0.4,1.25-0.13,2.67,0.59,3.78
						c0.6,0.92,1.56,1.77,2.6,2.17c0.26,0.1,1.42,0.29,2.23,0.22c0.79,3.62,2.63,6.96,5.49,9.33c3.59,2.99,8.2,4.19,12.78,3.24
						c3.56-0.74,8.84-3.02,10.14-6.72c0.35-0.96,0.38-2,0.39-3.03c0-0.23,0.01-0.47,0.01-0.7
						C267.48,233.01,267.47,230.62,267.39,228.2z"/>
					<g>
						<g>
							<path class="st11" d="M267.46,235.3c-0.3,0.08-0.62,0.12-0.94,0.12c-2.02,0-3.66-1.64-3.66-3.66c0-2.02,1.64-3.66,3.66-3.66
								c0.3,0,0.59,0.04,0.87,0.1C267.47,230.62,267.48,233.01,267.46,235.3z"/>
							<path class="st11" d="M244.65,231.76c0,2.02,1.64,3.66,3.66,3.66c2.02,0,3.66-1.64,3.66-3.66c0-2.02-1.64-3.66-3.66-3.66
								C246.29,228.1,244.65,229.74,244.65,231.76z"/>
						</g>
						<g>
							<g>
								<ellipse class="st4" cx="261.99" cy="224.66" rx="1.06" ry="2.16"/>
								<path class="st4" d="M264.14,221.82c-0.18,0.35-0.41,0.66-0.71,0.92c-0.3,0.27-0.68,0.47-1.11,0.57l-0.02,0
									c-0.21,0.05-0.42-0.08-0.47-0.29c-0.05-0.21,0.08-0.42,0.29-0.47c0.03-0.01,0.07-0.01,0.1-0.01
									c0.59,0.02,1.25-0.34,1.69-0.86l0.01-0.01c0.05-0.05,0.13-0.06,0.18-0.01C264.16,221.7,264.17,221.76,264.14,221.82z"/>
							</g>
							<g>
								<path class="st4" d="M253.89,224.66c0,1.19-0.47,2.16-1.06,2.16c-0.58,0-1.06-0.97-1.06-2.16s0.47-2.16,1.06-2.16
									C253.42,222.5,253.89,223.47,253.89,224.66z"/>
								<path class="st4" d="M250.89,221.68c0.45,0.52,1.1,0.88,1.69,0.86c0.22-0.01,0.4,0.16,0.41,0.38
									c0.01,0.22-0.16,0.4-0.38,0.41c-0.03,0-0.07,0-0.1-0.01l-0.02,0c-0.43-0.1-0.81-0.31-1.11-0.57
									c-0.3-0.27-0.54-0.57-0.71-0.92c-0.03-0.06-0.01-0.14,0.05-0.17C250.79,221.62,250.85,221.63,250.89,221.68L250.89,221.68z"
									/>
							</g>
						</g>
						<g>
							<path class="st4" d="M261.38,231.21c-0.37,0.71-0.92,1.33-1.59,1.81c-0.67,0.48-1.5,0.79-2.37,0.78
								c-0.86-0.02-1.7-0.31-2.35-0.81c-0.35-0.23-0.61-0.54-0.91-0.81c-0.25-0.32-0.49-0.64-0.71-0.97
								c0.33,0.24,0.62,0.49,0.92,0.74c0.33,0.2,0.63,0.45,0.97,0.62c0.66,0.38,1.37,0.58,2.09,0.59c0.72,0.02,1.44-0.21,2.1-0.57
								C260.18,232.23,260.8,231.76,261.38,231.21z"/>
							<path class="st4" d="M258.52,235.04c-0.3,0.27-0.71,0.36-1.11,0.38c-0.4-0.01-0.81-0.12-1.11-0.38
								c0.39,0.06,0.75,0.14,1.11,0.12C257.78,235.18,258.14,235.12,258.52,235.04z"/>
						</g>
						<g>
							<path class="st4" d="M254.77,217.16c-0.49-0.44-1.05-0.58-1.64-0.61c-0.58-0.01-1.18,0.05-1.74,0.25
								c-0.57,0.17-1.1,0.49-1.54,0.88c-0.46,0.37-0.78,0.86-1.05,1.34c-0.14,0.24-0.05,0.55,0.2,0.69c0.2,0.11,0.43,0.07,0.59-0.07
								l0.04-0.04c0.34-0.32,0.67-0.61,1.04-0.83c0.35-0.24,0.75-0.37,1.15-0.47c0.4-0.09,0.82-0.14,1.25-0.12
								c0.42,0.01,0.87,0.04,1.33-0.08l0.13-0.03c0.28-0.07,0.46-0.36,0.39-0.64C254.91,217.32,254.85,217.23,254.77,217.16z"/>
							<path class="st4" d="M260.05,217.16c0.49-0.44,1.05-0.58,1.64-0.61c0.58-0.01,1.18,0.05,1.74,0.25
								c0.57,0.17,1.1,0.49,1.54,0.88c0.46,0.37,0.78,0.86,1.05,1.34c0.14,0.24,0.05,0.55-0.2,0.69c-0.2,0.11-0.43,0.07-0.59-0.07
								l-0.04-0.04c-0.34-0.32-0.67-0.61-1.04-0.83c-0.35-0.24-0.75-0.37-1.15-0.47c-0.4-0.09-0.82-0.14-1.25-0.12
								c-0.42,0.01-0.87,0.04-1.33-0.08l-0.13-0.03c-0.28-0.07-0.46-0.36-0.39-0.64C259.92,217.32,259.97,217.23,260.05,217.16z"/>
						</g>
						<path class="st4" d="M257.66,221.36c0.19,0.81,0.32,1.62,0.48,2.43c0.16,0.8,0.3,1.6,0.53,2.36c0.05,0.19,0.11,0.38,0.18,0.56
							c0.05,0.15,0.19,0.43,0.18,0.7c0.03,0.54-0.32,1.07-0.76,1.28c-0.45,0.25-0.97,0.21-1.38,0.07c-0.42-0.15-0.78-0.38-1.09-0.65
							c0.76,0.29,1.64,0.51,2.18,0.1c0.27-0.2,0.41-0.48,0.37-0.77c-0.01-0.15-0.06-0.25-0.16-0.48c-0.08-0.2-0.15-0.41-0.21-0.61
							c-0.23-0.82-0.35-1.66-0.4-2.49C257.53,223.02,257.55,222.19,257.66,221.36z"/>
						<path class="st4" d="M234.56,228.19c-0.01-0.5,0.13-1.05,0.56-1.43c0.47-0.38,1.13-0.35,1.63-0.16
							c0.53,0.18,0.97,0.55,1.32,0.96c0.35,0.41,0.61,0.86,0.82,1.38c0.07,0.18-0.01,0.39-0.2,0.47c-0.14,0.06-0.29,0.02-0.39-0.08
							l-0.02-0.02c-0.35-0.36-0.79-0.74-1.21-0.86c-0.21-0.05-0.36-0.05-0.51,0.06c-0.15,0.11-0.26,0.33-0.36,0.56
							c-0.18,0.47-0.3,1.03,0.11,1.25c0.42,0.24,1.05,0.18,1.6,0.11c-0.52,0.23-1.1,0.42-1.76,0.24c-0.33-0.11-0.6-0.49-0.62-0.83
							c-0.03-0.34,0.02-0.65,0.1-0.96c0.09-0.3,0.22-0.62,0.51-0.88c0.3-0.27,0.77-0.33,1.11-0.23c0.68,0.21,1.15,0.6,1.58,1.06
							l-0.62,0.36c-0.33-0.83-0.88-1.69-1.66-2.08c-0.39-0.19-0.86-0.28-1.23-0.07C234.93,227.24,234.69,227.72,234.56,228.19z"/>
					</g>
				</g>
				<path class="st4" d="M270.46,253.35c-0.25-6.08,1.23-12.11,1.21-18.18c-0.02-6.87-4.81-13.14-5.19-19.99
					c-0.31-5.37-4.54-10.07-9.67-11.68c-5.13-1.6-10.88-0.37-15.41,2.52c-2.37,1.52-4.34,3.51-6.03,5.75
					c-2.42,3.21-3.56,7.16-3.57,11.19c-0.03,5.41-1.73,10.84-3.39,16.07c-2.13,6.72-4.23,13.84-2.65,20.72l0.41,0.17
					c2.92-2.14,7.81-3.84,11.65-3.97c4.4,10.19,6.5,18.36,5.27,29.63c6.49,2.6,13.65,2.37,20.41,0.53c1.96-0.53,3.2-2.45,2.87-4.45
					c-1.08-6.52-4.26-12.64-7.82-18.27c-4.18-6.61-8.99-12.9-12.07-20.09c-2.48-5.78-3.74-12.39-2.44-18.46
					c1.73-0.5,3.45-1.04,5.09-1.75c-1.01,1.6-1.77,2.71-1.77,2.71c8.13-2.64,9.96-7.84,10.26-11.09c0.07-0.24,0.15-0.47,0.2-0.72
					c3.02,1.79,7.04,5.75,9.05,7.57c0.27,2.19,0.44,4.42,0.52,6.62c0.08,2.42,0.09,4.81,0.07,7.1c0,0.23-0.01,0.47-0.01,0.7
					c-0.01,1.03-0.04,2.07-0.39,3.03c-1.27,3.62-6.35,5.88-9.9,6.66v0.01c-0.17,1.71,0.07,3.88,0.41,5.86c0.39,2.23,0.91,4.2,1.13,5
					c0.01,0.01,0.01,0.01,0.01,0.01c0.09,0.12,0.18,0.23,0.28,0.33l0.03-0.34c0,0,4.59,3.1,8.18,5.54c0.01,0,0.02,0.01,0.03,0.02
					c0.13,0.08,0.27,0.16,0.41,0.24c0.34,0.21,0.67,0.43,0.98,0.7c0.82,0.55,1.52,1.03,2.02,1.37c0.44,0.3,0.83,0.9,1.17,1.7
					C270.93,261.94,270.63,257.62,270.46,253.35z M239.31,231.86c-0.22,0.5-0.44,1-0.66,1.51c-0.01-0.06-0.02-0.12-0.03-0.17
					c-0.81,0.06-1.94-0.13-2.2-0.23c-1.03-0.39-2-1.25-2.59-2.17c-0.72-1.1-0.99-2.52-0.59-3.77c0.5-1.58,2.18-2.84,3.86-2.42
					c0.09,0.03,0.24,0.08,0.4,0.16c0.45,0.42,0.97,0.74,1.57,0.89c0,0,0,0,0,0C239.82,227.74,240.2,229.81,239.31,231.86z"/>
			</g>
			<g>
				<g>
					<path class="st10" d="M251.96,244.91c1.31-3.41,3.24-8.93,3.06-11.72c-0.02-0.27-0.3-0.38-0.5-0.21
						c-0.44,0.37-1.14,1.37-1.93,4.09c0,0,0.2-6.01-0.54-6.8c-0.74-0.79-2.08,6.81-2.08,6.81s-0.49-6.77-1.4-7.18
						c-0.91-0.4-1.34,7.25-1.34,7.25s-0.91-6.95-1.46-6.79c-1.37,0.4-0.36,10.2-1.4,10.19c-0.92,0-2.08-2.14-2.49-3.33
						c-0.08-0.25-0.35-0.37-0.59-0.24c-0.47,0.24-1.08,0.8-0.73,2.08c0.44,1.66,1.37,4.9,3.83,8.16c-0.5,3.61-1.5,10.78-2.77,19.57
						c-1.07-2.28-2.15-4.06-3.19-5.46c-4.34-5.84-12.77-3.78-13.89,3.5c-0.44,2.86-0.11,6.58,1.77,11.35
						c2.15,5.44,5.55,14.01,10.4,23.83c0.19,0.39,0.39,0.78,0.59,1.17c1.65,3.28,5.01,5.36,8.68,5.36c4.99,0,9.17-3.78,9.67-8.75
						c0.05-0.49,0.1-0.98,0.14-1.48C257.28,280.26,256.97,262.03,251.96,244.91z"/>
					<g>
						<path class="st4" d="M252.27,245.19c0.94,2.04,1.55,4.18,2.04,6.35c0.23,1.09,0.43,2.18,0.54,3.29
							c0.12,1.11,0.18,2.23,0.05,3.36c-0.56-2.17-1.09-4.28-1.56-6.44C252.88,249.59,252.45,247.43,252.27,245.19z"/>
					</g>
				</g>
				<g>
					<path class="st9" d="M244.35,304.48c-2.36,2.24-5.09,3.74-8.25,4.49c-1.58-7.43-5.95-13.92-8.7-21
						c-2.83-7.29-3.91-15.25-3.16-23.03c0.34-3.56,2.97-6.54,6.5-7.17c0.02,0,0.04-0.01,0.07-0.01c1.79-0.31,3.7-0.37,5.36,0.36
						c2.81,1.24,4.2,4.36,5.34,7.22c3.26,8.18,0.73,17.83,3.81,26.14c0.78,2.1,1.25,4.32,1.23,6.56
						C246.52,300.55,246.18,302.74,244.35,304.48z"/>
					<path class="st4" d="M242.77,305.69c-0.1,0.03-0.19,0.05-0.29,0.08c-1.81,1.64-3.77,2.81-6.09,3.58
						c-0.67-11.27-11.07-20.29-11.34-31.58c-0.78,5.71,2.06,11.97,4.65,17.12c2.58,5.15,5.36,10.55,5.11,16.31
						C238.35,311.08,241.51,309.01,242.77,305.69z"/>
				</g>
			</g>
		</g>
	</g>
	<g>
		<g>
			<g>
				<g>
					<g>
						<path class="st3" d="M595.41,436.66c7.27-21.9,21.31-41.49,39.72-55.41c7.8-5.89,16.71-10.9,26.45-11.7
							c0.44-0.04,0.89-0.06,1.33-0.08c22.85-0.79,27.29,32.29,5.19,38.17c-19.23,5.12-38.18,12.31-53.19,25.17
							c-3.37,2.89-6.67,6-10.7,7.87S599.11,439.12,595.41,436.66z"/>
						<g>
							<path class="st4" d="M671,381.84c-3.8,1.7-7.5,3.59-11.12,5.63c-3.63,2.02-7.18,4.17-10.64,6.47
								c-6.92,4.58-13.55,9.62-19.58,15.3c-3.06,2.8-5.95,5.78-8.68,8.89c-2.76,3.09-5.26,6.4-7.63,9.8
								c-4.73,6.81-8.47,14.29-11.18,22.16c0.65-1.97,1.18-4,1.98-5.92c0.38-0.97,0.73-1.95,1.14-2.91l1.28-2.86
								c1.81-3.76,3.82-7.43,6.15-10.9c2.28-3.5,4.83-6.82,7.58-9.97c2.73-3.16,5.62-6.19,8.68-9.03
								c6.14-5.66,12.8-10.75,19.85-15.21C655.87,388.85,663.25,384.88,671,381.84z"/>
						</g>
					</g>
					<g>
						<g>
							<path class="st5" d="M597.43,494.19c9.11-1.83,13.03-8.38,17.88-14.95c3.59-4.86,5.1-10.82,11-13.44
								c4.96-2.21,10.11-1.22,15.37-0.92c5.27,0.3,10.74,0.42,15-2.92c5.3-4.16,5.49-11.04,10.22-15.62
								c5.51-5.32,14.31-5.92,20.08-11.02c1.71-1.51,3.46-3.32,3.38-5.8c-0.12-3.95-3.13-5.87-6.93-6.7
								c-3.8-0.82-7.84-0.13-11.9-0.74c-7.55-1.14-14.73-5.53-21.59-8.53c-6.85-2.99-14.28-5.53-21.14-2.42
								c-8.3,3.76-11.71,12.59-19.31,17.13c-5.33,3.18-11.79,2.61-17.57,4.3c-11.73,3.43-23.52,10.12-27.27,22.37
								C557.46,478.48,573,499.08,597.43,494.19z"/>
						</g>
						<g>
							<g>
								<path class="st4" d="M685.91,427.78c-5.3,1.14-10.57,2.43-15.8,3.82c-5.24,1.37-10.46,2.84-15.64,4.43
									c-10.35,3.18-20.62,6.66-30.63,10.79c-10.04,4.03-19.86,8.66-29.23,14.06c-9.37,5.39-18.27,11.68-26.04,19.26
									c3.72-3.95,7.84-7.51,12.13-10.84c4.3-3.33,8.88-6.27,13.52-9.08c4.64-2.83,9.48-5.31,14.36-7.7
									c4.88-2.39,9.86-4.57,14.88-6.62c5.03-2.04,10.13-3.92,15.27-5.68c5.14-1.76,10.3-3.43,15.52-4.92
									C664.68,432.3,675.23,429.68,685.91,427.78z"/>
							</g>
							<g>
								<path class="st4" d="M662.09,450.25c-2.86,0.8-5.84,1.23-8.82,1.35c-2.99,0.14-5.99-0.07-8.95-0.55
									c-2.95-0.5-5.86-1.27-8.64-2.37l-2.06-0.87l-2.02-0.97l-1.95-1.1c-0.63-0.39-1.26-0.79-1.88-1.2c0.67,0.32,1.34,0.64,2,0.97
									l2.03,0.89l2.05,0.83l2.08,0.73c2.8,0.91,5.65,1.64,8.55,2.11c2.89,0.49,5.83,0.73,8.77,0.77
									C656.2,450.87,659.15,450.65,662.09,450.25z"/>
							</g>
							<g>
								<path class="st4" d="M638.88,414.83c-3,2.62-5.9,5.34-8.63,8.22c-2.73,2.88-5.34,5.87-7.72,9.03
									c-2.44,3.12-4.66,6.41-6.73,9.79l-1.53,2.56l-1.45,2.6l-1.4,2.63c-0.44,0.89-0.88,1.78-1.34,2.67
									c0.36-0.93,0.72-1.86,1.1-2.78l1.21-2.74l1.33-2.68l1.42-2.64c1.95-3.49,4.2-6.81,6.6-10.01c2.47-3.15,5.1-6.18,7.97-8.96
									C632.56,419.72,635.61,417.13,638.88,414.83z"/>
							</g>
							<g>
								<path class="st4" d="M615.96,472.3c-2.73,0.43-5.51,0.6-8.28,0.59c-2.78,0-5.55-0.24-8.3-0.63
									c-2.75-0.42-5.47-0.99-8.13-1.79c-1.33-0.41-2.64-0.84-3.94-1.32c-1.29-0.52-2.57-1.03-3.81-1.64
									c0.67,0.19,1.33,0.39,1.98,0.61l1.99,0.57l1.99,0.55l2,0.49c2.67,0.62,5.36,1.16,8.07,1.55c2.71,0.41,5.44,0.67,8.18,0.85
									C610.45,472.29,613.2,472.32,615.96,472.3z"/>
							</g>
							<g>
								<path class="st4" d="M588.83,439.73c-1.72,2.91-3.41,5.83-4.97,8.81c-1.55,2.99-3.05,6-4.41,9.08
									c-1.38,3.07-2.63,6.19-3.81,9.34c-0.59,1.58-1.14,3.17-1.67,4.77l-0.8,2.4c-0.24,0.81-0.5,1.61-0.77,2.42
									c0.3-1.66,0.7-3.31,1.09-4.96c0.44-1.64,0.91-3.26,1.42-4.88c1.02-3.23,2.25-6.4,3.62-9.5c1.39-3.09,2.92-6.12,4.65-9.04
									C584.9,445.24,586.76,442.41,588.83,439.73z"/>
							</g>
						</g>
					</g>
				</g>
				<g>
					<g>
						<g>
							<path class="st5" d="M461.39,445.26c-5.15-7.74-3.27-15.14-2.04-23.22c0.9-5.97,4.06-11.25,1.75-17.28
								c-1.94-5.07-6.27-8.02-10.21-11.53c-3.93-3.52-7.88-7.31-8.53-12.69c-0.8-6.68,3.94-11.68,3.83-18.27
								c-0.12-7.66-5.91-14.31-6.38-22c-0.14-2.28-0.09-4.79,1.72-6.49c2.88-2.7,6.37-1.94,9.63,0.17s5.63,5.46,8.93,7.9
								c6.14,4.54,14.32,6.52,21.28,9.26c6.96,2.74,14,6.2,16.64,13.26c3.2,8.54-0.64,17.18,1.51,25.77
								c1.51,6.02,6.48,10.19,9.37,15.47c5.85,10.73,9.45,23.8,3.42,35.1C500.75,462.46,475.18,466.01,461.39,445.26z"/>
						</g>
						<g>
							<g>
								<path class="st4" d="M445.31,335.37c6.15,8.93,11.71,18.27,16.91,27.8c2.61,4.76,5.05,9.61,7.42,14.5
									c2.36,4.89,4.61,9.83,6.69,14.85c2.07,5.02,4.02,10.09,5.75,15.24c1.73,5.15,3.37,10.34,4.62,15.63
									c1.27,5.28,2.39,10.61,3.05,16c0.65,5.39,1.01,10.82,0.82,16.25c-0.07-10.85-1.86-21.61-4.61-32.06
									c-2.74-10.47-6.36-20.7-10.55-30.67c-4.1-10.02-8.85-19.77-13.86-29.37c-2.51-4.8-5.13-9.54-7.84-14.23
									C451.01,344.59,448.22,339.94,445.31,335.37z"/>
							</g>
							<g>
								<path class="st4" d="M446.07,368.1c1.79,2.37,3.7,4.63,5.79,6.7c2.1,2.06,4.33,3.98,6.71,5.7c2.37,1.73,4.9,3.25,7.51,4.59
									l1.99,0.97l2.03,0.88l2.06,0.82c0.7,0.24,1.4,0.49,2.1,0.74c-0.73-0.15-1.45-0.32-2.18-0.49l-2.15-0.61l-2.11-0.75
									l-2.07-0.85c-2.74-1.2-5.33-2.73-7.77-4.48c-2.42-1.77-4.68-3.75-6.68-5.98C449.3,373.12,447.51,370.71,446.07,368.1z"/>
							</g>
							<g>
								<path class="st4" d="M487.58,359.71c0.66,3.93,0.96,7.93,0.99,11.93c0.03,4-0.27,8-0.77,11.97
									c-0.58,3.96-1.37,7.89-2.48,11.73l-0.88,2.86l-0.97,2.83l-1.1,2.78c-0.39,0.92-0.8,1.83-1.21,2.74
									c0.31-0.95,0.63-1.89,0.96-2.83l0.89-2.85l0.83-2.86l0.75-2.88c0.94-3.85,1.73-7.74,2.23-11.67c0.58-3.92,0.87-7.88,1-11.84
									C487.93,367.67,487.83,363.69,487.58,359.71z"/>
							</g>
							<g>
								<path class="st4" d="M462.82,416.41c1.93,1.98,3.88,3.92,5.93,5.74c2.05,1.82,4.16,3.58,6.36,5.22
									c2.18,1.66,4.46,3.19,6.78,4.65l1.76,1.08l1.79,1.03l1.8,1.02c0.61,0.32,1.22,0.65,1.82,0.98
									c-1.31-0.46-2.57-1.01-3.85-1.56c-1.25-0.59-2.49-1.22-3.71-1.88c-2.44-1.33-4.76-2.86-6.99-4.52
									c-2.21-1.68-4.33-3.48-6.28-5.46C466.26,420.75,464.43,418.66,462.82,416.41z"/>
							</g>
							<g>
								<path class="st4" d="M505.06,412.81c-0.45,3.35-1.16,6.67-2.04,9.94c-0.86,3.28-1.94,6.5-3.16,9.66
									c-1.24,3.16-2.62,6.26-4.21,9.26c-0.8,1.5-1.62,2.98-2.47,4.44c-0.89,1.44-1.78,2.88-2.76,4.26
									c0.39-0.75,0.78-1.5,1.18-2.24l1.15-2.26c0.76-1.5,1.51-3.02,2.21-4.54c1.41-3.06,2.76-6.14,3.97-9.28
									c1.23-3.13,2.33-6.31,3.36-9.51C503.31,419.33,504.2,416.08,505.06,412.81z"/>
							</g>
						</g>
					</g>
					<g>
						<path class="st3" d="M483.62,464.72c-0.58-17.59-6.13-60.57-45.04-82.64c-2.76-1.57-6.2,0.46-6.15,3.64
							c0.27,15.43,5.16,54.25,44.69,82.49C479.88,470.18,483.73,468.11,483.62,464.72z"/>
						<g>
							<path class="st4" d="M438.42,386.92c3.42,5.39,6.76,10.83,10.07,16.28c3.32,5.45,6.56,10.95,9.84,16.42
								c3.21,5.51,6.46,11,9.64,16.54l4.75,8.31c1.55,2.79,3.13,5.56,4.66,8.36c-1.72-2.69-3.39-5.41-5.08-8.11l-4.99-8.17
								c-3.32-5.45-6.56-10.95-9.84-16.42c-3.21-5.51-6.47-11-9.64-16.54C444.66,398.06,441.49,392.52,438.42,386.92z"/>
						</g>
					</g>
					<g>
						<path class="st3" d="M445.81,426.57c-8.27-4.67-16.96-8.94-26.32-10.51c-9.37-1.57-19.58-0.17-27.12,5.61
							c-7.54,5.77-11.62,16.42-8.15,25.26c3.17,8.08,11.65,13,20.16,14.73c8.51,1.73,17.29,0.9,25.97,0.95
							c15.9,0.08,31.77,3.18,46.54,9.06c4.55,1.81,17.55,8.9,21.45,3.61c4.08-5.53-6-13.84-9.08-16.79
							C476.25,446.02,461.49,435.43,445.81,426.57z"/>
						<g>
							<path class="st4" d="M389.25,435.63c9.47-0.55,18.98,0.49,28.32,2.1c9.35,1.65,18.53,4.16,27.55,7.14l6.67,2.49
								c1.11,0.43,2.23,0.81,3.32,1.27l3.27,1.41c2.17,0.95,4.37,1.85,6.53,2.84l6.38,3.15l3.19,1.58l3.1,1.74l6.2,3.49
								c1.04,0.57,2.04,1.21,3.03,1.85l2.99,1.92l5.97,3.85c-4.11-2.37-8.11-4.91-12.25-7.19l-6.25-3.36l-3.13-1.68l-3.21-1.52
								l-6.4-3.05c-2.15-0.98-4.35-1.85-6.52-2.79l-3.27-1.38c-1.09-0.46-2.21-0.83-3.32-1.25l-6.66-2.44
								c-8.95-3.05-18.08-5.53-27.36-7.33l-3.48-0.67c-1.16-0.21-2.33-0.36-3.5-0.55c-1.17-0.17-2.34-0.37-3.51-0.51l-3.52-0.4
								C398.72,435.85,393.99,435.52,389.25,435.63z"/>
						</g>
					</g>
				</g>
			</g>
			<g>
				<path class="st4" d="M648.45,212.66L595,484.99c-0.44,2.26-1.46,4.41-3.11,6.16c-1.96,2.08-5.12,4.08-9.89,3.72
					c-9.54-0.71-89.34-16.95-89.34-16.95s-7.9-1.55-9.97-11.6c-0.57-2.76-0.49-5.56,0.04-8.26l48.85-248.95
					c0,0,1.3-13.68,19.17-13.08l82.49,1.63c7.8,0.15,14.77,5.44,15.37,12.08c0.03,0.35,0.05,0.71,0.05,1.08
					C648.65,211.44,648.56,212.05,648.45,212.66z"/>
				<path class="st6" d="M639.84,212.48l-53.17,270.95c-0.44,2.25-1.45,4.39-3.1,6.13c-1.96,2.07-5.12,4.05-9.89,3.69
					c-9.54-0.72-89.34-16.96-89.34-16.96s-7.9-1.55-9.98-11.55c-0.57-2.75-0.5-5.53,0.03-8.22l48.61-247.68c0,0,1.29-13.61,19.15-13
					l82.47,1.7c7.8,0.16,14.77,5.42,15.38,12.04c0.03,0.35,0.05,0.71,0.05,1.07C640.04,211.26,639.95,211.88,639.84,212.48z"/>
				<g>
					<path class="st5" d="M478.58,463.01c1.21,1.94,3.47,3.3,5.96,3.79l88.27,17.32c0.71,0.14,1.43,0.2,2.15,0.19
						c0.16,0,0.33-0.01,0.51-0.01c1.05-0.05,2.49-0.17,4.02-0.49c3.01-0.64,5.21-2.73,5.72-5.34l8.6-43.83l11.05-56.28l4.67-23.81
						l2.54-12.92l9.09-46.31l7.62-38.86l8.48-43.18c0.16-0.83,0.15-1.69-0.05-2.54c-0.01-0.03-0.01-0.06-0.02-0.09
						c-0.83-3.4-4.46-5.94-8.51-6.09l-53.78-1.98l-39.69-1.46c0,0-3.2-0.39-6.05,2.2c-1.59,1.44-3.08,3.81-3.84,7.7
						c-0.58,2.96-4.43,22.6-9.73,49.59c-1.46,7.44-3.03,15.44-4.68,23.81c-3.48,17.75-7.28,37.14-11.03,56.29
						c-3.91,19.9-7.77,39.54-11.16,56.84c-2.73,13.91-5.16,26.3-7.08,36.08c-2.77,14.09-4.47,22.77-4.47,22.77
						S476.65,459.9,478.58,463.01z"/>
					<g class="st7">
						<path class="st1" d="M529.16,203.32l92,92l7.62-38.86l-53.88-53.88l-39.69-1.46C535.21,201.12,532.01,200.73,529.16,203.32z"
							/>
						<path class="st1" d="M510.91,284.42l93.95,93.94l4.67-23.81l-93.94-93.94C514.13,268.05,512.56,276.05,510.91,284.42z"/>
						<path class="st1" d="M488.72,397.55l86.75,86.75c1.05-0.05,2.49-0.17,4.02-0.49c3.01-0.64,5.21-2.73,5.72-5.34l8.6-43.83
							l-93.93-93.93C495.97,360.61,492.11,380.25,488.72,397.55z"/>
					</g>
					<path class="st8" d="M478.58,463.01c1.21,1.94,3.47,3.3,5.96,3.79l88.27,17.32c0.71,0.14,1.43,0.2,2.15,0.19
						c0.16,0,0.33-0.01,0.51-0.01c1.05-0.05,2.49-0.17,4.02-0.49c3.01-0.64,5.21-2.73,5.72-5.34l8.6-43.83l11.05-56.28l4.67-23.81
						l2.54-12.92c-29.13,53.94-78.27,121.66-130.43,92c-2.77,14.09-4.47,22.77-4.47,22.77S476.65,459.9,478.58,463.01z"/>
				</g>
			</g>
		</g>
		<g>
			<g>
				<path class="st2" d="M418.26,230.87h87.63h3.9h12.85l-9.51,11.15v20.91c0,1.84-1.49,3.33-3.33,3.33h-91.53
					c-1.84,0-3.33-1.49-3.33-3.33V234.2C414.93,232.36,416.42,230.87,418.26,230.87z"/>
				<g>
					
						<rect x="423.6" y="238.11" transform="matrix(-1 -1.224647e-16 1.224647e-16 -1 931.1161 479.2596)" class="st1" width="83.92" height="3.04"/>
				</g>
				<g>
					
						<rect x="423.6" y="244.78" transform="matrix(-1 -1.224647e-16 1.224647e-16 -1 931.1161 492.5929)" class="st1" width="83.92" height="3.04"/>
				</g>
				<g>
					
						<rect x="476.43" y="251.44" transform="matrix(-1 -1.224647e-16 1.224647e-16 -1 983.9495 505.9262)" class="st1" width="31.08" height="3.04"/>
				</g>
			</g>
			<g>
				<path class="st2" d="M693.31,440.2h-87.63h-3.9h-12.85l9.51,11.15v20.91c0,1.84,1.49,3.33,3.33,3.33h91.53
					c1.84,0,3.33-1.49,3.33-3.33v-28.73C696.64,441.69,695.15,440.2,693.31,440.2z"/>
				<g>
					<rect x="604.06" y="454.11" class="st1" width="83.92" height="3.04"/>
				</g>
				<g>
					<rect x="604.06" y="460.78" class="st1" width="31.08" height="3.04"/>
				</g>
			</g>
		</g>
		<g>
			<g>
				<g>
					<g>
						<path class="st12" d="M552.11,477.11l0.04,7.19l7.68,4.16l8.3-4.16c0,0,0.3-2.64,0.8-7.19H552.11z"/>
					</g>
					<g>
						<path class="st1" d="M568.65,492.95c0.63-2.5,1.66-5.16,0.78-7.59c-0.43-1.19-1.97-1.59-3.2-1.32
							c-1.23,0.27-2.3,1.02-3.48,1.47c-1.76,0.67-3.69,0.67-5.43-0.04c0.97-1.62,0.64-3.9-0.76-5.17c-1.4-1.27-3.71-1.38-5.22-0.25
							c-1.19,0.88-1.8,2.32-2.42,3.66c-0.62,1.34-1.77,2.45-2.83,3.48c-0.96,0.93-2.31,1.35-3.64,1.49
							c-1.33,0.14-2.67,0.03-4.01,0.07c-1.34,0.04-2.71,0.25-3.85,0.96c-1.14,0.7-1.98,2-1.84,3.33L568.65,492.95z"/>
						<path class="st9" d="M532.2,493.27v0.71c0,0.3,0.24,0.55,0.54,0.56c4.08,0.11,29.96,0.75,35.87,0.05
							c0.27-0.03,0.48-0.26,0.49-0.53c0.02-0.33,0.03-0.79,0.02-1.17c-0.01-0.31-0.26-0.55-0.57-0.55
							c-4.1,0.04-31.33,0.33-35.8,0.37C532.45,492.71,532.2,492.97,532.2,493.27z"/>
					</g>
				</g>
				<g>
					<g>
						<path class="st12" d="M505.86,477.11l0.04,7.19l7.68,4.16l8.3-4.16c0,0,0.3-2.64,0.8-7.19H505.86z"/>
					</g>
					<g>
						<path class="st1" d="M522.4,492.95c0.63-2.5,1.66-5.16,0.78-7.59c-0.43-1.19-1.97-1.59-3.2-1.32
							c-1.23,0.27-2.3,1.02-3.48,1.47c-1.76,0.67-3.69,0.67-5.43-0.04c0.97-1.62,0.64-3.9-0.76-5.17c-1.4-1.27-3.71-1.38-5.22-0.25
							c-1.19,0.88-1.8,2.32-2.42,3.66c-0.62,1.34-1.77,2.45-2.83,3.48c-0.96,0.93-2.31,1.35-3.64,1.49
							c-1.33,0.14-2.67,0.03-4.01,0.07c-1.34,0.04-2.71,0.25-3.85,0.96c-1.14,0.7-1.98,2-1.84,3.33L522.4,492.95z"/>
						<path class="st9" d="M485.95,493.27v0.71c0,0.3,0.24,0.55,0.54,0.56c4.08,0.11,29.96,0.75,35.87,0.05
							c0.27-0.03,0.48-0.26,0.49-0.53c0.02-0.33,0.03-0.79,0.02-1.17c-0.01-0.31-0.26-0.55-0.57-0.55
							c-4.1,0.04-31.33,0.33-35.8,0.37C486.2,492.71,485.95,492.97,485.95,493.27z"/>
					</g>
				</g>
				<g>
					<path class="st9" d="M529.02,318.53c0,0-30,59.75-33.5,80.5s9.38,78.19,9.38,78.19l18.56,0.19c0,0,3.06-56.38,0.81-71.38
						l26.5-51.25l0.19,123.13l18.94,0.06c0,0,12.88-123.69,13.13-130.69s-3-27-7.25-31L529.02,318.53z"/>
					<g>
						<g>
							<path class="st4" d="M526.02,326.61l11.86,0.31c3.95,0.09,7.9,0.19,11.85,0.15c1.97,0.03,3.95,0,5.92-0.01
								c1.97-0.05,3.94-0.11,5.91-0.19c1.97-0.05,3.94-0.21,5.9-0.37l2.95-0.29c0.97-0.15,1.95-0.3,2.93-0.43
								c-3.82,1.07-7.79,1.53-11.74,1.87c-3.96,0.33-7.92,0.4-11.89,0.43c-3.96-0.05-7.93-0.14-11.88-0.39
								C533.89,327.44,529.95,327.13,526.02,326.61z"/>
						</g>
						<g>
							<path class="st4" d="M548.85,320.28c-0.2,4.09-0.42,8.19-0.7,12.27l-0.4,6.13c-0.13,2.05-0.3,4.09-0.45,6.13l-0.03-0.2
								l3.88,9.48l-0.96,0.15l0.63-8.66c0.22-2.89,0.4-5.78,0.65-8.66l0.72-8.66c0.28-2.88,0.52-5.77,0.83-8.65
								c-0.08,2.9-0.23,5.79-0.34,8.68l-0.44,8.68c-0.13,2.89-0.34,5.78-0.51,8.67l-0.54,8.67l-0.14,2.23l-0.82-2.07l-3.78-9.52
								l-0.04-0.1l0.01-0.1c0.18-2.04,0.34-4.08,0.55-6.12l0.6-6.12C547.93,328.42,548.38,324.35,548.85,320.28z"/>
						</g>
						<g>
							<path class="st4" d="M521.18,476.11c-0.42-12.02-0.7-24.05-0.99-36.08l-0.35-18.04l-0.31-18.04l0-0.13l0.06-0.11
								c4.85-8.95,9.62-17.94,14.53-26.86c4.87-8.94,9.76-17.86,14.74-26.75c-4.64,9.06-9.36,18.08-14.1,27.09
								c-4.71,9.02-9.54,17.98-14.31,26.97l0.06-0.24l0.27,18.04l0.23,18.04C521.11,452.05,521.21,464.08,521.18,476.11z"/>
						</g>
					</g>
				</g>
			</g>
			<g>
				<g>
					<g>
						<g>
							<path class="st12" d="M451.78,300.64c6.61,3.68,13.58,6.55,20.65,8.8c0.31-4.61,0.73-9.22,1.31-13.8
								c0.01-0.1,0.03-0.2,0.04-0.3c-7.42-0.51-13.47-0.94-16.86-1.19c0,0-0.01,0-0.01,0c-2.85-3.61-6.17-5.4-7.82-6.24
								c-1.19-0.61-1.86-0.13-2.19,0.29c-0.17,0.21-0.11,0.5,0.12,0.63c1.09,0.65,2.95,2.25,2.76,3.17
								c-0.21,1.03-9.61-2.03-10.28-0.76c-0.27,0.51,6.36,2.88,6.36,2.88s-7.59-1.18-7.38-0.2c0.21,0.98,6.75,2.9,6.75,2.9
								s-7.72-0.27-7.09,0.63c0.63,0.9,6.56,1.96,6.56,1.96c-2.82,0.21-3.95,0.69-4.4,1.05c-0.21,0.17-0.16,0.47,0.1,0.54
								c2.53,0.72,7.79,0.11,11.41-0.45l0,0L451.78,300.64z"/>
							<path class="st4" d="M465.45,294.84c0,0-2.69,7.44-2.75,11C462.7,305.84,460.14,298.22,465.45,294.84z"/>
						</g>
						<path class="st1" d="M465.7,293.82c0,0-4,11.68-2.88,13.22c1.12,1.54,32.09,11.39,40.13,9.56
							c8.04-1.84,36.37-31.64,39.32-36.67c2.95-5.03-9.51-20.9-9.51-20.9s-19.08,13.58-34.93,35.15L465.7,293.82z"/>
					</g>
					<g>
						<g>
							<g>
								<g>
									<path class="st2" d="M439.68,286.4c-3.18-2.32-6.22-2.08-9.15-0.12c-2.9,1.94-3.8,5.48-2.52,8.92
										c1.13,3.01,3.47,4.83,6.15,6.27c4.21,2.25,8.77,3.26,13.5,3.59c0.47,0.03,1.18-0.22,1.42-0.59
										c3.03-4.51,5.51-9.26,6.05-14.78c0.4-4.07-0.7-7.53-4.34-9.77c-4.41-2.72-10.46,0.33-11.04,5.48
										C439.73,285.65,439.72,285.9,439.68,286.4z"/>
								</g>
							</g>
						</g>
					</g>
				</g>
				<g>
					<path class="st12" d="M561.99,255.12c0.08,0.27,0.17,0.54,0.27,0.79l-10.74,6.12l-9.51-6.12c0,0,0.04-0.13,0.1-0.37
						c0,0,0,0,0.01-0.01c0.06-0.24,0.16-0.59,0.27-1.02c0.25-0.99,0.59-2.43,0.86-3.98c0.34-1.98,0.59-4.15,0.41-5.86v-0.01
						c-0.07-0.84-0.25-1.57-0.58-2.11l19.18-10.79c-0.01,0.07-0.02,0.13-0.03,0.19c-0.26,1.49-1.91,11.5-1.07,19.08
						c0.17,1.46,0.42,2.83,0.81,4.03C561.97,255.08,561.97,255.1,561.99,255.12z"/>
					<g>
						<g>
							<path class="st1" d="M580.2,297.53c-0.19,2.37-0.38,4.64-0.58,6.75c-0.07,0.82-0.15,1.62-0.22,2.38
								c-0.26,2.65-0.5,4.96-0.69,6.74c-0.26,2.43-0.44,3.88-0.44,3.88s-32.75,4.75-50.25,2.5c0,0-0.14-2.65-0.14-6.38
								c0-2.01,0.04-4.35,0.18-6.74c0.04-0.79,0.09-1.59,0.15-2.38c0.19-2.35,0.48-4.68,0.9-6.75c0.05-0.25,0.1-0.5,0.16-0.75
								c2-8.75-1.5-33.75-1.5-33.75s3.5-5,12.75-7.5c0,0,12.25,4.5,22.5-1c0,0,10.75,0.25,16,6.75
								C582.04,265.02,581.34,282.95,580.2,297.53z"/>
							<g>
								<path class="st9" d="M580.2,297.53c-0.19,2.37-0.38,4.64-0.58,6.75h-51.41c0.19-2.35,0.48-4.68,0.9-6.75H580.2z"/>
								<path class="st9" d="M579.4,306.66c-0.26,2.65-0.5,4.96-0.69,6.74h-50.83c0-2.01,0.04-4.35,0.18-6.74H579.4z"/>
							</g>
							<g>
								<g>
									<path class="st4" d="M531.09,274.78c0.51,3.38,0.5,6.82,0.2,10.23c-0.33,3.4-0.96,6.78-2.1,10.01
										c0.36-3.4,0.8-6.74,1.11-10.1C530.63,281.55,530.82,278.18,531.09,274.78z"/>
								</g>
								<g>
									<path class="st4" d="M536.02,258.53c0.62,0.87,0.9,1.86,1.04,2.85c0.11,1,0.09,2.03-0.29,3.02
										c-0.41-0.98-0.56-1.93-0.7-2.9C535.96,260.54,535.87,259.58,536.02,258.53z"/>
								</g>
							</g>
						</g>
						<g>
							<path class="st1" d="M591.77,274.16c0,0-0.14-0.01-0.4-0.05c-3.28-4.7-6.66-9.04-9.6-11.83c-0.39-0.37-0.78-0.72-1.17-1.06
								c-4.78-4.15-9.06-5.52-12.08-5.89c-3.09-0.75-5.5-0.8-5.5-0.8c-0.35,0.19-0.7,0.36-1.05,0.53c-0.39-1.2-0.64-2.57-0.81-4.03
								c7.18,0.22,15.6,1.39,19.9,3.01c1.7,0.57,3.38,1.37,4.96,2.49C595.77,263.4,591.77,274.16,591.77,274.16z"/>
							<path class="st1" d="M542.39,254.51c-0.11,0.43-0.21,0.78-0.27,1.02c-0.01,0.01-0.01,0.01-0.01,0.01
								c-0.11,0.14-0.22,0.27-0.34,0.39c-0.72-0.21-1.16-0.36-1.24-0.39c-0.01-0.01-0.01-0.01-0.01-0.01S541.18,255.1,542.39,254.51
								z"/>
						</g>
					</g>
				</g>
				<g>
					<path class="st12" d="M574.31,331.06c-1.4,3.99-2.31,6.59-2.49,7.1c0,0.01,0,0.01-0.01,0.02c-3.82,1.79-6.2,4.3-7.38,5.59
						c-0.9,0.98-0.61,1.76-0.3,2.19c0.16,0.22,0.45,0.23,0.64,0.05c0.91-0.88,2.95-2.25,3.78-1.83c0.94,0.47-4.49,8.74-3.43,9.72
						c0.42,0.39,4.45-5.38,4.45-5.38s-3.14,7.01-2.13,7.07c1,0.06,4.57-5.76,4.57-5.76s-2.29,7.38-1.25,7.01
						c1.03-0.37,3.62-5.81,3.62-5.81c-0.54,2.78-0.37,3.99-0.14,4.52c0.11,0.25,0.41,0.27,0.55,0.04c1.71-2.83,2.53-10.4,2.8-13.55
						l0,0l0.1,0.06c1.82-1.86,3.55-3.79,5.21-5.77C580.1,334.78,577.08,333.06,574.31,331.06z"/>
					<g>
						<path class="st1" d="M564.02,255.53c0,0,8-2.5,17.75,6.75c7.85,7.45,18.77,25.9,22.74,32.82c0.99,1.74,1.2,3.81,0.55,5.7
							c-2.32,6.79-9.04,23.75-22.29,37.98l-11.25-6l11.5-31.5l-24-34.5C559.02,266.78,558.52,255.53,564.02,255.53z"/>
						<g>
							<g>
								<path class="st4" d="M567.45,256.43c1.25-0.04,2.5,0.11,3.73,0.35c1.23,0.27,2.43,0.66,3.6,1.14
									c2.34,0.97,4.47,2.38,6.39,4.02c1.9,1.66,3.58,3.55,5.04,5.59c0.73,1.02,1.42,2.06,2.07,3.12c0.62,1.08,1.25,2.16,1.79,3.28
									c-0.74-1-1.44-2.02-2.2-3.01c-0.73-1-1.48-1.98-2.27-2.93c-1.57-1.89-3.23-3.71-5.09-5.3c-1.83-1.61-3.87-2.98-6.05-4.08
									C572.28,257.53,569.92,256.77,567.45,256.43z"/>
							</g>
							<g>
								<g>
									<path class="st4" d="M582.97,301.38c0.04-0.97,0.52-1.83,1.13-2.52c0.64-0.67,1.45-1.21,2.42-1.33
										c-0.55,0.79-1.12,1.38-1.68,2.01C584.25,300.15,583.71,300.76,582.97,301.38z"/>
								</g>
								<g>
									<path class="st4" d="M582.76,299.03c-0.33-0.59-0.35-1.14-0.31-1.68c0.08-0.54,0.23-1.07,0.68-1.57
										c0.33,0.59,0.36,1.14,0.31,1.68C583.36,298,583.21,298.53,582.76,299.03z"/>
								</g>
								<g>
									<path class="st4" d="M570.63,282.41c1.9,2.26,3.54,4.68,5.11,7.14c1.55,2.48,3.04,5,4.27,7.68
										c-1.9-2.26-3.54-4.68-5.11-7.14C573.35,287.61,571.86,285.09,570.63,282.41z"/>
								</g>
								<g>
									<path class="st4" d="M566.86,268.37c-0.91-1.56-1.13-3.48-0.86-5.28c0.29-1.79,1.09-3.55,2.43-4.76
										c-0.68,1.66-1.2,3.25-1.45,4.91C566.71,264.92,566.71,266.59,566.86,268.37z"/>
								</g>
							</g>
						</g>
					</g>
				</g>
			</g>
			<g>
				<g>
					<path class="st12" d="M567.58,225.99c-0.5-1.57-2.18-2.84-3.86-2.42c-0.12,0.03-0.3,0.1-0.49,0.2
						c0.23-5.5-0.58-11.53-4.4-14.86c-8.23-7.16-20.04-4.65-22.54,1.79c-2.86,7.36-3.01,16.48-2.91,24.27
						c0.01,1.02,0.04,2.06,0.38,3.02c1.31,3.7,6.58,5.98,10.15,6.72c4.58,0.95,9.19-0.25,12.78-3.24c2.85-2.37,4.7-5.71,5.48-9.33
						c0.82,0.07,1.97-0.12,2.23-0.22c1.03-0.39,2-1.25,2.6-2.17C567.71,228.66,567.98,227.24,567.58,225.99z"/>
					<g>
						<g>
							<g>
								<path class="st4" d="M539.36,223.63c0,1.19-0.47,2.16-1.06,2.16s-1.06-0.97-1.06-2.16s0.47-2.16,1.06-2.16
									S539.36,222.43,539.36,223.63z"/>
							</g>
							<g>
								<path class="st4" d="M546.39,223.63c0,1.19,0.47,2.16,1.06,2.16c0.58,0,1.06-0.97,1.06-2.16s-0.47-2.16-1.06-2.16
									C546.87,221.46,546.39,222.43,546.39,223.63z"/>
							</g>
						</g>
						<g>
							<path class="st4" d="M538.91,230.17c0.37,0.71,0.92,1.33,1.59,1.81c0.67,0.48,1.5,0.79,2.37,0.79
								c0.86-0.02,1.7-0.31,2.35-0.81c0.35-0.23,0.61-0.54,0.91-0.81c0.25-0.32,0.49-0.64,0.71-0.97c-0.33,0.24-0.62,0.49-0.92,0.74
								c-0.33,0.2-0.63,0.45-0.97,0.62c-0.66,0.38-1.37,0.58-2.09,0.59c-0.72,0.02-1.44-0.21-2.1-0.57
								C540.11,231.19,539.49,230.72,538.91,230.17z"/>
							<path class="st4" d="M541.76,234.01c0.3,0.27,0.71,0.36,1.11,0.38c0.4-0.01,0.81-0.12,1.11-0.38
								c-0.39,0.06-0.75,0.14-1.11,0.12C542.51,234.15,542.15,234.08,541.76,234.01z"/>
						</g>
						<g>
							<path class="st4" d="M545.52,216.12c0.49-0.44,1.05-0.58,1.64-0.61c0.58-0.01,1.18,0.05,1.74,0.25
								c0.57,0.17,1.1,0.49,1.54,0.88c0.46,0.37,0.78,0.86,1.05,1.34c0.14,0.24,0.05,0.55-0.2,0.69c-0.2,0.11-0.43,0.07-0.59-0.07
								l-0.04-0.04c-0.34-0.32-0.67-0.61-1.04-0.83c-0.35-0.24-0.75-0.37-1.15-0.47c-0.4-0.09-0.82-0.14-1.25-0.12
								c-0.42,0.01-0.87,0.04-1.33-0.08l-0.13-0.03c-0.28-0.07-0.46-0.36-0.39-0.64C545.38,216.29,545.44,216.19,545.52,216.12z"/>
							<path class="st4" d="M540.24,216.12c-0.49-0.44-1.05-0.58-1.64-0.61c-0.58-0.01-1.18,0.05-1.74,0.25
								c-0.57,0.17-1.1,0.49-1.54,0.88c-0.46,0.37-0.78,0.86-1.05,1.34c-0.14,0.24-0.05,0.55,0.2,0.69c0.2,0.11,0.43,0.07,0.59-0.07
								l0.04-0.04c0.34-0.32,0.67-0.61,1.04-0.83c0.35-0.24,0.75-0.37,1.15-0.47c0.4-0.09,0.82-0.14,1.25-0.12
								c0.42,0.01,0.87,0.04,1.33-0.08l0.13-0.03c0.28-0.07,0.46-0.36,0.39-0.64C540.37,216.29,540.31,216.19,540.24,216.12z"/>
						</g>
						<path class="st4" d="M540.74,220.12c-0.19,0.81-0.32,1.62-0.48,2.43c-0.16,0.8-0.3,1.6-0.53,2.36
							c-0.05,0.19-0.11,0.38-0.18,0.56c-0.05,0.15-0.19,0.43-0.18,0.7c-0.03,0.54,0.32,1.07,0.76,1.28
							c0.45,0.25,0.97,0.21,1.38,0.07c0.42-0.15,0.78-0.38,1.09-0.65c-0.76,0.29-1.64,0.51-2.18,0.1c-0.27-0.2-0.41-0.48-0.37-0.77
							c0.01-0.15,0.06-0.25,0.16-0.48c0.08-0.2,0.15-0.41,0.21-0.61c0.23-0.82,0.35-1.66,0.4-2.49
							C540.87,221.78,540.85,220.95,540.74,220.12z"/>
						<path class="st4" d="M566.34,226.95c0.01-0.5-0.13-1.05-0.56-1.43c-0.47-0.38-1.13-0.35-1.63-0.16
							c-0.53,0.18-0.97,0.55-1.32,0.96c-0.35,0.41-0.61,0.86-0.82,1.38c-0.07,0.18,0.01,0.39,0.2,0.47
							c0.14,0.06,0.29,0.02,0.39-0.08l0.02-0.02c0.35-0.36,0.79-0.74,1.21-0.86c0.21-0.05,0.36-0.05,0.51,0.06
							c0.15,0.11,0.26,0.33,0.36,0.56c0.18,0.47,0.3,1.03-0.11,1.25c-0.42,0.24-1.05,0.18-1.6,0.11c0.52,0.23,1.1,0.42,1.76,0.24
							c0.33-0.11,0.6-0.49,0.62-0.83c0.03-0.34-0.02-0.65-0.1-0.96c-0.09-0.3-0.22-0.62-0.51-0.88c-0.3-0.27-0.77-0.33-1.11-0.23
							c-0.68,0.21-1.15,0.6-1.58,1.06l0.62,0.36c0.33-0.83,0.88-1.69,1.66-2.08c0.39-0.19,0.86-0.28,1.23-0.07
							C565.98,226,566.21,226.48,566.34,226.95z"/>
					</g>
				</g>
				<path class="st4" d="M571.79,222.47c-0.26-2.68-0.86-5.37-2.25-7.67c-1.39-2.3-3.73-4.29-6.37-4.76
					c0.23-2.97-2.1-5.66-4.84-6.83c-2.73-1.17-5.81-1.16-8.79-1.13c-2.74,0.03-5.48,0.05-8.21,0.08c-1.67,0.02-3.42,0.05-4.87,0.86
					c-2.76,1.53-3.47,5.2-3.2,8.35c0.19,2.14,0.92,4.49,1.01,6.62c0,0,9.41,4.46,18.75-5.54c0,0-4.25,9.33,5.25,12.75
					c0,0-0.94,1.02-3.75,6.65s-8.63,6-8.63,6s-0.75-2-2.63-2.56s-3.56,2.25-3.56,2.25c-5.94-0.5-6.31-9.19-6.31-9.19
					c-1.63,8-0.31,15.31,10.27,16.32c10.58,1.01,15.54-10.06,16.42-13.07c1.56-5.35,3.16-7.84,3.16-7.84c0,0.01,0,0.01,0,0.02
					c0.2-0.1,0.36-0.17,0.48-0.2c1.68-0.42,3.36,0.84,3.86,2.42c0.4,1.25,0.13,2.67-0.58,3.77c-0.6,0.92-1.57,1.78-2.6,2.17
					c-0.26,0.1-1.39,0.29-2.2,0.23c-0.26,1.51-1.14,7.05-1.27,12.77c0.02,0.01,0.05,0.03,0.07,0.04c0.41-1.98,1.76-3.63,3.22-5.02
					c1.46-1.4,3.1-2.62,4.38-4.18C571.56,232.14,572.23,227.12,571.79,222.47z"/>
			</g>
		</g>
	</g>
</g>
<g id="DESIGNED_BY_FREEPIK">
</g>
</svg>
