<?xml version="1.0" encoding="utf-8"?>
<!-- Generator: Adobe Illustrator 23.0.2, SVG Export Plug-In . SVG Version: 6.00 Build 0)  -->
<svg version="1.1" xmlns="http://www.w3.org/2000/svg" xmlns:xlink="http://www.w3.org/1999/xlink" x="0px" y="0px"
	 viewBox="0 0 750 500" style="enable-background:new 0 0 750 500;" xml:space="preserve">
<style type="text/css">
	.st0{fill:#FFC7C7;}
	.st1{fill:#FFDCEA;}
	.st2{fill:none;stroke:#FFFFFF;stroke-linecap:round;stroke-miterlimit:10;}
	.st3{clip-path:url(#SVGID_2_);}
	.st4{fill:#FFC0D8;}
	.st5{clip-path:url(#SVGID_4_);}
	.st6{fill:none;stroke:#FFDCEA;stroke-linecap:round;stroke-miterlimit:10;}
	.st7{clip-path:url(#SVGID_6_);}
	.st8{clip-path:url(#SVGID_8_);}
	.st9{fill:#B7D1FF;}
	.st10{fill:none;stroke:#FFFFFF;stroke-linecap:round;stroke-linejoin:round;stroke-miterlimit:10;}
	.st11{fill:#FFFFFF;}
	.st12{fill:none;stroke:#6CA0FF;stroke-width:3;stroke-linecap:round;stroke-linejoin:round;stroke-miterlimit:10;}
	.st13{clip-path:url(#SVGID_10_);}
	.st14{fill:url(#SVGID_11_);}
	.st15{fill:url(#SVGID_12_);}
	.st16{opacity:0.25;clip-path:url(#SVGID_14_);fill:#B7D1FF;}
	.st17{clip-path:url(#SVGID_14_);}
	.st18{opacity:0.25;fill:#B7D1FF;}
	.st19{fill:none;stroke:#FFFFFF;stroke-width:1.5;stroke-linecap:round;stroke-linejoin:round;stroke-miterlimit:10;}
	.st20{fill:none;stroke:#6CA0FF;stroke-linejoin:round;stroke-miterlimit:10;}
	.st21{fill:#00276F;}
	.st22{fill:#F886BC;}
	.st23{fill:none;stroke:#D34F9B;stroke-width:0.75;stroke-miterlimit:10;}
	.st24{fill:none;stroke:#00276F;stroke-width:0.75;stroke-linecap:round;stroke-miterlimit:10;}
	.st25{fill:#DD3C91;}
	.st26{fill:#EF8318;}
	.st27{fill:none;stroke:#AF480E;stroke-width:0.75;stroke-miterlimit:10;}
	.st28{fill:none;stroke:#AF480E;stroke-width:0.75;stroke-miterlimit:10;stroke-dasharray:2,1.5;}
	.st29{fill:#FFAB37;}
	.st30{fill:none;stroke:#AF480E;stroke-width:0.75;stroke-linecap:round;stroke-miterlimit:10;}
	.st31{fill:none;stroke:#AF480E;stroke-width:0.75;stroke-miterlimit:10;stroke-dasharray:1.9796,1.4847;}
	.st32{fill:#AF480E;}
	.st33{fill:none;stroke:#2D5491;stroke-width:0.5;stroke-linecap:round;stroke-miterlimit:10;}
	.st34{fill:#0070E4;}
	.st35{fill:#D34F9B;}
	.st36{fill:none;stroke:#0E4099;stroke-width:0.75;stroke-miterlimit:10;}
	.st37{fill:none;stroke:#00276F;stroke-linecap:round;stroke-miterlimit:10;}
	.st38{fill:#00224C;}
	.st39{fill:none;stroke:#15489B;stroke-width:0.75;stroke-miterlimit:10;stroke-dasharray:2,1.5;}
	.st40{fill:none;stroke:#15489B;stroke-width:0.75;stroke-miterlimit:10;}
	.st41{fill:#15489B;}
	.st42{fill:none;stroke:#1B5ABF;stroke-width:0.75;stroke-miterlimit:10;}
	.st43{fill:none;stroke:#1B5ABF;stroke-width:0.75;stroke-miterlimit:10;stroke-dasharray:2,1.5;}
	.st44{fill:#1B5ABF;}
	.st45{fill:none;stroke:#00276F;stroke-width:0.75;stroke-miterlimit:10;}
	.st46{fill:#0A172B;}
	.st47{fill:#8DADE0;}
	.st48{fill:none;stroke:#8DADE0;stroke-width:0.25;stroke-linecap:round;stroke-miterlimit:10;}
	.st49{opacity:0.55;fill:#8DADE0;}
	.st50{opacity:0.51;fill:#FFFFFF;}
	.st51{clip-path:url(#SVGID_16_);fill:url(#SVGID_17_);}
	.st52{clip-path:url(#SVGID_16_);fill:url(#SVGID_18_);}
	.st53{fill:#6CA0FF;}
	.st54{fill:none;stroke:#225BAF;stroke-width:0.75;stroke-miterlimit:10;}
	.st55{fill:none;stroke:#6CA0FF;stroke-linecap:round;stroke-linejoin:round;stroke-miterlimit:10;}
	.st56{fill:#FF5A89;}
	.st57{fill:#D2E4FF;}
	.st58{fill:#EA3974;}
	.st59{fill:#FFFFFF;stroke:#6CA0FF;stroke-linecap:round;stroke-linejoin:round;stroke-miterlimit:10;}
	.st60{fill:#E6EFFC;}
	.st61{clip-path:url(#SVGID_20_);}
	.st62{fill:none;stroke:#D34F9B;stroke-width:0.5;stroke-linecap:round;stroke-linejoin:round;stroke-miterlimit:10;}
	.st63{fill:none;stroke:#00276F;stroke-width:0.5;stroke-linecap:round;stroke-linejoin:round;stroke-miterlimit:10;}
	.st64{fill:none;stroke:#E6EFFC;stroke-width:3;stroke-linecap:round;stroke-linejoin:round;stroke-miterlimit:10;}
	.st65{clip-path:url(#SVGID_22_);}
</style>
<g id="BACKGROUND">
	<rect class="st0" width="750" height="500"/>
</g>
<g id="OBJECTS">
	<g>
		<g>
			<g>
				<g>
					<path class="st1" d="M506.07,375.93c-0.81-7.17-1.42-14.4-0.84-21.58c0.58-7.25,2.55-15.74,6.58-21.9
						c2.32-3.55,10.39-11.84,11.51-2.41c0.55,4.66-1.54,8.89-3.08,13.15c-1.48,4.08-3.54,8.01-4.83,12.15
						c-2.06,6.61-3.49,13.41-5.78,19.95"/>
				</g>
				<g>
					<path class="st1" d="M509.49,389.03c5.79-9.79,11.91-19.39,19.53-27.39c6.36-6.68,14.22-12.82,23.05-16.16
						c5.95-2.25,22.91-6.95,25.38,2.31c2,7.5-6.27,12.96-11.79,16.06c-7.9,4.43-16.42,7.63-24.24,12.27
						c-9.03,5.36-17.39,11.78-26.66,16.77"/>
				</g>
				<g>
					<path class="st1" d="M513.44,367.2c3.15-9.11,6.23-18.03,11.27-26.24c3.36-5.47,9.35-15.09,16.73-15.54
						c4.76-0.29,4.49,7.01,3.74,10.07c-1.22,4.93-4.23,9.33-7.57,13.08c-8.01,9.01-15.06,17.2-21.95,27.09"/>
				</g>
				<path class="st2" d="M539.39,331.78c0,0-15.6,17.43-26.84,47.02"/>
				<path class="st2" d="M566.57,350.81c0,0-24.1,4.08-57.98,42.97"/>
				<path class="st2" d="M519.16,331.97c0,0-10.59,13.59-12.2,49.28"/>
			</g>
			<g>
				<g>
					<path class="st1" d="M265.29,378.09c1.56-9.82,2.84-19.73,2.5-29.66c-0.35-10.02-2.54-21.83-7.7-30.56
						c-2.98-5.04-13.57-16.94-15.7-4.03c-1.05,6.38,1.57,12.33,3.43,18.29c1.79,5.71,4.37,11.25,5.89,17.03
						c2.43,9.23,3.97,18.67,6.72,27.83"/>
				</g>
				<g>
					<path class="st1" d="M260.1,383.16c-2.57-12.31-5.54-24.54-10.67-35.65c-4.27-9.26-10.31-18.5-18.36-25.15
						c-5.42-4.48-21.5-15.46-27.39-6.64c-4.77,7.14,1.93,15.81,6.6,21.01c6.69,7.46,14.46,13.85,20.99,21.5
						c7.53,8.84,14,18.54,21.92,27.07"/>
				</g>
				<g>
					<path class="st1" d="M240.68,376.51c-6.62-8.16-14.37-15.41-22.95-21.46c-2.9-2.05-17.71-12.09-17.67-2.3
						c0.03,6.71,8.05,10.57,13,13.17c10.2,5.36,21.24,9.22,30.73,15.75"/>
				</g>
				<path class="st2" d="M204.76,354.51c0,0,20.44,9.09,41.84,30.48"/>
				<path class="st2" d="M214,322.78c0,0,23.77,12.88,45.34,65.67"/>
				<path class="st2" d="M250,316.76c0,0,13.73,19.37,13.73,68.59"/>
			</g>
			<g>
				<path class="st1" d="M550.71,386.54c21.96,2.63,39.42,24.57,40,39.06h-80C510.71,404.98,526.43,383.63,550.71,386.54z"/>
				<g>
					<defs>
						<path id="SVGID_1_" d="M550.71,386.54c21.96,2.63,39.42,24.57,40,39.06h-80C510.71,404.98,526.43,383.63,550.71,386.54z"/>
					</defs>
					<clipPath id="SVGID_2_">
						<use xlink:href="#SVGID_1_"  style="overflow:visible;"/>
					</clipPath>
					<g class="st3">
						<line class="st2" x1="545.81" y1="383.42" x2="548.73" y2="429.24"/>
						<line class="st2" x1="546.87" y1="400.02" x2="554.6" y2="385.18"/>
						<line class="st2" x1="538.11" y1="428.18" x2="518.98" y2="395.26"/>
						<line class="st2" x1="533.51" y1="386.89" x2="530.9" y2="415.77"/>
						<line class="st2" x1="531.81" y1="430.42" x2="511.76" y2="413.68"/>
						<line class="st2" x1="519.21" y1="419.9" x2="510.55" y2="418.78"/>
						<line class="st2" x1="574.78" y1="393.67" x2="550.94" y2="427.52"/>
						<line class="st2" x1="561.37" y1="387.79" x2="564.72" y2="407.95"/>
						<line class="st2" x1="589.69" y1="411.11" x2="563.67" y2="428.18"/>
						<line class="st2" x1="583.97" y1="403.2" x2="560.69" y2="413.68"/>
						<line class="st2" x1="579.65" y1="417.69" x2="593.8" y2="419.9"/>
					</g>
				</g>
			</g>
			<g>
				<path class="st4" d="M254.04,364.56c-34.31,4.11-61.59,38.39-62.51,61.04h125.01C316.55,393.38,291.99,360.02,254.04,364.56z"/>
				<g>
					<defs>
						<path id="SVGID_3_" d="M254.04,364.56c-34.31,4.11-61.59,38.39-62.51,61.04h125.01C316.55,393.38,291.99,360.02,254.04,364.56
							z"/>
					</defs>
					<clipPath id="SVGID_4_">
						<use xlink:href="#SVGID_3_"  style="overflow:visible;"/>
					</clipPath>
					<g class="st5">
						<line class="st6" x1="261.7" y1="359.69" x2="257.14" y2="431.28"/>
						<line class="st6" x1="259.42" y1="394.87" x2="236.18" y2="366.76"/>
						<line class="st6" x1="273.74" y1="429.63" x2="303.64" y2="378.19"/>
						<line class="st6" x1="280.93" y1="365.11" x2="285.01" y2="410.23"/>
						<line class="st6" x1="283.58" y1="433.14" x2="314.91" y2="406.97"/>
						<line class="st6" x1="303.27" y1="416.69" x2="316.81" y2="414.95"/>
						<line class="st6" x1="260.07" y1="385.25" x2="275.3" y2="359.69"/>
						<line class="st6" x1="219.46" y1="370.55" x2="254.93" y2="428.06"/>
						<line class="st6" x1="205.54" y1="385.36" x2="243.02" y2="408.76"/>
						<line class="st6" x1="198.08" y1="398.02" x2="233.8" y2="429.63"/>
						<line class="st6" x1="191.54" y1="411.83" x2="218.2" y2="415.82"/>
					</g>
				</g>
			</g>
			<g>
				<path class="st4" d="M476.06,351.17c41.84,5.01,75.11,46.82,76.22,74.43H399.83C399.83,386.31,429.78,345.62,476.06,351.17z"/>
				<g>
					<defs>
						<path id="SVGID_5_" d="M476.06,351.17c41.84,5.01,75.11,46.82,76.22,74.43H399.83C399.83,386.31,429.78,345.62,476.06,351.17z
							"/>
					</defs>
					<clipPath id="SVGID_6_">
						<use xlink:href="#SVGID_5_"  style="overflow:visible;"/>
					</clipPath>
					<g class="st7">
						<line class="st6" x1="466.72" y1="345.23" x2="472.28" y2="432.53"/>
						<line class="st6" x1="469.5" y1="388.13" x2="497.84" y2="353.84"/>
						<line class="st6" x1="452.04" y1="430.51" x2="415.58" y2="367.79"/>
						<line class="st6" x1="443.27" y1="351.83" x2="438.29" y2="406.86"/>
						<line class="st6" x1="440.04" y1="434.79" x2="401.83" y2="402.89"/>
						<line class="st6" x1="416.03" y1="414.74" x2="399.52" y2="412.61"/>
						<line class="st6" x1="468.71" y1="376.4" x2="450.13" y2="345.23"/>
						<line class="st6" x1="518.23" y1="358.47" x2="474.98" y2="428.6"/>
						<line class="st6" x1="528.5" y1="367.79" x2="499.48" y2="388.88"/>
						<line class="st6" x1="544.3" y1="391.96" x2="500.75" y2="430.51"/>
						<line class="st6" x1="525.37" y1="408.71" x2="535.2" y2="382.65"/>
						<line class="st6" x1="512.67" y1="419.96" x2="555.98" y2="410.7"/>
					</g>
				</g>
			</g>
			<g>
				<path class="st1" d="M181.88,386.54c-21.96,2.63-39.42,24.57-40,39.06h80C221.88,404.98,206.17,383.63,181.88,386.54z"/>
				<g>
					<defs>
						<path id="SVGID_7_" d="M181.88,386.54c-21.96,2.63-39.42,24.57-40,39.06h80C221.88,404.98,206.17,383.63,181.88,386.54z"/>
					</defs>
					<clipPath id="SVGID_8_">
						<use xlink:href="#SVGID_7_"  style="overflow:visible;"/>
					</clipPath>
					<g class="st8">
						<line class="st2" x1="186.78" y1="383.42" x2="183.86" y2="429.24"/>
						<line class="st2" x1="185.32" y1="405.93" x2="177.99" y2="385.18"/>
						<line class="st2" x1="194.49" y1="428.18" x2="213.62" y2="395.26"/>
						<line class="st2" x1="199.09" y1="386.89" x2="201.7" y2="415.77"/>
						<line class="st2" x1="200.78" y1="430.42" x2="220.83" y2="413.68"/>
						<line class="st2" x1="213.38" y1="419.9" x2="222.05" y2="418.78"/>
						<line class="st2" x1="185.74" y1="399.78" x2="195.49" y2="383.42"/>
						<line class="st2" x1="157.82" y1="393.67" x2="177.99" y2="428.18"/>
						<line class="st2" x1="171.22" y1="387.79" x2="170.74" y2="415.77"/>
						<line class="st2" x1="146.07" y1="407.95" x2="168.92" y2="428.18"/>
						<line class="st2" x1="141.88" y1="416.79" x2="158.94" y2="419.34"/>
					</g>
				</g>
			</g>
		</g>
		<g>
			<g>
				<path class="st9" d="M434.94,425.6h-130.6c-6.15,0-11.13-4.98-11.13-11.13V162.5c0-6.15,4.98-11.13,11.13-11.13h130.6
					c6.15,0,11.13,4.98,11.13,11.13v251.97C446.06,420.62,441.08,425.6,434.94,425.6z"/>
				<g>
					<path class="st10" d="M375.11,411.09c0,3.02-2.45,5.47-5.47,5.47c-3.02,0-5.47-2.45-5.47-5.47c0-3.02,2.45-5.47,5.47-5.47
						C372.66,405.62,375.11,408.07,375.11,411.09z"/>
				</g>
				<rect x="297.3" y="170.93" class="st11" width="144.68" height="225.73"/>
				<line class="st12" x1="356.5" y1="160.55" x2="382.77" y2="160.55"/>
				<line class="st12" x1="346.77" y1="160.55" x2="351.61" y2="160.55"/>
				<g>
					<defs>
						<path id="SVGID_9_" d="M434.94,425.6h-130.6c-6.15,0-11.13-4.98-11.13-11.13V162.5c0-6.15,4.98-11.13,11.13-11.13h130.6
							c6.15,0,11.13,4.98,11.13,11.13v251.97C446.06,420.62,441.08,425.6,434.94,425.6z"/>
					</defs>
					<clipPath id="SVGID_10_">
						<use xlink:href="#SVGID_9_"  style="overflow:visible;"/>
					</clipPath>
					<g class="st13">
						<linearGradient id="SVGID_11_" gradientUnits="userSpaceOnUse" x1="479.8957" y1="162.4696" x2="250.6541" y2="391.7112">
							<stop  offset="0.2704" style="stop-color:#FFFFFF;stop-opacity:0.4"/>
							<stop  offset="1" style="stop-color:#FFFFFF;stop-opacity:0.2"/>
						</linearGradient>
						<polygon class="st14" points="405.84,121.67 291.46,432.51 324.71,432.51 439.09,121.67 						"/>
						<linearGradient id="SVGID_12_" gradientUnits="userSpaceOnUse" x1="509.0609" y1="167.2576" x2="289.3952" y2="386.9232">
							<stop  offset="0.2704" style="stop-color:#FFFFFF;stop-opacity:0.4"/>
							<stop  offset="1" style="stop-color:#FFFFFF;stop-opacity:0.2"/>
						</linearGradient>
						<polygon class="st15" points="449.37,121.67 334.99,432.51 349.08,432.51 463.47,121.67 						"/>
					</g>
				</g>
				<g>
					<defs>
						<rect id="SVGID_13_" x="297.3" y="170.93" width="144.68" height="225.73"/>
					</defs>
					<clipPath id="SVGID_14_">
						<use xlink:href="#SVGID_13_"  style="overflow:visible;"/>
					</clipPath>
					<path class="st16" d="M324.75,166.77h-67.29c-11.54,0-20.9,9.36-20.9,20.9v0c0,11.54,9.36,20.9,20.9,20.9h6l3.76,4.86
						l3.76-4.86h53.77c11.54,0,20.9-9.36,20.9-20.9v0C345.65,176.13,336.29,166.77,324.75,166.77z"/>
					<path class="st16" d="M366.41,198.2h67.29c11.54,0,20.9,9.36,20.9,20.9l0,0c0,11.54-9.36,20.9-20.9,20.9h-2.87l-3.76,4.86
						l-3.76-4.86h-56.9c-11.54,0-20.9-9.36-20.9-20.9l0,0C345.52,207.55,354.87,198.2,366.41,198.2z"/>
					<g class="st17">
						<path class="st18" d="M395.99,271.02h-69.64c-11.54,0-20.9,9.36-20.9,20.9l0,0c0,11.54,9.36,20.9,20.9,20.9h6l3.76,4.86
							l3.76-4.86h56.12c11.54,0,20.9-9.36,20.9-20.9l0,0C416.89,280.38,407.53,271.02,395.99,271.02z"/>
						<g>
							<line class="st19" x1="317.12" y1="281.17" x2="403.51" y2="281.17"/>
							<line class="st19" x1="341.98" y1="288.34" x2="403.51" y2="288.34"/>
							<line class="st19" x1="317.12" y1="288.34" x2="334.5" y2="288.34"/>
							<line class="st19" x1="382.8" y1="295.5" x2="403.51" y2="295.5"/>
							<line class="st19" x1="317.12" y1="295.5" x2="374.81" y2="295.5"/>
							<line class="st19" x1="317.12" y1="302.66" x2="361.59" y2="302.66"/>
						</g>
					</g>
					<g class="st17">
						<path class="st18" d="M346.03,337.72h69.64c11.54,0,20.9,9.36,20.9,20.9v0c0,11.54-9.36,20.9-20.9,20.9h-6l-3.76,4.86
							l-3.76-4.86h-56.12c-11.54,0-20.9-9.36-20.9-20.9v0C325.13,347.08,334.49,337.72,346.03,337.72z"/>
						<g>
							<line class="st19" x1="336.8" y1="347.87" x2="423.19" y2="347.87"/>
							<line class="st19" x1="375.43" y1="355.04" x2="423.19" y2="355.04"/>
							<line class="st19" x1="336.8" y1="355.04" x2="368.88" y2="355.04"/>
							<line class="st19" x1="407.42" y1="362.2" x2="423.19" y2="362.2"/>
							<line class="st19" x1="336.8" y1="362.2" x2="399.43" y2="362.2"/>
							<line class="st19" x1="336.8" y1="369.36" x2="390.95" y2="369.36"/>
						</g>
					</g>
				</g>
			</g>
			<line class="st20" x1="126.51" y1="425.6" x2="612.76" y2="425.6"/>
		</g>
		<g>
			<g>
				<g>
					<path class="st21" d="M275.07,222.26c-0.63-0.89-1.35-1.83-2.41-2.12c-0.3-0.08-0.61-0.11-0.92-0.11
						c-1.24-0.02-2.49,0.3-3.57,0.91c-0.31,0.17-0.6,0.37-0.84,0.63c-0.29,0.31-0.4,0.55-0.37,0.96c0.02,0.3,0.03,0.6,0.01,0.9
						c-0.03,0.47-0.13,0.92-0.23,1.38c-0.28,1.22-0.23,2.38,0.03,3.61c0.1,0.46,0.11,0.96-0.07,1.39c-0.16,0.38-0.46,0.67-0.74,0.97
						c-0.56,0.58-1.06,1.24-1.36,2.01c-0.3,0.77-0.37,1.66-0.07,2.42c0.16,0.4,0.41,0.75,0.6,1.13c0.49,0.97,0.56,2.16,0.22,3.19
						c-0.08,0.24,0.09,0.48,0.33,0.53c2.15,0.4,4.34,0.62,6.51,0.39c2.34-0.25,4.66-1.07,6.5-2.63"/>
				</g>
				<path class="st22" d="M268.04,219.87c-0.91,4.11-0.21,15.22,2.86,16.6c3.08,1.38,6.96-1.71,8.12-3.1
					c1.69-2.03,4.89-10.62,2.02-13.35C278.17,217.28,269.31,214.1,268.04,219.87z"/>
				<path class="st22" d="M275.05,233.96l2.25,8.16l-0.9,2.21c0,0-0.6,4.4,0.13,4.63c2.92,0.89,9.36-8.09,9.36-8.09l-5.15-11.75"/>
				<path class="st21" d="M283.19,220.55c-0.89-3.89-5.78-6.36-9.99-5.72c-3.45-0.99-10.14,2.64-7.15,9.78c0,0,2.66-2.46,6.07-5.72
					c2.15,6.76,10.34,10.17,10.34,10.17S284.27,225.24,283.19,220.55z"/>
				<g>
					<path class="st21" d="M272.22,215.04c3.1-4.13,10.56-1.44,12.51,0.64c2.21,2.35,3.09,4.73,5.64,6.29
						c1.18,0.72,2.65,1.19,3.3,2.41c0.9,1.68-0.2,4.04,0.98,5.53c0.5,0.63,2.9,2.56,2.9,5.68c-2.62,1.79-4.74,1.21-7.65,2.38
						c-2.11,0.85-5.01,2.24-7.38,2.64c-0.28,0.05-0.53-0.2-0.5-0.48c0.12-1.01,0.3-2.29-0.13-3.09c-0.23-0.41-0.6-0.72-0.87-1.11
						c-0.66-0.95-0.58-2.2-0.4-3.34c0.18-1.14,0.45-2.32,0.1-3.42c-0.32-1.01-1.12-1.8-1.96-2.46"/>
				</g>
				<g>
					<path class="st21" d="M280.17,214.48c-0.6,0.06-1.02-0.56-1.24-1.12c-0.29-0.74-0.47-1.57-0.22-2.32
						c0.59-1.76,2.93-1.87,4.27-0.99c1.16,0.76,2.01,2.47,1.07,3.73c-0.66,0.88-2.02,1.07-3.01,1.26"/>
				</g>
				<g>
					<path class="st22" d="M278.78,228.08c0.01-0.16,0.16-0.27,0.29-0.36c0.6-0.41,1.33-0.83,2-0.55c0.34,0.15,0.59,0.47,0.73,0.81
						c0.47,1.16,0.33,2.71-0.55,3.66c-0.79,0.85-2.87,1.43-3.22-0.14"/>
				</g>
				<path class="st23" d="M270.98,226.86c0,0-2.02,3.52-1.38,4.15c0.63,0.63,1.93,0.25,1.93,0.25"/>
				<g>
					<path class="st21" d="M273.48,226.73c-0.02,0.27,0.09,0.59,0.12,0.79c0.07,0.36,0.48,0.45,0.75,0.26
						c0.52-0.35,0.06-1.73-0.62-1.45C273.55,226.4,273.49,226.56,273.48,226.73z"/>
				</g>
				<g>
					<path class="st21" d="M268.27,226.73c-0.02,0.27,0.09,0.59,0.12,0.79c0.07,0.36,0.48,0.45,0.75,0.26
						c0.52-0.35,0.06-1.73-0.62-1.45C268.35,226.4,268.29,226.56,268.27,226.73z"/>
				</g>
				<path class="st24" d="M272.09,225.3c0,0,1.26-1.57,3.42,0"/>
				<path class="st24" d="M268.07,225.4c0.47-0.47,1.25-0.83,2.1-0.1"/>
				<path class="st11" d="M270.5,233l3.92-0.95c0,0-0.69,2.37-2.63,2.37C270.84,234.42,270.5,233,270.5,233z"/>
				<path class="st23" d="M275.7,236.32c0,0,2.62-0.86,3.66-3.08"/>
			</g>
			<path class="st25" d="M241.81,260.81c0,0-0.62,1.71,0.45,4.64c1.39,3.77,16.3,27.1,25.77,27.97c9.47,0.87,19-27.52,19-36.26
				c0-8.74-7.71-11.35-12.65-5.05c-4.94,6.3-10.64,28.21-10.64,28.21L241.81,260.81z"/>
			<g>
				<path class="st25" d="M251.57,268.46c-0.36-1.3-1.81-3.47-2.58-4.52c-0.43-0.59-1.92-2.66-2.77-2.26
					c-0.58,0.28,0.03,1.83,0.26,2.27c0.34,0.63,0.8,1.17,1.26,1.69"/>
			</g>
			<g>
				<g>
					<path class="st22" d="M251.51,404.19l-3.75,18.24c0,0-14.96,8.8-14.96,8.99c0,0.19,14.24,0.7,14.24,0.7l6.3-3.08h6.16
						c0.72,0,1.26-0.67,1.1-1.37l-1.28-5.62l6.67-19.2"/>
					<path class="st21" d="M233.82,429.31c2.24-1.3,10.66-5.46,10.66-5.46l8.81,5.19h7.61v4.39h-7.61v-3.32h-0.97
						c-0.34,0-0.67,0.11-0.94,0.32l-3.32,2.57c-0.36,0.28-0.8,0.43-1.26,0.43c0,0-12.05,0-14.01,0S230.39,431.3,233.82,429.31z"/>
					<g>
						<polygon class="st21" points="256.47,429.86 260.09,424.98 259.66,423.12 255.37,429.05 						"/>
					</g>
				</g>
				<path class="st26" d="M303.06,282.35c0,0,11.49,18.14-1.3,36.47c-5.17,7.41-22.54,38.32-22.54,38.32l-9.58,55.52h-25.32
					c0,0,8.12-55,11.78-64.92c3.65-9.92,26.49-56.49,26.49-56.49v-7.2"/>
				<path class="st27" d="M291.76,317.72c-5.17,7.41-20.51,39.42-20.51,39.42l-9.58,55.52"/>
				<path class="st28" d="M293.7,317.72c-5.17,7.41-20.51,39.42-20.51,39.42l-9.58,55.52"/>
				<g>
					<path class="st22" d="M288.34,390.78l12.86,12.95c0,0-7.11,15.57-7,15.72c0.11,0.15,11.9-7.49,11.9-7.49l3.35-6.06l4.97-3.48
						c0.58-0.41,0.64-1.25,0.11-1.73l-4.22-3.82l-11.05-15.38"/>
					<path class="st21" d="M293.83,417.18c1.07-2.32,5.52-10.45,5.52-10.45l10.05-0.8l6.15-4.31l2.48,3.55l-6.15,4.31l-1.88-2.68
						l-0.78,0.55c-0.27,0.19-0.48,0.47-0.58,0.79l-1.23,3.95c-0.13,0.43-0.41,0.8-0.77,1.06c0,0-9.73,6.82-11.32,7.93
						C293.75,422.19,292.19,420.73,293.83,417.18z"/>
					<g>
						<polygon class="st21" points="312.44,404.81 312.6,398.82 311.21,397.56 311.09,404.78 						"/>
					</g>
				</g>
				<path class="st29" d="M281.4,283.89l-0.93,7.37c0,0-30.39,37.26-30.39,52.98c0,15.35,34.3,53.64,34.3,53.64l19.21-14.62
					l-24.97-35.75c0,0,24.41-29.74,28.63-33.96c7.05-7.05,6.57-19.06-2.33-31.2"/>
				<path class="st27" d="M280.8,288.66c0,0,13.51,1.39,26.33-3.01"/>
				<line class="st30" x1="286.52" y1="288.86" x2="286.52" y2="284.52"/>
				<line class="st27" x1="303.42" y1="286.76" x2="301.93" y2="282.74"/>
				<path class="st27" d="M298.81,386.89l-25.03-36.13c-1.35-1.94-1.3-4.53,0.13-6.41c5.83-7.72,20.56-27.18,23.65-30.8
					c6.48-7.58,7.16-16.5,2.28-25.98"/>
				<g>
					<g>
						<line class="st27" x1="299.2" y1="383.79" x2="298.63" y2="382.97"/>
						<path class="st31" d="M297.78,381.75l-22.18-31.97c-0.94-1.36-0.91-3.16,0.09-4.48c5.22-6.92,21.14-27.98,24.37-31.75
							c6.12-7.16,6.71-15.8,2.63-24.73"/>
						<path class="st27" d="M302.38,288.15c-0.14-0.3-0.29-0.6-0.45-0.9"/>
					</g>
				</g>
				<path class="st27" d="M293.96,288.45c0,0,0.84,3.03,3.29,4.21s5.2,1.88,5.2,1.88"/>
				<path class="st27" d="M308.35,296.52c0,0,1.11-0.08,3.1-0.68"/>
				<path class="st27" d="M308.35,298.02c0,0,1.42-0.04,3.41-0.63"/>
				<polygon class="st32" points="281.46,394.53 284.94,399.4 304.78,383.84 301.01,379.57 				"/>
				<polygon class="st32" points="243.86,412.66 245.15,407.19 270.59,407.19 270.59,412.66 				"/>
			</g>
			<g>
				<path class="st21" d="M253.84,270.52c0.11,0.11,0.11,0.29,0,0.4l-0.67,0.68c-0.11,0.11-0.29,0.11-0.4,0l-13.3-13.11
					c-0.11-0.11-0.11-0.29,0-0.4l0.67-0.68c0.11-0.11,0.29-0.11,0.4,0"/>
				<line class="st33" x1="241.18" y1="259.15" x2="242.26" y2="260.21"/>
				<line class="st33" x1="242.68" y1="260.65" x2="242.84" y2="260.81"/>
			</g>
			<path class="st34" d="M301.09,252.25c-4.98-10.26-15.34-11.7-15.34-11.7s-8.22,6.74-9.35,3.79c-1.2,1.78-8.84,15.05-7.8,21.84
				c1.04,6.79,6.92,7.73,8.09,9.2c1.17,1.47,3.95,10.9,4.32,11.55c11.84-0.23,23.9-4.57,23.9-4.57S306.41,263.2,301.09,252.25z"/>
			<g>
				<path class="st22" d="M297.2,254.91c-2.08-7.93-8.71-12.14-14.56-10.04c-5.04,1.82-6.06,7.69-4.61,15.42
					c1.45,7.73,1.09,18.18,1.09,18.18s-18.19-6.73-21.61-8.09c-3.51-2.99-7.84-6.1-8.57-6.1c-0.73,0-0.37,1.22,0.63,2.22
					c1.04,1.04,2.72,2.56,1.31,2.43c-1.06-0.09-7.99-7.07-7.99-7.07c-0.58,0.58,0.11,2.2,0.11,2.2s0.11,2.67,2.28,5.14
					c15.06,17.12,32.81,29.05,44.02,24.96C299.84,290.33,297.94,257.73,297.2,254.91z"/>
				<g>
					<path class="st35" d="M248.16,269.79c-1.16-0.63-2.15-1.51-3.02-2.47c-0.86-0.97-1.64-2.03-2.15-3.25
						c0.99,0.87,1.85,1.81,2.71,2.75C246.54,267.79,247.39,268.73,248.16,269.79z"/>
				</g>
				<path class="st34" d="M298.63,256.21c-1.39-8.72-8.06-13.95-14.55-12.31c-5.59,1.41-7.31,7.6-6.58,16.05
					c0.21,2.48,0.43,5.2,0.62,7.83l20.49,2.41C299.04,263.24,298.82,257.4,298.63,256.21z"/>
				<path class="st36" d="M298.61,270.19c0.43-6.95,0.2-12.8,0.01-13.98c-1.39-8.72-8.06-13.95-14.55-12.31
					c-5.59,1.41-7.31,7.6-6.58,16.05c0.21,2.48,0.43,5.2,0.62,7.83"/>
			</g>
		</g>
		<g>
			<g>
				<g>
					<g>
						<path class="st21" d="M441.1,402.83l1.66-0.78l10.16,21.59c0.49,1.05,1.5,1.76,2.65,1.87l0.12,0.17l-2.66,1.25
							c-0.1,0.05-0.21,0.05-0.32,0.02l-0.1-0.03c-0.67-0.22-1.21-0.7-1.51-1.33l-10.31-21.91
							C440.64,403.36,440.78,402.98,441.1,402.83z"/>
						<path class="st22" d="M469.75,376.53l-18.82,22.63l-6.88,4.1l9.77,20.77c0.32,0.69,1.15,0.99,1.84,0.66l0,0
							c0.52-0.24,0.83-0.78,0.79-1.35l-1-13.79l20.61-16.95"/>
						<path class="st29" d="M456.39,408.52l0.43,15.55c0.02,0.64-0.4,1.27-1.05,1.57l0,0c-0.87,0.41-1.99-0.15-2.35-0.92
							l-10.67-22.68l8.43-3.04C451.19,399.01,450.38,404.24,456.39,408.52z"/>
						<path class="st37" d="M457.12,411.54c-1.28-0.29-2.6-0.42-3.92-0.4"/>
						<path class="st37" d="M456.9,413.62c-1.39-0.27-2.13-0.29-3.31-0.29"/>
						<path class="st37" d="M456.82,415.33c-0.92-0.19-2.08-0.21-3.03-0.25"/>
					</g>
					<path class="st38" d="M479.66,297.2l2.7,6.25c0.88,2.03,2.18,3.84,3.83,5.32c7.4,6.64,26.11,32.79,26.31,43.81
						c0.25,13.31-40.64,56.22-40.64,56.22l-15.96-17.91l32.14-38.35l-27.91-26.66c0,0-12.75-4.49-7.61-27.31"/>
					<path class="st39" d="M460.6,390.79l30.09-37.4c1.1-1.21,0.96-3.1-0.32-4.13l-25.58-25.68c0,0-12.75-4.67-7.63-28.35"/>
					<path class="st40" d="M460.51,393.55l31.93-39.26c1.57-1.72,1.36-4.41-0.45-5.87c0,0-27.29-26.77-27.39-26.81
						c-1.36-0.59-9.66-5.33-4.85-27.57"/>
					<polygon class="st41" points="458.75,387.6 453.48,392.49 470.73,410.33 475.58,405.2 					"/>
				</g>
				<g>
					<g>
						<path class="st21" d="M491.92,432.78v-1.83h23.86c1.16,0,2.23-0.61,2.82-1.6l0.2-0.04v2.95c0,0.11-0.04,0.21-0.12,0.29
							l-0.07,0.08c-0.48,0.51-1.15,0.8-1.85,0.8h-24.21C492.21,433.42,491.92,433.14,491.92,432.78z"/>
						<path class="st22" d="M482.93,399.26l9.85,23.07l0.78,7.97h22.95c0.76,0,1.38-0.62,1.38-1.38l0,0c0-0.57-0.35-1.08-0.89-1.29
							l-12.9-4.97l-6.56-25.87"/>
						<path class="st29" d="M503.58,421.37l14.26,6.23c0.59,0.26,0.98,0.9,0.98,1.62l0,0c0,0.96-0.99,1.73-1.83,1.73h-25.06
							l0.84-8.92C492.76,422.03,497.15,424.99,503.58,421.37z"/>
						<path class="st37" d="M506.62,422c-0.81,1.04-1.49,2.17-2.03,3.37"/>
						<path class="st37" d="M508.41,423.09c-0.84,1.14-1.17,1.81-1.67,2.87"/>
						<path class="st37" d="M509.93,423.88c-0.57,0.75-1.07,1.8-1.52,2.63"/>
					</g>
					<path class="st21" d="M443.32,301.41c0,0-1.01,14.1,5.2,27.41c6.21,13.31,31.32,90.64,31.32,90.64l22.27-9.58l-27.02-92.03
						c0,0-0.89-11.48-5.53-26.6"/>
					<path class="st42" d="M486.08,416.78l-30.88-88.09c0,0-6.28-10.96-6.28-19.32"/>
					<path class="st43" d="M484.34,417.53l-31.63-88.84c0,0-6.28-10.96-6.28-19.32"/>
					<polygon class="st44" points="477.92,413.55 480.06,420.46 502.77,411.32 500.67,404.97 					"/>
				</g>
				<path class="st42" d="M450.71,319.17c0,0,6.31-3.16,7.95-10.34"/>
				<path class="st45" d="M475.16,320.29c0,0,2.51-2.88,2.27-5.24c-0.66-6.49-2.27-14.72-2.27-14.72"/>
			</g>
			<g>
				<path class="st22" d="M506.49,259.61l-5.58-5.67c0,0,5.22-13.1,5.8-12.98c1.2,0.26-0.96,5.83-0.96,5.83s3.06-5.96,3.49-5.57
					c0.77,0.7-1.44,6.8-1.44,6.8s2.67-5.9,3.19-5.28c0.52,0.62-1.91,9.78-1.91,9.78L506.49,259.61z"/>
				<path class="st22" d="M499.84,254.56l1.04-2.02c0,0,0.33-3.44,1.21-5.96c0.88-2.51,1.54-3.72,2-3.72c0.47,0,0,3.91,0,3.91
					s0.8,3.36-0.36,5.55"/>
				<g>
					<path class="st46" d="M506.81,253.8l-3.88-3.63c-0.17-0.15-0.22-0.4-0.14-0.61l4.41-11.58c0,0,0.2,0.05,0.35,0.09
						c0.08,0.02,0.18,0.04,0.25,0.1l4.25,3.7c0.17,0.15,0.22,0.4,0.14,0.61l-4.41,11.18c-0.07,0.17-0.21,0.26-0.36,0.27
						L506.81,253.8z"/>
					<path class="st21" d="M506.69,253.72l-4.2-3.66c-0.17-0.15-0.22-0.4-0.14-0.61l4.43-11.23c0.1-0.24,0.38-0.32,0.57-0.16
						l4.25,3.7c0.17,0.15,0.22,0.4,0.14,0.61l-4.41,11.18C507.22,253.82,506.91,253.9,506.69,253.72z"/>
					<polygon class="st47" points="502.67,248.64 507.58,252.92 511.43,243.14 506.52,238.86 					"/>
					<path class="st47" d="M504.86,251.25c-0.04,0.16-0.16,0.23-0.28,0.16c-0.11-0.06-0.18-0.24-0.14-0.4
						c0.04-0.16,0.16-0.23,0.28-0.16C504.84,250.92,504.9,251.1,504.86,251.25z"/>
					<line class="st48" x1="508.71" y1="239.94" x2="509.57" y2="240.71"/>
					<g>
						<path class="st49" d="M506.19,241.86c-0.04,0.15-0.15,0.22-0.26,0.16c-0.11-0.06-0.17-0.23-0.13-0.38
							c0.04-0.15,0.15-0.22,0.26-0.16C506.17,241.54,506.23,241.71,506.19,241.86z"/>
						<path class="st50" d="M510.18,243.49l-2.59-2.25c-0.28-0.24-0.69-0.13-0.83,0.23l-0.32,0.82l-0.26,0.04l3.16,2.74
							c0.28,0.24,0.69,0.13,0.83-0.23l0.2-0.5C510.5,244.04,510.42,243.69,510.18,243.49z"/>
						<line class="st48" x1="507.27" y1="241.77" x2="509.87" y2="244.04"/>
						<line class="st48" x1="507.03" y1="242.4" x2="508.52" y2="243.7"/>
					</g>
					<g>
						<path class="st49" d="M503.67,247.86c-0.04,0.15-0.15,0.22-0.26,0.16c-0.11-0.06-0.17-0.23-0.13-0.38
							c0.04-0.15,0.15-0.22,0.26-0.16C503.65,247.54,503.71,247.71,503.67,247.86z"/>
						<path class="st50" d="M507.66,249.49l-2.59-2.25c-0.28-0.24-0.69-0.13-0.83,0.23l-0.32,0.82l-0.26,0.04l3.16,2.74
							c0.28,0.24,0.69,0.13,0.83-0.23l0.2-0.5C507.98,250.04,507.9,249.69,507.66,249.49z"/>
						<line class="st48" x1="504.75" y1="247.78" x2="507.35" y2="250.04"/>
						<line class="st48" x1="504.51" y1="248.4" x2="506" y2="249.7"/>
					</g>
					<g>
						<path class="st49" d="M509.15,248.26c-0.04,0.15-0.15,0.22-0.26,0.16c-0.11-0.06-0.17-0.23-0.13-0.38
							c0.04-0.15,0.15-0.22,0.26-0.16C509.13,247.95,509.19,248.12,509.15,248.26z"/>
						<path class="st50" d="M508.68,246.2l-2.8-2.44c-0.23-0.2-0.58-0.11-0.69,0.19l-0.3,0.78c-0.08,0.21-0.03,0.46,0.14,0.6
							l3.45,2.98l-0.09-0.41l0.44-1.09C508.9,246.59,508.84,246.35,508.68,246.2z"/>
						<line class="st48" x1="505.64" y1="244.39" x2="508.25" y2="246.66"/>
						<line class="st48" x1="505.4" y1="245.01" x2="506.9" y2="246.31"/>
						<line class="st48" x1="507.12" y1="246.52" x2="507.7" y2="247.03"/>
					</g>
					<g>
						<defs>
							<path id="SVGID_15_" d="M506.69,253.72l-4.2-3.66c-0.17-0.15-0.22-0.4-0.14-0.61l4.43-11.23c0.1-0.24,0.38-0.32,0.57-0.16
								l4.25,3.7c0.17,0.15,0.22,0.4,0.14,0.61l-4.41,11.18C507.22,253.82,506.91,253.9,506.69,253.72z"/>
						</defs>
						<clipPath id="SVGID_16_">
							<use xlink:href="#SVGID_15_"  style="overflow:visible;"/>
						</clipPath>
						
							<linearGradient id="SVGID_17_" gradientUnits="userSpaceOnUse" x1="582.395" y1="146.0379" x2="590.0096" y2="132.849" gradientTransform="matrix(-0.9735 -0.2288 0.2288 -0.9735 1045.8782 516.2875)">
							<stop  offset="0" style="stop-color:#FFFFFF;stop-opacity:0.6"/>
							<stop  offset="0.8878" style="stop-color:#FFFFFF;stop-opacity:0.1"/>
						</linearGradient>
						<polygon class="st51" points="511.54,240.12 512.51,241.09 502.69,252.71 501.72,251.75 						"/>
						
							<linearGradient id="SVGID_18_" gradientUnits="userSpaceOnUse" x1="583.1627" y1="147.3256" x2="590.7638" y2="134.16" gradientTransform="matrix(-0.9735 -0.2288 0.2288 -0.9735 1045.8782 516.2875)">
							<stop  offset="0" style="stop-color:#FFFFFF;stop-opacity:0.6"/>
							<stop  offset="0.8878" style="stop-color:#FFFFFF;stop-opacity:0.1"/>
						</linearGradient>
						<polygon class="st52" points="511.46,239.05 511.7,239.29 501.88,250.91 501.64,250.67 						"/>
					</g>
				</g>
				<path class="st22" d="M483.5,262.25l5.51,8.84l11.88-18.55c0,0,8.48,0.79,7.5,4.99c-4.71,11.89-8.54,29.96-17.8,30.87
					c-10.17,1.01-23.14-18.01-23.14-18.01"/>
				<path class="st23" d="M489.01,271.09c0,0-2.46,3.41-4.28,8.44"/>
				<path class="st22" d="M507.42,259.9c0,0,3.42-8.33,3.84-9.91c0.42-1.58,1.51-5.95,0.81-5.95c-0.7,0-2.35,4.18-2.53,4.88
					c-1.4,0.74-3.37,2.09-3.35,4.51"/>
				<path class="st53" d="M462.17,238.86c0,0,11.62,1.08,24.44,27.07c-2.51,3.65-15.56,11.37-19.17,11.3
					c-3.91-5.71-7.58-20.33-7.58-20.33"/>
			</g>
			<g>
				<path class="st53" d="M473.64,261.67c-3.61-14.26-9.04-21.11-9.04-21.11l-11.92-3.42l-9.65,11.99
					c-9.7,29.48-0.43,61.89-0.43,61.89c6.68,2.85,34.37-2.95,41.12-9.7C483.72,301.31,476.68,273.69,473.64,261.67z"/>
				<path class="st54" d="M476.6,273.47c0,0-5.06-22.46-7.65-26.7"/>
			</g>
			<g>
				<path class="st22" d="M431.38,259.61c0,0-5.84,15.7-4.3,24.9c2.37,14.15,25.18,27.67,25.18,27.67s-0.77,3.81,0.84,5.61
					c4.01-3,5.3-6.63,5.3-6.63l-1.91-3.17c0,0-12.5-19.67-12.13-26.16c0.26-4.58,7.37-27.34,7.37-27.34"/>
				<path class="st53" d="M452.67,237.13c0,0-12.67,3.55-18.03,13.16c-6.5,11.64-7.79,21.54-7.79,21.54
					c5.55,5.55,16.72,7.95,22.86,6.68l4.37-22.27"/>
				<line class="st54" x1="449.71" y1="278.51" x2="453.73" y2="257.99"/>
			</g>
			<g>
				<path class="st22" d="M465.8,230.68l-6.43-11.15l-5.04,8.9l0.34,2.05l-1.99,6.66c1.99,5.9,10.21,6.56,11.92,3.42L465.8,230.68"
					/>
				<path class="st22" d="M471.47,215.72c1.05,3.97,1.33,17.45-1.85,18.87c-3.18,1.42-9.62,0.06-11.5-2.35
					c-1.63-2.09-3.17-13.3-0.24-16.03C460.81,213.48,470,210.16,471.47,215.72z"/>
				<g>
					<path class="st21" d="M461.74,218.33c3,0.51,5.61-0.31,7.93-1.07c2.33-0.76,4.51-2.23,5.64-4.4c0.94-1.81,1-4.36-1.29-5.36
						c-0.55-0.24-1.16-0.33-1.75-0.29c-1.91,0.13-3.43,1.29-4.88,2.42c0.6-3-5.08-1.63-6.25-0.54c-0.37,0.34-0.62,0.78-1.06,1.05
						c-1.35,0.81-3.06,0.86-4.49,1.48c-1.77,0.77-3.17,2.35-3.74,4.19c-0.47,1.54-1.04,4.11,0.21,5.96c0.6,0.88,1.19,1.85,1.35,2.91
						l1,4.28c0,0,2.01-1.44,2.23-1.62c0.79-0.63,1.09-1.44,1.72-2.21C459.98,223.17,461.08,220.34,461.74,218.33z"/>
				</g>
				<g>
					<path class="st22" d="M459.76,224.13c-0.39-0.71-0.9-1.5-1.64-1.57c-0.38-0.04-0.75,0.15-1.03,0.41
						c-1.42,1.36-1.54,3.97-0.04,5.34c0.62,0.57,1.49,0.83,2.07,0.04l0.74-3.73C459.93,224.47,459.84,224.29,459.76,224.13z"/>
				</g>
				<path class="st23" d="M465.25,235.35c0,0-5.15-0.19-7.31-3.38"/>
				<path class="st23" d="M468.81,222.21c0,0,2.09,3.56,1.44,4.54c-0.65,0.98-2.36,0.39-2.36,0.39"/>
				<g>
					<path class="st21" d="M466.27,222.08c0.09,0.25,0.07,0.59,0.08,0.8c0.02,0.36-0.37,0.56-0.7,0.45c-0.62-0.2-0.5-1.66,0.26-1.57
						C466.1,221.79,466.21,221.91,466.27,222.08z"/>
				</g>
				<g>
					<path class="st21" d="M471.4,222.08c0.09,0.25,0.07,0.59,0.08,0.8c0.02,0.36-0.37,0.56-0.7,0.45c-0.62-0.2-0.5-1.66,0.26-1.57
						C471.23,221.79,471.34,221.91,471.4,222.08z"/>
				</g>
				<path class="st11" d="M469.81,229.86l-5.29-1.51c0,0-0.21,4.03,2.99,4.63C469.45,233.34,469.81,229.86,469.81,229.86z"/>
				<g>
					<path class="st21" d="M466.68,220.13c-1.01,0.01-2.11,0.25-3,0.63c-0.1-0.05-0.36-0.54-0.21-0.82
						c0.12-0.22,1.71-0.78,3.15-0.74C466.62,219.2,466.88,220,466.68,220.13z"/>
				</g>
				<g>
					<path class="st21" d="M469.52,220.08c0.73,0.01,1.47,0.23,2.05,0.6c0.08-0.05,0.26-0.45,0.21-0.72
						c-0.04-0.21-1.09-0.74-2.13-0.7C469.64,219.25,469.4,219.95,469.52,220.08z"/>
				</g>
				<path class="st23" d="M456.43,227.51c0,0,1.04,1.56,2.44,1.12"/>
			</g>
		</g>
		<g>
			<g>
				<g>
					<line class="st55" x1="424.72" y1="294.46" x2="424.72" y2="298.08"/>
					<line class="st55" x1="426.53" y1="296.27" x2="422.91" y2="296.27"/>
				</g>
				<g>
					<line class="st55" x1="533.73" y1="274.2" x2="533.73" y2="277.82"/>
					<line class="st55" x1="535.55" y1="276.01" x2="531.92" y2="276.01"/>
				</g>
				<g>
					<line class="st55" x1="214" y1="194.19" x2="214" y2="197.81"/>
					<line class="st55" x1="215.81" y1="196" x2="212.19" y2="196"/>
				</g>
				<g>
					<line class="st55" x1="363.64" y1="124.85" x2="363.64" y2="128.47"/>
					<line class="st55" x1="365.45" y1="126.66" x2="361.83" y2="126.66"/>
				</g>
				<path class="st55" d="M343.13,140.95c0,0.96-0.77,1.73-1.73,1.73c-0.95,0-1.73-0.77-1.73-1.73c0-0.96,0.77-1.73,1.73-1.73
					C342.36,139.22,343.13,139.99,343.13,140.95z"/>
				<path class="st55" d="M395.28,184.45c0,0.96-0.77,1.73-1.73,1.73c-0.96,0-1.73-0.77-1.73-1.73s0.77-1.73,1.73-1.73
					C394.5,182.72,395.28,183.49,395.28,184.45z"/>
				<circle class="st55" cx="492.04" cy="234.8" r="1.73"/>
				<path class="st55" d="M183.61,334.64c0,0.96-0.77,1.73-1.73,1.73c-0.96,0-1.73-0.77-1.73-1.73c0-0.96,0.77-1.73,1.73-1.73
					C182.84,332.91,183.61,333.68,183.61,334.64z"/>
				<circle class="st55" cx="252.36" cy="301.9" r="1.73"/>
				<path class="st55" d="M199.83,184.45c0,0.96-0.77,1.73-1.73,1.73c-0.95,0-1.73-0.77-1.73-1.73s0.77-1.73,1.73-1.73
					C199.05,182.72,199.83,183.49,199.83,184.45z"/>
				<g>
					<line class="st55" x1="203.59" y1="291.03" x2="223.12" y2="291.03"/>
					<line class="st55" x1="229.07" y1="291.03" x2="237.78" y2="291.03"/>
				</g>
				<g>
					<line class="st55" x1="490.6" y1="223.42" x2="510.13" y2="223.42"/>
					<line class="st55" x1="516.08" y1="223.42" x2="524.8" y2="223.42"/>
				</g>
				<g>
					<line class="st55" x1="404.1" y1="128.47" x2="423.63" y2="128.47"/>
					<line class="st55" x1="429.58" y1="128.47" x2="438.29" y2="128.47"/>
				</g>
				<g>
					<line class="st55" x1="304.53" y1="138.51" x2="291.27" y2="138.51"/>
					<line class="st55" x1="286.88" y1="138.51" x2="279.73" y2="138.51"/>
				</g>
				<g>
					<line class="st55" x1="252.01" y1="216.23" x2="235.62" y2="216.23"/>
					<line class="st55" x1="232.8" y1="216.23" x2="227.22" y2="216.23"/>
				</g>
				<line class="st55" x1="244.25" y1="223.42" x2="258.52" y2="223.42"/>
				<line class="st55" x1="520.78" y1="218.2" x2="535.06" y2="218.2"/>
				<line class="st55" x1="390.36" y1="142.47" x2="404.64" y2="142.47"/>
				<line class="st55" x1="543.58" y1="309.44" x2="557.85" y2="309.44"/>
			</g>
			<g>
				<g>
					<path class="st56" d="M214.76,251.65c-0.34-2.19-2.12-3.99-4.3-4.36c-2.5-0.42-4.72,0.91-5.69,2.95
						c-0.97-2.04-3.2-3.37-5.69-2.95c-2.19,0.37-3.96,2.17-4.3,4.36c-0.28,1.8,0.34,3.46,1.48,4.6l7.54,7.54
						c0.54,0.54,1.4,0.54,1.94,0l7.54-7.54C214.42,255.11,215.04,253.44,214.76,251.65z"/>
				</g>
				<g>
					<line class="st55" x1="204.76" y1="237.08" x2="204.76" y2="240.04"/>
					<line class="st55" x1="204.76" y1="268.93" x2="204.76" y2="271.9"/>
					<line class="st55" x1="222.17" y1="254.49" x2="219.2" y2="254.49"/>
					<line class="st55" x1="190.32" y1="254.49" x2="187.35" y2="254.49"/>
					<line class="st55" x1="192.45" y1="242.18" x2="194.55" y2="244.27"/>
					<line class="st55" x1="214.97" y1="264.7" x2="217.07" y2="266.8"/>
					<line class="st55" x1="217.07" y1="242.18" x2="214.97" y2="244.27"/>
					<line class="st55" x1="194.55" y1="264.7" x2="192.45" y2="266.8"/>
					<line class="st55" x1="198.1" y1="238.4" x2="199.23" y2="241.14"/>
					<line class="st55" x1="210.29" y1="267.83" x2="211.42" y2="270.57"/>
					<line class="st55" x1="220.85" y1="247.82" x2="218.1" y2="248.96"/>
					<line class="st55" x1="191.42" y1="260.01" x2="188.67" y2="261.15"/>
					<line class="st55" x1="188.67" y1="247.82" x2="191.42" y2="248.96"/>
					<line class="st55" x1="218.1" y1="260.01" x2="220.85" y2="261.15"/>
					<line class="st55" x1="211.42" y1="238.4" x2="210.29" y2="241.14"/>
					<line class="st55" x1="199.23" y1="267.83" x2="198.1" y2="270.57"/>
				</g>
			</g>
			<g>
				<g>
					<path class="st56" d="M530.78,300.79c-0.34-2.19-2.12-3.99-4.3-4.36c-2.5-0.42-4.72,0.91-5.69,2.95
						c-0.97-2.04-3.2-3.37-5.69-2.95c-2.19,0.37-3.96,2.17-4.3,4.36c-0.28,1.8,0.34,3.46,1.48,4.6l7.54,7.54
						c0.54,0.54,1.4,0.54,1.94,0l7.54-7.54C530.43,304.25,531.06,302.59,530.78,300.79z"/>
				</g>
				<g>
					<line class="st55" x1="520.78" y1="286.22" x2="520.78" y2="289.19"/>
					<line class="st55" x1="520.78" y1="318.07" x2="520.78" y2="321.04"/>
					<line class="st55" x1="538.19" y1="303.63" x2="535.22" y2="303.63"/>
					<line class="st55" x1="506.34" y1="303.63" x2="503.37" y2="303.63"/>
					<line class="st55" x1="508.47" y1="291.32" x2="510.57" y2="293.42"/>
					<line class="st55" x1="530.99" y1="313.84" x2="533.09" y2="315.94"/>
					<line class="st55" x1="533.09" y1="291.32" x2="530.99" y2="293.42"/>
					<line class="st55" x1="510.57" y1="313.84" x2="508.47" y2="315.94"/>
					<line class="st55" x1="514.12" y1="287.54" x2="515.25" y2="290.29"/>
					<line class="st55" x1="526.31" y1="316.97" x2="527.44" y2="319.72"/>
					<line class="st55" x1="536.87" y1="296.97" x2="534.12" y2="298.1"/>
					<line class="st55" x1="507.44" y1="309.16" x2="504.69" y2="310.29"/>
					<line class="st55" x1="504.69" y1="296.97" x2="507.44" y2="298.1"/>
					<line class="st55" x1="534.12" y1="309.16" x2="536.87" y2="310.29"/>
					<line class="st55" x1="527.44" y1="287.54" x2="526.31" y2="290.29"/>
					<line class="st55" x1="515.25" y1="316.97" x2="514.12" y2="319.72"/>
				</g>
			</g>
			<g>
				<g>
					<path class="st56" d="M475.62,149.68c-0.23-1.44-1.39-2.63-2.84-2.87c-1.65-0.28-3.11,0.6-3.75,1.94
						c-0.64-1.35-2.11-2.22-3.75-1.94c-1.44,0.25-2.61,1.43-2.84,2.87c-0.19,1.18,0.23,2.28,0.98,3.03l4.97,4.97
						c0.35,0.35,0.93,0.35,1.28,0l4.97-4.97C475.4,151.96,475.81,150.86,475.62,149.68z"/>
				</g>
				<g>
					<line class="st55" x1="469.03" y1="140.07" x2="469.03" y2="142.03"/>
					<line class="st55" x1="469.03" y1="161.07" x2="469.03" y2="163.03"/>
					<line class="st55" x1="480.51" y1="151.55" x2="478.55" y2="151.55"/>
					<line class="st55" x1="459.51" y1="151.55" x2="457.56" y2="151.55"/>
					<line class="st55" x1="460.92" y1="143.44" x2="462.3" y2="144.82"/>
					<line class="st55" x1="475.77" y1="158.28" x2="477.15" y2="159.67"/>
					<line class="st55" x1="477.15" y1="143.44" x2="475.77" y2="144.82"/>
					<line class="st55" x1="462.3" y1="158.28" x2="460.92" y2="159.67"/>
					<line class="st55" x1="464.64" y1="140.95" x2="465.39" y2="142.76"/>
					<line class="st55" x1="472.68" y1="160.35" x2="473.43" y2="162.15"/>
					<line class="st55" x1="479.64" y1="147.16" x2="477.83" y2="147.91"/>
					<line class="st55" x1="460.24" y1="155.19" x2="458.43" y2="155.94"/>
					<line class="st55" x1="458.43" y1="147.16" x2="460.24" y2="147.91"/>
					<line class="st55" x1="477.83" y1="155.19" x2="479.64" y2="155.94"/>
					<line class="st55" x1="473.43" y1="140.95" x2="472.68" y2="142.76"/>
					<line class="st55" x1="465.39" y1="160.35" x2="464.64" y2="162.15"/>
				</g>
			</g>
			<g>
				<g>
					<circle class="st57" cx="326.38" cy="338.8" r="11.2"/>
					<g>
						<path class="st58" d="M338.68,343.09c0.24-0.73-0.02-1.56-0.63-2.03c-0.7-0.53-1.6-0.47-2.22,0.01
							c0.02-0.78-0.45-1.55-1.29-1.81c-0.73-0.23-1.56,0.04-2.02,0.66c-0.37,0.51-0.44,1.12-0.27,1.65l1.13,3.52
							c0.08,0.25,0.35,0.39,0.6,0.31l3.52-1.13C338.03,344.1,338.48,343.69,338.68,343.09z"/>
					</g>
				</g>
				<ellipse class="st53" cx="322.5" cy="338.8" rx="1.04" ry="1.71"/>
				<g>
					<path class="st53" d="M319.78,336.06c-0.06,0-0.11-0.01-0.17-0.04c-0.2-0.09-0.28-0.33-0.19-0.52c0.05-0.1,1.17-2.43,4.11-2.43
						c0.22,0,0.39,0.18,0.39,0.39c0,0.22-0.18,0.39-0.39,0.39c-2.44,0-3.39,1.96-3.4,1.98
						C320.07,335.98,319.93,336.06,319.78,336.06z"/>
				</g>
				<g>
					<path class="st53" d="M333.51,336.71c-0.11,0-0.22-0.05-0.3-0.13c-0.06-0.07-1.47-1.65-3.8-1c-0.21,0.06-0.42-0.06-0.48-0.27
						c-0.06-0.21,0.06-0.42,0.27-0.48c2.82-0.78,4.54,1.16,4.61,1.24c0.14,0.16,0.12,0.41-0.04,0.55
						C333.69,336.68,333.6,336.71,333.51,336.71z"/>
				</g>
				<g>
					<path class="st53" d="M329.45,339.19c-0.08,0-0.16-0.02-0.23-0.08c-0.17-0.13-0.21-0.37-0.08-0.55
						c1.17-1.58,2.89-1.08,3.64-0.59c0.18,0.12,0.23,0.36,0.11,0.54c-0.12,0.18-0.36,0.23-0.54,0.12c-0.16-0.1-1.58-0.95-2.58,0.4
						C329.69,339.14,329.57,339.19,329.45,339.19z"/>
				</g>
				<g>
					<path class="st53" d="M326.82,346.45c-0.12,0-0.23-0.05-0.31-0.15c-0.13-0.17-0.11-0.42,0.06-0.55l1.14-0.9l-0.72-0.31
						c-0.12-0.05-0.21-0.16-0.23-0.29c-0.02-0.13,0.02-0.26,0.11-0.35l0.72-0.71l-1.35-0.52c-0.2-0.08-0.3-0.3-0.22-0.51
						c0.08-0.2,0.3-0.3,0.51-0.22l1.92,0.74c0.12,0.05,0.22,0.16,0.24,0.29c0.03,0.13-0.01,0.27-0.11,0.36l-0.74,0.73l0.79,0.34
						c0.13,0.05,0.22,0.17,0.23,0.31c0.02,0.14-0.04,0.27-0.14,0.36l-1.65,1.31C326.99,346.42,326.9,346.45,326.82,346.45z"/>
				</g>
			</g>
			<g>
				<g>
					<g>
						<circle class="st57" cx="397.16" cy="252.54" r="14.25"/>
					</g>
				</g>
				<g>
					<path class="st53" d="M397.16,260.7c-2.47,0-3.52-1.88-3.73-2.88c-0.07-0.31,0.13-0.61,0.44-0.67
						c0.32-0.06,0.61,0.13,0.67,0.44c0.02,0.08,0.47,1.98,2.62,1.98c2.18,0,2.61-1.9,2.62-1.98c0.06-0.3,0.36-0.5,0.67-0.44
						c0.31,0.07,0.5,0.37,0.44,0.68C400.68,258.82,399.62,260.7,397.16,260.7z"/>
				</g>
				<g>
					<g>
						<g>
							<path class="st53" d="M388.59,249.34c-0.18,0-0.35-0.08-0.46-0.23c-0.18-0.25-0.13-0.61,0.12-0.79
								c1.22-0.9,4.22-2.05,6.81-0.02c0.25,0.19,0.29,0.55,0.1,0.8c-0.2,0.25-0.55,0.29-0.8,0.1c-2.55-2-5.32-0.04-5.44,0.05
								C388.82,249.3,388.7,249.34,388.59,249.34z"/>
						</g>
						<g>
							<path class="st53" d="M393.75,253.11c-0.17,0-0.35-0.08-0.46-0.23c-1.23-1.67-2.99-0.61-3.19-0.49
								c-0.27,0.17-0.62,0.09-0.79-0.17c-0.17-0.26-0.1-0.61,0.17-0.78c0.97-0.63,3.2-1.28,4.72,0.77c0.19,0.25,0.13,0.61-0.12,0.8
								C393.99,253.07,393.87,253.11,393.75,253.11z"/>
						</g>
					</g>
					<g>
						<g>
							<path class="st53" d="M405.73,249.34c-0.12,0-0.23-0.03-0.34-0.11c-0.12-0.09-2.88-2.05-5.44-0.05
								c-0.25,0.19-0.61,0.15-0.8-0.1c-0.19-0.25-0.15-0.61,0.1-0.8c2.59-2.03,5.59-0.87,6.81,0.02c0.25,0.19,0.31,0.54,0.12,0.79
								C406.08,249.26,405.9,249.34,405.73,249.34z"/>
						</g>
						<g>
							<path class="st53" d="M400.56,253.11c-0.12,0-0.24-0.04-0.34-0.11c-0.25-0.19-0.31-0.54-0.12-0.8
								c1.52-2.05,3.75-1.4,4.73-0.77c0.26,0.17,0.34,0.52,0.17,0.78c-0.17,0.26-0.52,0.34-0.79,0.17c-0.2-0.13-1.96-1.18-3.19,0.49
								C400.91,253.03,400.73,253.11,400.56,253.11z"/>
						</g>
					</g>
				</g>
			</g>
			<g>
				<path class="st59" d="M314.19,160.71h-65.27c-11.19,0-20.27,9.07-20.27,20.27v0c0,11.19,9.07,20.27,20.27,20.27h5.82l3.65,4.72
					l3.65-4.72h52.15c11.19,0,20.27-9.07,20.27-20.27v0C334.46,169.78,325.38,160.71,314.19,160.71z"/>
				<g>
					<circle class="st60" cx="247.65" cy="180.98" r="12.54"/>
					
						<ellipse transform="matrix(0.2298 -0.9732 0.9732 0.2298 14.6152 380.4205)" class="st56" cx="247.65" cy="180.98" rx="9.65" ry="9.65"/>
				</g>
				<g>
					<defs>
						
							<ellipse id="SVGID_19_" transform="matrix(0.2298 -0.9732 0.9732 0.2298 14.6152 380.4205)" cx="247.65" cy="180.98" rx="9.65" ry="9.65"/>
					</defs>
					<clipPath id="SVGID_20_">
						<use xlink:href="#SVGID_19_"  style="overflow:visible;"/>
					</clipPath>
					<g class="st61">
						<g>
							<path class="st21" d="M243.8,174.87c1.97-1.8,5.78-2.24,7.29-0.05c0.67,0.97,0.82,2.33,1.71,3.09
								c0.3,0.26,0.67,0.43,0.89,0.76c0.37,0.55,0.19,1.3-0.06,1.92c-0.24,0.62-0.54,1.29-0.35,1.93c0.13,0.45,0.5,0.86,0.43,1.32
								c-0.09,0.63-0.86,0.84-1.47,0.89c-0.5,0.04-1,0.06-1.5,0.02c-0.77-0.06-1.53-0.25-2.3-0.21c-0.94,0.04-1.84,0.41-2.76,0.6
								c-1,0.2-2.03,0.19-3.02-0.03c-0.59-0.13-1.27-0.47-1.33-1.09c-0.04-0.43,0.24-0.82,0.25-1.25c0.02-0.72-0.7-1.29-0.7-2.01
								c0-0.85,0.92-1.34,1.33-2.07c0.36-0.65,0.29-1.45,0.51-2.17C242.89,175.9,243.28,175.34,243.8,174.87z"/>
						</g>
						<g>
							<path class="st34" d="M237.3,189.67c3.18-3.64,7.93-3.56,7.93-3.56l4.69-0.08c0,0,4.17,0.55,6.68,2.6
								c7.51,6.15,6.26,16.95,6.26,16.95s-30.45-6.59-30.49-6.81C232.32,198.56,235.18,192.11,237.3,189.67z"/>
							<path class="st22" d="M250.45,177.14c0.95,3.82-0.77,6.68-2.25,6.9c-2.11,0.32-3.29-0.72-3.91-2.6
								c-0.28-0.83-0.68-3.98,0.2-4.91C245.94,174.99,249.65,173.88,250.45,177.14z"/>
							<path class="st22" d="M245.47,182.26l-0.21,3.52c0,0-0.49,1.89,2.4,1.89c2.89,0,2.19-1.89,2.19-1.89l-0.47-3.9"/>
						</g>
						<g>
							<path class="st22" d="M244.43,180.02c-0.18-0.2-0.57-0.23-0.79-0.07c-0.2,0.14-0.25,0.37-0.26,0.59
								c-0.01,0.21,0,0.42,0.08,0.61c0.08,0.19,0.25,0.37,0.47,0.46c0.23,0.08,0.52,0.06,0.69-0.09"/>
						</g>
						<g>
							<path class="st22" d="M250.33,180.02c0.18-0.2,0.57-0.23,0.79-0.07c0.2,0.14,0.25,0.37,0.26,0.59c0.01,0.21,0,0.42-0.08,0.61
								c-0.08,0.19-0.25,0.37-0.47,0.46c-0.23,0.08-0.52,0.06-0.69-0.09"/>
						</g>
						<g>
							<path class="st21" d="M243.29,179.53c1.8-0.38,3.45-1.44,4.55-2.91c0.95,1.16,2.21,2.08,3.6,2.63
								c0.11-0.94,0.22-1.94-0.19-2.8c-0.28-0.59-0.78-1.05-1.28-1.48c-0.42-0.37-0.86-0.74-1.39-0.94
								c-1.01-0.38-2.18-0.05-3.07,0.57c-1.26,0.86-2.12,2.28-2.31,3.8"/>
						</g>
						<g>
							<path class="st21" d="M248.35,173.84c-0.1,0.06-0.21-0.04-0.29-0.12c-0.29-0.33-0.59-0.76-0.46-1.18
								c0.06-0.19,0.21-0.35,0.37-0.46c0.39-0.27,0.92-0.36,1.36-0.17c0.44,0.19,0.75,0.67,0.68,1.15c-0.07,0.47-0.54,0.87-1.01,0.8
								"/>
						</g>
						<path class="st62" d="M245.58,183.56c0,0,0.61,0.86,1.71,0.93c1.42,0.1,2.04-1.21,2.04-1.21"/>
						<path class="st62" d="M247.65,181.92c0,0-0.63,0.14-0.63-0.26c0-0.39,0.2-2.13,0.2-2.13"/>
						<g>
							<g>
								<path class="st21" d="M248.7,179.91c-0.02,0.11-0.03,0.21-0.02,0.32c0.01,0.56,0.89,0.47,0.77-0.1
									c-0.01-0.11-0.04-0.21-0.08-0.31C249.24,179.43,248.75,179.53,248.7,179.91L248.7,179.91z"/>
							</g>
						</g>
						<path class="st63" d="M248.5,179.07c0,0,0.49-0.37,1.29,0.1"/>
						<g>
							<g>
								<path class="st21" d="M245.35,179.82c-0.04,0.1-0.07,0.2-0.08,0.31c-0.11,0.57,0.77,0.67,0.77,0.1
									c0.01-0.11,0-0.21-0.02-0.32C245.98,179.54,245.48,179.43,245.35,179.82L245.35,179.82z"/>
							</g>
						</g>
						<path class="st63" d="M246.22,179.07c0,0-0.49-0.37-1.29,0.1"/>
						<path class="st11" d="M246.43,182.45h2.08c0,0-0.29,1.07-1.05,1.07S246.43,182.45,246.43,182.45z"/>
					</g>
				</g>
				<g>
					<line class="st64" x1="264.83" y1="170.56" x2="321.48" y2="170.56"/>
					<line class="st64" x1="264.83" y1="177.5" x2="321.48" y2="177.5"/>
					<line class="st64" x1="310.16" y1="184.45" x2="321.48" y2="184.45"/>
					<line class="st64" x1="264.83" y1="184.45" x2="303.72" y2="184.45"/>
					<line class="st64" x1="264.83" y1="191.4" x2="294.81" y2="191.4"/>
				</g>
			</g>
			<g>
				<path class="st59" d="M363.26,188.27h65.27c11.19,0,20.27,9.07,20.27,20.27v0c0,11.19-9.07,20.27-20.27,20.27h-2.78l-3.65,4.72
					l-3.65-4.72h-55.19c-11.19,0-20.27-9.07-20.27-20.27v0C342.99,197.35,352.07,188.27,363.26,188.27z"/>
				<g>
					<circle class="st60" cx="429.8" cy="208.54" r="12.54"/>
					
						<ellipse transform="matrix(0.973 -0.231 0.231 0.973 -36.5451 104.9113)" class="st56" cx="429.8" cy="208.54" rx="9.65" ry="9.65"/>
				</g>
				<g>
					<defs>
						
							<ellipse id="SVGID_21_" transform="matrix(0.973 -0.231 0.231 0.973 -36.5451 104.9113)" cx="429.8" cy="208.54" rx="9.65" ry="9.65"/>
					</defs>
					<clipPath id="SVGID_22_">
						<use xlink:href="#SVGID_21_"  style="overflow:visible;"/>
					</clipPath>
					<g class="st65">
						<path class="st34" d="M440.15,217.24c-3.18-3.64-7.93-3.56-7.93-3.56l-4.69-0.08c0,0-4.17,0.55-6.68,2.6
							c-7.51,6.15-6.26,16.95-6.26,16.95s30.45-6.59,30.49-6.81C445.13,226.13,442.28,219.67,440.15,217.24z"/>
						<path class="st22" d="M426.69,204.7c-0.95,3.82,0.77,6.68,2.25,6.9c2.11,0.32,3.29-0.72,3.92-2.6
							c0.28-0.83,0.68-3.98-0.2-4.91C431.2,202.55,427.49,201.44,426.69,204.7z"/>
						<path class="st22" d="M432.38,209.76l0.05,3.52c0,0,0.56,1.89-2.71,1.89s-2.48-1.89-2.48-1.89l0.06-3.9"/>
						<g>
							<path class="st22" d="M432.76,207.59c0.18-0.2,0.57-0.23,0.79-0.07c0.2,0.14,0.25,0.37,0.26,0.59c0.01,0.21,0,0.42-0.08,0.61
								c-0.08,0.19-0.25,0.37-0.47,0.46c-0.23,0.08-0.52,0.06-0.69-0.09"/>
						</g>
						<path class="st62" d="M432.21,211.13c0,0-0.76,0.86-2.13,0.93c-1.77,0.1-2.53-1.21-2.53-1.21"/>
						<path class="st62" d="M429.51,208.76c0,0,0.63,0.12,0.63-0.23s-0.2-1.88-0.2-1.88"/>
						<g>
							<g>
								<path class="st21" d="M427.79,206.94c-0.04,0.1-0.07,0.2-0.08,0.31c-0.11,0.57,0.77,0.67,0.77,0.1
									c0.01-0.11,0-0.21-0.02-0.32C428.42,206.66,427.93,206.55,427.79,206.94L427.79,206.94z"/>
							</g>
						</g>
						<g>
							<g>
								<path class="st21" d="M431.14,207.03c-0.02,0.11-0.03,0.21-0.02,0.32c0.01,0.56,0.89,0.47,0.77-0.1
									c-0.01-0.11-0.04-0.21-0.08-0.31C431.68,206.55,431.19,206.65,431.14,207.03L431.14,207.03z"/>
							</g>
						</g>
						<path class="st11" d="M431.32,209.83h-2.66c0,0,0.13,1.07,1.34,1.07C431.22,210.9,431.32,209.83,431.32,209.83z"/>
						<g>
							<path class="st21" d="M426.46,207.96c0.61-0.9,1.2-1.79,1.1-3.06c1.16,0.48,2.68,0.47,3.88,0.26
								c0.76-0.13,1.66-0.42,2.27-0.95c0.61-0.52,0.84-2.26,0.28-2.84c-0.6-0.63-1.58-0.24-2.3,0.19c-0.31-0.6-0.89-1.01-1.51-1.07
								c-0.62-0.06-1.25,0.23-1.66,0.76c-0.11,0.15-0.22,0.32-0.38,0.39c-0.19,0.08-0.41-0.01-0.61-0.05
								c-1.11-0.25-2.15,1.51-2.34,2.76c-0.19,1.25,0.22,2.5,0.66,3.67c0.07,0.18,0.24,0.39,0.37,0.26"/>
						</g>
						<g>
							<path class="st21" d="M433.21,203.53c0.96,1.28,1.07,3.14,0.27,4.52c-0.03,0.05-0.06,0.1-0.12,0.12
								c-0.07,0.02-0.15-0.02-0.2-0.07c-0.25-0.22-0.37-0.56-0.41-0.89c-0.04-0.33-0.01-0.66-0.03-1c-0.04-0.8-0.33-1.58-0.83-2.2"
								/>
						</g>
						<g>
							<path class="st22" d="M426.84,207.59c-0.18-0.2-0.57-0.23-0.79-0.07c-0.2,0.14-0.25,0.37-0.26,0.59
								c-0.01,0.21,0,0.42,0.08,0.61c0.08,0.19,0.25,0.37,0.47,0.46c0.23,0.08,0.52,0.06,0.69-0.09"/>
						</g>
					</g>
				</g>
				<g>
					<line class="st64" x1="412.62" y1="198.12" x2="355.97" y2="198.12"/>
					<line class="st64" x1="397.5" y1="205.07" x2="355.97" y2="205.07"/>
					<line class="st64" x1="412.62" y1="205.07" x2="402.91" y2="205.07"/>
					<line class="st64" x1="373.16" y1="212.01" x2="355.97" y2="212.01"/>
					<line class="st64" x1="412.62" y1="212.01" x2="379.61" y2="212.01"/>
					<line class="st64" x1="391.79" y1="218.96" x2="355.97" y2="218.96"/>
				</g>
			</g>
			<g>
				<path class="st56" d="M333.75,218.39h-25.03c-4.02,0-7.29,3.26-7.29,7.29l0,0c0,4.02,3.26,7.29,7.29,7.29h2.09l1.31,1.7
					l1.31-1.7h20.31c4.02,0,7.29-3.26,7.29-7.29l0,0C341.04,221.65,337.77,218.39,333.75,218.39z"/>
				<g>
					<path class="st11" d="M314.22,223.79c-0.14-0.92-0.89-1.68-1.81-1.84c-1.05-0.18-1.99,0.38-2.4,1.24
						c-0.41-0.86-1.35-1.42-2.4-1.24c-0.92,0.16-1.67,0.91-1.81,1.84c-0.12,0.76,0.14,1.46,0.62,1.94l3.17,3.17
						c0.23,0.23,0.59,0.23,0.82,0l3.17-3.17C314.07,225.25,314.33,224.55,314.22,223.79z"/>
					<path class="st11" d="M325.44,223.79c-0.14-0.92-0.89-1.68-1.81-1.84c-1.05-0.18-1.99,0.38-2.4,1.24
						c-0.41-0.86-1.35-1.42-2.4-1.24c-0.92,0.16-1.67,0.91-1.81,1.84c-0.12,0.76,0.14,1.46,0.62,1.94l3.17,3.17
						c0.23,0.23,0.59,0.23,0.82,0l3.17-3.17C325.3,225.25,325.56,224.55,325.44,223.79z"/>
					<path class="st11" d="M336.67,223.79c-0.14-0.92-0.89-1.68-1.81-1.84c-1.05-0.18-1.99,0.38-2.4,1.24
						c-0.41-0.86-1.35-1.42-2.4-1.24c-0.92,0.16-1.67,0.91-1.81,1.84c-0.12,0.76,0.14,1.46,0.62,1.94l3.17,3.17
						c0.23,0.23,0.59,0.23,0.82,0l3.17-3.17C336.52,225.25,336.79,224.55,336.67,223.79z"/>
				</g>
			</g>
			<g>
				<path class="st56" d="M404.44,329.99h25.03c4.02,0,7.29-3.26,7.29-7.29l0,0c0-4.02-3.26-7.29-7.29-7.29h-2.09l-1.31-1.7
					l-1.31,1.7h-20.31c-4.02,0-7.29,3.26-7.29,7.29l0,0C397.16,326.73,400.42,329.99,404.44,329.99z"/>
				<g>
					<path class="st11" d="M409.94,321.08c-0.14-0.92-0.89-1.68-1.81-1.84c-1.05-0.18-1.99,0.38-2.4,1.24
						c-0.41-0.86-1.35-1.42-2.4-1.24c-0.92,0.16-1.67,0.91-1.81,1.84c-0.12,0.76,0.14,1.46,0.62,1.94l3.17,3.17
						c0.23,0.23,0.59,0.23,0.82,0l3.17-3.17C409.8,322.54,410.06,321.84,409.94,321.08z"/>
					<path class="st11" d="M421.17,321.08c-0.14-0.92-0.89-1.68-1.81-1.84c-1.05-0.18-1.99,0.38-2.4,1.24
						c-0.41-0.86-1.35-1.42-2.4-1.24c-0.92,0.16-1.67,0.91-1.81,1.84c-0.12,0.76,0.14,1.46,0.62,1.94l3.17,3.17
						c0.23,0.23,0.59,0.23,0.82,0l3.17-3.17C421.02,322.54,421.28,321.84,421.17,321.08z"/>
					<path class="st11" d="M432.39,321.08c-0.14-0.92-0.89-1.68-1.81-1.84c-1.05-0.18-1.99,0.38-2.4,1.24
						c-0.41-0.86-1.35-1.42-2.4-1.24c-0.92,0.16-1.67,0.91-1.81,1.84c-0.12,0.76,0.14,1.46,0.62,1.94l3.17,3.17
						c0.23,0.23,0.59,0.23,0.82,0l3.17-3.17C432.25,322.54,432.51,321.84,432.39,321.08z"/>
				</g>
			</g>
			<g>
				<g>
					<path class="st59" d="M523.84,188.53h-31.63c-5.09,0-9.21,4.12-9.21,9.21l0,0c0,5.09,4.12,9.21,9.21,9.21h2.64l1.66,2.14
						l1.66-2.14h25.67c5.09,0,9.21-4.12,9.21-9.21l0,0C533.05,192.65,528.93,188.53,523.84,188.53z"/>
				</g>
				<g>
					
						<ellipse transform="matrix(0.7071 -0.7071 0.7071 0.7071 4.6555 406.5341)" class="st29" cx="493.06" cy="197.65" rx="6.2" ry="6.2"/>
					<g>
						<path class="st58" d="M497.58,196.56c0.13-0.4-0.01-0.87-0.35-1.12c-0.39-0.29-0.88-0.26-1.23,0c0.01-0.43-0.25-0.86-0.71-1
							c-0.41-0.13-0.87,0.02-1.12,0.37c-0.21,0.28-0.25,0.62-0.15,0.92l0.63,1.95c0.04,0.14,0.19,0.21,0.33,0.17l1.95-0.63
							C497.22,197.12,497.47,196.89,497.58,196.56z"/>
					</g>
					<g>
						<path class="st58" d="M488.36,196.56c-0.13-0.4,0.01-0.87,0.35-1.12c0.39-0.29,0.88-0.26,1.23,0c-0.01-0.43,0.25-0.86,0.71-1
							c0.41-0.13,0.87,0.02,1.12,0.37c0.21,0.28,0.25,0.62,0.15,0.92l-0.63,1.95c-0.04,0.14-0.19,0.21-0.33,0.17l-1.95-0.63
							C488.72,197.12,488.47,196.89,488.36,196.56z"/>
					</g>
					<path class="st11" d="M496.26,198.95c0,1.77-1.43,3.2-3.2,3.2c-1.77,0-3.2-1.43-3.2-3.2H496.26z"/>
				</g>
				<g>
					
						<ellipse transform="matrix(0.1606 -0.987 0.987 0.1606 231.5136 667.517)" class="st29" cx="508.2" cy="197.65" rx="6.2" ry="6.2"/>
					<g>
						<path class="st58" d="M512.72,196.56c0.13-0.4-0.01-0.87-0.35-1.12c-0.39-0.29-0.88-0.26-1.23,0c0.01-0.43-0.25-0.86-0.71-1
							c-0.41-0.13-0.87,0.02-1.12,0.37c-0.21,0.28-0.25,0.62-0.15,0.92l0.63,1.95c0.04,0.14,0.19,0.21,0.33,0.17l1.95-0.63
							C512.36,197.12,512.61,196.89,512.72,196.56z"/>
					</g>
					<g>
						<path class="st58" d="M503.5,196.56c-0.13-0.4,0.01-0.87,0.35-1.12c0.39-0.29,0.88-0.26,1.23,0c-0.01-0.43,0.25-0.86,0.71-1
							c0.41-0.13,0.87,0.02,1.12,0.37c0.21,0.28,0.25,0.62,0.15,0.92l-0.63,1.95c-0.04,0.14-0.19,0.21-0.33,0.17l-1.95-0.63
							C503.87,197.12,503.61,196.89,503.5,196.56z"/>
					</g>
					<path class="st11" d="M511.4,198.95c0,1.77-1.43,3.2-3.2,3.2s-3.2-1.43-3.2-3.2H511.4z"/>
				</g>
				<g>
					
						<ellipse transform="matrix(0.2305 -0.9731 0.9731 0.2305 210.3737 661.3331)" class="st29" cx="523.35" cy="197.65" rx="6.2" ry="6.2"/>
					<g>
						<path class="st58" d="M527.87,196.56c0.13-0.4-0.01-0.87-0.35-1.12c-0.39-0.29-0.88-0.26-1.23,0c0.01-0.43-0.25-0.86-0.71-1
							c-0.41-0.13-0.87,0.02-1.12,0.37c-0.21,0.28-0.25,0.62-0.15,0.92l0.63,1.95c0.04,0.14,0.19,0.21,0.33,0.17l1.95-0.63
							C527.51,197.12,527.76,196.89,527.87,196.56z"/>
					</g>
					<g>
						<path class="st58" d="M518.65,196.56c-0.13-0.4,0.01-0.87,0.35-1.12c0.39-0.29,0.88-0.26,1.23,0c-0.01-0.43,0.25-0.86,0.71-1
							c0.41-0.13,0.87,0.02,1.12,0.37c0.21,0.28,0.25,0.62,0.15,0.92l-0.63,1.95c-0.04,0.14-0.19,0.21-0.33,0.17l-1.95-0.63
							C519.01,197.12,518.76,196.89,518.65,196.56z"/>
					</g>
					<path class="st11" d="M526.55,198.95c0,1.77-1.43,3.2-3.2,3.2c-1.77,0-3.2-1.43-3.2-3.2H526.55z"/>
				</g>
			</g>
		</g>
	</g>
</g>
<g id="DESIGNED_BY_FREEPIK">
</g>
</svg>
