<?xml version="1.0" encoding="utf-8"?>
<!-- Generator: Adobe Illustrator 23.0.2, SVG Export Plug-In . SVG Version: 6.00 Build 0)  -->
<svg version="1.1" id="Layer_1" xmlns="http://www.w3.org/2000/svg" xmlns:xlink="http://www.w3.org/1999/xlink" x="0px" y="0px"
	 viewBox="0 0 288 288" style="enable-background:new 0 0 288 288;" xml:space="preserve">
<style type="text/css">
	.st0{fill:url(#XMLID_2_);}
	.st1{opacity:0.3;fill:url(#XMLID_3_);}
	.st2{fill:url(#SVGID_1_);}
	.st3{opacity:0.3;fill:url(#XMLID_4_);}
	.st4{opacity:0.4;fill:url(#XMLID_5_);}
	.st5{opacity:0.3;fill:url(#SVGID_2_);}
	.st6{fill:url(#SVGID_3_);}
	.st7{opacity:0.4;fill:url(#SVGID_4_);}
	.st8{opacity:0.4;fill:url(#SVGID_5_);}
	.st9{opacity:0.4;fill:url(#SVGID_6_);}
	.st10{fill:url(#SVGID_7_);}
	.st11{opacity:0.3;fill:url(#XMLID_6_);}
	.st12{opacity:0.4;fill:url(#XMLID_7_);}
	.st13{opacity:0.3;fill:url(#SVGID_8_);}
	.st14{fill:url(#SVGID_9_);}
	.st15{opacity:0.4;fill:url(#SVGID_10_);}
	.st16{opacity:0.4;fill:url(#SVGID_11_);}
	.st17{opacity:0.4;fill:url(#SVGID_12_);}
</style>
<g id="New_Symbol_6">
</g>
<g>
	<radialGradient id="XMLID_2_" cx="149.6479" cy="132.6249" r="213.4376" gradientUnits="userSpaceOnUse">
		<stop  offset="0.6505" style="stop-color:#FFFFFF"/>
		<stop  offset="1" style="stop-color:#F3F5FC"/>
	</radialGradient>
	<rect id="XMLID_176_" x="0" y="0" class="st0" width="288" height="288"/>
	
		<radialGradient id="XMLID_3_" cx="638.8704" cy="1067.4606" r="7.3629" gradientTransform="matrix(15.3164 0 0 1.2102 -9638.8594 -1073.0074)" gradientUnits="userSpaceOnUse">
		<stop  offset="0.0419" style="stop-color:#B3B5B8"/>
		<stop  offset="0.0499" style="stop-color:#B5B7BA"/>
		<stop  offset="0.187" style="stop-color:#D0D1D3"/>
		<stop  offset="0.3356" style="stop-color:#E5E5E6"/>
		<stop  offset="0.5019" style="stop-color:#F4F4F4"/>
		<stop  offset="0.6983" style="stop-color:#FCFCFC"/>
		<stop  offset="1" style="stop-color:#FFFFFF"/>
	</radialGradient>
	<path id="XMLID_175_" class="st1" d="M259.11,218.83c0,4.92-50.49,8.91-112.78,8.91c-62.29,0-112.76-3.99-112.76-8.91
		c0-4.92,50.48-8.91,112.76-8.91C208.61,209.92,259.11,213.91,259.11,218.83z"/>
	<g>
		<g id="XMLID_4795_">
			<g id="XMLID_4796_">
				<g id="XMLID_4797_">
					
						<linearGradient id="SVGID_1_" gradientUnits="userSpaceOnUse" x1="361.8335" y1="-213.6317" x2="190.9159" y2="23.402" gradientTransform="matrix(0.055 -0.9985 0.9985 0.055 257.6092 473.0735)">
						<stop  offset="0" style="stop-color:#00AADD"/>
						<stop  offset="0.0709" style="stop-color:#3E81CD"/>
						<stop  offset="0.146" style="stop-color:#785ABF"/>
						<stop  offset="0.2188" style="stop-color:#A83AB3"/>
						<stop  offset="0.2872" style="stop-color:#CE21A9"/>
						<stop  offset="0.3503" style="stop-color:#E90FA3"/>
						<stop  offset="0.4062" style="stop-color:#F9049E"/>
						<stop  offset="0.449" style="stop-color:#FF009D"/>
						<stop  offset="0.4797" style="stop-color:#FF0097"/>
						<stop  offset="0.5209" style="stop-color:#FF0086"/>
						<stop  offset="0.5679" style="stop-color:#FF006A"/>
						<stop  offset="0.6189" style="stop-color:#FF0044"/>
						<stop  offset="0.6633" style="stop-color:#FF001C"/>
						<stop  offset="1" style="stop-color:#FFD400"/>
					</linearGradient>
					<path class="st2" d="M121.06,106.21c4.1,5.42,7.57,11.46,5.93,16.12c-4.45-6.19-16.86-17.7-30.08-8.97
						c-0.66,0.53-0.97,0.71-2.87,2.01c0.15-0.08,0.22-0.11,0.26-0.13c-0.46,0.42-0.91,0.88-1.31,1.35
						c-0.54,0.62-1.03,1.28-1.46,1.96c-0.32,0.49-0.6,0.98-0.84,1.49c-0.13,0.25-0.25,0.51-0.37,0.77
						c-0.13,0.26-0.24,0.52-0.33,0.79c-0.11,0.26-0.21,0.54-0.3,0.8c-0.18,0.54-0.34,1.1-0.47,1.65
						c-1.21,5.33-0.02,11.37,3.58,16.51c5.64,8.06,18.67,11.89,35.91,4.12c6.21-2.77,12.24-5.99,17.98-9.01c0.01,0,0.01,0,0.03-0.01
						c4.03-2.12,7.93-4.11,11.66-5.79c0.01,0,0.02-0.01,0.03-0.01c2.47-1.1,4.86-2.06,7.17-2.82c0.7-0.23,1.4-0.44,2.09-0.63
						c0,0.01,0.02,0.01,0.03,0c0.03-0.01,0.06-0.03,0.08-0.02c0.21,0.01,0.42,0.05,0.62,0.11c-0.01,0.01-0.03,0.01-0.04,0.04
						c-0.02-0.01-0.02,0-0.03,0.01c-1.68,0.81-3.73,2.2-6.04,4.06c-2.49,1.99-5.2,4.42-8.16,7.15c-0.98,0.9-2,1.85-3.04,2.82
						c-0.67,0.62-1.34,1.25-2,1.88c-0.64,0.58-1.28,1.2-1.95,1.81c-0.07,0.07-0.15,0.15-0.22,0.21
						c-5.54,5.17-11.34,10.49-17.31,15.23c-0.84,0.69-1.7,1.34-2.57,2c-1.34,1.01-2.69,1.99-4.05,2.92
						c-5.61,3.9-11.34,7.07-17.12,8.93c-3.73,1.2-7.43,1.68-10.99,1.52c-0.86-0.03-1.7-0.11-2.54-0.24
						c-7.86-1.01-14.88-5.13-19.87-11.21c-1.42-1.74-2.73-3.56-3.92-5.47c-0.1-0.16-0.19-0.31-0.28-0.47
						c-2.02-3.28-3.66-6.79-4.9-10.44c-0.01-0.03-0.03-0.06-0.04-0.09c-1.29-3.73-2.17-7.63-2.64-11.61
						c-0.08-0.79-0.17-1.6-0.22-2.39c-0.05-0.62-0.08-1.26-0.11-1.88c-0.01-0.3-0.02-0.61-0.04-0.92c-0.02-0.68-0.02-1.37-0.01-2.04
						c0.03-1.63,0.17-3.23,0.4-4.77c0.05-0.35,0.11-0.68,0.17-1.02c0.26-1.39,0.59-2.76,1.01-4.07c0.13-0.42,0.27-0.84,0.42-1.26
						c0.63-1.75,1.4-3.42,2.29-5.02c0.22-0.4,0.44-0.79,0.67-1.17c0.23-0.38,0.48-0.76,0.72-1.14c0.02-0.06,0.05-0.11,0.09-0.15
						c0.48-0.69,0.96-1.37,1.47-2.05c0.03-0.05,0.08-0.11,0.12-0.16c2.44-3.12,5.37-5.86,8.58-8.18c1.1-0.78,2.22-1.52,3.38-2.21
						c0.39-0.23,0.77-0.45,1.17-0.67c0.39-0.22,0.79-0.44,1.18-0.64c0.41-0.2,0.8-0.41,1.2-0.61c0.39-0.19,0.8-0.38,1.2-0.57
						c0.36-0.16,0.71-0.31,1.05-0.46c0.17-0.08,0.34-0.14,0.5-0.21c0.01,0,0.01-0.01,0.03-0.01
						C98.59,88.8,112.28,94.64,121.06,106.21z"/>
					
						<radialGradient id="XMLID_4_" cx="271.5601" cy="-81.1504" r="128.289" gradientTransform="matrix(0.055 -0.9985 0.9985 0.055 257.6092 473.0735)" gradientUnits="userSpaceOnUse">
						<stop  offset="0.852" style="stop-color:#FFFFFF"/>
						<stop  offset="0.8731" style="stop-color:#FDFBFC"/>
						<stop  offset="0.8933" style="stop-color:#F5F0F5"/>
						<stop  offset="0.9131" style="stop-color:#E9DCE8"/>
						<stop  offset="0.9327" style="stop-color:#D8C1D6"/>
						<stop  offset="0.9521" style="stop-color:#C39EBF"/>
						<stop  offset="0.9714" style="stop-color:#A873A3"/>
						<stop  offset="0.9903" style="stop-color:#894282"/>
						<stop  offset="1" style="stop-color:#77256F"/>
					</radialGradient>
					<path id="XMLID_4799_" class="st3" d="M96.9,113.36c-0.66,0.53-0.97,0.71-2.87,2.02c0.59-0.31,0.15-0.07,0.27-0.13
						c-8.95,8.24-7.3,24.9,5.75,31.76c-0.09-0.04-0.18-0.07-0.28-0.1c-14.82-5.89-17.94-19-15.49-28.23
						c2.47-9.25,10.83-16.42,21.43-14.48c18.04,3.35,21.28,18.14,21.28,18.14C122.54,116.14,110.12,104.63,96.9,113.36z"/>
					
						<radialGradient id="XMLID_5_" cx="1274.5468" cy="-468.4591" r="77.0783" gradientTransform="matrix(0.2826 0.9592 -0.9592 0.2826 -719.8629 -980.1839)" gradientUnits="userSpaceOnUse">
						<stop  offset="0.3112" style="stop-color:#FFFFFF"/>
						<stop  offset="1" style="stop-color:#000000"/>
					</radialGradient>
					<path id="XMLID_4800_" class="st4" d="M85.96,93.93c-11.42,9-18.58,21.83-14.84,40.07c3.23,15.65,12.39,26.18,21.75,29.89
						c9.19,3.63,18.1,0.82,18.1,0.82c-4.22,2.9-10.33,7.86-19.51,10.38c-19.61-2.73-31.41-25.46-31.17-46.79
						C60.58,111.5,72.34,99.56,85.96,93.93z"/>
					
						<radialGradient id="SVGID_2_" cx="311.0801" cy="-8.9506" r="90.2293" gradientTransform="matrix(0.055 -0.9985 0.9985 0.055 257.6092 473.0735)" gradientUnits="userSpaceOnUse">
						<stop  offset="0.852" style="stop-color:#FFFFFF"/>
						<stop  offset="0.8731" style="stop-color:#FDFBFC"/>
						<stop  offset="0.8933" style="stop-color:#F5F0F5"/>
						<stop  offset="0.9131" style="stop-color:#E9DCE8"/>
						<stop  offset="0.9327" style="stop-color:#D8C1D6"/>
						<stop  offset="0.9521" style="stop-color:#C39EBF"/>
						<stop  offset="0.9714" style="stop-color:#A873A3"/>
						<stop  offset="0.9903" style="stop-color:#894282"/>
						<stop  offset="1" style="stop-color:#77256F"/>
					</radialGradient>
					<path class="st5" d="M169.11,126.17c-0.22,0.09-0.46,0.2-0.7,0.33c-0.03,0-0.04,0.01-0.05,0.02c-0.02,0-0.02,0.01-0.02,0.01
						c-0.01,0-0.01,0-0.01,0c-3.41,1.73-8.29,5.8-14.2,11.21c-0.98,0.9-2,1.85-3.04,2.82c-0.67,0.62-1.34,1.25-2,1.88
						c-0.59,0.56-1.19,1.12-1.8,1.69c-5.57,5.22-11.46,10.67-17.68,15.57c-0.84,0.69-1.7,1.34-2.57,2
						c-1.34,1.01-2.69,1.98-4.05,2.92c-2.34,1.62-4.72,3.12-7.14,4.47c-7.08,3.96-14.35,6-20.97,5.99
						c-0.97-0.01-1.91-0.05-2.84-0.14c-3.53-0.34-6.83-1.29-9.74-2.91c-5.69-3.14-10.25-8.06-13.75-13.87
						c-0.1-0.16-0.19-0.31-0.28-0.47c-2.13-3.61-3.84-7.54-5.17-11.61c0.15,0.12,0.31,0.24,0.48,0.35c0.16,0.14,0.32,0.26,0.5,0.36
						c4.96,3.66,10.53,6.2,16.41,7.64c9.79,2.36,20.37,1.62,30.07-2.44c2.53-1.06,4.97-2.26,7.37-3.51
						c3.38-0.8,6.99-2.07,10.79-3.79c6.21-2.77,12.24-5.99,17.98-9.01c0.01,0,0.01,0,0.03-0.01c4.03-2.12,7.93-4.11,11.66-5.79
						c0.01,0,0.02-0.01,0.03-0.01c2.47-1.1,4.86-2.06,7.17-2.82c0.7-0.23,1.4-0.44,2.09-0.63c0,0.01,0.02,0.01,0.03,0
						c0.03-0.01,0.06-0.03,0.08-0.02c0.21,0.01,0.42,0.05,0.62,0.11c0.01,0,0.01,0,0.01,0
						C168.66,126.36,168.89,126.26,169.11,126.17z"/>
					
						<linearGradient id="SVGID_3_" gradientUnits="userSpaceOnUse" x1="287.2376" y1="-119.8007" x2="377.2701" y2="-215.4602" gradientTransform="matrix(0.055 -0.9985 0.9985 0.055 257.6092 473.0735)">
						<stop  offset="0" style="stop-color:#FF001C"/>
						<stop  offset="0.2194" style="stop-color:#FF009D"/>
						<stop  offset="0.2677" style="stop-color:#F9049F"/>
						<stop  offset="0.3324" style="stop-color:#E80FA3"/>
						<stop  offset="0.4064" style="stop-color:#CC22AA"/>
						<stop  offset="0.4872" style="stop-color:#A53CB4"/>
						<stop  offset="0.5737" style="stop-color:#735DC0"/>
						<stop  offset="0.6634" style="stop-color:#3785CF"/>
						<stop  offset="0.7369" style="stop-color:#00AADD"/>
						<stop  offset="1" style="stop-color:#FFD400"/>
					</linearGradient>
					<path class="st6" d="M167.17,126.33l0.21,0.01c0.1,0.02,0.2,0.04,0.29,0.06c0,0.01,0.02,0.01,0.03,0
						c0.21,0.04,0.42,0.08,0.63,0.13c0,0,0,0,0.01,0c0.12,0.03,0.25,0.07,0.39,0.11c0.36,0.09,0.71,0.21,1.05,0.37
						c0.26,0.09,0.52,0.2,0.79,0.33c-4.21,3.35-8.59,7.35-13.26,11.75c-6.61,6.21-13.47,12.89-20.93,19.09
						c-10.33,8.57-20.29,14.87-29.47,17.42c-8.6,2.39-16.58,1.24-22.71-1.98c-3.4-1.78-6.36-4.01-8.91-6.51
						c-6.23-6.05-10.06-13.6-11.92-19.87c-0.01-0.03-0.03-0.06-0.04-0.09c-0.24-0.82-0.44-1.6-0.62-2.36
						c0.37,0.6,0.83,1.27,1.37,1.99c4.95,6.84,16.09,18.12,30.39,17.95c0.1,0.01,0.21,0.01,0.31-0.01c0.18,0.01,0.35-0.01,0.54-0.01
						c0.32-0.01,0.66-0.03,0.99-0.06c10.68-0.76,19.54-5.88,29.04-12.12c-0.01,0-0.04,0.01-0.07,0.02c1.71-1.16,3.38-2.36,5.02-3.6
						c1.06-0.79,2.09-1.59,3.1-2.41c4.63-3.66,8.99-7.46,13.31-10.87c0.01,0,0.01,0,0.03-0.01c0.68-0.52,1.34-1.05,2.02-1.56
						c0.38-0.29,0.75-0.58,1.13-0.85c0.12-0.09,0.23-0.17,0.35-0.25c0.35-0.26,0.71-0.51,1.06-0.76c0.35-0.25,0.72-0.5,1.07-0.73
						c0.35-0.23,0.7-0.47,1.05-0.69c0.71-0.45,1.41-0.88,2.11-1.26c0.36-0.21,0.71-0.38,1.06-0.58c0.35-0.18,0.7-0.36,1.04-0.52
						c0.35-0.16,0.69-0.33,1.04-0.48C161.64,126.65,164.53,126.01,167.17,126.33z"/>
					
						<radialGradient id="SVGID_4_" cx="309.3986" cy="-151.1374" r="50.7678" gradientTransform="matrix(0.055 -0.9985 0.9985 0.055 257.6092 473.0735)" gradientUnits="userSpaceOnUse">
						<stop  offset="0.3112" style="stop-color:#FFFFFF"/>
						<stop  offset="1" style="stop-color:#000000"/>
					</radialGradient>
					<path class="st7" d="M169.78,127.01c0.26,0.09,0.52,0.2,0.79,0.33c-4.21,3.35-8.59,7.35-13.26,11.75
						c-6.61,6.21-13.47,12.89-20.93,19.09c-10.33,8.57-20.29,14.87-29.47,17.42c-8.6,2.39-16.58,1.24-22.71-1.98
						c-3.4-1.78-6.36-4.01-8.91-6.51c-6.23-6.05-10.06-13.6-11.92-19.87c-0.01-0.03-0.03-0.06-0.04-0.09
						c-0.24-0.82-0.44-1.6-0.62-2.36c0.28,0.51,0.56,1.06,0.87,1.63c2.06,3.83,4.79,8.76,9.96,13.86
						c5.68,5.57,15.03,11.73,29.54,9.77c0.28-0.04,0.57-0.08,0.87-0.12c9.56-1.49,19.88-7.67,30.15-15.36
						c4.47-3.35,8.82-6.87,13.05-10.33c0.04-0.04,0.11-0.08,0.15-0.12c5.47-4.46,10.76-8.83,15.9-12.62
						C165.44,129.83,167.64,128.35,169.78,127.01z"/>
					
						<radialGradient id="SVGID_5_" cx="341.0188" cy="-106.7151" r="0.6861" gradientTransform="matrix(0.055 -0.9985 0.9985 0.055 257.6092 473.0735)" gradientUnits="userSpaceOnUse">
						<stop  offset="0.25" style="stop-color:#000000"/>
						<stop  offset="1" style="stop-color:#FFFFFF"/>
					</radialGradient>
					<path class="st8" d="M167.67,126.41c-0.12-0.02-0.25-0.03-0.38-0.05c0.03-0.01,0.06-0.01,0.09-0.01
						c0.14,0.01,0.27,0.01,0.41,0.04c0.21,0.01,0.42,0.05,0.62,0.11c0.01,0,0.01,0,0.01,0l0,0.01c0.24,0.06,0.45,0.14,0.64,0.23
						c-0.11-0.03-0.21-0.07-0.32-0.09c-0.14-0.04-0.27-0.07-0.39-0.11c-0.01,0-0.01,0-0.01,0c-0.21-0.05-0.42-0.09-0.63-0.13
						C167.69,126.42,167.67,126.42,167.67,126.41z"/>
					
						<radialGradient id="SVGID_6_" cx="309.8027" cy="-76.333" r="39.7528" gradientTransform="matrix(0.055 -0.9985 0.9985 0.055 257.6092 473.0735)" gradientUnits="userSpaceOnUse">
						<stop  offset="0.25" style="stop-color:#000000"/>
						<stop  offset="1" style="stop-color:#FFFFFF"/>
					</radialGradient>
					<path class="st9" d="M167.17,126.33c0.04,0.02,0.09,0.02,0.13,0.02c-2.21-0.05-5.35,1.16-8.89,3.5c-0.01,0-0.02,0.01-0.03,0.01
						c-0.73,0.48-1.48,1.02-2.24,1.59c-6.84,5.17-14.57,12.86-23.99,19.34c-14.38,9.9-26,13.92-34.76,14.4
						c-3.72,0.22-6.92-0.23-9.6-1.13c2.13,0.47,4.35,0.72,6.67,0.66c0.1,0.01,0.21,0.01,0.31-0.01c0.17,0.01,0.34,0,0.51-0.01
						c0.01,0.02,0.03,0.02,0.03,0c0.34-0.01,0.66-0.03,0.99-0.06c10.68-0.76,19.54-5.88,29.04-12.12c-0.01,0-0.04,0.01-0.07,0.02
						c1.71-1.16,3.38-2.36,5.02-3.6c1.06-0.79,2.09-1.59,3.1-2.41c4.63-3.66,8.99-7.46,13.31-10.87c0.01,0,0.01,0,0.03-0.01
						c0.68-0.52,1.34-1.05,2.02-1.56c0.5-0.37,0.98-0.74,1.48-1.1c0.35-0.26,0.71-0.51,1.06-0.76c0.35-0.25,0.72-0.5,1.07-0.73
						c0.35-0.23,0.7-0.47,1.05-0.69c0.71-0.45,1.41-0.88,2.11-1.26c0.36-0.21,0.71-0.38,1.06-0.58c0.35-0.18,0.7-0.36,1.04-0.52
						c0.35-0.16,0.69-0.33,1.04-0.48C161.64,126.69,164.54,126.05,167.17,126.33z"/>
				</g>
			</g>
		</g>
		<g id="XMLID_177_">
			<g id="XMLID_178_">
				<g id="XMLID_180_">
					
						<linearGradient id="SVGID_7_" gradientUnits="userSpaceOnUse" x1="457.3039" y1="410.0393" x2="286.3864" y2="647.0728" gradientTransform="matrix(-0.055 0.9985 -0.9985 -0.055 658.3644 -264.5119)">
						<stop  offset="0" style="stop-color:#00AADD"/>
						<stop  offset="0.0709" style="stop-color:#3E81CD"/>
						<stop  offset="0.146" style="stop-color:#785ABF"/>
						<stop  offset="0.2188" style="stop-color:#A83AB3"/>
						<stop  offset="0.2872" style="stop-color:#CE21A9"/>
						<stop  offset="0.3503" style="stop-color:#E90FA3"/>
						<stop  offset="0.4062" style="stop-color:#F9049E"/>
						<stop  offset="0.449" style="stop-color:#FF009D"/>
						<stop  offset="0.4797" style="stop-color:#FF0097"/>
						<stop  offset="0.5209" style="stop-color:#FF0086"/>
						<stop  offset="0.5679" style="stop-color:#FF006A"/>
						<stop  offset="0.6189" style="stop-color:#FF0044"/>
						<stop  offset="0.6633" style="stop-color:#FF001C"/>
						<stop  offset="1" style="stop-color:#FFD400"/>
					</linearGradient>
					<path class="st10" d="M166.93,163.38c-4.1-5.42-7.57-11.46-5.93-16.12c4.45,6.19,16.86,17.7,30.08,8.97
						c0.66-0.53,0.97-0.71,2.87-2.01c-0.14,0.08-0.22,0.11-0.26,0.13c0.46-0.43,0.91-0.88,1.31-1.35c0.54-0.62,1.03-1.28,1.46-1.96
						c0.32-0.49,0.61-0.98,0.84-1.49c0.13-0.25,0.25-0.51,0.37-0.77c0.13-0.26,0.24-0.52,0.33-0.79c0.11-0.26,0.21-0.54,0.3-0.8
						c0.19-0.54,0.34-1.09,0.47-1.65c1.21-5.33,0.02-11.37-3.58-16.51c-5.64-8.06-18.67-11.89-35.91-4.12
						c-6.21,2.77-12.24,5.99-17.98,9.01c-0.01,0-0.01,0-0.03,0.01c-4.04,2.12-7.94,4.11-11.66,5.79c-0.01,0-0.01,0.02-0.03,0.01
						c-2.47,1.1-4.86,2.06-7.17,2.82c-0.7,0.23-1.41,0.44-2.09,0.63c0-0.01-0.01-0.02-0.03,0c-0.03,0.01-0.06,0.02-0.08,0.02
						c-0.21-0.01-0.42-0.05-0.62-0.11c0.02-0.01,0.03-0.01,0.05-0.04c0.01,0.02,0.01,0,0.03-0.01c1.68-0.81,3.73-2.2,6.04-4.06
						c2.49-1.99,5.2-4.42,8.16-7.15c0.98-0.9,2.01-1.85,3.04-2.82c0.67-0.62,1.34-1.25,2.01-1.87c0.64-0.58,1.28-1.2,1.95-1.81
						c0.07-0.07,0.15-0.15,0.22-0.21c5.54-5.17,11.34-10.49,17.31-15.23c0.84-0.69,1.7-1.34,2.58-2c1.34-1.01,2.69-1.99,4.05-2.92
						c5.61-3.9,11.34-7.07,17.12-8.93c3.73-1.2,7.43-1.68,10.99-1.52c0.86,0.03,1.7,0.11,2.54,0.24
						c7.86,1.01,14.88,5.13,19.87,11.21c1.42,1.74,2.73,3.56,3.93,5.47c0.1,0.16,0.19,0.31,0.28,0.47c2.02,3.28,3.65,6.79,4.9,10.44
						c0.01,0.03,0.03,0.06,0.04,0.09c1.29,3.73,2.17,7.63,2.64,11.61c0.08,0.79,0.17,1.6,0.22,2.39c0.05,0.62,0.09,1.26,0.11,1.88
						c0.01,0.3,0.02,0.61,0.03,0.92c0.02,0.68,0.02,1.37,0.01,2.04c-0.03,1.63-0.16,3.23-0.4,4.77c-0.05,0.35-0.11,0.68-0.17,1.02
						c-0.26,1.39-0.59,2.76-1.01,4.07c-0.13,0.42-0.27,0.85-0.42,1.26c-0.63,1.76-1.4,3.42-2.29,5.02c-0.22,0.4-0.44,0.79-0.67,1.17
						c-0.23,0.38-0.48,0.76-0.73,1.15c-0.02,0.05-0.05,0.11-0.09,0.15c-0.48,0.69-0.96,1.37-1.47,2.05
						c-0.03,0.05-0.08,0.11-0.12,0.16c-2.44,3.12-5.37,5.86-8.58,8.18c-1.1,0.78-2.23,1.53-3.38,2.21
						c-0.39,0.23-0.77,0.45-1.16,0.67c-0.4,0.22-0.79,0.43-1.18,0.64c-0.41,0.2-0.8,0.41-1.2,0.61c-0.39,0.19-0.8,0.38-1.2,0.57
						c-0.36,0.16-0.71,0.31-1.05,0.46c-0.17,0.08-0.33,0.14-0.51,0.21c-0.01,0-0.01,0.01-0.03,0.01
						C189.4,180.79,175.71,174.95,166.93,163.38z"/>
					
						<radialGradient id="XMLID_6_" cx="367.0302" cy="542.5219" r="128.2899" gradientTransform="matrix(-0.055 0.9985 -0.9985 -0.055 658.3644 -264.5119)" gradientUnits="userSpaceOnUse">
						<stop  offset="0.852" style="stop-color:#FFFFFF"/>
						<stop  offset="0.8731" style="stop-color:#FDFBFC"/>
						<stop  offset="0.8933" style="stop-color:#F5F0F5"/>
						<stop  offset="0.9131" style="stop-color:#E9DCE8"/>
						<stop  offset="0.9327" style="stop-color:#D8C1D6"/>
						<stop  offset="0.9521" style="stop-color:#C39EBF"/>
						<stop  offset="0.9714" style="stop-color:#A873A3"/>
						<stop  offset="0.9903" style="stop-color:#894282"/>
						<stop  offset="1" style="stop-color:#77256F"/>
					</radialGradient>
					<path id="XMLID_182_" class="st11" d="M191.08,156.23c0.66-0.53,0.97-0.71,2.87-2.02c-0.59,0.31-0.15,0.07-0.27,0.13
						c8.95-8.24,7.3-24.9-5.75-31.76c0.09,0.04,0.18,0.07,0.28,0.1c14.82,5.89,17.95,19,15.49,28.23
						c-2.47,9.25-10.83,16.42-21.43,14.48c-18.04-3.35-21.28-18.14-21.28-18.14C165.45,153.45,177.87,164.95,191.08,156.23z"/>
					
						<radialGradient id="XMLID_7_" cx="1393.4886" cy="-1088.1144" r="77.0783" gradientTransform="matrix(-0.2826 -0.9592 0.9592 -0.2826 1635.8356 1188.7452)" gradientUnits="userSpaceOnUse">
						<stop  offset="0.3112" style="stop-color:#FFFFFF"/>
						<stop  offset="1" style="stop-color:#000000"/>
					</radialGradient>
					<path id="XMLID_181_" class="st12" d="M202.02,175.65c11.42-9,18.58-21.83,14.84-40.07c-3.23-15.65-12.39-26.18-21.75-29.89
						c-9.19-3.63-18.1-0.82-18.1-0.82c4.22-2.9,10.33-7.86,19.51-10.38c19.61,2.73,31.41,25.46,31.17,46.79
						C227.4,158.09,215.65,170.03,202.02,175.65z"/>
					
						<radialGradient id="SVGID_8_" cx="406.5505" cy="614.7173" r="90.2277" gradientTransform="matrix(-0.055 0.9985 -0.9985 -0.055 658.3644 -264.5119)" gradientUnits="userSpaceOnUse">
						<stop  offset="0.852" style="stop-color:#FFFFFF"/>
						<stop  offset="0.8731" style="stop-color:#FDFBFC"/>
						<stop  offset="0.8933" style="stop-color:#F5F0F5"/>
						<stop  offset="0.9131" style="stop-color:#E9DCE8"/>
						<stop  offset="0.9327" style="stop-color:#D8C1D6"/>
						<stop  offset="0.9521" style="stop-color:#C39EBF"/>
						<stop  offset="0.9714" style="stop-color:#A873A3"/>
						<stop  offset="0.9903" style="stop-color:#894282"/>
						<stop  offset="1" style="stop-color:#77256F"/>
					</radialGradient>
					<path class="st13" d="M118.88,143.41c0.22-0.09,0.46-0.2,0.69-0.33c0.03,0,0.04-0.01,0.06-0.02c0.01,0,0.02-0.01,0.02-0.01
						c0.01,0,0.01,0,0.01,0c3.41-1.73,8.29-5.8,14.2-11.21c0.98-0.9,2.01-1.85,3.04-2.82c0.67-0.62,1.34-1.25,2.01-1.87
						c0.59-0.56,1.19-1.12,1.8-1.69c5.57-5.21,11.46-10.67,17.68-15.57c0.84-0.69,1.7-1.34,2.58-2c1.34-1.01,2.69-1.98,4.05-2.92
						c2.34-1.62,4.72-3.12,7.14-4.47c7.08-3.96,14.35-6,20.97-5.99c0.97,0.01,1.91,0.05,2.84,0.14c3.53,0.34,6.83,1.29,9.74,2.91
						c5.69,3.14,10.25,8.06,13.75,13.87c0.1,0.16,0.19,0.31,0.28,0.47c2.12,3.61,3.84,7.54,5.16,11.61
						c-0.15-0.12-0.31-0.24-0.47-0.35c-0.17-0.13-0.33-0.26-0.5-0.37c-4.96-3.65-10.53-6.2-16.42-7.64
						c-9.79-2.36-20.37-1.62-30.07,2.44c-2.52,1.06-4.97,2.26-7.36,3.51c-3.38,0.8-6.99,2.07-10.79,3.79
						c-6.21,2.77-12.24,5.99-17.98,9.01c-0.01,0-0.01,0-0.03,0.01c-4.04,2.12-7.94,4.11-11.66,5.79c-0.01,0-0.01,0.02-0.03,0.01
						c-2.47,1.1-4.86,2.06-7.17,2.82c-0.7,0.23-1.41,0.44-2.09,0.63c0-0.01-0.01-0.02-0.03,0c-0.03,0.01-0.06,0.02-0.08,0.02
						c-0.21-0.01-0.42-0.05-0.62-0.11c-0.01,0-0.01,0-0.01,0C119.33,143.23,119.09,143.33,118.88,143.41z"/>
					
						<linearGradient id="SVGID_9_" gradientUnits="userSpaceOnUse" x1="382.7092" y1="503.8693" x2="472.7401" y2="408.2114" gradientTransform="matrix(-0.055 0.9985 -0.9985 -0.055 658.3644 -264.5119)">
						<stop  offset="0" style="stop-color:#FF001C"/>
						<stop  offset="0.2194" style="stop-color:#FF009D"/>
						<stop  offset="0.2677" style="stop-color:#F9049F"/>
						<stop  offset="0.3324" style="stop-color:#E80FA3"/>
						<stop  offset="0.4064" style="stop-color:#CC22AA"/>
						<stop  offset="0.4872" style="stop-color:#A53CB4"/>
						<stop  offset="0.5737" style="stop-color:#735DC0"/>
						<stop  offset="0.6634" style="stop-color:#3785CF"/>
						<stop  offset="0.7369" style="stop-color:#00AADD"/>
						<stop  offset="1" style="stop-color:#FFD400"/>
					</linearGradient>
					<path class="st14" d="M120.82,143.25l-0.21-0.01c-0.1-0.02-0.2-0.04-0.29-0.06c0-0.01-0.01-0.02-0.03,0
						c-0.21-0.04-0.42-0.08-0.63-0.13c0,0,0,0-0.01,0c-0.13-0.03-0.25-0.07-0.39-0.11c-0.36-0.09-0.71-0.21-1.05-0.37
						c-0.26-0.09-0.52-0.2-0.79-0.33c4.21-3.35,8.59-7.35,13.26-11.75c6.61-6.21,13.48-12.9,20.93-19.09
						c10.33-8.57,20.29-14.87,29.48-17.42c8.6-2.39,16.58-1.24,22.71,1.98c3.4,1.78,6.36,4.01,8.91,6.51
						c6.23,6.05,10.06,13.6,11.92,19.87c0.01,0.03,0.03,0.06,0.04,0.09c0.24,0.82,0.45,1.6,0.62,2.36c-0.38-0.6-0.83-1.27-1.37-1.99
						c-4.95-6.84-16.09-18.12-30.39-17.95c-0.1,0-0.21-0.01-0.31,0.01c-0.18-0.01-0.35,0.01-0.53,0.01
						c-0.33,0.01-0.66,0.03-0.99,0.06c-10.68,0.76-19.54,5.88-29.04,12.12c0.01,0,0.04-0.01,0.07-0.02
						c-1.71,1.16-3.38,2.36-5.02,3.6c-1.06,0.79-2.09,1.59-3.1,2.41c-4.63,3.66-8.99,7.46-13.31,10.87c-0.01,0-0.01,0-0.03,0.01
						c-0.68,0.52-1.34,1.05-2.02,1.56c-0.38,0.29-0.75,0.58-1.13,0.85c-0.12,0.09-0.23,0.17-0.35,0.25
						c-0.35,0.26-0.71,0.51-1.06,0.76c-0.35,0.25-0.72,0.5-1.07,0.73c-0.35,0.23-0.7,0.47-1.05,0.69c-0.72,0.45-1.42,0.88-2.11,1.26
						c-0.36,0.21-0.71,0.38-1.06,0.58c-0.35,0.18-0.7,0.36-1.04,0.52c-0.35,0.16-0.69,0.33-1.04,0.48
						C126.34,142.94,123.46,143.58,120.82,143.25z"/>
					
						<radialGradient id="SVGID_10_" cx="404.8697" cy="472.5334" r="50.7678" gradientTransform="matrix(-0.055 0.9985 -0.9985 -0.055 658.3644 -264.5119)" gradientUnits="userSpaceOnUse">
						<stop  offset="0.3112" style="stop-color:#FFFFFF"/>
						<stop  offset="1" style="stop-color:#000000"/>
					</radialGradient>
					<path class="st15" d="M118.21,142.57c-0.26-0.09-0.52-0.2-0.79-0.33c4.21-3.35,8.59-7.35,13.26-11.75
						c6.61-6.21,13.48-12.9,20.93-19.09c10.33-8.57,20.29-14.87,29.48-17.42c8.6-2.39,16.58-1.24,22.71,1.98
						c3.4,1.78,6.36,4.01,8.91,6.51c6.23,6.05,10.06,13.6,11.92,19.87c0.01,0.03,0.03,0.06,0.04,0.09c0.24,0.82,0.45,1.6,0.62,2.36
						c-0.28-0.51-0.56-1.06-0.87-1.63c-2.06-3.83-4.79-8.76-9.96-13.86c-5.68-5.57-15.04-11.73-29.54-9.77
						c-0.28,0.04-0.57,0.08-0.86,0.12c-9.57,1.49-19.88,7.67-30.15,15.36c-4.46,3.35-8.82,6.87-13.05,10.33
						c-0.04,0.04-0.1,0.08-0.15,0.12c-5.47,4.46-10.76,8.83-15.9,12.62C122.55,139.76,120.35,141.24,118.21,142.57z"/>
					
						<radialGradient id="SVGID_11_" cx="436.4895" cy="516.9548" r="0.6864" gradientTransform="matrix(-0.055 0.9985 -0.9985 -0.055 658.3644 -264.5119)" gradientUnits="userSpaceOnUse">
						<stop  offset="0.25" style="stop-color:#000000"/>
						<stop  offset="1" style="stop-color:#FFFFFF"/>
					</radialGradient>
					<path class="st16" d="M120.31,143.18c0.13,0.02,0.25,0.03,0.38,0.05c-0.03,0.01-0.06,0.01-0.09,0.01
						c-0.14-0.01-0.27-0.02-0.41-0.04c-0.21-0.01-0.42-0.05-0.62-0.11c-0.01,0-0.01,0-0.01,0l0-0.01c-0.24-0.06-0.44-0.14-0.64-0.23
						c0.11,0.03,0.21,0.07,0.32,0.09c0.14,0.03,0.26,0.07,0.39,0.11c0.01,0,0.01,0,0.01,0c0.21,0.06,0.42,0.09,0.63,0.13
						C120.3,143.17,120.31,143.17,120.31,143.18z"/>
					
						<radialGradient id="SVGID_12_" cx="405.2735" cy="547.3366" r="39.7524" gradientTransform="matrix(-0.055 0.9985 -0.9985 -0.055 658.3644 -264.5119)" gradientUnits="userSpaceOnUse">
						<stop  offset="0.25" style="stop-color:#000000"/>
						<stop  offset="1" style="stop-color:#FFFFFF"/>
					</radialGradient>
					<path class="st17" d="M120.82,143.25c-0.04-0.02-0.08-0.02-0.13-0.02c2.21,0.05,5.35-1.16,8.88-3.5c0.01,0,0.01-0.01,0.03-0.01
						c0.73-0.48,1.48-1.02,2.24-1.59c6.84-5.17,14.57-12.86,23.99-19.34c14.38-9.9,26-13.92,34.76-14.4
						c3.72-0.22,6.92,0.23,9.6,1.13c-2.13-0.47-4.35-0.72-6.67-0.66c-0.1,0-0.21-0.01-0.31,0.01c-0.17-0.01-0.34,0-0.51,0.01
						c-0.01-0.02-0.03-0.02-0.03,0c-0.34,0.01-0.66,0.03-0.99,0.06c-10.68,0.76-19.54,5.88-29.04,12.12c0.01,0,0.04-0.01,0.07-0.02
						c-1.71,1.16-3.38,2.36-5.02,3.6c-1.06,0.79-2.09,1.59-3.1,2.41c-4.63,3.66-8.99,7.46-13.31,10.87c-0.01,0-0.01,0-0.03,0.01
						c-0.68,0.52-1.34,1.05-2.02,1.56c-0.5,0.37-0.99,0.74-1.48,1.1c-0.35,0.26-0.71,0.51-1.06,0.76c-0.35,0.25-0.72,0.5-1.07,0.73
						c-0.35,0.23-0.7,0.47-1.05,0.69c-0.72,0.45-1.42,0.88-2.11,1.26c-0.36,0.21-0.71,0.38-1.06,0.58c-0.35,0.18-0.7,0.36-1.04,0.52
						c-0.35,0.16-0.69,0.33-1.04,0.48C126.35,142.9,123.45,143.54,120.82,143.25z"/>
				</g>
			</g>
		</g>
	</g>
</g>
</svg>
