<?xml version="1.0" encoding="utf-8"?>
<!-- Generator: Adobe Illustrator 23.0.2, SVG Export Plug-In . SVG Version: 6.00 Build 0)  -->
<svg version="1.1" xmlns="http://www.w3.org/2000/svg" xmlns:xlink="http://www.w3.org/1999/xlink" x="0px" y="0px"
	 viewBox="0 0 750 500" style="enable-background:new 0 0 750 500;" xml:space="preserve">
<style type="text/css">
	.st0{fill:#FFDCEA;}
	.st1{fill:none;stroke:#FFFFFF;stroke-linecap:round;stroke-miterlimit:10;}
	.st2{clip-path:url(#SVGID_2_);}
	.st3{fill:#FFC0D8;}
	.st4{clip-path:url(#SVGID_4_);}
	.st5{fill:none;stroke:#FFDCEA;stroke-linecap:round;stroke-miterlimit:10;}
	.st6{clip-path:url(#SVGID_6_);}
	.st7{clip-path:url(#SVGID_8_);}
	.st8{fill:#B7D1FF;}
	.st9{fill:none;stroke:#FFFFFF;stroke-linecap:round;stroke-linejoin:round;stroke-miterlimit:10;}
	.st10{fill:#FFFFFF;}
	.st11{fill:none;stroke:#6CA0FF;stroke-width:3;stroke-linecap:round;stroke-linejoin:round;stroke-miterlimit:10;}
	.st12{clip-path:url(#SVGID_10_);}
	.st13{fill:url(#SVGID_11_);}
	.st14{fill:url(#SVGID_12_);}
	.st15{opacity:0.25;clip-path:url(#SVGID_14_);fill:#B7D1FF;}
	.st16{clip-path:url(#SVGID_14_);}
	.st17{opacity:0.25;fill:#B7D1FF;}
	.st18{fill:none;stroke:#FFFFFF;stroke-width:1.5;stroke-linecap:round;stroke-linejoin:round;stroke-miterlimit:10;}
	.st19{fill:none;stroke:#6CA0FF;stroke-linejoin:round;stroke-miterlimit:10;}
	.st20{fill:#00276F;}
	.st21{fill:#F886BC;}
	.st22{fill:none;stroke:#D34F9B;stroke-width:0.75;stroke-miterlimit:10;}
	.st23{fill:none;stroke:#00276F;stroke-width:0.75;stroke-linecap:round;stroke-miterlimit:10;}
	.st24{fill:#DD3C91;}
	.st25{fill:#EF8318;}
	.st26{fill:none;stroke:#AF480E;stroke-width:0.75;stroke-miterlimit:10;}
	.st27{fill:none;stroke:#AF480E;stroke-width:0.75;stroke-miterlimit:10;stroke-dasharray:2,1.5;}
	.st28{fill:#FFAB37;}
	.st29{fill:none;stroke:#AF480E;stroke-width:0.75;stroke-linecap:round;stroke-miterlimit:10;}
	.st30{fill:none;stroke:#AF480E;stroke-width:0.75;stroke-miterlimit:10;stroke-dasharray:2.0171,1.5128;}
	.st31{fill:#AF480E;}
	.st32{fill:none;stroke:#2D5491;stroke-width:0.5;stroke-linecap:round;stroke-miterlimit:10;}
	.st33{fill:#0070E4;}
	.st34{fill:#D34F9B;}
	.st35{fill:none;stroke:#0E4099;stroke-width:0.75;stroke-miterlimit:10;}
	.st36{fill:none;stroke:#00276F;stroke-linecap:round;stroke-miterlimit:10;}
	.st37{fill:#00224C;}
	.st38{fill:none;stroke:#15489B;stroke-width:0.75;stroke-miterlimit:10;stroke-dasharray:2,1.5;}
	.st39{fill:none;stroke:#15489B;stroke-width:0.75;stroke-miterlimit:10;}
	.st40{fill:#15489B;}
	.st41{fill:none;stroke:#1B5ABF;stroke-width:0.75;stroke-miterlimit:10;}
	.st42{fill:none;stroke:#1B5ABF;stroke-width:0.75;stroke-miterlimit:10;stroke-dasharray:2,1.5;}
	.st43{fill:#1B5ABF;}
	.st44{fill:none;stroke:#00276F;stroke-width:0.75;stroke-miterlimit:10;}
	.st45{fill:#0A172B;}
	.st46{fill:#8DADE0;}
	.st47{fill:none;stroke:#8DADE0;stroke-width:0.25;stroke-linecap:round;stroke-miterlimit:10;}
	.st48{opacity:0.55;fill:#8DADE0;}
	.st49{opacity:0.51;fill:#FFFFFF;}
	.st50{clip-path:url(#SVGID_16_);fill:url(#SVGID_17_);}
	.st51{clip-path:url(#SVGID_16_);fill:url(#SVGID_18_);}
	.st52{fill:#6CA0FF;}
	.st53{fill:none;stroke:#225BAF;stroke-width:0.75;stroke-miterlimit:10;}
	.st54{fill:none;stroke:#6CA0FF;stroke-linecap:round;stroke-linejoin:round;stroke-miterlimit:10;}
	.st55{fill:#FF5A89;}
	.st56{fill:#D2E4FF;}
	.st57{fill:#EA3974;}
	.st58{fill:#FFFFFF;stroke:#6CA0FF;stroke-linecap:round;stroke-linejoin:round;stroke-miterlimit:10;}
	.st59{fill:#E6EFFC;}
	.st60{clip-path:url(#SVGID_20_);}
	.st61{fill:none;stroke:#D34F9B;stroke-width:0.5;stroke-linecap:round;stroke-linejoin:round;stroke-miterlimit:10;}
	.st62{fill:none;stroke:#00276F;stroke-width:0.5;stroke-linecap:round;stroke-linejoin:round;stroke-miterlimit:10;}
	.st63{fill:none;stroke:#E6EFFC;stroke-width:3;stroke-linecap:round;stroke-linejoin:round;stroke-miterlimit:10;}
	.st64{clip-path:url(#SVGID_22_);}
</style>
<g id="OBJECTS">
	<g>
		<g>
			<g>
				<g>
					<path class="st0" d="M490.88,388.59c-0.72-6.41-1.27-12.89-0.75-19.32c0.52-6.49,2.28-14.09,5.89-19.6
						c2.08-3.18,9.3-10.59,10.3-2.16c0.5,4.17-1.38,7.96-2.76,11.77c-1.33,3.65-3.17,7.17-4.32,10.87c-1.85,5.92-3.12,12-5.17,17.86
						"/>
				</g>
				<g>
					<path class="st0" d="M493.95,400.32c5.18-8.76,10.66-17.35,17.49-24.52c5.69-5.98,12.73-11.48,20.63-14.47
						c5.33-2.02,20.51-6.23,22.71,2.07c1.79,6.71-5.61,11.6-10.55,14.37c-7.07,3.96-14.7,6.83-21.69,10.98
						c-8.08,4.8-15.57,10.55-23.86,15.01"/>
				</g>
				<g>
					<path class="st0" d="M497.48,380.78c2.82-8.16,5.57-16.13,10.09-23.49c3.01-4.9,8.37-13.5,14.98-13.91
						c4.26-0.26,4.02,6.27,3.35,9.01c-1.09,4.42-3.79,8.35-6.77,11.71c-7.17,8.06-13.48,15.4-19.64,24.25"/>
				</g>
				<path class="st1" d="M520.7,349.08c0,0-13.97,15.6-24.03,42.09"/>
				<path class="st1" d="M545.04,366.11c0,0-21.58,3.65-51.9,38.46"/>
				<path class="st1" d="M502.6,349.25c0,0-9.48,12.17-10.92,44.11"/>
			</g>
			<g>
				<g>
					<path class="st0" d="M275.36,390.53c1.4-8.79,2.54-17.66,2.24-26.55c-0.31-8.97-2.27-19.54-6.89-27.35
						c-2.67-4.51-12.14-15.16-14.05-3.61c-0.94,5.71,1.4,11.04,3.07,16.37c1.6,5.11,3.91,10.07,5.28,15.24
						c2.17,8.26,3.55,16.71,6.01,24.91"/>
				</g>
				<g>
					<path class="st0" d="M270.71,395.07c-2.3-11.02-4.96-21.97-9.55-31.91c-3.83-8.29-9.23-16.56-16.43-22.51
						c-4.85-4.01-19.24-13.84-24.51-5.94c-4.27,6.39,1.73,14.15,5.91,18.81c5.99,6.67,12.95,12.39,18.78,19.24
						c6.74,7.91,12.53,16.6,19.62,24.23"/>
				</g>
				<g>
					<path class="st0" d="M253.33,389.11c-5.93-7.3-12.86-13.79-20.55-19.21c-2.6-1.83-15.85-10.82-15.82-2.06
						c0.02,6.01,7.21,9.46,11.64,11.79c9.13,4.8,19.01,8.25,27.51,14.1"/>
				</g>
				<path class="st1" d="M221.18,369.42c0,0,18.29,8.13,37.45,27.29"/>
				<path class="st1" d="M229.45,341.02c0,0,21.28,11.53,40.59,58.78"/>
				<path class="st1" d="M261.68,335.63c0,0,12.29,17.34,12.29,61.4"/>
			</g>
			<g>
				<path class="st0" d="M530.84,398.09c19.65,2.35,35.28,21.99,35.81,34.96h-71.61C495.04,414.6,509.1,395.48,530.84,398.09z"/>
				<g>
					<defs>
						<path id="SVGID_1_" d="M530.84,398.09c19.65,2.35,35.28,21.99,35.81,34.96h-71.61C495.04,414.6,509.1,395.48,530.84,398.09z"
							/>
					</defs>
					<clipPath id="SVGID_2_">
						<use xlink:href="#SVGID_1_"  style="overflow:visible;"/>
					</clipPath>
					<g class="st2">
						<line class="st1" x1="526.46" y1="395.3" x2="529.07" y2="436.31"/>
						<line class="st1" x1="527.4" y1="410.16" x2="534.32" y2="396.88"/>
						<line class="st1" x1="519.56" y1="435.36" x2="502.43" y2="405.89"/>
						<line class="st1" x1="515.44" y1="398.4" x2="513.1" y2="424.25"/>
						<line class="st1" x1="513.92" y1="437.37" x2="495.98" y2="422.38"/>
						<line class="st1" x1="502.64" y1="427.95" x2="494.89" y2="426.95"/>
						<line class="st1" x1="552.38" y1="404.47" x2="531.04" y2="434.77"/>
						<line class="st1" x1="540.38" y1="399.2" x2="543.38" y2="417.25"/>
						<line class="st1" x1="565.73" y1="420.08" x2="542.44" y2="435.36"/>
						<line class="st1" x1="560.61" y1="413" x2="539.77" y2="422.38"/>
						<line class="st1" x1="556.75" y1="425.97" x2="569.41" y2="427.95"/>
					</g>
				</g>
			</g>
			<g>
				<path class="st3" d="M265.29,378.42c-30.71,3.68-55.13,34.36-55.95,54.63h111.9C321.24,404.21,299.26,374.35,265.29,378.42z"/>
				<g>
					<defs>
						<path id="SVGID_3_" d="M265.29,378.42c-30.71,3.68-55.13,34.36-55.95,54.63h111.9C321.24,404.21,299.26,374.35,265.29,378.42z
							"/>
					</defs>
					<clipPath id="SVGID_4_">
						<use xlink:href="#SVGID_3_"  style="overflow:visible;"/>
					</clipPath>
					<g class="st4">
						<line class="st5" x1="272.15" y1="374.06" x2="268.06" y2="438.14"/>
						<line class="st5" x1="270.11" y1="405.55" x2="249.3" y2="380.38"/>
						<line class="st5" x1="282.92" y1="436.66" x2="309.68" y2="390.62"/>
						<line class="st5" x1="289.36" y1="378.91" x2="293.01" y2="419.3"/>
						<line class="st5" x1="291.73" y1="439.8" x2="319.77" y2="416.38"/>
						<line class="st5" x1="309.35" y1="425.08" x2="321.47" y2="423.52"/>
						<line class="st5" x1="270.69" y1="396.94" x2="284.32" y2="374.06"/>
						<line class="st5" x1="234.34" y1="383.78" x2="266.08" y2="435.25"/>
						<line class="st5" x1="221.88" y1="397.03" x2="255.43" y2="417.98"/>
						<line class="st5" x1="215.2" y1="408.36" x2="247.17" y2="436.66"/>
						<line class="st5" x1="209.34" y1="420.73" x2="233.21" y2="424.3"/>
					</g>
				</g>
			</g>
			<g>
				<path class="st3" d="M464.02,366.43c37.45,4.48,67.23,41.91,68.23,66.63H395.79C395.79,397.88,422.59,361.47,464.02,366.43z"/>
				<g>
					<defs>
						<path id="SVGID_5_" d="M464.02,366.43c37.45,4.48,67.23,41.91,68.23,66.63H395.79C395.79,397.88,422.59,361.47,464.02,366.43z
							"/>
					</defs>
					<clipPath id="SVGID_6_">
						<use xlink:href="#SVGID_5_"  style="overflow:visible;"/>
					</clipPath>
					<g class="st6">
						<line class="st5" x1="455.66" y1="361.11" x2="460.64" y2="439.25"/>
						<line class="st5" x1="458.15" y1="399.51" x2="483.52" y2="368.82"/>
						<line class="st5" x1="442.52" y1="437.45" x2="409.88" y2="381.3"/>
						<line class="st5" x1="434.67" y1="367.02" x2="430.21" y2="416.28"/>
						<line class="st5" x1="431.78" y1="441.28" x2="397.58" y2="412.72"/>
						<line class="st5" x1="410.29" y1="423.33" x2="395.51" y2="421.43"/>
						<line class="st5" x1="457.44" y1="389.01" x2="440.81" y2="361.11"/>
						<line class="st5" x1="501.76" y1="372.97" x2="463.05" y2="435.74"/>
						<line class="st5" x1="510.96" y1="381.3" x2="484.98" y2="400.18"/>
						<line class="st5" x1="525.1" y1="402.94" x2="486.12" y2="437.45"/>
						<line class="st5" x1="508.16" y1="417.94" x2="516.96" y2="394.61"/>
						<line class="st5" x1="496.79" y1="428" x2="535.55" y2="419.72"/>
					</g>
				</g>
			</g>
			<g>
				<path class="st0" d="M200.7,398.09c-19.65,2.35-35.28,21.99-35.81,34.96h71.61C236.51,414.6,222.44,395.48,200.7,398.09z"/>
				<g>
					<defs>
						<path id="SVGID_7_" d="M200.7,398.09c-19.65,2.35-35.28,21.99-35.81,34.96h71.61C236.51,414.6,222.44,395.48,200.7,398.09z"/>
					</defs>
					<clipPath id="SVGID_8_">
						<use xlink:href="#SVGID_7_"  style="overflow:visible;"/>
					</clipPath>
					<g class="st7">
						<line class="st1" x1="205.09" y1="395.3" x2="202.48" y2="436.31"/>
						<line class="st1" x1="203.78" y1="415.45" x2="197.22" y2="396.88"/>
						<line class="st1" x1="211.98" y1="435.36" x2="229.11" y2="405.89"/>
						<line class="st1" x1="216.1" y1="398.4" x2="218.44" y2="424.25"/>
						<line class="st1" x1="217.62" y1="437.37" x2="235.57" y2="422.38"/>
						<line class="st1" x1="228.9" y1="427.95" x2="236.66" y2="426.95"/>
						<line class="st1" x1="204.16" y1="409.94" x2="212.88" y2="395.3"/>
						<line class="st1" x1="179.16" y1="404.47" x2="197.22" y2="435.36"/>
						<line class="st1" x1="191.16" y1="399.2" x2="190.73" y2="424.25"/>
						<line class="st1" x1="168.65" y1="417.25" x2="189.1" y2="435.36"/>
						<line class="st1" x1="164.9" y1="425.17" x2="180.17" y2="427.45"/>
					</g>
				</g>
			</g>
		</g>
		<g>
			<g>
				<path class="st8" d="M426.04,433.05H311.48c-6.15,0-11.13-4.98-11.13-11.13v-223.2c0-6.15,4.98-11.13,11.13-11.13h114.56
					c6.15,0,11.13,4.98,11.13,11.13v223.2C437.17,428.07,432.19,433.05,426.04,433.05z"/>
				<g>
					<path class="st9" d="M373.66,420.07c0,2.7-2.19,4.9-4.9,4.9c-2.7,0-4.9-2.19-4.9-4.9c0-2.7,2.19-4.9,4.9-4.9
						C371.46,415.17,373.66,417.36,373.66,420.07z"/>
				</g>
				<rect x="304.01" y="205.1" class="st10" width="129.5" height="202.05"/>
				<line class="st11" x1="357" y1="195.81" x2="380.52" y2="195.81"/>
				<line class="st11" x1="348.29" y1="195.81" x2="352.63" y2="195.81"/>
				<g>
					<defs>
						<path id="SVGID_9_" d="M426.04,433.05H311.48c-6.15,0-11.13-4.98-11.13-11.13v-223.2c0-6.15,4.98-11.13,11.13-11.13h114.56
							c6.15,0,11.13,4.98,11.13,11.13v223.2C437.17,428.07,432.19,433.05,426.04,433.05z"/>
					</defs>
					<clipPath id="SVGID_10_">
						<use xlink:href="#SVGID_9_"  style="overflow:visible;"/>
					</clipPath>
					<g class="st12">
						<linearGradient id="SVGID_11_" gradientUnits="userSpaceOnUse" x1="467.4523" y1="197.5262" x2="262.2599" y2="402.7186">
							<stop  offset="0.2704" style="stop-color:#FFFFFF;stop-opacity:0.4"/>
							<stop  offset="1" style="stop-color:#FFFFFF;stop-opacity:0.2"/>
						</linearGradient>
						<polygon class="st13" points="401.17,161 298.78,439.24 328.54,439.24 430.93,161 						"/>
						<linearGradient id="SVGID_12_" gradientUnits="userSpaceOnUse" x1="493.5578" y1="201.8119" x2="296.9368" y2="398.4329">
							<stop  offset="0.2704" style="stop-color:#FFFFFF;stop-opacity:0.4"/>
							<stop  offset="1" style="stop-color:#FFFFFF;stop-opacity:0.2"/>
						</linearGradient>
						<polygon class="st14" points="440.13,161 337.75,439.24 350.36,439.24 452.75,161 						"/>
					</g>
				</g>
				<g>
					<defs>
						<rect id="SVGID_13_" x="304.01" y="205.1" width="129.5" height="202.05"/>
					</defs>
					<clipPath id="SVGID_14_">
						<use xlink:href="#SVGID_13_"  style="overflow:visible;"/>
					</clipPath>
					<path class="st15" d="M328.58,201.37h-60.23c-10.33,0-18.7,8.37-18.7,18.7v0c0,10.33,8.37,18.7,18.7,18.7h5.37l3.37,4.35
						l3.37-4.35h48.13c10.33,0,18.7-8.37,18.7-18.7v0C347.29,209.75,338.91,201.37,328.58,201.37z"/>
					<path class="st15" d="M365.88,229.51h60.23c10.33,0,18.7,8.37,18.7,18.7l0,0c0,10.33-8.37,18.7-18.7,18.7h-2.57l-3.37,4.35
						l-3.37-4.35h-50.93c-10.33,0-18.7-8.37-18.7-18.7l0,0C347.17,237.88,355.55,229.51,365.88,229.51z"/>
					<g class="st16">
						<path class="st17" d="M392.35,294.69h-62.34c-10.33,0-18.7,8.37-18.7,18.7l0,0c0,10.33,8.37,18.7,18.7,18.7h5.37l3.37,4.35
							l3.37-4.35h50.23c10.33,0,18.7-8.37,18.7-18.7l0,0C411.06,303.06,402.68,294.69,392.35,294.69z"/>
						<g>
							<line class="st18" x1="321.76" y1="303.78" x2="399.08" y2="303.78"/>
							<line class="st18" x1="344" y1="310.19" x2="399.08" y2="310.19"/>
							<line class="st18" x1="321.76" y1="310.19" x2="337.31" y2="310.19"/>
							<line class="st18" x1="380.54" y1="316.6" x2="399.08" y2="316.6"/>
							<line class="st18" x1="321.76" y1="316.6" x2="373.39" y2="316.6"/>
							<line class="st18" x1="321.76" y1="323.01" x2="361.56" y2="323.01"/>
						</g>
					</g>
					<g class="st16">
						<path class="st17" d="M347.63,354.39h62.34c10.33,0,18.7,8.37,18.7,18.7v0c0,10.33-8.37,18.7-18.7,18.7h-5.37l-3.37,4.35
							l-3.37-4.35h-50.23c-10.33,0-18.7-8.37-18.7-18.7v0C328.92,362.77,337.3,354.39,347.63,354.39z"/>
						<g>
							<line class="st18" x1="339.37" y1="363.48" x2="416.69" y2="363.48"/>
							<line class="st18" x1="373.95" y1="369.89" x2="416.69" y2="369.89"/>
							<line class="st18" x1="339.37" y1="369.89" x2="368.08" y2="369.89"/>
							<line class="st18" x1="402.58" y1="376.3" x2="416.69" y2="376.3"/>
							<line class="st18" x1="339.37" y1="376.3" x2="395.43" y2="376.3"/>
							<line class="st18" x1="339.37" y1="382.71" x2="387.84" y2="382.71"/>
						</g>
					</g>
				</g>
			</g>
			<line class="st19" x1="151.14" y1="433.05" x2="586.38" y2="433.05"/>
		</g>
		<g>
			<g>
				<g>
					<path class="st20" d="M284.11,251.04c-0.56-0.8-1.21-1.63-2.15-1.89c-0.27-0.07-0.55-0.1-0.82-0.1
						c-1.11-0.02-2.23,0.27-3.2,0.81c-0.27,0.15-0.54,0.34-0.76,0.57c-0.26,0.27-0.36,0.5-0.33,0.86c0.02,0.27,0.03,0.54,0.01,0.81
						c-0.03,0.42-0.12,0.82-0.21,1.23c-0.25,1.09-0.21,2.13,0.03,3.23c0.09,0.41,0.1,0.86-0.06,1.25c-0.14,0.34-0.41,0.6-0.66,0.87
						c-0.5,0.52-0.95,1.11-1.22,1.8c-0.27,0.69-0.33,1.48-0.06,2.17c0.14,0.36,0.37,0.67,0.54,1.02c0.44,0.87,0.5,1.93,0.2,2.86
						c-0.07,0.21,0.08,0.43,0.3,0.47c1.92,0.36,3.89,0.56,5.83,0.35c2.09-0.23,4.17-0.96,5.82-2.35"/>
				</g>
				<path class="st21" d="M277.82,248.9c-0.81,3.68-0.19,13.62,2.56,14.86c2.76,1.23,6.23-1.53,7.27-2.77
					c1.51-1.82,4.37-9.5,1.81-11.95C286.89,246.58,278.96,243.74,277.82,248.9z"/>
				<path class="st21" d="M284.1,261.52l2.02,7.31l-0.8,1.97c0,0-0.53,3.94,0.12,4.14c2.61,0.8,8.37-7.24,8.37-7.24l-4.61-10.52"/>
				<path class="st20" d="M291.38,249.51c-0.8-3.48-5.17-5.7-8.94-5.12c-3.08-0.89-9.08,2.36-6.4,8.75c0,0,2.38-2.2,5.43-5.12
					c1.93,6.05,9.25,9.1,9.25,9.1S292.35,253.72,291.38,249.51z"/>
				<g>
					<path class="st20" d="M281.57,244.58c2.77-3.7,9.45-1.29,11.2,0.57c1.98,2.11,2.76,4.23,5.05,5.63
						c1.06,0.65,2.37,1.07,2.96,2.16c0.8,1.5-0.18,3.61,0.88,4.95c0.45,0.56,2.6,2.29,2.6,5.08c-2.34,1.6-4.24,1.08-6.85,2.13
						c-1.89,0.76-4.49,2.01-6.61,2.36c-0.25,0.04-0.47-0.18-0.44-0.43c0.1-0.91,0.27-2.05-0.12-2.76c-0.2-0.37-0.54-0.65-0.78-0.99
						c-0.59-0.85-0.52-1.97-0.36-2.99c0.16-1.02,0.4-2.07,0.09-3.06c-0.29-0.91-1-1.61-1.75-2.2"/>
				</g>
				<g>
					<path class="st20" d="M288.68,244.08c-0.53,0.06-0.91-0.5-1.11-1.01c-0.26-0.66-0.42-1.4-0.2-2.08
						c0.52-1.57,2.62-1.67,3.82-0.88c1.04,0.68,1.8,2.21,0.96,3.34c-0.59,0.78-1.8,0.96-2.7,1.13"/>
				</g>
				<g>
					<path class="st21" d="M287.44,256.25c0.01-0.14,0.14-0.24,0.26-0.32c0.53-0.36,1.19-0.74,1.79-0.49
						c0.31,0.13,0.53,0.42,0.65,0.73c0.42,1.04,0.3,2.42-0.49,3.28c-0.71,0.76-2.57,1.28-2.88-0.13"/>
				</g>
				<path class="st22" d="M280.45,255.16c0,0-1.81,3.15-1.24,3.72s1.72,0.22,1.72,0.22"/>
				<g>
					<path class="st20" d="M282.69,255.05c-0.02,0.24,0.08,0.53,0.11,0.71c0.06,0.32,0.43,0.4,0.67,0.23
						c0.46-0.32,0.05-1.55-0.56-1.3C282.76,254.75,282.7,254.89,282.69,255.05z"/>
				</g>
				<g>
					<path class="st20" d="M278.03,255.05c-0.02,0.24,0.08,0.53,0.11,0.71c0.06,0.32,0.43,0.4,0.67,0.23
						c0.46-0.32,0.05-1.55-0.56-1.3C278.1,254.75,278.04,254.89,278.03,255.05z"/>
				</g>
				<path class="st23" d="M281.45,253.77c0,0,1.13-1.41,3.06,0"/>
				<path class="st23" d="M277.85,253.86c0.42-0.42,1.12-0.75,1.88-0.09"/>
				<path class="st10" d="M280.02,260.65l3.51-0.85c0,0-0.62,2.12-2.36,2.12C280.33,261.93,280.02,260.65,280.02,260.65z"/>
				<path class="st22" d="M284.68,263.62c0,0,2.35-0.77,3.28-2.76"/>
			</g>
			<path class="st24" d="M254.34,285.55c0,0-0.56,1.53,0.4,4.15c1.24,3.38,14.59,24.26,23.07,25.03c8.48,0.78,17-24.63,17-32.46
				c0-7.82-6.9-10.16-11.32-4.52c-4.42,5.64-9.52,25.25-9.52,25.25L254.34,285.55z"/>
			<g>
				<path class="st24" d="M263.08,292.4c-0.32-1.16-1.62-3.1-2.31-4.05c-0.39-0.53-1.72-2.38-2.48-2.02
					c-0.52,0.25,0.03,1.64,0.23,2.03c0.3,0.57,0.72,1.04,1.13,1.51"/>
			</g>
			<g>
				<g>
					<path class="st21" d="M263.03,413.89l-3.36,16.33c0,0-13.39,7.88-13.39,8.04c0,0.17,12.75,0.63,12.75,0.63l5.64-2.76h5.51
						c0.65,0,1.12-0.6,0.98-1.23l-1.15-5.03l5.97-17.19"/>
					<path class="st20" d="M247.19,436.37c2.01-1.17,9.54-4.89,9.54-4.89l7.89,4.64h6.81v3.93h-6.81v-2.97h-0.87
						c-0.3,0-0.6,0.1-0.84,0.29l-2.98,2.3c-0.32,0.25-0.72,0.38-1.13,0.38c0,0-10.78,0-12.54,0
						C244.52,440.06,244.13,438.16,247.19,436.37z"/>
					<g>
						<polygon class="st20" points="267.46,436.87 270.7,432.5 270.32,430.84 266.48,436.14 						"/>
					</g>
				</g>
				<path class="st25" d="M309.17,304.83c0,0,10.28,16.24-1.16,32.64c-4.63,6.63-20.17,34.3-20.17,34.3l-8.58,49.7h-22.67
					c0,0,7.27-49.23,10.54-58.11c3.27-8.88,23.71-50.56,23.71-50.56v-6.45"/>
				<path class="st26" d="M299.05,336.49c-4.63,6.63-18.36,35.28-18.36,35.28l-8.58,49.7"/>
				<path class="st27" d="M300.79,336.49c-4.63,6.63-18.36,35.28-18.36,35.28l-8.58,49.7"/>
				<g>
					<path class="st21" d="M295.99,401.89l11.51,11.6c0,0-6.36,13.94-6.27,14.07c0.09,0.14,10.65-6.71,10.65-6.71l3-5.42l4.45-3.12
						c0.52-0.37,0.57-1.12,0.1-1.55l-3.77-3.42l-9.89-13.77"/>
					<path class="st20" d="M300.91,425.52c0.96-2.08,4.94-9.35,4.94-9.35l9-0.71l5.5-3.85l2.22,3.17l-5.5,3.85l-1.68-2.4l-0.7,0.49
						c-0.25,0.17-0.43,0.42-0.52,0.71l-1.1,3.54c-0.12,0.38-0.36,0.72-0.69,0.95c0,0-8.71,6.1-10.13,7.09
						C300.83,430,299.44,428.69,300.91,425.52z"/>
					<g>
						<polygon class="st20" points="317.56,414.45 317.71,409.09 316.46,407.96 316.36,414.41 						"/>
					</g>
				</g>
				<path class="st28" d="M289.78,306.21l-0.83,6.59c0,0-27.21,33.35-27.21,47.42c0,13.74,30.7,48.01,30.7,48.01l17.2-13.09
					l-22.35-32c0,0,21.85-26.62,25.62-30.39c6.31-6.31,5.88-17.06-2.08-27.92"/>
				<path class="st26" d="M289.24,310.47c0,0,12.09,1.24,23.56-2.7"/>
				<line class="st29" x1="294.36" y1="310.66" x2="294.36" y2="306.77"/>
				<line class="st26" x1="309.49" y1="308.78" x2="308.16" y2="305.18"/>
				<path class="st26" d="M305.36,398.41l-22.4-32.34c-1.21-1.74-1.16-4.05,0.11-5.74c5.22-6.91,18.4-24.33,21.17-27.57
					c5.8-6.79,6.41-14.77,2.04-23.25"/>
				<g>
					<g>
						<line class="st26" x1="305.71" y1="395.63" x2="305.14" y2="394.81"/>
						<path class="st30" d="M304.28,393.56l-19.69-28.38c-0.84-1.21-0.81-2.83,0.08-4.01c4.67-6.19,18.93-25.04,21.81-28.42
							c5.44-6.36,6-14.03,2.44-21.96"/>
						<path class="st26" d="M308.6,310.12c-0.14-0.3-0.29-0.6-0.45-0.9"/>
					</g>
				</g>
				<path class="st26" d="M301.02,310.29c0,0,0.75,2.71,2.94,3.77c2.19,1.05,4.65,1.69,4.65,1.69"/>
				<path class="st26" d="M313.9,317.51c0,0,0.99-0.07,2.77-0.61"/>
				<path class="st26" d="M313.9,318.85c0,0,1.27-0.03,3.05-0.57"/>
				<polygon class="st31" points="289.84,405.25 292.95,409.6 310.71,395.68 307.33,391.85 				"/>
				<polygon class="st31" points="256.18,421.47 257.33,416.57 280.11,416.57 280.11,421.47 				"/>
			</g>
			<g>
				<path class="st20" d="M265.11,294.24c0.1,0.1,0.1,0.26,0,0.36l-0.6,0.61c-0.1,0.1-0.26,0.1-0.36,0l-11.9-11.74
					c-0.1-0.1-0.1-0.26,0-0.36l0.6-0.61c0.1-0.1,0.26-0.1,0.36,0"/>
				<line class="st32" x1="253.78" y1="284.06" x2="254.74" y2="285.01"/>
				<line class="st32" x1="255.12" y1="285.4" x2="255.27" y2="285.55"/>
			</g>
			<path class="st33" d="M307.4,277.89c-4.46-9.18-13.73-10.48-13.73-10.48s-7.36,6.03-8.37,3.39c-1.07,1.59-7.92,13.47-6.98,19.55
				c0.93,6.08,6.19,6.92,7.24,8.24c1.05,1.32,3.54,9.76,3.86,10.34c10.6-0.21,21.39-4.09,21.39-4.09S312.17,287.69,307.4,277.89z"/>
			<g>
				<path class="st21" d="M303.92,280.27c-1.86-7.1-7.8-10.87-13.03-8.99c-4.51,1.62-5.42,6.88-4.13,13.81
					c1.3,6.92,0.97,16.27,0.97,16.27s-16.28-6.02-19.34-7.24c-3.14-2.67-7.01-5.46-7.67-5.46c-0.66,0-0.33,1.09,0.56,1.99
					c0.93,0.93,2.44,2.29,1.18,2.18c-0.95-0.08-7.16-6.32-7.16-6.32c-0.52,0.52,0.09,1.97,0.09,1.97s0.1,2.39,2.04,4.6
					c13.48,15.33,29.36,26,39.4,22.34C306.29,311.97,304.58,282.8,303.92,280.27z"/>
				<g>
					<path class="st34" d="M260.03,293.59c-1.06-0.54-1.95-1.32-2.73-2.18c-0.77-0.87-1.46-1.83-1.89-2.94
						c0.91,0.76,1.68,1.6,2.45,2.44C258.61,291.77,259.36,292.61,260.03,293.59z"/>
				</g>
				<path class="st33" d="M305.2,281.44c-1.24-7.81-7.21-12.48-13.02-11.02c-5.01,1.26-6.54,6.81-5.89,14.37
					c0.19,2.22,0.38,4.66,0.56,7l18.34,2.16C305.57,287.73,305.37,282.49,305.2,281.44z"/>
				<path class="st35" d="M305.19,293.95c0.39-6.22,0.18-11.46,0.01-12.51c-1.24-7.81-7.21-12.48-13.02-11.02
					c-5.01,1.26-6.54,6.81-5.89,14.37c0.19,2.22,0.38,4.66,0.56,7"/>
			</g>
		</g>
		<g>
			<g>
				<g>
					<g>
						<path class="st20" d="M432.73,412.67l1.48-0.7l9.1,19.33c0.44,0.94,1.34,1.57,2.37,1.68l0.11,0.15l-2.39,1.12
							c-0.09,0.04-0.19,0.05-0.28,0.02l-0.09-0.03c-0.6-0.19-1.08-0.62-1.35-1.19l-9.23-19.61
							C432.32,413.15,432.44,412.8,432.73,412.67z"/>
						<path class="st21" d="M458.37,389.13l-16.85,20.26l-6.16,3.67l8.75,18.59c0.29,0.62,1.03,0.88,1.65,0.59l0,0
							c0.46-0.22,0.74-0.7,0.71-1.21l-0.89-12.34l18.45-15.17"/>
						<path class="st28" d="M446.42,417.76l0.39,13.92c0.02,0.58-0.36,1.14-0.94,1.41l0,0c-0.78,0.36-1.78-0.14-2.1-0.82l-9.55-20.3
							l7.55-2.72C441.76,409.25,441.03,413.93,446.42,417.76z"/>
						<path class="st36" d="M447.06,420.46c-1.15-0.26-2.33-0.38-3.51-0.36"/>
						<path class="st36" d="M446.87,422.33c-1.25-0.24-1.91-0.26-2.96-0.26"/>
						<path class="st36" d="M446.8,423.86c-0.83-0.17-1.87-0.19-2.71-0.23"/>
					</g>
					<path class="st37" d="M467.25,318.12l2.42,5.59c0.79,1.82,1.95,3.44,3.43,4.76c6.62,5.95,23.37,29.35,23.55,39.21
						c0.22,11.92-36.38,50.32-36.38,50.32l-14.29-16.03l28.77-34.33l-24.98-23.86c0,0-11.41-4.02-6.81-24.44"/>
					<path class="st38" d="M450.18,401.9l26.93-33.48c0.99-1.08,0.86-2.77-0.28-3.69l-22.9-22.99c0,0-11.41-4.18-6.83-25.38"/>
					<path class="st39" d="M450.1,404.36l28.58-35.14c1.4-1.54,1.22-3.95-0.4-5.26c0,0-24.43-23.96-24.51-24
						c-1.21-0.52-8.64-4.78-4.34-24.68"/>
					<polygon class="st40" points="448.53,399.04 443.81,403.42 459.25,419.39 463.59,414.79 					"/>
				</g>
				<g>
					<g>
						<path class="st20" d="M478.21,439.48v-1.64h21.36c1.04,0,2-0.54,2.53-1.43l0.18-0.03v2.64c0,0.1-0.04,0.19-0.1,0.26
							l-0.06,0.07c-0.43,0.46-1.03,0.72-1.65,0.72h-21.67C478.47,440.06,478.21,439.8,478.21,439.48z"/>
						<path class="st21" d="M470.17,409.48l8.82,20.65l0.7,7.14h20.55c0.68,0,1.24-0.55,1.24-1.24l0,0c0-0.51-0.31-0.97-0.79-1.15
							l-11.55-4.45l-5.87-23.16"/>
						<path class="st28" d="M488.65,429.27l12.76,5.58c0.53,0.23,0.88,0.81,0.88,1.45l0,0c0,0.86-0.88,1.55-1.64,1.55h-22.43
							l0.75-7.99C478.96,429.85,482.89,432.5,488.65,429.27z"/>
						<path class="st36" d="M491.37,429.83c-0.72,0.93-1.33,1.95-1.82,3.02"/>
						<path class="st36" d="M492.98,430.8c-0.75,1.02-1.05,1.62-1.5,2.57"/>
						<path class="st36" d="M494.33,431.51c-0.51,0.67-0.96,1.61-1.36,2.36"/>
					</g>
					<path class="st20" d="M434.72,321.89c0,0-0.9,12.62,4.66,24.54c5.56,11.92,28.03,81.13,28.03,81.13l19.94-8.57l-24.19-82.37
						c0,0-0.8-10.28-4.95-23.81"/>
					<path class="st41" d="M472.99,425.16l-27.64-78.85c0,0-5.62-9.81-5.62-17.29"/>
					<path class="st42" d="M471.43,425.83l-28.31-79.52c0,0-5.62-9.81-5.62-17.29"/>
					<polygon class="st43" points="465.68,422.27 467.6,428.45 487.93,420.27 486.05,414.58 					"/>
				</g>
				<path class="st41" d="M441.33,337.79c0,0,5.65-2.83,7.11-9.25"/>
				<path class="st44" d="M463.21,338.79c0,0,2.25-2.58,2.03-4.69c-0.59-5.81-2.03-13.17-2.03-13.17"/>
			</g>
			<g>
				<path class="st21" d="M491.26,284.48l-4.99-5.07c0,0,4.67-11.73,5.19-11.61c1.07,0.23-0.86,5.22-0.86,5.22s2.74-5.33,3.12-4.98
					c0.69,0.63-1.29,6.09-1.29,6.09s2.39-5.28,2.85-4.72c0.47,0.56-1.71,8.75-1.71,8.75L491.26,284.48z"/>
				<path class="st21" d="M485.31,279.95l0.93-1.81c0,0,0.29-3.08,1.08-5.33c0.79-2.25,1.37-3.33,1.79-3.33c0.42,0,0,3.5,0,3.5
					s0.72,3.01-0.32,4.97"/>
				<g>
					<path class="st45" d="M491.55,279.27l-3.47-3.25c-0.15-0.13-0.2-0.35-0.12-0.55l3.95-10.37c0,0,0.18,0.05,0.31,0.08
						c0.07,0.02,0.16,0.04,0.22,0.09l3.8,3.31c0.15,0.13,0.2,0.35,0.12,0.55l-3.95,10c-0.06,0.15-0.19,0.24-0.32,0.24L491.55,279.27
						z"/>
					<path class="st20" d="M491.44,279.2l-3.76-3.28c-0.15-0.13-0.2-0.35-0.12-0.55l3.97-10.06c0.09-0.22,0.34-0.29,0.51-0.14
						l3.8,3.31c0.15,0.13,0.2,0.35,0.12,0.55l-3.95,10C491.91,279.29,491.63,279.37,491.44,279.2z"/>
					<polygon class="st46" points="487.83,274.66 492.23,278.49 495.68,269.74 491.29,265.91 					"/>
					<path class="st46" d="M489.8,276.99c-0.03,0.14-0.14,0.2-0.25,0.15c-0.1-0.06-0.16-0.22-0.12-0.36
						c0.03-0.14,0.14-0.2,0.25-0.15C489.78,276.7,489.83,276.86,489.8,276.99z"/>
					<line class="st47" x1="493.24" y1="266.87" x2="494.01" y2="267.56"/>
					<g>
						<path class="st48" d="M490.99,268.58c-0.03,0.13-0.14,0.19-0.23,0.14c-0.1-0.05-0.15-0.21-0.12-0.34
							c0.03-0.13,0.14-0.19,0.23-0.14C490.97,268.3,491.02,268.45,490.99,268.58z"/>
						<path class="st49" d="M494.56,270.04l-2.32-2.02c-0.25-0.22-0.62-0.11-0.75,0.2l-0.28,0.74l-0.23,0.04l2.83,2.45
							c0.25,0.22,0.62,0.11,0.75-0.2l0.18-0.45C494.84,270.54,494.77,270.23,494.56,270.04z"/>
						<line class="st47" x1="491.95" y1="268.51" x2="494.28" y2="270.54"/>
						<line class="st47" x1="491.74" y1="269.07" x2="493.08" y2="270.23"/>
					</g>
					<g>
						<path class="st48" d="M488.73,273.96c-0.03,0.13-0.14,0.19-0.23,0.14c-0.1-0.05-0.15-0.21-0.12-0.34
							c0.03-0.13,0.14-0.19,0.23-0.14C488.71,273.68,488.77,273.83,488.73,273.96z"/>
						<path class="st49" d="M492.31,275.42l-2.32-2.02c-0.25-0.22-0.62-0.11-0.75,0.2l-0.28,0.74l-0.23,0.04l2.83,2.45
							c0.25,0.22,0.62,0.11,0.75-0.2l0.18-0.45C492.59,275.91,492.52,275.6,492.31,275.42z"/>
						<line class="st47" x1="489.69" y1="273.89" x2="492.03" y2="275.91"/>
						<line class="st47" x1="489.48" y1="274.44" x2="490.82" y2="275.61"/>
					</g>
					<g>
						<path class="st48" d="M493.64,274.32c-0.03,0.13-0.14,0.19-0.23,0.14c-0.1-0.05-0.15-0.21-0.12-0.34
							c0.03-0.13,0.14-0.19,0.23-0.14C493.62,274.04,493.67,274.19,493.64,274.32z"/>
						<path class="st49" d="M493.21,272.48l-2.51-2.18c-0.21-0.18-0.52-0.09-0.62,0.17l-0.27,0.7c-0.07,0.19-0.02,0.41,0.12,0.54
							l3.08,2.67l-0.08-0.37l0.39-0.98C493.41,272.83,493.36,272.6,493.21,272.48z"/>
						<line class="st47" x1="490.5" y1="270.85" x2="492.83" y2="272.88"/>
						<line class="st47" x1="490.28" y1="271.41" x2="491.62" y2="272.57"/>
						<line class="st47" x1="491.82" y1="272.76" x2="492.34" y2="273.21"/>
					</g>
					<g>
						<defs>
							<path id="SVGID_15_" d="M491.44,279.2l-3.76-3.28c-0.15-0.13-0.2-0.35-0.12-0.55l3.97-10.06c0.09-0.22,0.34-0.29,0.51-0.14
								l3.8,3.31c0.15,0.13,0.2,0.35,0.12,0.55l-3.95,10C491.91,279.29,491.63,279.37,491.44,279.2z"/>
						</defs>
						<clipPath id="SVGID_16_">
							<use xlink:href="#SVGID_15_"  style="overflow:visible;"/>
						</clipPath>
						
							<linearGradient id="SVGID_17_" gradientUnits="userSpaceOnUse" x1="591.6815" y1="116.2929" x2="598.4972" y2="104.4876" gradientTransform="matrix(-0.9735 -0.2288 0.2288 -0.9735 1045.8782 516.2875)">
							<stop  offset="0" style="stop-color:#FFFFFF;stop-opacity:0.6"/>
							<stop  offset="0.8878" style="stop-color:#FFFFFF;stop-opacity:0.1"/>
						</linearGradient>
						<polygon class="st50" points="495.78,267.03 496.64,267.89 487.86,278.3 486.99,277.44 						"/>
						
							<linearGradient id="SVGID_18_" gradientUnits="userSpaceOnUse" x1="592.3685" y1="117.4454" x2="599.1722" y2="105.661" gradientTransform="matrix(-0.9735 -0.2288 0.2288 -0.9735 1045.8782 516.2875)">
							<stop  offset="0" style="stop-color:#FFFFFF;stop-opacity:0.6"/>
							<stop  offset="0.8878" style="stop-color:#FFFFFF;stop-opacity:0.1"/>
						</linearGradient>
						<polygon class="st51" points="495.71,266.07 495.92,266.28 487.13,276.69 486.92,276.47 						"/>
					</g>
				</g>
				<path class="st21" d="M470.68,286.84l4.93,7.91l10.63-16.6c0,0,7.59,0.71,6.72,4.46c-4.22,10.64-7.65,26.82-15.94,27.63
					c-9.1,0.9-20.71-16.12-20.71-16.12"/>
				<path class="st22" d="M475.61,294.75c0,0-2.2,3.05-3.83,7.55"/>
				<path class="st21" d="M492.09,284.73c0,0,3.06-7.45,3.43-8.87c0.37-1.42,1.35-5.32,0.73-5.32c-0.62,0-2.1,3.74-2.27,4.37
					c-1.25,0.67-3.02,1.87-3,4.04"/>
				<path class="st52" d="M451.59,265.91c0,0,10.4,0.97,21.88,24.23c-2.25,3.27-13.93,10.18-17.16,10.12
					c-3.5-5.11-6.79-18.2-6.79-18.2"/>
			</g>
			<g>
				<path class="st52" d="M461.85,286.32c-3.23-12.77-8.1-18.9-8.1-18.9l-10.67-3.06l-8.64,10.73c-8.68,26.38-0.38,55.4-0.38,55.4
					c5.98,2.55,30.77-2.64,36.81-8.68C470.87,321.8,464.58,297.08,461.85,286.32z"/>
				<path class="st53" d="M464.5,296.88c0,0-4.53-20.1-6.85-23.9"/>
			</g>
			<g>
				<path class="st21" d="M424.02,284.48c0,0-5.22,14.05-3.84,22.29c2.12,12.67,22.53,24.77,22.53,24.77s-0.69,3.41,0.75,5.02
					c3.59-2.68,4.74-5.94,4.74-5.94l-1.71-2.84c0,0-11.19-17.61-10.86-23.41c0.23-4.1,6.59-24.47,6.59-24.47"/>
				<path class="st52" d="M443.08,264.36c0,0-11.34,3.18-16.14,11.78c-5.82,10.42-6.97,19.28-6.97,19.28
					c4.96,4.96,14.97,7.12,20.46,5.98l3.91-19.94"/>
				<line class="st53" x1="440.43" y1="301.4" x2="444.03" y2="283.03"/>
			</g>
			<g>
				<path class="st21" d="M454.83,258.58l-5.75-9.98l-4.52,7.97l0.3,1.83l-1.78,5.96c1.78,5.28,9.14,5.87,10.67,3.06L454.83,258.58"
					/>
				<path class="st21" d="M459.91,245.19c0.94,3.55,1.19,15.61-1.66,16.89c-2.85,1.27-8.61,0.06-10.29-2.1
					c-1.46-1.87-2.84-11.9-0.21-14.35C450.37,243.18,458.59,240.21,459.91,245.19z"/>
				<g>
					<path class="st20" d="M451.2,247.52c2.68,0.46,5.02-0.28,7.1-0.96c2.08-0.68,4.04-2,5.05-3.94c0.84-1.62,0.9-3.9-1.15-4.8
						c-0.49-0.21-1.04-0.29-1.57-0.26c-1.71,0.12-3.07,1.16-4.37,2.17c0.54-2.69-4.54-1.45-5.6-0.49c-0.33,0.31-0.55,0.7-0.95,0.94
						c-1.21,0.72-2.74,0.77-4.02,1.33c-1.59,0.69-2.84,2.1-3.34,3.75c-0.42,1.38-0.93,3.68,0.19,5.34c0.54,0.79,1.06,1.66,1.21,2.6
						l0.89,3.83c0,0,1.8-1.29,2-1.45c0.71-0.56,0.97-1.29,1.54-1.98C449.63,251.86,450.61,249.32,451.2,247.52z"/>
				</g>
				<g>
					<path class="st21" d="M449.43,252.72c-0.35-0.63-0.8-1.34-1.46-1.4c-0.34-0.03-0.67,0.13-0.92,0.37
						c-1.27,1.22-1.37,3.56-0.04,4.78c0.56,0.51,1.34,0.75,1.86,0.04l0.67-3.34C449.58,253.02,449.5,252.86,449.43,252.72z"/>
				</g>
				<path class="st22" d="M454.34,262.76c0,0-4.61-0.17-6.54-3.02"/>
				<path class="st22" d="M457.53,251c0,0,1.87,3.19,1.29,4.06c-0.58,0.88-2.11,0.35-2.11,0.35"/>
				<g>
					<path class="st20" d="M455.25,250.88c0.08,0.23,0.06,0.53,0.07,0.71c0.02,0.33-0.33,0.5-0.63,0.41
						c-0.55-0.18-0.45-1.49,0.23-1.41C455.11,250.62,455.2,250.73,455.25,250.88z"/>
				</g>
				<g>
					<path class="st20" d="M459.85,250.88c0.08,0.23,0.06,0.53,0.07,0.71c0.02,0.33-0.33,0.5-0.63,0.41
						c-0.55-0.18-0.45-1.49,0.23-1.41C459.7,250.62,459.79,250.73,459.85,250.88z"/>
				</g>
				<path class="st10" d="M458.43,257.84l-4.74-1.35c0,0-0.19,3.61,2.68,4.14C458.11,260.96,458.43,257.84,458.43,257.84z"/>
				<g>
					<path class="st20" d="M455.62,249.14c-0.91,0.01-1.88,0.22-2.69,0.56c-0.09-0.05-0.33-0.48-0.19-0.74
						c0.11-0.2,1.53-0.69,2.82-0.67C455.57,248.3,455.8,249.02,455.62,249.14z"/>
				</g>
				<g>
					<path class="st20" d="M458.17,249.09c0.65,0.01,1.32,0.21,1.83,0.53c0.08-0.05,0.24-0.4,0.19-0.65
						c-0.04-0.19-0.97-0.66-1.91-0.63C458.28,248.35,458.06,248.98,458.17,249.09z"/>
				</g>
				<path class="st22" d="M446.45,255.74c0,0,0.93,1.4,2.19,1.01"/>
			</g>
		</g>
		<g>
			<g>
				<g>
					<line class="st54" x1="418.06" y1="315.67" x2="418.06" y2="318.91"/>
					<line class="st54" x1="419.68" y1="317.29" x2="416.44" y2="317.29"/>
				</g>
				<g>
					<line class="st54" x1="515.64" y1="297.54" x2="515.64" y2="300.78"/>
					<line class="st54" x1="517.26" y1="299.16" x2="514.02" y2="299.16"/>
				</g>
				<g>
					<line class="st54" x1="229.45" y1="225.92" x2="229.45" y2="229.16"/>
					<line class="st54" x1="231.07" y1="227.54" x2="227.83" y2="227.54"/>
				</g>
				<g>
					<line class="st54" x1="363.39" y1="163.85" x2="363.39" y2="167.09"/>
					<line class="st54" x1="365.02" y1="165.47" x2="361.77" y2="165.47"/>
				</g>
				<path class="st54" d="M345.04,178.26c0,0.85-0.69,1.55-1.55,1.55c-0.85,0-1.55-0.69-1.55-1.55c0-0.85,0.69-1.55,1.55-1.55
					C344.34,176.71,345.04,177.41,345.04,178.26z"/>
				<path class="st54" d="M391.71,217.2c0,0.85-0.69,1.55-1.55,1.55c-0.85,0-1.55-0.69-1.55-1.55s0.69-1.55,1.55-1.55
					C391.02,215.65,391.71,216.35,391.71,217.2z"/>
				<circle class="st54" cx="478.32" cy="262.27" r="1.55"/>
				<path class="st54" d="M202.25,351.63c0,0.85-0.69,1.55-1.55,1.55c-0.85,0-1.55-0.69-1.55-1.55c0-0.85,0.69-1.55,1.55-1.55
					C201.56,350.08,202.25,350.78,202.25,351.63z"/>
				<circle class="st54" cx="263.79" cy="322.33" r="1.55"/>
				<path class="st54" d="M216.76,217.2c0,0.85-0.69,1.55-1.55,1.55c-0.85,0-1.55-0.69-1.55-1.55s0.69-1.55,1.55-1.55
					C216.07,215.65,216.76,216.35,216.76,217.2z"/>
				<g>
					<line class="st54" x1="220.13" y1="312.6" x2="237.61" y2="312.6"/>
					<line class="st54" x1="242.94" y1="312.6" x2="250.74" y2="312.6"/>
				</g>
				<g>
					<line class="st54" x1="477.03" y1="252.09" x2="494.52" y2="252.09"/>
					<line class="st54" x1="499.84" y1="252.09" x2="507.64" y2="252.09"/>
				</g>
				<g>
					<line class="st54" x1="399.61" y1="167.09" x2="417.09" y2="167.09"/>
					<line class="st54" x1="422.41" y1="167.09" x2="430.21" y2="167.09"/>
				</g>
				<g>
					<line class="st54" x1="310.48" y1="176.08" x2="298.61" y2="176.08"/>
					<line class="st54" x1="294.69" y1="176.08" x2="288.29" y2="176.08"/>
				</g>
				<g>
					<line class="st54" x1="263.48" y1="245.65" x2="248.8" y2="245.65"/>
					<line class="st54" x1="246.28" y1="245.65" x2="241.28" y2="245.65"/>
				</g>
				<line class="st54" x1="256.52" y1="252.09" x2="269.3" y2="252.09"/>
				<line class="st54" x1="504.05" y1="247.41" x2="516.83" y2="247.41"/>
				<line class="st54" x1="387.31" y1="179.62" x2="400.09" y2="179.62"/>
				<line class="st54" x1="524.45" y1="329.08" x2="537.23" y2="329.08"/>
			</g>
			<g>
				<g>
					<path class="st55" d="M230.13,277.35c-0.31-1.96-1.89-3.57-3.85-3.9c-2.23-0.38-4.22,0.81-5.1,2.64
						c-0.87-1.83-2.86-3.02-5.1-2.64c-1.96,0.33-3.54,1.94-3.85,3.9c-0.25,1.61,0.31,3.1,1.33,4.12l6.75,6.75
						c0.48,0.48,1.26,0.48,1.74,0l6.75-6.75C229.82,280.44,230.38,278.96,230.13,277.35z"/>
				</g>
				<g>
					<line class="st54" x1="221.18" y1="264.31" x2="221.18" y2="266.96"/>
					<line class="st54" x1="221.18" y1="292.82" x2="221.18" y2="295.48"/>
					<line class="st54" x1="236.77" y1="279.89" x2="234.11" y2="279.89"/>
					<line class="st54" x1="208.25" y1="279.89" x2="205.6" y2="279.89"/>
					<line class="st54" x1="210.16" y1="268.87" x2="212.04" y2="270.75"/>
					<line class="st54" x1="230.32" y1="289.03" x2="232.2" y2="290.91"/>
					<line class="st54" x1="232.2" y1="268.87" x2="230.32" y2="270.75"/>
					<line class="st54" x1="212.04" y1="289.03" x2="210.16" y2="290.91"/>
					<line class="st54" x1="215.22" y1="265.49" x2="216.23" y2="267.95"/>
					<line class="st54" x1="226.13" y1="291.83" x2="227.14" y2="294.29"/>
					<line class="st54" x1="235.58" y1="273.93" x2="233.12" y2="274.94"/>
					<line class="st54" x1="209.24" y1="284.84" x2="206.78" y2="285.85"/>
					<line class="st54" x1="206.78" y1="273.93" x2="209.24" y2="274.94"/>
					<line class="st54" x1="233.12" y1="284.84" x2="235.58" y2="285.85"/>
					<line class="st54" x1="227.14" y1="265.49" x2="226.13" y2="267.95"/>
					<line class="st54" x1="216.23" y1="291.83" x2="215.22" y2="294.29"/>
				</g>
			</g>
			<g>
				<g>
					<path class="st55" d="M512.99,321.34c-0.31-1.96-1.89-3.57-3.85-3.9c-2.23-0.38-4.22,0.81-5.1,2.64
						c-0.87-1.83-2.86-3.02-5.1-2.64c-1.96,0.33-3.54,1.94-3.85,3.9c-0.25,1.61,0.31,3.1,1.33,4.12l6.75,6.75
						c0.48,0.48,1.26,0.48,1.74,0l6.75-6.75C512.69,324.43,513.25,322.94,512.99,321.34z"/>
				</g>
				<g>
					<line class="st54" x1="504.05" y1="308.29" x2="504.05" y2="310.95"/>
					<line class="st54" x1="504.05" y1="336.81" x2="504.05" y2="339.46"/>
					<line class="st54" x1="519.63" y1="323.88" x2="516.97" y2="323.88"/>
					<line class="st54" x1="491.12" y1="323.88" x2="488.46" y2="323.88"/>
					<line class="st54" x1="493.03" y1="312.86" x2="494.91" y2="314.74"/>
					<line class="st54" x1="513.19" y1="333.02" x2="515.07" y2="334.9"/>
					<line class="st54" x1="515.07" y1="312.86" x2="513.19" y2="314.74"/>
					<line class="st54" x1="494.91" y1="333.02" x2="493.03" y2="334.9"/>
					<line class="st54" x1="498.08" y1="309.48" x2="499.1" y2="311.93"/>
					<line class="st54" x1="508.99" y1="335.82" x2="510.01" y2="338.28"/>
					<line class="st54" x1="518.45" y1="317.91" x2="515.99" y2="318.93"/>
					<line class="st54" x1="492.1" y1="328.82" x2="489.65" y2="329.84"/>
					<line class="st54" x1="489.65" y1="317.91" x2="492.1" y2="318.93"/>
					<line class="st54" x1="515.99" y1="328.82" x2="518.45" y2="329.84"/>
					<line class="st54" x1="510.01" y1="309.48" x2="508.99" y2="311.93"/>
					<line class="st54" x1="499.1" y1="335.82" x2="498.08" y2="338.28"/>
				</g>
			</g>
			<g>
				<g>
					<path class="st55" d="M463.63,186.08c-0.2-1.29-1.25-2.35-2.54-2.57c-1.47-0.25-2.78,0.53-3.36,1.74
						c-0.57-1.2-1.89-1.99-3.36-1.74c-1.29,0.22-2.34,1.28-2.54,2.57c-0.17,1.06,0.2,2.04,0.88,2.71l4.45,4.45
						c0.32,0.32,0.83,0.32,1.14,0l4.45-4.45C463.43,188.12,463.79,187.14,463.63,186.08z"/>
				</g>
				<g>
					<line class="st54" x1="457.73" y1="177.48" x2="457.73" y2="179.23"/>
					<line class="st54" x1="457.73" y1="196.27" x2="457.73" y2="198.02"/>
					<line class="st54" x1="468" y1="187.75" x2="466.25" y2="187.75"/>
					<line class="st54" x1="449.21" y1="187.75" x2="447.46" y2="187.75"/>
					<line class="st54" x1="450.47" y1="180.49" x2="451.7" y2="181.73"/>
					<line class="st54" x1="463.76" y1="193.78" x2="464.99" y2="195.02"/>
					<line class="st54" x1="464.99" y1="180.49" x2="463.76" y2="181.73"/>
					<line class="st54" x1="451.7" y1="193.78" x2="450.47" y2="195.02"/>
					<line class="st54" x1="453.8" y1="178.26" x2="454.47" y2="179.88"/>
					<line class="st54" x1="460.99" y1="195.62" x2="461.66" y2="197.24"/>
					<line class="st54" x1="467.22" y1="183.82" x2="465.6" y2="184.49"/>
					<line class="st54" x1="449.86" y1="191.01" x2="448.24" y2="191.68"/>
					<line class="st54" x1="448.24" y1="183.82" x2="449.86" y2="184.49"/>
					<line class="st54" x1="465.6" y1="191.01" x2="467.22" y2="191.68"/>
					<line class="st54" x1="461.66" y1="178.26" x2="460.99" y2="179.88"/>
					<line class="st54" x1="454.47" y1="195.62" x2="453.8" y2="197.24"/>
				</g>
			</g>
			<g>
				<g>
					<circle class="st56" cx="330.05" cy="355.36" r="10.03"/>
					<g>
						<path class="st57" d="M341.05,359.2c0.22-0.65-0.02-1.4-0.57-1.81c-0.63-0.47-1.43-0.42-1.99,0.01
							c0.02-0.7-0.4-1.38-1.15-1.62c-0.66-0.21-1.4,0.04-1.81,0.59c-0.33,0.46-0.4,1-0.24,1.48l1.01,3.15
							c0.07,0.22,0.31,0.35,0.53,0.27l3.15-1.01C340.47,360.1,340.88,359.73,341.05,359.2z"/>
					</g>
				</g>
				<ellipse class="st52" cx="326.57" cy="355.36" rx="0.93" ry="1.53"/>
				<g>
					<path class="st52" d="M324.14,352.91c-0.05,0-0.1-0.01-0.15-0.03c-0.18-0.08-0.25-0.29-0.17-0.47
						c0.04-0.09,1.05-2.17,3.68-2.17c0.19,0,0.35,0.16,0.35,0.35c0,0.19-0.16,0.35-0.35,0.35c-2.18,0-3.03,1.75-3.04,1.77
						C324.4,352.84,324.27,352.91,324.14,352.91z"/>
				</g>
				<g>
					<path class="st52" d="M336.43,353.49c-0.1,0-0.2-0.04-0.26-0.12c-0.05-0.06-1.32-1.47-3.4-0.89c-0.19,0.05-0.38-0.06-0.43-0.24
						c-0.05-0.19,0.06-0.38,0.24-0.43c2.53-0.7,4.06,1.04,4.12,1.11c0.13,0.15,0.11,0.37-0.04,0.49
						C336.59,353.46,336.51,353.49,336.43,353.49z"/>
				</g>
				<g>
					<path class="st52" d="M332.79,355.71c-0.07,0-0.15-0.02-0.21-0.07c-0.16-0.11-0.19-0.33-0.07-0.49
						c1.04-1.41,2.59-0.96,3.26-0.53c0.16,0.11,0.21,0.32,0.1,0.48c-0.1,0.16-0.32,0.21-0.48,0.1c-0.14-0.09-1.42-0.85-2.31,0.36
						C333.01,355.66,332.9,355.71,332.79,355.71z"/>
				</g>
				<g>
					<path class="st52" d="M330.43,362.2c-0.1,0-0.21-0.05-0.27-0.13c-0.12-0.15-0.1-0.37,0.06-0.49l1.02-0.81l-0.64-0.28
						c-0.11-0.05-0.18-0.14-0.21-0.26c-0.02-0.12,0.02-0.23,0.1-0.31l0.65-0.64l-1.21-0.47c-0.18-0.07-0.27-0.27-0.2-0.45
						c0.07-0.18,0.27-0.27,0.45-0.2l1.72,0.66c0.11,0.04,0.19,0.14,0.22,0.26c0.02,0.12-0.01,0.24-0.1,0.32l-0.66,0.65l0.7,0.3
						c0.11,0.05,0.19,0.15,0.21,0.28c0.02,0.12-0.03,0.24-0.13,0.32l-1.48,1.17C330.59,362.18,330.51,362.2,330.43,362.2z"/>
				</g>
			</g>
			<g>
				<g>
					<g>
						<circle class="st56" cx="393.39" cy="278.15" r="12.76"/>
					</g>
				</g>
				<g>
					<path class="st52" d="M393.39,285.45c-2.21,0-3.15-1.68-3.34-2.58c-0.06-0.27,0.12-0.54,0.39-0.6c0.28-0.06,0.54,0.12,0.6,0.39
						c0.02,0.07,0.42,1.77,2.35,1.77c1.95,0,2.33-1.7,2.35-1.77c0.06-0.27,0.32-0.45,0.6-0.39c0.28,0.06,0.45,0.33,0.39,0.6
						C396.55,283.76,395.6,285.45,393.39,285.45z"/>
				</g>
				<g>
					<g>
						<g>
							<path class="st52" d="M385.72,275.28c-0.16,0-0.31-0.07-0.41-0.21c-0.16-0.23-0.12-0.54,0.11-0.71
								c1.09-0.8,3.78-1.84,6.1-0.02c0.22,0.17,0.26,0.49,0.09,0.71c-0.18,0.22-0.49,0.26-0.72,0.09c-2.29-1.79-4.76-0.03-4.87,0.04
								C385.93,275.25,385.83,275.28,385.72,275.28z"/>
						</g>
						<g>
							<path class="st52" d="M390.35,278.66c-0.15,0-0.31-0.07-0.41-0.21c-1.1-1.49-2.68-0.55-2.85-0.44
								c-0.24,0.15-0.55,0.08-0.7-0.15c-0.15-0.24-0.09-0.55,0.15-0.7c0.87-0.57,2.87-1.15,4.23,0.69c0.17,0.23,0.12,0.54-0.11,0.71
								C390.56,278.62,390.45,278.66,390.35,278.66z"/>
						</g>
					</g>
					<g>
						<g>
							<path class="st52" d="M401.06,275.28c-0.11,0-0.21-0.03-0.3-0.1c-0.11-0.08-2.58-1.83-4.87-0.04
								c-0.22,0.17-0.54,0.13-0.72-0.09c-0.17-0.22-0.13-0.54,0.09-0.71c2.32-1.81,5.01-0.78,6.1,0.02
								c0.23,0.17,0.28,0.48,0.11,0.71C401.38,275.21,401.22,275.28,401.06,275.28z"/>
						</g>
						<g>
							<path class="st52" d="M396.44,278.66c-0.11,0-0.21-0.03-0.3-0.1c-0.23-0.17-0.27-0.49-0.11-0.71
								c1.36-1.84,3.36-1.25,4.23-0.69c0.23,0.15,0.3,0.47,0.15,0.7c-0.15,0.23-0.47,0.31-0.7,0.15c-0.18-0.11-1.76-1.06-2.86,0.44
								C396.75,278.59,396.6,278.66,396.44,278.66z"/>
						</g>
					</g>
				</g>
			</g>
			<g>
				<path class="st58" d="M319.13,195.95h-58.42c-10.02,0-18.14,8.12-18.14,18.14v0c0,10.02,8.12,18.14,18.14,18.14h5.21l3.27,4.22
					l3.27-4.22h46.68c10.02,0,18.14-8.12,18.14-18.14v0C337.27,204.07,329.15,195.95,319.13,195.95z"/>
				<g>
					<circle class="st59" cx="259.57" cy="214.09" r="11.23"/>
					
						<ellipse transform="matrix(0.2298 -0.9732 0.9732 0.2298 -8.4319 417.5294)" class="st55" cx="259.57" cy="214.09" rx="8.64" ry="8.64"/>
				</g>
				<g>
					<defs>
						
							<ellipse id="SVGID_19_" transform="matrix(0.2298 -0.9732 0.9732 0.2298 -8.4319 417.5294)" cx="259.57" cy="214.09" rx="8.64" ry="8.64"/>
					</defs>
					<clipPath id="SVGID_20_">
						<use xlink:href="#SVGID_19_"  style="overflow:visible;"/>
					</clipPath>
					<g class="st60">
						<g>
							<path class="st20" d="M256.12,208.63c1.77-1.61,5.17-2.01,6.53-0.05c0.6,0.87,0.73,2.09,1.53,2.77
								c0.27,0.23,0.6,0.39,0.8,0.68c0.33,0.49,0.17,1.17-0.05,1.72c-0.22,0.56-0.48,1.16-0.32,1.73c0.12,0.4,0.45,0.77,0.39,1.18
								c-0.08,0.56-0.77,0.75-1.32,0.79c-0.45,0.03-0.9,0.05-1.35,0.02c-0.69-0.05-1.37-0.22-2.06-0.19
								c-0.84,0.04-1.65,0.37-2.47,0.54c-0.89,0.18-1.82,0.17-2.71-0.03c-0.53-0.12-1.14-0.42-1.19-0.97
								c-0.04-0.38,0.21-0.73,0.22-1.12c0.02-0.65-0.62-1.15-0.63-1.8c0-0.76,0.82-1.2,1.19-1.85c0.32-0.58,0.26-1.3,0.45-1.94
								C255.31,209.55,255.66,209.05,256.12,208.63z"/>
						</g>
						<g>
							<path class="st33" d="M250.31,221.88c2.85-3.26,7.1-3.19,7.1-3.19l4.19-0.07c0,0,3.73,0.49,5.98,2.33
								c6.72,5.5,5.6,15.17,5.6,15.17s-27.25-5.9-27.29-6.09C245.85,229.83,248.41,224.05,250.31,221.88z"/>
							<path class="st21" d="M262.08,210.66c0.85,3.42-0.69,5.98-2.02,6.18c-1.89,0.28-2.95-0.65-3.5-2.33
								c-0.25-0.74-0.61-3.56,0.18-4.39C258.04,208.73,261.36,207.74,262.08,210.66z"/>
							<path class="st21" d="M257.62,215.24l-0.19,3.15c0,0-0.44,1.69,2.15,1.69c2.59,0,1.96-1.69,1.96-1.69l-0.42-3.49"/>
						</g>
						<g>
							<path class="st21" d="M256.69,213.24c-0.16-0.18-0.51-0.21-0.71-0.06c-0.18,0.13-0.22,0.34-0.23,0.53
								c-0.01,0.18,0,0.37,0.07,0.55c0.07,0.17,0.22,0.33,0.42,0.41c0.2,0.08,0.46,0.05,0.62-0.08"/>
						</g>
						<g>
							<path class="st21" d="M261.97,213.24c0.16-0.18,0.51-0.21,0.71-0.06c0.18,0.13,0.22,0.34,0.23,0.53
								c0.01,0.18,0,0.37-0.07,0.55c-0.07,0.17-0.22,0.33-0.42,0.41c-0.2,0.08-0.46,0.05-0.62-0.08"/>
						</g>
						<g>
							<path class="st20" d="M255.67,212.8c1.61-0.34,3.09-1.28,4.08-2.6c0.85,1.04,1.97,1.86,3.23,2.36
								c0.1-0.84,0.2-1.74-0.17-2.51c-0.25-0.53-0.7-0.94-1.14-1.33c-0.38-0.33-0.77-0.67-1.24-0.84c-0.91-0.34-1.95-0.04-2.74,0.51
								c-1.13,0.77-1.9,2.04-2.07,3.4"/>
						</g>
						<g>
							<path class="st20" d="M260.2,207.71c-0.09,0.05-0.19-0.03-0.26-0.11c-0.26-0.3-0.53-0.68-0.41-1.05
								c0.06-0.17,0.19-0.31,0.34-0.41c0.35-0.25,0.83-0.32,1.22-0.15c0.39,0.17,0.67,0.6,0.61,1.03c-0.06,0.42-0.48,0.78-0.91,0.71
								"/>
						</g>
						<path class="st61" d="M257.72,216.41c0,0,0.55,0.77,1.53,0.84c1.27,0.09,1.82-1.08,1.82-1.08"/>
						<path class="st61" d="M259.57,214.93c0,0-0.56,0.12-0.56-0.23c0-0.35,0.18-1.91,0.18-1.91"/>
						<g>
							<g>
								<path class="st20" d="M260.48,213.04c-0.02,0.13-0.03,0.24-0.03,0.38c0,0.56,0.89,0.47,0.77-0.1
									c-0.01-0.1-0.04-0.19-0.08-0.27C261.04,212.76,260.54,212.67,260.48,213.04L260.48,213.04z"/>
							</g>
						</g>
						<path class="st62" d="M260.33,212.38c0,0,0.44-0.33,1.15,0.09"/>
						<g>
							<g>
								<path class="st20" d="M257.48,213.04c-0.04,0.09-0.07,0.18-0.08,0.27c-0.12,0.57,0.77,0.67,0.77,0.1
									c0-0.14-0.01-0.25-0.03-0.38C258.08,212.68,257.58,212.76,257.48,213.04L257.48,213.04z"/>
							</g>
						</g>
						<path class="st62" d="M258.29,212.38c0,0-0.44-0.33-1.15,0.09"/>
						<path class="st10" d="M258.48,215.41h1.86c0,0-0.26,0.96-0.94,0.96C258.72,216.37,258.48,215.41,258.48,215.41z"/>
					</g>
				</g>
				<g>
					<line class="st63" x1="274.95" y1="204.77" x2="325.66" y2="204.77"/>
					<line class="st63" x1="274.95" y1="210.98" x2="325.66" y2="210.98"/>
					<line class="st63" x1="315.52" y1="217.2" x2="325.66" y2="217.2"/>
					<line class="st63" x1="274.95" y1="217.2" x2="309.76" y2="217.2"/>
					<line class="st63" x1="274.95" y1="223.42" x2="301.78" y2="223.42"/>
				</g>
			</g>
			<g>
				<path class="st58" d="M363.06,220.62h58.42c10.02,0,18.14,8.12,18.14,18.14v0c0,10.02-8.12,18.14-18.14,18.14h-2.49l-3.27,4.22
					l-3.27-4.22h-49.4c-10.02,0-18.14-8.12-18.14-18.14v0C344.91,228.74,353.04,220.62,363.06,220.62z"/>
				<g>
					<circle class="st59" cx="422.62" cy="238.76" r="11.23"/>
					
						<ellipse transform="matrix(0.973 -0.231 0.231 0.973 -43.7202 104.0682)" class="st55" cx="422.62" cy="238.76" rx="8.64" ry="8.64"/>
				</g>
				<g>
					<defs>
						
							<ellipse id="SVGID_21_" transform="matrix(0.973 -0.231 0.231 0.973 -43.7202 104.0682)" cx="422.62" cy="238.76" rx="8.64" ry="8.64"/>
					</defs>
					<clipPath id="SVGID_22_">
						<use xlink:href="#SVGID_21_"  style="overflow:visible;"/>
					</clipPath>
					<g class="st64">
						<path class="st33" d="M431.88,246.55c-2.85-3.26-7.1-3.19-7.1-3.19l-4.19-0.07c0,0-3.73,0.49-5.98,2.33
							c-6.72,5.5-5.6,15.17-5.6,15.17s27.25-5.9,27.29-6.09C436.33,254.5,433.78,248.72,431.88,246.55z"/>
						<path class="st21" d="M419.83,235.33c-0.85,3.42,0.69,5.98,2.02,6.18c1.89,0.28,2.95-0.65,3.5-2.33
							c0.25-0.74,0.61-3.56-0.18-4.39C423.86,233.4,420.55,232.41,419.83,235.33z"/>
						<path class="st21" d="M424.92,239.85l0.04,3.15c0,0,0.5,1.69-2.43,1.69s-2.22-1.69-2.22-1.69l0.05-3.49"/>
						<g>
							<path class="st21" d="M425.26,237.91c0.16-0.18,0.51-0.21,0.71-0.06c0.18,0.13,0.22,0.34,0.23,0.53
								c0.01,0.18,0,0.37-0.07,0.55s-0.22,0.33-0.42,0.41c-0.2,0.08-0.46,0.05-0.62-0.08"/>
						</g>
						<path class="st61" d="M424.77,241.08c0,0-0.68,0.77-1.91,0.84c-1.58,0.09-2.27-1.08-2.27-1.08"/>
						<path class="st61" d="M422.36,238.96c0,0,0.56,0.11,0.56-0.2s-0.18-1.69-0.18-1.69"/>
						<g>
							<g>
								<path class="st20" d="M420.78,237.32c-0.04,0.09-0.07,0.18-0.08,0.27c-0.12,0.57,0.78,0.67,0.77,0.1
									c0-0.13-0.01-0.25-0.03-0.38C421.39,236.95,420.89,237.04,420.78,237.32L420.78,237.32z"/>
							</g>
						</g>
						<g>
							<g>
								<path class="st20" d="M423.79,237.32c-0.02,0.13-0.03,0.24-0.03,0.38c0,0.56,0.89,0.47,0.77-0.1
									c-0.01-0.1-0.04-0.19-0.08-0.27C424.35,237.04,423.84,236.95,423.79,237.32L423.79,237.32z"/>
							</g>
						</g>
						<path class="st10" d="M423.97,239.92h-2.38c0,0,0.11,0.96,1.2,0.96C423.88,240.87,423.97,239.92,423.97,239.92z"/>
						<g>
							<path class="st20" d="M419.62,238.25c0.55-0.8,1.08-1.6,0.99-2.74c1.04,0.43,2.4,0.42,3.47,0.23
								c0.68-0.12,1.48-0.38,2.03-0.85c0.55-0.47,0.76-2.02,0.25-2.54c-0.54-0.56-1.41-0.22-2.06,0.17
								c-0.28-0.54-0.8-0.91-1.35-0.96c-0.55-0.05-1.12,0.21-1.48,0.68c-0.1,0.13-0.19,0.29-0.34,0.35
								c-0.17,0.07-0.36-0.01-0.54-0.05c-0.99-0.22-1.92,1.36-2.1,2.47c-0.17,1.12,0.2,2.24,0.59,3.28
								c0.06,0.16,0.22,0.35,0.34,0.24"/>
						</g>
						<g>
							<path class="st20" d="M425.66,234.28c0.86,1.14,0.96,2.81,0.24,4.05c-0.03,0.05-0.06,0.09-0.11,0.11
								c-0.06,0.02-0.13-0.02-0.18-0.06c-0.22-0.2-0.33-0.5-0.36-0.79c-0.04-0.3-0.01-0.6-0.03-0.89c-0.03-0.71-0.3-1.41-0.74-1.97"
								/>
						</g>
						<g>
							<path class="st21" d="M419.97,237.91c-0.16-0.18-0.51-0.21-0.71-0.06c-0.18,0.13-0.22,0.34-0.23,0.53
								c-0.01,0.18,0,0.37,0.07,0.55c0.07,0.17,0.22,0.33,0.42,0.41c0.2,0.08,0.46,0.05,0.62-0.08"/>
						</g>
					</g>
				</g>
				<g>
					<line class="st63" x1="407.23" y1="229.44" x2="356.53" y2="229.44"/>
					<line class="st63" x1="393.7" y1="235.65" x2="356.53" y2="235.65"/>
					<line class="st63" x1="407.23" y1="235.65" x2="398.55" y2="235.65"/>
					<line class="st63" x1="371.92" y1="241.87" x2="356.53" y2="241.87"/>
					<line class="st63" x1="407.23" y1="241.87" x2="377.68" y2="241.87"/>
					<line class="st63" x1="388.59" y1="248.09" x2="356.53" y2="248.09"/>
				</g>
			</g>
			<g>
				<path class="st55" d="M336.64,247.58h-22.4c-3.6,0-6.52,2.92-6.52,6.52l0,0c0,3.6,2.92,6.52,6.52,6.52h1.87l1.17,1.52l1.17-1.52
					h18.18c3.6,0,6.52-2.92,6.52-6.52l0,0C343.16,250.5,340.24,247.58,336.64,247.58z"/>
				<g>
					<path class="st10" d="M319.15,252.41c-0.13-0.83-0.8-1.5-1.62-1.64c-0.94-0.16-1.78,0.34-2.14,1.11
						c-0.37-0.77-1.2-1.27-2.14-1.11c-0.82,0.14-1.49,0.82-1.62,1.64c-0.11,0.68,0.13,1.3,0.56,1.73l2.84,2.84
						c0.2,0.2,0.53,0.2,0.73,0l2.84-2.84C319.02,253.72,319.26,253.09,319.15,252.41z"/>
					<path class="st10" d="M329.2,252.41c-0.13-0.83-0.8-1.5-1.62-1.64c-0.94-0.16-1.78,0.34-2.14,1.11
						c-0.37-0.77-1.2-1.27-2.14-1.11c-0.82,0.14-1.49,0.82-1.62,1.64c-0.11,0.68,0.13,1.3,0.56,1.73l2.84,2.84
						c0.2,0.2,0.53,0.2,0.73,0l2.84-2.84C329.07,253.72,329.31,253.09,329.2,252.41z"/>
					<path class="st10" d="M339.25,252.41c-0.13-0.83-0.8-1.5-1.62-1.64c-0.94-0.16-1.78,0.34-2.14,1.11
						c-0.37-0.77-1.2-1.27-2.14-1.11c-0.82,0.14-1.49,0.82-1.62,1.64c-0.11,0.68,0.13,1.3,0.56,1.73l2.84,2.84
						c0.2,0.2,0.53,0.2,0.73,0l2.84-2.84C339.12,253.72,339.36,253.09,339.25,252.41z"/>
				</g>
			</g>
			<g>
				<path class="st55" d="M399.92,347.48h22.4c3.6,0,6.52-2.92,6.52-6.52l0,0c0-3.6-2.92-6.52-6.52-6.52h-1.87l-1.17-1.52
					l-1.17,1.52h-18.18c-3.6,0-6.52,2.92-6.52,6.52l0,0C393.39,344.56,396.31,347.48,399.92,347.48z"/>
				<g>
					<path class="st10" d="M404.84,339.5c-0.13-0.83-0.8-1.5-1.62-1.64c-0.94-0.16-1.78,0.34-2.14,1.11
						c-0.37-0.77-1.2-1.27-2.14-1.11c-0.82,0.14-1.49,0.82-1.62,1.64c-0.11,0.68,0.13,1.3,0.56,1.73l2.84,2.84
						c0.2,0.2,0.53,0.2,0.73,0l2.84-2.84C404.71,340.8,404.94,340.17,404.84,339.5z"/>
					<path class="st10" d="M414.88,339.5c-0.13-0.83-0.8-1.5-1.62-1.64c-0.94-0.16-1.78,0.34-2.14,1.11
						c-0.37-0.77-1.2-1.27-2.14-1.11c-0.82,0.14-1.49,0.82-1.62,1.64c-0.11,0.68,0.13,1.3,0.56,1.73l2.84,2.84
						c0.2,0.2,0.53,0.2,0.73,0l2.84-2.84C414.75,340.8,414.99,340.17,414.88,339.5z"/>
					<path class="st10" d="M424.93,339.5c-0.13-0.83-0.8-1.5-1.62-1.64c-0.94-0.16-1.78,0.34-2.14,1.11
						c-0.37-0.77-1.2-1.27-2.14-1.11c-0.82,0.14-1.49,0.82-1.62,1.64c-0.11,0.68,0.13,1.3,0.56,1.73l2.84,2.84
						c0.2,0.2,0.53,0.2,0.73,0l2.84-2.84C424.8,340.8,425.04,340.17,424.93,339.5z"/>
				</g>
			</g>
			<g>
				<g>
					<path class="st58" d="M506.79,220.85h-28.31c-4.55,0-8.24,3.69-8.24,8.24l0,0c0,4.55,3.69,8.24,8.24,8.24h2.37l1.48,1.92
						l1.48-1.92h22.98c4.55,0,8.24-3.69,8.24-8.24l0,0C515.03,224.54,511.34,220.85,506.79,220.85z"/>
				</g>
				<g>
					
						<ellipse transform="matrix(0.7071 -0.7071 0.7071 0.7071 -21.5728 405.9458)" class="st28" cx="479.23" cy="229.01" rx="5.55" ry="5.55"/>
					<g>
						<path class="st57" d="M483.28,228.04c0.12-0.36-0.01-0.78-0.31-1c-0.35-0.26-0.79-0.23-1.1,0c0.01-0.39-0.22-0.77-0.64-0.9
							c-0.36-0.11-0.78,0.02-1,0.33c-0.18,0.25-0.22,0.56-0.13,0.82l0.56,1.74c0.04,0.12,0.17,0.19,0.3,0.15l1.74-0.56
							C482.96,228.54,483.18,228.34,483.28,228.04z"/>
					</g>
					<g>
						<path class="st57" d="M475.03,228.04c-0.12-0.36,0.01-0.78,0.31-1c0.35-0.26,0.79-0.23,1.1,0c-0.01-0.39,0.22-0.77,0.64-0.9
							c0.36-0.11,0.78,0.02,1,0.33c0.18,0.25,0.22,0.56,0.13,0.82l-0.56,1.74c-0.04,0.12-0.17,0.19-0.3,0.15l-1.74-0.56
							C475.35,228.54,475.13,228.34,475.03,228.04z"/>
					</g>
					<path class="st10" d="M482.1,230.18c0,1.58-1.28,2.86-2.86,2.86c-1.58,0-2.86-1.28-2.86-2.86H482.1z"/>
				</g>
				<g>
					
						<ellipse transform="matrix(0.1606 -0.987 0.987 0.1606 187.6164 678.6335)" class="st28" cx="492.79" cy="229.01" rx="5.55" ry="5.55"/>
					<g>
						<path class="st57" d="M496.84,228.04c0.12-0.36-0.01-0.78-0.31-1c-0.35-0.26-0.79-0.23-1.1,0c0.01-0.39-0.22-0.77-0.64-0.9
							c-0.36-0.11-0.78,0.02-1,0.33c-0.18,0.25-0.22,0.56-0.13,0.82l0.56,1.74c0.04,0.12,0.17,0.19,0.3,0.15l1.74-0.56
							C496.51,228.54,496.74,228.34,496.84,228.04z"/>
					</g>
					<g>
						<path class="st57" d="M488.58,228.04c-0.12-0.36,0.01-0.78,0.31-1c0.35-0.26,0.79-0.23,1.1,0c-0.01-0.39,0.22-0.77,0.64-0.9
							c0.36-0.11,0.78,0.02,1,0.33c0.18,0.25,0.22,0.56,0.13,0.82l-0.56,1.74c-0.04,0.12-0.17,0.19-0.3,0.15l-1.74-0.56
							C488.91,228.54,488.68,228.34,488.58,228.04z"/>
					</g>
					<path class="st10" d="M495.65,230.18c0,1.58-1.28,2.86-2.86,2.86c-1.58,0-2.86-1.28-2.86-2.86H495.65z"/>
				</g>
				<g>
					
						<ellipse transform="matrix(0.2305 -0.9731 0.9731 0.2305 166.7701 668.9244)" class="st28" cx="506.35" cy="229.01" rx="5.55" ry="5.55"/>
					<g>
						<path class="st57" d="M510.39,228.04c0.12-0.36-0.01-0.78-0.31-1c-0.35-0.26-0.79-0.23-1.1,0c0.01-0.39-0.22-0.77-0.64-0.9
							c-0.36-0.11-0.78,0.02-1,0.33c-0.18,0.25-0.22,0.56-0.13,0.82l0.56,1.74c0.04,0.12,0.17,0.19,0.3,0.15l1.74-0.56
							C510.07,228.54,510.29,228.34,510.39,228.04z"/>
					</g>
					<g>
						<path class="st57" d="M502.14,228.04c-0.12-0.36,0.01-0.78,0.31-1c0.35-0.26,0.79-0.23,1.1,0c-0.01-0.39,0.22-0.77,0.64-0.9
							c0.36-0.11,0.78,0.02,1,0.33c0.18,0.25,0.22,0.56,0.13,0.82l-0.56,1.74c-0.04,0.12-0.17,0.19-0.3,0.15l-1.74-0.56
							C502.46,228.54,502.24,228.34,502.14,228.04z"/>
					</g>
					<path class="st10" d="M509.21,230.18c0,1.58-1.28,2.86-2.86,2.86c-1.58,0-2.86-1.28-2.86-2.86H509.21z"/>
				</g>
			</g>
		</g>
	</g>
</g>
<g id="DESIGNED_BY_FREEPIK">
</g>
</svg>
