<?xml version="1.0" encoding="utf-8"?>
<!-- Generator: Adobe Illustrator 23.0.2, SVG Export Plug-In . SVG Version: 6.00 Build 0)  -->
<svg version="1.1" xmlns="http://www.w3.org/2000/svg" xmlns:xlink="http://www.w3.org/1999/xlink" x="0px" y="0px"
	 viewBox="0 0 750 500" style="enable-background:new 0 0 750 500;" xml:space="preserve">
<style type="text/css">
	.st0{fill:#FFDCEA;}
	.st1{fill:none;stroke:#FFFFFF;stroke-linecap:round;stroke-miterlimit:10;}
	.st2{clip-path:url(#SVGID_2_);}
	.st3{fill:#FFC0D8;}
	.st4{clip-path:url(#SVGID_4_);}
	.st5{fill:none;stroke:#FFDCEA;stroke-linecap:round;stroke-miterlimit:10;}
	.st6{clip-path:url(#SVGID_6_);}
	.st7{clip-path:url(#SVGID_8_);}
	.st8{fill:#B7D1FF;}
	.st9{fill:none;stroke:#FFFFFF;stroke-linecap:round;stroke-linejoin:round;stroke-miterlimit:10;}
	.st10{fill:#FFFFFF;}
	.st11{fill:none;stroke:#6CA0FF;stroke-width:3;stroke-linecap:round;stroke-linejoin:round;stroke-miterlimit:10;}
	.st12{clip-path:url(#SVGID_10_);}
	.st13{fill:url(#SVGID_11_);}
	.st14{fill:url(#SVGID_12_);}
	.st15{opacity:0.25;clip-path:url(#SVGID_14_);fill:#B7D1FF;}
	.st16{clip-path:url(#SVGID_14_);}
	.st17{opacity:0.25;fill:#B7D1FF;}
	.st18{fill:none;stroke:#FFFFFF;stroke-width:1.5;stroke-linecap:round;stroke-linejoin:round;stroke-miterlimit:10;}
	.st19{fill:none;stroke:#6CA0FF;stroke-linejoin:round;stroke-miterlimit:10;}
	.st20{fill:#00276F;}
	.st21{fill:#F886BC;}
	.st22{fill:none;stroke:#D34F9B;stroke-width:0.75;stroke-miterlimit:10;}
	.st23{fill:none;stroke:#00276F;stroke-width:0.75;stroke-linecap:round;stroke-miterlimit:10;}
	.st24{fill:#DD3C91;}
	.st25{fill:#EF8318;}
	.st26{fill:none;stroke:#AF480E;stroke-width:0.75;stroke-miterlimit:10;}
	.st27{fill:none;stroke:#AF480E;stroke-width:0.75;stroke-miterlimit:10;stroke-dasharray:2,1.5;}
	.st28{fill:#FFAB37;}
	.st29{fill:none;stroke:#AF480E;stroke-width:0.75;stroke-linecap:round;stroke-miterlimit:10;}
	.st30{fill:none;stroke:#AF480E;stroke-width:0.75;stroke-miterlimit:10;stroke-dasharray:2.0178,1.5134;}
	.st31{fill:#AF480E;}
	.st32{fill:none;stroke:#2D5491;stroke-width:0.5;stroke-linecap:round;stroke-miterlimit:10;}
	.st33{fill:#0070E4;}
	.st34{fill:#D34F9B;}
	.st35{fill:none;stroke:#0E4099;stroke-width:0.75;stroke-miterlimit:10;}
	.st36{fill:none;stroke:#00276F;stroke-linecap:round;stroke-miterlimit:10;}
	.st37{fill:#00224C;}
	.st38{fill:none;stroke:#15489B;stroke-width:0.75;stroke-miterlimit:10;stroke-dasharray:2,1.5;}
	.st39{fill:none;stroke:#15489B;stroke-width:0.75;stroke-miterlimit:10;}
	.st40{fill:#15489B;}
	.st41{fill:none;stroke:#1B5ABF;stroke-width:0.75;stroke-miterlimit:10;}
	.st42{fill:none;stroke:#1B5ABF;stroke-width:0.75;stroke-miterlimit:10;stroke-dasharray:2,1.5;}
	.st43{fill:#1B5ABF;}
	.st44{fill:none;stroke:#00276F;stroke-width:0.75;stroke-miterlimit:10;}
	.st45{fill:#0A172B;}
	.st46{fill:#8DADE0;}
	.st47{fill:none;stroke:#8DADE0;stroke-width:0.25;stroke-linecap:round;stroke-miterlimit:10;}
	.st48{opacity:0.55;fill:#8DADE0;}
	.st49{opacity:0.51;fill:#FFFFFF;}
	.st50{clip-path:url(#SVGID_16_);fill:url(#SVGID_17_);}
	.st51{clip-path:url(#SVGID_16_);fill:url(#SVGID_18_);}
	.st52{fill:#6CA0FF;}
	.st53{fill:none;stroke:#225BAF;stroke-width:0.75;stroke-miterlimit:10;}
	.st54{fill:none;stroke:#6CA0FF;stroke-linecap:round;stroke-linejoin:round;stroke-miterlimit:10;}
	.st55{fill:#FF5A89;}
	.st56{fill:#D2E4FF;}
	.st57{fill:#EA3974;}
	.st58{fill:#FFFFFF;stroke:#6CA0FF;stroke-linecap:round;stroke-linejoin:round;stroke-miterlimit:10;}
	.st59{fill:#E6EFFC;}
	.st60{clip-path:url(#SVGID_20_);}
	.st61{fill:none;stroke:#D34F9B;stroke-width:0.5;stroke-linecap:round;stroke-linejoin:round;stroke-miterlimit:10;}
	.st62{fill:none;stroke:#00276F;stroke-width:0.5;stroke-linecap:round;stroke-linejoin:round;stroke-miterlimit:10;}
	.st63{fill:none;stroke:#E6EFFC;stroke-width:3;stroke-linecap:round;stroke-linejoin:round;stroke-miterlimit:10;}
	.st64{clip-path:url(#SVGID_22_);}
</style>
<g id="OBJECTS">
	<g>
		<g>
			<g>
				<g>
					<path class="st0" d="M510.22,379.7c-0.85-7.52-1.49-15.11-0.88-22.66c0.61-7.61,2.68-16.53,6.9-22.99
						c2.44-3.73,10.91-12.43,12.08-2.53c0.58,4.89-1.62,9.33-3.24,13.8c-1.55,4.28-3.71,8.41-5.07,12.75
						c-2.16,6.94-3.66,14.07-6.06,20.95"/>
				</g>
				<g>
					<path class="st0" d="M513.81,393.45c6.08-10.27,12.5-20.35,20.51-28.76c6.68-7.01,14.93-13.46,24.2-16.97
						c6.25-2.37,24.05-7.3,26.64,2.43c2.09,7.87-6.58,13.61-12.37,16.86c-8.3,4.65-17.24,8.01-25.44,12.88
						c-9.48,5.63-18.26,12.37-27.99,17.6"/>
				</g>
				<g>
					<path class="st0" d="M517.96,370.54c3.3-9.57,6.54-18.92,11.83-27.55c3.53-5.75,9.82-15.84,17.57-16.32
						c5-0.31,4.72,7.36,3.92,10.57c-1.28,5.18-4.44,9.8-7.94,13.73c-8.41,9.46-15.81,18.06-23.04,28.44"/>
				</g>
				<path class="st1" d="M545.19,333.35c0,0-16.38,18.3-28.18,49.37"/>
				<path class="st1" d="M573.74,353.33c0,0-25.31,4.29-60.87,45.11"/>
				<path class="st1" d="M523.96,333.55c0,0-11.12,14.27-12.8,51.73"/>
			</g>
			<g>
				<g>
					<path class="st0" d="M257.45,381.96c1.64-10.3,2.98-20.71,2.62-31.14c-0.37-10.52-2.66-22.92-8.08-32.08
						c-3.13-5.29-14.24-17.78-16.48-4.23c-1.1,6.7,1.65,12.95,3.6,19.2c1.87,5.99,4.59,11.81,6.19,17.87
						c2.55,9.69,4.17,19.6,7.05,29.21"/>
				</g>
				<g>
					<path class="st0" d="M251.99,387.29c-2.69-12.92-5.82-25.76-11.2-37.42c-4.49-9.72-10.82-19.42-19.27-26.4
						c-5.69-4.71-22.57-16.23-28.75-6.97c-5,7.49,2.03,16.59,6.93,22.06c7.02,7.83,15.18,14.54,22.03,22.57
						c7.91,9.28,14.7,19.47,23.01,28.42"/>
				</g>
				<g>
					<path class="st0" d="M231.6,380.31c-6.95-8.57-15.08-16.17-24.1-22.53c-3.05-2.15-18.59-12.69-18.55-2.42
						c0.03,7.04,8.46,11.1,13.65,13.83c10.71,5.63,22.3,9.68,32.26,16.54"/>
				</g>
				<path class="st1" d="M193.9,357.21c0,0,21.46,9.54,43.92,32"/>
				<path class="st1" d="M203.6,323.9c0,0,24.96,13.52,47.6,68.95"/>
				<path class="st1" d="M241.39,317.58c0,0,14.42,20.33,14.42,72.01"/>
			</g>
			<g>
				<path class="st0" d="M557.09,390.83c23.05,2.76,41.38,25.79,41.99,41.01h-83.99C515.09,410.19,531.59,387.78,557.09,390.83z"/>
				<g>
					<defs>
						<path id="SVGID_1_" d="M557.09,390.83c23.05,2.76,41.38,25.79,41.99,41.01h-83.99C515.09,410.19,531.59,387.78,557.09,390.83z
							"/>
					</defs>
					<clipPath id="SVGID_2_">
						<use xlink:href="#SVGID_1_"  style="overflow:visible;"/>
					</clipPath>
					<g class="st2">
						<line class="st1" x1="551.94" y1="387.56" x2="555.01" y2="435.66"/>
						<line class="st1" x1="553.05" y1="404.99" x2="561.17" y2="389.41"/>
						<line class="st1" x1="543.86" y1="434.55" x2="523.77" y2="399.99"/>
						<line class="st1" x1="539.03" y1="391.2" x2="536.28" y2="421.52"/>
						<line class="st1" x1="537.25" y1="436.91" x2="516.19" y2="419.33"/>
						<line class="st1" x1="524.02" y1="425.86" x2="514.92" y2="424.69"/>
						<line class="st1" x1="582.35" y1="398.32" x2="557.32" y2="433.86"/>
						<line class="st1" x1="568.28" y1="392.14" x2="571.8" y2="413.31"/>
						<line class="st1" x1="598.01" y1="416.63" x2="570.69" y2="434.55"/>
						<line class="st1" x1="592" y1="408.32" x2="567.56" y2="419.33"/>
						<line class="st1" x1="587.47" y1="423.54" x2="602.32" y2="425.86"/>
					</g>
				</g>
			</g>
			<g>
				<path class="st3" d="M245.63,367.76c-36.02,4.31-64.66,40.3-65.62,64.08h131.24C311.25,398.02,285.48,362.99,245.63,367.76z"/>
				<g>
					<defs>
						<path id="SVGID_3_" d="M245.63,367.76c-36.02,4.31-64.66,40.3-65.62,64.08h131.24C311.25,398.02,285.48,362.99,245.63,367.76z
							"/>
					</defs>
					<clipPath id="SVGID_4_">
						<use xlink:href="#SVGID_3_"  style="overflow:visible;"/>
					</clipPath>
					<g class="st4">
						<line class="st5" x1="253.67" y1="362.65" x2="248.88" y2="437.81"/>
						<line class="st5" x1="251.28" y1="399.58" x2="226.88" y2="370.06"/>
						<line class="st5" x1="266.31" y1="436.07" x2="297.7" y2="382.07"/>
						<line class="st5" x1="273.86" y1="368.34" x2="278.14" y2="415.71"/>
						<line class="st5" x1="276.64" y1="439.75" x2="309.53" y2="412.29"/>
						<line class="st5" x1="297.31" y1="422.49" x2="311.53" y2="420.66"/>
						<line class="st5" x1="251.96" y1="389.48" x2="267.95" y2="362.65"/>
						<line class="st5" x1="209.33" y1="374.05" x2="246.56" y2="434.42"/>
						<line class="st5" x1="194.72" y1="389.59" x2="234.06" y2="414.16"/>
						<line class="st5" x1="186.89" y1="402.88" x2="224.38" y2="436.07"/>
						<line class="st5" x1="180.01" y1="417.39" x2="208" y2="421.58"/>
					</g>
				</g>
			</g>
			<g>
				<path class="st3" d="M478.71,353.7c43.92,5.26,78.85,49.15,80.02,78.14H398.69C398.69,390.59,430.12,347.88,478.71,353.7z"/>
				<g>
					<defs>
						<path id="SVGID_5_" d="M478.71,353.7c43.92,5.26,78.85,49.15,80.02,78.14H398.69C398.69,390.59,430.12,347.88,478.71,353.7z"
							/>
					</defs>
					<clipPath id="SVGID_6_">
						<use xlink:href="#SVGID_5_"  style="overflow:visible;"/>
					</clipPath>
					<g class="st6">
						<line class="st5" x1="468.91" y1="347.46" x2="474.75" y2="439.11"/>
						<line class="st5" x1="471.83" y1="392.5" x2="501.58" y2="356.51"/>
						<line class="st5" x1="453.5" y1="437" x2="415.22" y2="371.15"/>
						<line class="st5" x1="444.29" y1="354.4" x2="439.07" y2="412.17"/>
						<line class="st5" x1="440.9" y1="441.49" x2="400.79" y2="408"/>
						<line class="st5" x1="415.69" y1="420.44" x2="398.36" y2="418.21"/>
						<line class="st5" x1="470.99" y1="380.19" x2="451.49" y2="347.46"/>
						<line class="st5" x1="522.98" y1="361.37" x2="477.58" y2="434.99"/>
						<line class="st5" x1="533.77" y1="371.15" x2="503.3" y2="393.29"/>
						<line class="st5" x1="550.35" y1="396.53" x2="504.63" y2="437"/>
						<line class="st5" x1="530.49" y1="414.11" x2="540.8" y2="386.75"/>
						<line class="st5" x1="517.15" y1="425.92" x2="562.62" y2="416.2"/>
					</g>
				</g>
			</g>
			<g>
				<path class="st0" d="M169.88,390.83c-23.05,2.76-41.38,25.79-41.99,41.01h83.99C211.87,410.19,195.38,387.78,169.88,390.83z"/>
				<g>
					<defs>
						<path id="SVGID_7_" d="M169.88,390.83c-23.05,2.76-41.38,25.79-41.99,41.01h83.99C211.87,410.19,195.38,387.78,169.88,390.83z
							"/>
					</defs>
					<clipPath id="SVGID_8_">
						<use xlink:href="#SVGID_7_"  style="overflow:visible;"/>
					</clipPath>
					<g class="st7">
						<line class="st1" x1="175.02" y1="387.56" x2="171.96" y2="435.66"/>
						<line class="st1" x1="173.49" y1="411.2" x2="165.79" y2="389.41"/>
						<line class="st1" x1="183.11" y1="434.55" x2="203.2" y2="399.99"/>
						<line class="st1" x1="187.94" y1="391.2" x2="190.68" y2="421.52"/>
						<line class="st1" x1="189.72" y1="436.91" x2="210.77" y2="419.33"/>
						<line class="st1" x1="202.95" y1="425.86" x2="212.05" y2="424.69"/>
						<line class="st1" x1="173.93" y1="404.73" x2="184.16" y2="387.56"/>
						<line class="st1" x1="144.61" y1="398.32" x2="165.79" y2="434.55"/>
						<line class="st1" x1="158.69" y1="392.14" x2="158.18" y2="421.52"/>
						<line class="st1" x1="132.28" y1="413.31" x2="156.27" y2="434.55"/>
						<line class="st1" x1="127.88" y1="422.59" x2="145.8" y2="425.27"/>
					</g>
				</g>
			</g>
		</g>
		<g>
			<g>
				<path class="st8" d="M436.1,431.84H297.88c-6.15,0-11.13-4.98-11.13-11.13V155.08c0-6.15,4.98-11.13,11.13-11.13H436.1
					c6.15,0,11.13,4.98,11.13,11.13v265.63C447.22,426.86,442.24,431.84,436.1,431.84z"/>
				<g>
					<path class="st9" d="M372.73,416.61c0,3.17-2.57,5.74-5.74,5.74c-3.17,0-5.74-2.57-5.74-5.74c0-3.17,2.57-5.74,5.74-5.74
						C370.16,410.87,372.73,413.44,372.73,416.61z"/>
				</g>
				<rect x="291.04" y="164.48" class="st10" width="151.89" height="236.97"/>
				<line class="st11" x1="353.2" y1="153.59" x2="380.78" y2="153.59"/>
				<line class="st11" x1="342.98" y1="153.59" x2="348.07" y2="153.59"/>
				<g>
					<defs>
						<path id="SVGID_9_" d="M436.1,431.84H297.88c-6.15,0-11.13-4.98-11.13-11.13V155.08c0-6.15,4.98-11.13,11.13-11.13H436.1
							c6.15,0,11.13,4.98,11.13,11.13v265.63C447.22,426.86,442.24,431.84,436.1,431.84z"/>
					</defs>
					<clipPath id="SVGID_10_">
						<use xlink:href="#SVGID_9_"  style="overflow:visible;"/>
					</clipPath>
					<g class="st12">
						<linearGradient id="SVGID_11_" gradientUnits="userSpaceOnUse" x1="482.7409" y1="155.5999" x2="242.0768" y2="396.264">
							<stop  offset="0.2704" style="stop-color:#FFFFFF;stop-opacity:0.4"/>
							<stop  offset="1" style="stop-color:#FFFFFF;stop-opacity:0.2"/>
						</linearGradient>
						<polygon class="st13" points="405,112.76 284.91,439.1 319.82,439.1 439.9,112.76 						"/>
						<linearGradient id="SVGID_12_" gradientUnits="userSpaceOnUse" x1="513.3593" y1="160.6264" x2="282.7482" y2="391.2375">
							<stop  offset="0.2704" style="stop-color:#FFFFFF;stop-opacity:0.4"/>
							<stop  offset="1" style="stop-color:#FFFFFF;stop-opacity:0.2"/>
						</linearGradient>
						<polygon class="st14" points="450.7,112.76 330.61,439.1 345.41,439.1 465.5,112.76 						"/>
					</g>
				</g>
				<g>
					<defs>
						<rect id="SVGID_13_" x="291.04" y="164.48" width="151.89" height="236.97"/>
					</defs>
					<clipPath id="SVGID_14_">
						<use xlink:href="#SVGID_13_"  style="overflow:visible;"/>
					</clipPath>
					<path class="st15" d="M319.86,160.11h-70.64c-12.12,0-21.94,9.82-21.94,21.94v0c0,12.12,9.82,21.94,21.94,21.94h6.3l3.95,5.1
						l3.95-5.1h56.45c12.12,0,21.94-9.82,21.94-21.94v0C341.8,169.94,331.98,160.11,319.86,160.11z"/>
					<path class="st15" d="M363.61,193.11h70.64c12.12,0,21.94,9.82,21.94,21.94l0,0c0,12.12-9.82,21.94-21.94,21.94h-3.01
						l-3.95,5.1l-3.95-5.1h-59.73c-12.12,0-21.94-9.82-21.94-21.94l0,0C341.67,202.93,351.49,193.11,363.61,193.11z"/>
					<g class="st16">
						<path class="st17" d="M394.66,269.56h-73.11c-12.12,0-21.94,9.82-21.94,21.94l0,0c0,12.12,9.82,21.94,21.94,21.94h6.3
							l3.95,5.1l3.95-5.1h58.91c12.12,0,21.94-9.82,21.94-21.94l0,0C416.6,279.38,406.77,269.56,394.66,269.56z"/>
						<g>
							<line class="st18" x1="311.86" y1="280.22" x2="402.55" y2="280.22"/>
							<line class="st18" x1="337.95" y1="287.74" x2="402.55" y2="287.74"/>
							<line class="st18" x1="311.86" y1="287.74" x2="330.1" y2="287.74"/>
							<line class="st18" x1="380.81" y1="295.26" x2="402.55" y2="295.26"/>
							<line class="st18" x1="311.86" y1="295.26" x2="372.41" y2="295.26"/>
							<line class="st18" x1="311.86" y1="302.77" x2="358.54" y2="302.77"/>
						</g>
					</g>
					<g class="st16">
						<path class="st17" d="M342.2,339.58h73.11c12.12,0,21.94,9.82,21.94,21.94v0c0,12.12-9.82,21.94-21.94,21.94h-6.3l-3.95,5.1
							l-3.95-5.1H342.2c-12.12,0-21.94-9.82-21.94-21.94v0C320.26,349.4,330.09,339.58,342.2,339.58z"/>
						<g>
							<line class="st18" x1="332.52" y1="350.24" x2="423.21" y2="350.24"/>
							<line class="st18" x1="373.07" y1="357.76" x2="423.21" y2="357.76"/>
							<line class="st18" x1="332.52" y1="357.76" x2="366.19" y2="357.76"/>
							<line class="st18" x1="406.66" y1="365.28" x2="423.21" y2="365.28"/>
							<line class="st18" x1="332.52" y1="365.28" x2="398.27" y2="365.28"/>
							<line class="st18" x1="332.52" y1="372.8" x2="389.36" y2="372.8"/>
						</g>
					</g>
				</g>
			</g>
			<line class="st19" x1="111.75" y1="431.84" x2="622.23" y2="431.84"/>
		</g>
		<g>
			<g>
				<g>
					<path class="st20" d="M267.71,218.36c-0.66-0.94-1.42-1.92-2.53-2.22c-0.31-0.09-0.64-0.11-0.97-0.12
						c-1.3-0.02-2.61,0.31-3.75,0.96c-0.32,0.18-0.63,0.39-0.89,0.66c-0.3,0.32-0.42,0.58-0.39,1.01c0.03,0.31,0.03,0.63,0.01,0.95
						c-0.03,0.49-0.14,0.97-0.25,1.44c-0.29,1.28-0.24,2.5,0.04,3.79c0.1,0.48,0.12,1.01-0.07,1.46c-0.17,0.4-0.48,0.71-0.78,1.01
						c-0.58,0.61-1.11,1.3-1.43,2.11c-0.31,0.8-0.39,1.74-0.07,2.54c0.17,0.42,0.43,0.79,0.63,1.19c0.51,1.02,0.59,2.26,0.23,3.35
						c-0.08,0.25,0.09,0.51,0.35,0.56c2.26,0.42,4.56,0.66,6.84,0.41c2.46-0.27,4.9-1.13,6.82-2.76"/>
				</g>
				<path class="st21" d="M260.33,215.86c-0.95,4.32-0.23,15.98,3.01,17.42c3.23,1.45,7.31-1.79,8.52-3.25
					c1.78-2.13,5.13-11.15,2.12-14.02C270.97,213.14,261.66,209.8,260.33,215.86z"/>
				<path class="st21" d="M267.69,230.65l2.36,8.57l-0.94,2.32c0,0-0.63,4.62,0.14,4.86c3.07,0.94,9.82-8.49,9.82-8.49l-5.41-12.34"
					/>
				<path class="st20" d="M276.23,216.57c-0.94-4.09-6.06-6.68-10.48-6c-3.62-1.04-10.65,2.77-7.5,10.26c0,0,2.79-2.59,6.37-6.01
					c2.26,7.09,10.85,10.67,10.85,10.67S277.37,221.5,276.23,216.57z"/>
				<g>
					<path class="st20" d="M264.72,210.79c3.25-4.34,11.09-1.51,13.14,0.67c2.32,2.47,3.24,4.97,5.92,6.61
						c1.24,0.76,2.78,1.25,3.47,2.53c0.94,1.77-0.21,4.24,1.03,5.81c0.52,0.66,3.04,2.69,3.04,5.96c-2.75,1.88-4.98,1.27-8.03,2.5
						c-2.22,0.89-5.26,2.35-7.75,2.77c-0.3,0.05-0.55-0.21-0.52-0.51c0.12-1.06,0.32-2.41-0.14-3.24c-0.24-0.43-0.63-0.76-0.91-1.16
						c-0.69-0.99-0.61-2.31-0.42-3.51c0.19-1.19,0.47-2.43,0.11-3.59c-0.34-1.07-1.18-1.89-2.06-2.58"/>
				</g>
				<g>
					<path class="st20" d="M273.06,210.2c-0.63,0.07-1.07-0.59-1.3-1.18c-0.3-0.78-0.49-1.65-0.23-2.44
						c0.62-1.85,3.07-1.96,4.49-1.04c1.22,0.8,2.11,2.6,1.12,3.91c-0.69,0.92-2.12,1.12-3.16,1.33"/>
				</g>
				<g>
					<path class="st21" d="M271.61,224.48c0.01-0.17,0.16-0.28,0.3-0.37c0.63-0.43,1.4-0.87,2.1-0.57c0.36,0.15,0.62,0.49,0.77,0.85
						c0.49,1.22,0.35,2.84-0.58,3.84c-0.83,0.9-3.01,1.51-3.38-0.15"/>
				</g>
				<path class="st22" d="M263.42,223.2c0,0-2.12,3.69-1.45,4.36c0.67,0.67,2.02,0.26,2.02,0.26"/>
				<g>
					<path class="st20" d="M266.04,223.07c-0.02,0.28,0.09,0.62,0.13,0.83c0.07,0.38,0.5,0.47,0.79,0.27
						c0.54-0.37,0.06-1.82-0.65-1.52C266.12,222.72,266.05,222.88,266.04,223.07z"/>
				</g>
				<g>
					<path class="st20" d="M260.58,223.07c-0.02,0.28,0.09,0.62,0.13,0.83c0.07,0.38,0.5,0.47,0.79,0.27
						c0.54-0.37,0.06-1.82-0.65-1.52C260.66,222.72,260.59,222.88,260.58,223.07z"/>
				</g>
				<path class="st23" d="M264.58,221.56c0,0,1.32-1.65,3.59,0"/>
				<path class="st23" d="M260.36,221.67c0.5-0.49,1.31-0.88,2.21-0.11"/>
				<path class="st10" d="M262.91,229.64l4.11-0.99c0,0-0.73,2.49-2.77,2.49C263.27,231.13,262.91,229.64,262.91,229.64z"/>
				<path class="st22" d="M268.37,233.12c0,0,2.75-0.9,3.85-3.24"/>
			</g>
			<path class="st24" d="M232.79,258.84c0,0-0.66,1.8,0.47,4.87c1.45,3.96,17.11,28.45,27.05,29.36
				c9.94,0.91,19.94-28.89,19.94-38.07c0-9.17-8.09-11.91-13.28-5.3c-5.19,6.62-11.17,29.61-11.17,29.61L232.79,258.84z"/>
			<g>
				<path class="st24" d="M243.04,266.87c-0.38-1.36-1.9-3.64-2.71-4.75c-0.45-0.62-2.01-2.8-2.91-2.37
					c-0.61,0.29,0.03,1.92,0.28,2.38c0.35,0.66,0.84,1.22,1.33,1.77"/>
			</g>
			<g>
				<g>
					<path class="st21" d="M242.98,409.36l-3.94,19.15c0,0-15.71,9.24-15.71,9.43c0,0.2,14.95,0.74,14.95,0.74l6.62-3.24h6.46
						c0.76,0,1.32-0.7,1.15-1.44l-1.35-5.9l7.01-20.16"/>
					<path class="st20" d="M224.4,435.74c2.36-1.37,11.19-5.74,11.19-5.74l9.25,5.45h7.99v4.61h-7.99v-3.48h-1.02
						c-0.36,0-0.7,0.12-0.99,0.34l-3.49,2.69c-0.38,0.29-0.84,0.45-1.32,0.45c0,0-12.65,0-14.71,0
						C221.27,440.06,220.81,437.83,224.4,435.74z"/>
					<g>
						<polygon class="st20" points="248.18,436.32 251.98,431.19 251.54,429.24 247.03,435.46 						"/>
					</g>
				</g>
				<path class="st25" d="M297.1,281.46c0,0,12.06,19.05-1.36,38.28c-5.42,7.77-23.66,40.23-23.66,40.23l-10.06,58.29h-26.59
					c0,0,8.53-57.74,12.37-68.16c3.84-10.41,27.81-59.3,27.81-59.3v-7.56"/>
				<path class="st26" d="M285.23,318.58c-5.42,7.77-21.54,41.38-21.54,41.38l-10.06,58.29"/>
				<path class="st27" d="M287.27,318.58c-5.42,7.77-21.54,41.38-21.54,41.38l-10.06,58.29"/>
				<g>
					<path class="st21" d="M281.64,395.29l13.5,13.6c0,0-7.46,16.35-7.35,16.51c0.11,0.16,12.5-7.87,12.5-7.87l3.52-6.36l5.22-3.66
						c0.61-0.43,0.67-1.31,0.11-1.82l-4.43-4.01l-11.6-16.15"/>
					<path class="st20" d="M287.41,423c1.13-2.44,5.8-10.97,5.8-10.97l10.56-0.83l6.46-4.52l2.61,3.72l-6.46,4.52l-1.97-2.81
						l-0.82,0.58c-0.29,0.2-0.5,0.49-0.61,0.83l-1.3,4.15c-0.14,0.45-0.43,0.84-0.81,1.11c0,0-10.22,7.15-11.88,8.32
						C287.32,428.27,285.68,426.73,287.41,423z"/>
					<g>
						<polygon class="st20" points="306.94,410.02 307.11,403.73 305.65,402.41 305.53,409.98 						"/>
					</g>
				</g>
				<path class="st28" d="M274.35,283.07l-0.97,7.73c0,0-31.91,39.12-31.91,55.62c0,16.11,36.01,56.31,36.01,56.31l20.17-15.35
					l-26.22-37.53c0,0,25.63-31.22,30.05-35.65c7.4-7.4,6.9-20.01-2.44-32.75"/>
				<path class="st26" d="M273.72,288.07c0,0,14.18,1.46,27.64-3.16"/>
				<line class="st29" x1="279.73" y1="288.29" x2="279.73" y2="283.73"/>
				<line class="st26" x1="297.47" y1="286.08" x2="295.91" y2="281.86"/>
				<path class="st26" d="M292.63,391.21l-26.28-37.93c-1.41-2.04-1.36-4.75,0.13-6.73c6.12-8.11,21.58-28.54,24.83-32.33
					c6.81-7.96,7.52-17.32,2.39-27.27"/>
				<g>
					<g>
						<line class="st26" x1="293.04" y1="387.95" x2="292.47" y2="387.13"/>
						<path class="st30" d="M291.61,385.88l-23.34-33.64c-0.99-1.42-0.95-3.32,0.09-4.7c5.48-7.26,22.2-29.37,25.58-33.33
							c6.44-7.54,7.04-16.63,2.73-26.03"/>
						<path class="st26" d="M296.35,287.5c-0.14-0.3-0.29-0.6-0.45-0.9"/>
					</g>
				</g>
				<path class="st26" d="M287.54,287.86c0,0,0.88,3.18,3.45,4.42s5.45,1.98,5.45,1.98"/>
				<path class="st26" d="M302.65,296.33c0,0,1.16-0.09,3.25-0.71"/>
				<path class="st26" d="M302.65,297.9c0,0,1.49-0.04,3.58-0.67"/>
				<polygon class="st31" points="274.42,399.23 278.07,404.33 298.9,388 294.94,383.52 				"/>
				<polygon class="st31" points="234.95,418.26 236.3,412.51 263.01,412.51 263.01,418.26 				"/>
			</g>
			<g>
				<path class="st20" d="M245.42,269.04c0.12,0.12,0.12,0.31,0,0.42l-0.71,0.72c-0.12,0.12-0.31,0.12-0.42,0l-13.96-13.77
					c-0.12-0.12-0.12-0.31,0-0.42l0.71-0.72c0.12-0.12,0.31-0.12,0.42,0"/>
				<line class="st32" x1="232.13" y1="257.1" x2="233.26" y2="258.21"/>
				<line class="st32" x1="233.7" y1="258.67" x2="233.88" y2="258.84"/>
			</g>
			<path class="st33" d="M295.03,249.85c-5.23-10.77-16.1-12.29-16.1-12.29s-8.63,7.08-9.81,3.98c-1.26,1.87-9.29,15.8-8.19,22.92
				c1.1,7.13,7.26,8.11,8.5,9.66c1.23,1.55,4.15,11.44,4.53,12.13c12.43-0.24,25.09-4.8,25.09-4.8S300.61,261.35,295.03,249.85z"/>
			<g>
				<path class="st21" d="M290.94,252.64c-2.18-8.33-9.15-12.75-15.28-10.54c-5.29,1.91-6.36,8.07-4.84,16.19
					c1.52,8.12,1.14,19.09,1.14,19.09s-19.1-7.06-22.69-8.49c-3.68-3.13-8.23-6.41-9-6.41c-0.77,0-0.39,1.28,0.66,2.33
					c1.09,1.09,2.86,2.69,1.38,2.56c-1.12-0.1-8.39-7.42-8.39-7.42c-0.61,0.61,0.11,2.31,0.11,2.31s0.11,2.8,2.39,5.39
					c15.82,17.98,34.44,30.5,46.21,26.21C293.71,289.83,291.72,255.61,290.94,252.64z"/>
				<g>
					<path class="st34" d="M239.46,268.27c-1.21-0.67-2.24-1.59-3.16-2.6c-0.9-1.02-1.72-2.13-2.27-3.4
						c1.03,0.92,1.92,1.91,2.83,2.9C237.75,266.18,238.64,267.16,239.46,268.27z"/>
				</g>
				<path class="st33" d="M292.44,254.02c-1.46-9.16-8.46-14.64-15.27-12.92c-5.87,1.48-7.68,7.98-6.91,16.85
					c0.23,2.6,0.45,5.46,0.65,8.22l21.51,2.53C292.88,261.39,292.64,255.26,292.44,254.02z"/>
				<path class="st35" d="M292.43,268.69c0.45-7.3,0.21-13.44,0.01-14.68c-1.46-9.16-8.46-14.64-15.27-12.92
					c-5.87,1.48-7.68,7.98-6.91,16.85c0.23,2.6,0.45,5.46,0.65,8.22"/>
			</g>
		</g>
		<g>
			<g>
				<g>
					<g>
						<path class="st20" d="M442.02,407.93l1.74-0.82l10.67,22.67c0.52,1.1,1.57,1.85,2.78,1.97l0.13,0.18l-2.8,1.32
							c-0.1,0.05-0.22,0.06-0.33,0.02l-0.1-0.03c-0.7-0.23-1.27-0.73-1.59-1.4l-10.82-23C441.53,408.5,441.68,408.09,442.02,407.93z
							"/>
						<path class="st21" d="M472.08,380.33l-19.76,23.76l-7.22,4.31l10.26,21.8c0.34,0.72,1.21,1.04,1.93,0.69l0,0
							c0.54-0.26,0.87-0.82,0.83-1.42L457.07,415l21.64-17.79"/>
						<path class="st28" d="M458.07,413.91l0.46,16.33c0.02,0.67-0.42,1.33-1.1,1.65l0,0c-0.91,0.43-2.09-0.16-2.46-0.96
							l-11.2-23.81l8.85-3.19C452.61,403.92,451.76,409.42,458.07,413.91z"/>
						<path class="st36" d="M458.83,417.08c-1.35-0.3-2.73-0.44-4.11-0.42"/>
						<path class="st36" d="M458.6,419.27c-1.46-0.28-2.24-0.3-3.47-0.31"/>
						<path class="st36" d="M458.52,421.06c-0.97-0.2-2.19-0.22-3.18-0.26"/>
					</g>
					<path class="st37" d="M482.5,297.04l2.83,6.56c0.92,2.13,2.29,4.04,4.02,5.59c7.77,6.98,27.41,34.42,27.63,45.99
						c0.26,13.98-42.67,59.02-42.67,59.02l-16.76-18.81l33.74-40.26l-29.3-27.99c0,0-13.38-4.72-7.99-28.67"/>
					<path class="st38" d="M462.48,395.3l31.59-39.27c1.16-1.27,1-3.25-0.33-4.33l-26.86-26.96c0,0-13.38-4.91-8.01-29.77"/>
					<path class="st39" d="M462.39,398.19l33.52-41.22c1.65-1.81,1.43-4.63-0.47-6.16c0,0-28.65-28.1-28.75-28.15
						c-1.42-0.62-10.14-5.6-5.09-28.94"/>
					<polygon class="st40" points="460.54,391.95 455.01,397.08 473.12,415.81 478.21,410.42 					"/>
				</g>
				<g>
					<g>
						<path class="st20" d="M495.36,439.38v-1.92h25.05c1.22,0,2.34-0.64,2.96-1.68l0.21-0.04v3.09c0,0.12-0.04,0.23-0.12,0.31
							l-0.07,0.08c-0.5,0.54-1.2,0.84-1.94,0.84h-25.42C495.67,440.06,495.36,439.75,495.36,439.38z"/>
						<path class="st21" d="M485.93,404.19l10.34,24.22l0.82,8.37h24.1c0.8,0,1.45-0.65,1.45-1.45l0,0c0-0.6-0.37-1.14-0.93-1.35
							l-13.54-5.21l-6.88-27.16"/>
						<path class="st28" d="M507.6,427.4l14.97,6.54c0.62,0.27,1.03,0.95,1.03,1.7l0,0c0,1-1.03,1.82-1.92,1.82h-26.31l0.88-9.37
							C496.24,428.09,500.85,431.2,507.6,427.4z"/>
						<path class="st36" d="M510.79,428.06c-0.85,1.09-1.56,2.28-2.13,3.54"/>
						<path class="st36" d="M512.68,429.2c-0.88,1.2-1.23,1.9-1.75,3.01"/>
						<path class="st36" d="M514.27,430.04c-0.6,0.79-1.13,1.89-1.59,2.76"/>
					</g>
					<path class="st20" d="M444.34,301.46c0,0-1.06,14.8,5.46,28.78c6.52,13.98,32.88,95.16,32.88,95.16l23.38-10.06l-28.37-96.61
						c0,0-0.94-12.05-5.81-27.93"/>
					<path class="st41" d="M489.24,422.58l-32.42-92.48c0,0-6.59-11.51-6.59-20.28"/>
					<path class="st42" d="M487.41,423.37l-33.21-93.26c0,0-6.59-11.51-6.59-20.28"/>
					<polygon class="st43" points="480.66,419.2 482.91,426.44 506.76,416.85 504.56,410.18 					"/>
				</g>
				<path class="st41" d="M452.11,320.11c0,0,6.62-3.32,8.34-10.85"/>
				<path class="st44" d="M477.77,321.29c0,0,2.64-3.03,2.38-5.5c-0.7-6.82-2.38-15.45-2.38-15.45"/>
			</g>
			<g>
				<path class="st21" d="M510.66,257.58l-5.86-5.95c0,0,5.48-13.75,6.09-13.62c1.26,0.27-1.01,6.12-1.01,6.12s3.21-6.26,3.66-5.84
					c0.8,0.74-1.51,7.14-1.51,7.14s2.8-6.19,3.35-5.54c0.55,0.65-2,10.27-2,10.27L510.66,257.58z"/>
				<path class="st21" d="M503.68,252.28l1.09-2.12c0,0,0.34-3.62,1.27-6.25c0.93-2.64,1.61-3.91,2.1-3.91c0.49,0,0,4.1,0,4.1
					s0.84,3.53-0.38,5.82"/>
				<g>
					<path class="st45" d="M511,251.48l-4.07-3.81c-0.18-0.15-0.24-0.42-0.15-0.64l4.63-12.16c0,0,0.21,0.05,0.36,0.09
						c0.08,0.02,0.18,0.04,0.26,0.11l4.46,3.89c0.18,0.15,0.24,0.42,0.15,0.64l-4.63,11.73c-0.07,0.17-0.22,0.28-0.37,0.29
						L511,251.48z"/>
					<path class="st20" d="M510.87,251.4l-4.41-3.85c-0.18-0.15-0.24-0.42-0.15-0.64l4.65-11.79c0.1-0.26,0.4-0.34,0.6-0.16
						l4.46,3.89c0.18,0.15,0.24,0.42,0.15,0.64l-4.63,11.73C511.43,251.5,511.1,251.59,510.87,251.4z"/>
					<polygon class="st46" points="506.65,246.07 511.8,250.56 515.85,240.29 510.7,235.8 					"/>
					<path class="st46" d="M508.95,248.81c-0.04,0.16-0.17,0.24-0.29,0.17c-0.12-0.07-0.19-0.26-0.15-0.42
						c0.04-0.16,0.17-0.24,0.29-0.17C508.92,248.46,508.99,248.64,508.95,248.81z"/>
					<line class="st47" x1="512.99" y1="236.93" x2="513.89" y2="237.74"/>
					<g>
						<path class="st48" d="M510.35,238.94c-0.04,0.15-0.16,0.23-0.27,0.16c-0.11-0.06-0.18-0.24-0.14-0.4s0.16-0.23,0.27-0.16
							C510.32,238.61,510.38,238.79,510.35,238.94z"/>
						<path class="st49" d="M514.54,240.65l-2.72-2.37c-0.29-0.25-0.73-0.13-0.87,0.24l-0.33,0.86l-0.27,0.05l3.32,2.88
							c0.29,0.25,0.73,0.13,0.87-0.24l0.21-0.52C514.87,241.23,514.78,240.87,514.54,240.65z"/>
						<line class="st47" x1="511.47" y1="238.86" x2="514.21" y2="241.24"/>
						<line class="st47" x1="511.22" y1="239.51" x2="512.79" y2="240.87"/>
					</g>
					<g>
						<path class="st48" d="M507.7,245.25c-0.04,0.15-0.16,0.23-0.27,0.16c-0.11-0.06-0.18-0.24-0.14-0.4
							c0.04-0.15,0.16-0.23,0.27-0.16C507.68,244.91,507.74,245.09,507.7,245.25z"/>
						<path class="st49" d="M511.89,246.96l-2.72-2.37c-0.29-0.25-0.73-0.13-0.87,0.24l-0.33,0.86l-0.27,0.05l3.32,2.88
							c0.29,0.25,0.73,0.13,0.87-0.24l0.21-0.52C512.22,247.54,512.14,247.17,511.89,246.96z"/>
						<line class="st47" x1="508.83" y1="245.16" x2="511.57" y2="247.54"/>
						<line class="st47" x1="508.58" y1="245.81" x2="510.15" y2="247.18"/>
					</g>
					<g>
						<path class="st48" d="M513.46,245.67c-0.04,0.15-0.16,0.23-0.27,0.16c-0.11-0.06-0.18-0.24-0.14-0.4
							c0.04-0.15,0.16-0.23,0.27-0.16C513.43,245.34,513.5,245.51,513.46,245.67z"/>
						<path class="st49" d="M512.96,243.51l-2.94-2.56c-0.24-0.21-0.61-0.11-0.73,0.2l-0.32,0.82c-0.09,0.22-0.03,0.48,0.15,0.63
							l3.62,3.13l-0.09-0.44l0.46-1.15C513.19,243.92,513.13,243.66,512.96,243.51z"/>
						<line class="st47" x1="509.77" y1="241.6" x2="512.51" y2="243.98"/>
						<line class="st47" x1="509.52" y1="242.25" x2="511.09" y2="243.62"/>
						<line class="st47" x1="511.32" y1="243.84" x2="511.93" y2="244.37"/>
					</g>
					<g>
						<defs>
							<path id="SVGID_15_" d="M510.87,251.4l-4.41-3.85c-0.18-0.15-0.24-0.42-0.15-0.64l4.65-11.79c0.1-0.26,0.4-0.34,0.6-0.16
								l4.46,3.89c0.18,0.15,0.24,0.42,0.15,0.64l-4.63,11.73C511.43,251.5,511.1,251.59,510.87,251.4z"/>
						</defs>
						<clipPath id="SVGID_16_">
							<use xlink:href="#SVGID_15_"  style="overflow:visible;"/>
						</clipPath>
						
							<linearGradient id="SVGID_17_" gradientUnits="userSpaceOnUse" x1="578.7301" y1="149.9433" x2="586.7241" y2="136.0972" gradientTransform="matrix(-0.9735 -0.2288 0.2288 -0.9735 1045.8782 516.2875)">
							<stop  offset="0" style="stop-color:#FFFFFF;stop-opacity:0.6"/>
							<stop  offset="0.8878" style="stop-color:#FFFFFF;stop-opacity:0.1"/>
						</linearGradient>
						<polygon class="st50" points="515.96,237.12 516.98,238.13 506.67,250.33 505.65,249.33 						"/>
						
							<linearGradient id="SVGID_18_" gradientUnits="userSpaceOnUse" x1="579.5359" y1="151.2951" x2="587.5159" y2="137.4735" gradientTransform="matrix(-0.9735 -0.2288 0.2288 -0.9735 1045.8782 516.2875)">
							<stop  offset="0" style="stop-color:#FFFFFF;stop-opacity:0.6"/>
							<stop  offset="0.8878" style="stop-color:#FFFFFF;stop-opacity:0.1"/>
						</linearGradient>
						<polygon class="st51" points="515.88,235.99 516.13,236.24 505.82,248.45 505.57,248.19 						"/>
					</g>
				</g>
				<path class="st21" d="M486.53,260.35l5.78,9.28l12.47-19.47c0,0,8.9,0.83,7.88,5.24c-4.94,12.48-8.97,31.45-18.69,32.41
					c-10.68,1.06-24.29-18.91-24.29-18.91"/>
				<path class="st22" d="M492.31,269.63c0,0-2.58,3.58-4.49,8.86"/>
				<path class="st21" d="M511.64,257.88c0,0,3.59-8.74,4.03-10.4c0.44-1.66,1.58-6.24,0.85-6.24c-0.73,0-2.46,4.39-2.66,5.12
					c-1.47,0.78-3.54,2.2-3.52,4.74"/>
				<path class="st52" d="M464.14,235.8c0,0,12.2,1.13,25.66,28.42c-2.64,3.84-16.34,11.94-20.13,11.87
					c-4.1-5.99-7.96-21.34-7.96-21.34"/>
			</g>
			<g>
				<path class="st52" d="M476.17,259.74c-3.79-14.97-9.5-22.17-9.5-22.17l-12.52-3.59l-10.13,12.58
					c-10.18,30.94-0.45,64.98-0.45,64.98c7.02,2.99,36.08-3.09,43.17-10.18C486.75,301.36,479.37,272.36,476.17,259.74z"/>
				<path class="st53" d="M479.28,272.13c0,0-5.31-23.58-8.03-28.03"/>
			</g>
			<g>
				<path class="st21" d="M431.81,257.58c0,0-6.13,16.48-4.51,26.15c2.49,14.86,26.43,29.05,26.43,29.05s-0.81,4,0.88,5.89
					c4.21-3.14,5.56-6.96,5.56-6.96l-2-3.33c0,0-13.12-20.65-12.74-27.46c0.27-4.81,7.73-28.7,7.73-28.7"/>
				<path class="st52" d="M454.16,233.98c0,0-13.3,3.73-18.93,13.81c-6.83,12.22-8.18,22.61-8.18,22.61
					c5.82,5.82,17.55,8.35,23.99,7.01l4.59-23.38"/>
				<line class="st53" x1="451.05" y1="277.43" x2="455.27" y2="255.88"/>
			</g>
			<g>
				<path class="st21" d="M467.94,227.21l-6.75-11.71l-5.3,9.34l0.35,2.15l-2.09,6.99c2.09,6.19,10.72,6.89,12.52,3.59
					L467.94,227.21"/>
				<path class="st21" d="M473.9,211.5c1.1,4.17,1.4,18.31-1.95,19.81c-3.34,1.49-10.1,0.07-12.07-2.46
					c-1.71-2.19-3.33-13.96-0.25-16.83C462.7,209.15,472.35,205.66,473.9,211.5z"/>
				<g>
					<path class="st20" d="M463.68,214.24c3.15,0.54,5.89-0.33,8.33-1.12c2.44-0.79,4.74-2.34,5.92-4.62
						c0.99-1.9,1.05-4.58-1.35-5.63c-0.57-0.25-1.21-0.34-1.84-0.3c-2.01,0.14-3.6,1.36-5.12,2.54c0.63-3.15-5.33-1.71-6.57-0.57
						c-0.39,0.36-0.65,0.82-1.12,1.1c-1.41,0.85-3.21,0.9-4.72,1.56c-1.86,0.81-3.33,2.46-3.92,4.4c-0.49,1.62-1.1,4.31,0.22,6.26
						c0.63,0.93,1.24,1.95,1.42,3.05l1.05,4.5c0,0,2.11-1.52,2.34-1.7c0.83-0.66,1.14-1.51,1.81-2.32
						C461.84,219.33,462.99,216.35,463.68,214.24z"/>
				</g>
				<g>
					<path class="st21" d="M461.6,220.34c-0.4-0.74-0.94-1.57-1.72-1.65c-0.4-0.04-0.79,0.15-1.08,0.43
						c-1.5,1.43-1.61,4.17-0.04,5.61c0.66,0.6,1.57,0.87,2.18,0.04l0.78-3.92C461.78,220.69,461.69,220.5,461.6,220.34z"/>
				</g>
				<path class="st22" d="M467.36,232.11c0,0-5.41-0.2-7.67-3.55"/>
				<path class="st22" d="M471.11,218.31c0,0,2.19,3.74,1.51,4.77c-0.68,1.03-2.48,0.41-2.48,0.41"/>
				<g>
					<path class="st20" d="M468.43,218.18c0.09,0.26,0.07,0.62,0.08,0.84c0.03,0.38-0.39,0.59-0.74,0.48
						c-0.65-0.21-0.53-1.74,0.27-1.65C468.26,217.87,468.37,218.01,468.43,218.18z"/>
				</g>
				<g>
					<path class="st20" d="M473.82,218.18c0.09,0.26,0.07,0.62,0.08,0.84c0.03,0.38-0.39,0.59-0.74,0.48
						c-0.65-0.21-0.53-1.74,0.27-1.65C473.65,217.87,473.76,218.01,473.82,218.18z"/>
				</g>
				<path class="st10" d="M472.15,226.35l-5.55-1.58c0,0-0.22,4.23,3.14,4.86C471.78,230,472.15,226.35,472.15,226.35z"/>
				<g>
					<path class="st20" d="M468.87,216.13c-1.06,0.01-2.21,0.26-3.15,0.66c-0.11-0.06-0.38-0.56-0.22-0.86
						c0.13-0.24,1.8-0.82,3.31-0.78C468.8,215.15,469.08,216,468.87,216.13z"/>
				</g>
				<g>
					<path class="st20" d="M471.85,216.08c0.77,0.01,1.55,0.24,2.15,0.63c0.09-0.06,0.28-0.47,0.22-0.76
						c-0.05-0.23-1.14-0.78-2.24-0.74C471.98,215.2,471.73,215.95,471.85,216.08z"/>
				</g>
				<path class="st22" d="M458.1,223.88c0,0,1.1,1.64,2.57,1.18"/>
			</g>
		</g>
		<g>
			<g>
				<g>
					<line class="st54" x1="424.81" y1="294.17" x2="424.81" y2="297.97"/>
					<line class="st54" x1="426.71" y1="296.07" x2="422.91" y2="296.07"/>
				</g>
				<g>
					<line class="st54" x1="539.26" y1="272.9" x2="539.26" y2="276.7"/>
					<line class="st54" x1="541.16" y1="274.8" x2="537.36" y2="274.8"/>
				</g>
				<g>
					<line class="st54" x1="203.6" y1="188.9" x2="203.6" y2="192.7"/>
					<line class="st54" x1="205.5" y1="190.8" x2="201.7" y2="190.8"/>
				</g>
				<g>
					<line class="st54" x1="360.69" y1="116.1" x2="360.69" y2="119.91"/>
					<line class="st54" x1="362.6" y1="118.01" x2="358.79" y2="118.01"/>
				</g>
				<path class="st54" d="M339.16,133.01c0,1-0.81,1.82-1.82,1.82c-1,0-1.82-0.81-1.82-1.82s0.81-1.82,1.82-1.82
					C338.35,131.19,339.16,132,339.16,133.01z"/>
				<path class="st54" d="M393.91,178.68c0,1-0.81,1.82-1.82,1.82c-1,0-1.82-0.81-1.82-1.82s0.81-1.82,1.82-1.82
					C393.1,176.86,393.91,177.67,393.91,178.68z"/>
				<circle class="st54" cx="495.49" cy="231.53" r="1.82"/>
				<path class="st54" d="M171.69,336.34c0,1-0.81,1.82-1.82,1.82c-1,0-1.82-0.81-1.82-1.82s0.81-1.82,1.82-1.82
					C170.88,334.53,171.69,335.34,171.69,336.34z"/>
				<circle class="st54" cx="243.87" cy="301.98" r="1.82"/>
				<path class="st54" d="M188.72,178.68c0,1-0.81,1.82-1.82,1.82c-1,0-1.82-0.81-1.82-1.82s0.81-1.82,1.82-1.82
					C187.9,176.86,188.72,177.67,188.72,178.68z"/>
				<g>
					<line class="st54" x1="192.67" y1="290.56" x2="213.17" y2="290.56"/>
					<line class="st54" x1="219.42" y1="290.56" x2="228.57" y2="290.56"/>
				</g>
				<g>
					<line class="st54" x1="493.98" y1="219.59" x2="514.48" y2="219.59"/>
					<line class="st54" x1="520.73" y1="219.59" x2="529.88" y2="219.59"/>
				</g>
				<g>
					<line class="st54" x1="403.17" y1="119.91" x2="423.67" y2="119.91"/>
					<line class="st54" x1="429.91" y1="119.91" x2="439.06" y2="119.91"/>
				</g>
				<g>
					<line class="st54" x1="298.64" y1="130.44" x2="284.71" y2="130.44"/>
					<line class="st54" x1="280.11" y1="130.44" x2="272.61" y2="130.44"/>
				</g>
				<g>
					<line class="st54" x1="243.51" y1="212.04" x2="226.29" y2="212.04"/>
					<line class="st54" x1="223.34" y1="212.04" x2="217.47" y2="212.04"/>
				</g>
				<line class="st54" x1="235.35" y1="219.59" x2="250.34" y2="219.59"/>
				<line class="st54" x1="525.66" y1="214.11" x2="540.65" y2="214.11"/>
				<line class="st54" x1="388.75" y1="134.6" x2="403.73" y2="134.6"/>
				<line class="st54" x1="549.59" y1="309.89" x2="564.58" y2="309.89"/>
			</g>
			<g>
				<g>
					<path class="st55" d="M204.39,249.22c-0.36-2.3-2.22-4.19-4.52-4.58c-2.62-0.45-4.95,0.95-5.98,3.09
						c-1.02-2.14-3.36-3.54-5.98-3.09c-2.3,0.39-4.16,2.28-4.52,4.58c-0.3,1.89,0.36,3.63,1.56,4.83l7.92,7.92
						c0.56,0.56,1.47,0.56,2.04,0l7.92-7.92C204.03,252.85,204.69,251.11,204.39,249.22z"/>
				</g>
				<g>
					<line class="st54" x1="193.9" y1="233.92" x2="193.9" y2="237.04"/>
					<line class="st54" x1="193.9" y1="267.37" x2="193.9" y2="270.48"/>
					<line class="st54" x1="212.18" y1="252.2" x2="209.06" y2="252.2"/>
					<line class="st54" x1="178.73" y1="252.2" x2="175.62" y2="252.2"/>
					<line class="st54" x1="180.97" y1="239.28" x2="183.17" y2="241.48"/>
					<line class="st54" x1="204.62" y1="262.92" x2="206.82" y2="265.13"/>
					<line class="st54" x1="206.82" y1="239.28" x2="204.62" y2="241.48"/>
					<line class="st54" x1="183.17" y1="262.92" x2="180.97" y2="265.13"/>
					<line class="st54" x1="186.9" y1="235.31" x2="188.09" y2="238.19"/>
					<line class="st54" x1="199.7" y1="266.21" x2="200.89" y2="269.09"/>
					<line class="st54" x1="210.78" y1="245.21" x2="207.9" y2="246.4"/>
					<line class="st54" x1="179.89" y1="258.01" x2="177.01" y2="259.2"/>
					<line class="st54" x1="177.01" y1="245.21" x2="179.89" y2="246.4"/>
					<line class="st54" x1="207.9" y1="258.01" x2="210.78" y2="259.2"/>
					<line class="st54" x1="200.89" y1="235.31" x2="199.7" y2="238.19"/>
					<line class="st54" x1="188.09" y1="266.21" x2="186.9" y2="269.09"/>
				</g>
			</g>
			<g>
				<g>
					<path class="st55" d="M536.16,300.81c-0.36-2.3-2.22-4.19-4.52-4.58c-2.62-0.45-4.95,0.95-5.98,3.09
						c-1.02-2.14-3.36-3.54-5.98-3.09c-2.3,0.39-4.16,2.28-4.52,4.58c-0.3,1.89,0.36,3.63,1.56,4.83l7.92,7.92
						c0.56,0.56,1.47,0.56,2.04,0l7.92-7.92C535.8,304.44,536.45,302.7,536.16,300.81z"/>
				</g>
				<g>
					<line class="st54" x1="525.66" y1="285.51" x2="525.66" y2="288.63"/>
					<line class="st54" x1="525.66" y1="318.96" x2="525.66" y2="322.07"/>
					<line class="st54" x1="543.94" y1="303.79" x2="540.82" y2="303.79"/>
					<line class="st54" x1="510.5" y1="303.79" x2="507.38" y2="303.79"/>
					<line class="st54" x1="512.74" y1="290.87" x2="514.94" y2="293.07"/>
					<line class="st54" x1="536.38" y1="314.52" x2="538.59" y2="316.72"/>
					<line class="st54" x1="538.59" y1="290.87" x2="536.38" y2="293.07"/>
					<line class="st54" x1="514.94" y1="314.52" x2="512.74" y2="316.72"/>
					<line class="st54" x1="518.67" y1="286.91" x2="519.86" y2="289.78"/>
					<line class="st54" x1="531.46" y1="317.8" x2="532.66" y2="320.68"/>
					<line class="st54" x1="542.55" y1="296.8" x2="539.67" y2="297.99"/>
					<line class="st54" x1="511.65" y1="309.6" x2="508.77" y2="310.79"/>
					<line class="st54" x1="508.77" y1="296.8" x2="511.65" y2="297.99"/>
					<line class="st54" x1="539.67" y1="309.6" x2="542.55" y2="310.79"/>
					<line class="st54" x1="532.66" y1="286.91" x2="531.46" y2="289.78"/>
					<line class="st54" x1="519.86" y1="317.8" x2="518.67" y2="320.68"/>
				</g>
			</g>
			<g>
				<g>
					<path class="st55" d="M478.25,142.17c-0.24-1.52-1.46-2.76-2.98-3.02c-1.73-0.29-3.27,0.63-3.94,2.04
						c-0.67-1.41-2.21-2.33-3.94-2.04c-1.51,0.26-2.74,1.5-2.98,3.02c-0.19,1.24,0.24,2.39,1.03,3.18l5.22,5.22
						c0.37,0.37,0.97,0.37,1.34,0l5.22-5.22C478.02,144.56,478.45,143.41,478.25,142.17z"/>
				</g>
				<g>
					<line class="st54" x1="471.34" y1="132.09" x2="471.34" y2="134.14"/>
					<line class="st54" x1="471.34" y1="154.13" x2="471.34" y2="156.18"/>
					<line class="st54" x1="483.39" y1="144.14" x2="481.33" y2="144.14"/>
					<line class="st54" x1="461.34" y1="144.14" x2="459.29" y2="144.14"/>
					<line class="st54" x1="462.82" y1="135.62" x2="464.27" y2="137.07"/>
					<line class="st54" x1="478.4" y1="151.2" x2="479.86" y2="152.66"/>
					<line class="st54" x1="479.86" y1="135.62" x2="478.4" y2="137.07"/>
					<line class="st54" x1="464.27" y1="151.2" x2="462.82" y2="152.66"/>
					<line class="st54" x1="466.73" y1="133.01" x2="467.51" y2="134.9"/>
					<line class="st54" x1="475.16" y1="153.37" x2="475.95" y2="155.27"/>
					<line class="st54" x1="482.47" y1="139.53" x2="480.57" y2="140.31"/>
					<line class="st54" x1="462.1" y1="147.96" x2="460.21" y2="148.75"/>
					<line class="st54" x1="460.21" y1="139.53" x2="462.1" y2="140.31"/>
					<line class="st54" x1="480.57" y1="147.96" x2="482.47" y2="148.75"/>
					<line class="st54" x1="475.95" y1="133.01" x2="475.16" y2="134.9"/>
					<line class="st54" x1="467.51" y1="153.37" x2="466.73" y2="155.27"/>
				</g>
			</g>
			<g>
				<g>
					<circle class="st56" cx="321.58" cy="340.72" r="11.76"/>
					<g>
						<path class="st57" d="M334.49,345.22c0.25-0.77-0.02-1.64-0.67-2.13c-0.74-0.55-1.68-0.49-2.33,0.01
							c0.02-0.82-0.47-1.62-1.35-1.9c-0.77-0.24-1.64,0.04-2.12,0.7c-0.39,0.53-0.46,1.18-0.29,1.74l1.19,3.69
							c0.08,0.26,0.36,0.41,0.63,0.32l3.69-1.19C333.81,346.28,334.28,345.85,334.49,345.22z"/>
					</g>
				</g>
				<ellipse class="st52" cx="317.51" cy="340.72" rx="1.09" ry="1.79"/>
				<g>
					<path class="st52" d="M314.65,337.84c-0.06,0-0.12-0.01-0.18-0.04c-0.21-0.1-0.29-0.34-0.2-0.55c0.05-0.1,1.23-2.55,4.31-2.55
						c0.23,0,0.41,0.18,0.41,0.41c0,0.23-0.18,0.41-0.41,0.41c-2.56,0-3.56,2.05-3.57,2.07
						C314.95,337.76,314.81,337.84,314.65,337.84z"/>
				</g>
				<g>
					<path class="st52" d="M329.06,338.52c-0.11,0-0.23-0.05-0.31-0.14c-0.06-0.07-1.54-1.73-3.99-1.05
						c-0.22,0.06-0.45-0.07-0.51-0.29c-0.06-0.22,0.07-0.45,0.29-0.51c2.97-0.82,4.76,1.21,4.84,1.3c0.15,0.17,0.13,0.43-0.04,0.58
						C329.25,338.49,329.16,338.52,329.06,338.52z"/>
				</g>
				<g>
					<path class="st52" d="M324.8,341.13c-0.09,0-0.17-0.03-0.24-0.08c-0.18-0.13-0.22-0.39-0.09-0.57
						c1.22-1.66,3.03-1.13,3.82-0.62c0.19,0.12,0.24,0.38,0.12,0.57c-0.12,0.19-0.38,0.25-0.57,0.12c-0.17-0.11-1.66-1-2.71,0.42
						C325.05,341.07,324.93,341.13,324.8,341.13z"/>
				</g>
				<g>
					<path class="st52" d="M322.04,348.75c-0.12,0-0.24-0.05-0.32-0.16c-0.14-0.18-0.11-0.44,0.07-0.58l1.19-0.95l-0.75-0.32
						c-0.13-0.05-0.22-0.17-0.24-0.3c-0.03-0.13,0.02-0.27,0.12-0.37l0.76-0.75l-1.42-0.55c-0.21-0.08-0.32-0.32-0.24-0.53
						c0.08-0.21,0.32-0.32,0.53-0.24l2.02,0.78c0.13,0.05,0.23,0.16,0.25,0.3c0.03,0.14-0.01,0.28-0.11,0.38l-0.78,0.76l0.82,0.35
						c0.13,0.06,0.23,0.18,0.24,0.32c0.02,0.14-0.04,0.29-0.15,0.38l-1.73,1.38C322.22,348.72,322.13,348.75,322.04,348.75z"/>
				</g>
			</g>
			<g>
				<g>
					<g>
						<circle class="st56" cx="395.88" cy="250.16" r="14.96"/>
					</g>
				</g>
				<g>
					<path class="st52" d="M395.88,258.72c-2.59,0-3.7-1.98-3.92-3.02c-0.07-0.32,0.14-0.64,0.46-0.71
						c0.33-0.07,0.64,0.14,0.71,0.46c0.02,0.08,0.49,2.08,2.75,2.08c2.28,0,2.73-1.99,2.75-2.08c0.07-0.32,0.38-0.52,0.71-0.46
						c0.32,0.07,0.53,0.39,0.46,0.71C399.58,256.75,398.47,258.72,395.88,258.72z"/>
				</g>
				<g>
					<g>
						<g>
							<path class="st52" d="M386.88,246.79c-0.18,0-0.37-0.08-0.48-0.24c-0.19-0.27-0.14-0.64,0.13-0.83
								c1.28-0.94,4.43-2.16,7.15-0.03c0.26,0.2,0.31,0.58,0.1,0.84c-0.21,0.26-0.58,0.3-0.84,0.1c-2.68-2.1-5.59-0.04-5.71,0.05
								C387.13,246.76,387.01,246.79,386.88,246.79z"/>
						</g>
						<g>
							<path class="st52" d="M392.31,250.76c-0.18,0-0.36-0.08-0.48-0.24c-1.29-1.75-3.14-0.64-3.35-0.51
								c-0.28,0.18-0.65,0.1-0.83-0.18c-0.18-0.28-0.1-0.64,0.17-0.82c1.02-0.66,3.36-1.35,4.96,0.81c0.2,0.26,0.14,0.64-0.13,0.83
								C392.55,250.72,392.43,250.76,392.31,250.76z"/>
						</g>
					</g>
					<g>
						<g>
							<path class="st52" d="M404.88,246.79c-0.12,0-0.24-0.04-0.35-0.11c-0.12-0.09-3.03-2.15-5.71-0.05
								c-0.26,0.2-0.64,0.16-0.84-0.1c-0.2-0.26-0.16-0.64,0.1-0.84c2.72-2.13,5.87-0.91,7.15,0.03c0.27,0.19,0.32,0.57,0.13,0.83
								C405.24,246.71,405.06,246.79,404.88,246.79z"/>
						</g>
						<g>
							<path class="st52" d="M399.45,250.76c-0.12,0-0.25-0.04-0.35-0.12c-0.27-0.2-0.32-0.57-0.13-0.83
								c1.59-2.15,3.94-1.47,4.96-0.81c0.28,0.18,0.35,0.55,0.17,0.82c-0.18,0.28-0.55,0.36-0.83,0.18
								c-0.21-0.13-2.06-1.24-3.35,0.51C399.82,250.67,399.64,250.76,399.45,250.76z"/>
						</g>
					</g>
				</g>
			</g>
			<g>
				<path class="st58" d="M308.78,153.75h-68.52c-11.75,0-21.28,9.53-21.28,21.28v0c0,11.75,9.53,21.28,21.28,21.28h6.11l3.83,4.95
					l3.83-4.95h54.75c11.75,0,21.28-9.53,21.28-21.28v0C330.06,163.28,320.53,153.75,308.78,153.75z"/>
				<g>
					<circle class="st59" cx="238.92" cy="175.03" r="13.17"/>
					
						<ellipse transform="matrix(0.2298 -0.9732 0.9732 0.2298 13.6816 367.3458)" class="st55" cx="238.92" cy="175.03" rx="10.13" ry="10.13"/>
				</g>
				<g>
					<defs>
						
							<ellipse id="SVGID_19_" transform="matrix(0.2298 -0.9732 0.9732 0.2298 13.6816 367.3458)" cx="238.92" cy="175.03" rx="10.13" ry="10.13"/>
					</defs>
					<clipPath id="SVGID_20_">
						<use xlink:href="#SVGID_19_"  style="overflow:visible;"/>
					</clipPath>
					<g class="st60">
						<g>
							<path class="st20" d="M234.88,168.62c2.07-1.89,6.06-2.35,7.66-0.06c0.71,1.02,0.86,2.45,1.79,3.25
								c0.31,0.27,0.71,0.45,0.94,0.8c0.39,0.58,0.19,1.37-0.06,2.02c-0.26,0.65-0.57,1.36-0.37,2.03c0.14,0.47,0.52,0.9,0.45,1.39
								c-0.09,0.66-0.9,0.88-1.55,0.93c-0.53,0.04-1.05,0.06-1.58,0.02c-0.81-0.06-1.61-0.26-2.41-0.22
								c-0.99,0.04-1.93,0.43-2.9,0.63c-1.04,0.21-2.13,0.2-3.17-0.03c-0.62-0.14-1.33-0.49-1.4-1.14
								c-0.04-0.45,0.25-0.86,0.26-1.31c0.02-0.76-0.73-1.35-0.73-2.11c0-0.89,0.97-1.4,1.39-2.17c0.38-0.68,0.3-1.53,0.53-2.27
								C233.93,169.7,234.34,169.11,234.88,168.62z"/>
						</g>
						<g>
							<path class="st33" d="M228.06,184.16c3.34-3.82,8.32-3.74,8.32-3.74l4.92-0.08c0,0,4.38,0.58,7.01,2.73
								c7.88,6.46,6.57,17.79,6.57,17.79s-31.97-6.92-32.01-7.15C222.83,193.49,225.83,186.71,228.06,184.16z"/>
							<path class="st21" d="M241.87,171c0.99,4.01-0.81,7.01-2.36,7.24c-2.22,0.33-3.46-0.76-4.11-2.73
								c-0.29-0.87-0.72-4.18,0.21-5.15C237.13,168.74,241.02,167.58,241.87,171z"/>
							<path class="st21" d="M236.64,176.37l-0.23,3.69c0,0-0.52,1.98,2.52,1.98c3.04,0,2.3-1.98,2.3-1.98l-0.5-4.09"/>
						</g>
						<g>
							<path class="st21" d="M235.55,174.03c-0.19-0.21-0.59-0.25-0.83-0.08c-0.21,0.15-0.26,0.39-0.27,0.62
								c-0.01,0.22,0,0.44,0.09,0.64c0.09,0.2,0.26,0.39,0.5,0.48c0.24,0.09,0.55,0.06,0.73-0.09"/>
						</g>
						<g>
							<path class="st21" d="M241.74,174.03c0.19-0.21,0.59-0.25,0.83-0.08c0.21,0.15,0.26,0.39,0.27,0.62
								c0.01,0.22,0,0.44-0.09,0.64c-0.09,0.2-0.26,0.39-0.5,0.48s-0.55,0.06-0.73-0.09"/>
						</g>
						<g>
							<path class="st20" d="M234.35,173.51c1.89-0.4,3.62-1.51,4.78-3.05c1,1.22,2.31,2.18,3.78,2.76c0.12-0.99,0.23-2.04-0.2-2.94
								c-0.3-0.62-0.82-1.1-1.34-1.56c-0.44-0.39-0.91-0.78-1.46-0.99c-1.06-0.4-2.28-0.05-3.22,0.59c-1.32,0.91-2.23,2.4-2.42,3.99
								"/>
						</g>
						<g>
							<path class="st20" d="M239.66,167.54c-0.1,0.06-0.22-0.04-0.3-0.13c-0.3-0.35-0.62-0.79-0.48-1.23
								c0.06-0.2,0.22-0.36,0.39-0.48c0.41-0.29,0.97-0.38,1.43-0.18c0.46,0.2,0.79,0.71,0.72,1.2c-0.07,0.5-0.57,0.91-1.06,0.84"/>
						</g>
						<path class="st61" d="M236.75,177.74c0,0,0.64,0.9,1.8,0.98c1.49,0.1,2.14-1.27,2.14-1.27"/>
						<path class="st61" d="M238.93,176.02c0,0-0.66,0.14-0.66-0.27c0-0.41,0.21-2.24,0.21-2.24"/>
						<g>
							<g>
								<path class="st20" d="M240.04,173.91c-0.02,0.11-0.03,0.22-0.02,0.34c0.01,0.56,0.88,0.47,0.77-0.1
									c-0.01-0.11-0.04-0.22-0.08-0.32C240.59,173.43,240.08,173.53,240.04,173.91L240.04,173.91z"/>
							</g>
						</g>
						<path class="st62" d="M239.82,173.03c0,0,0.52-0.39,1.35,0.1"/>
						<g>
							<g>
								<path class="st20" d="M236.53,173.82c-0.04,0.1-0.07,0.21-0.08,0.32c-0.11,0.57,0.77,0.68,0.77,0.1
									c0.01-0.11,0-0.23-0.02-0.34C237.16,173.53,236.65,173.43,236.53,173.82L236.53,173.82z"/>
							</g>
						</g>
						<path class="st62" d="M237.42,173.03c0,0-0.52-0.39-1.35,0.1"/>
						<path class="st10" d="M237.64,176.58h2.18c0,0-0.31,1.12-1.1,1.12S237.64,176.58,237.64,176.58z"/>
					</g>
				</g>
				<g>
					<line class="st63" x1="256.96" y1="164.09" x2="316.43" y2="164.09"/>
					<line class="st63" x1="256.96" y1="171.38" x2="316.43" y2="171.38"/>
					<line class="st63" x1="304.55" y1="178.68" x2="316.43" y2="178.68"/>
					<line class="st63" x1="256.96" y1="178.68" x2="297.78" y2="178.68"/>
					<line class="st63" x1="256.96" y1="185.97" x2="288.43" y2="185.97"/>
				</g>
			</g>
			<g>
				<path class="st58" d="M360.3,182.69h68.52c11.75,0,21.28,9.53,21.28,21.28v0c0,11.75-9.53,21.28-21.28,21.28h-2.92l-3.83,4.95
					l-3.83-4.95H360.3c-11.75,0-21.28-9.53-21.28-21.28v0C339.02,192.21,348.54,182.69,360.3,182.69z"/>
				<g>
					<circle class="st59" cx="430.15" cy="203.97" r="13.17"/>
					
						<ellipse transform="matrix(0.973 -0.231 0.231 0.973 -35.4791 104.8682)" class="st55" cx="430.15" cy="203.97" rx="10.13" ry="10.13"/>
				</g>
				<g>
					<defs>
						
							<ellipse id="SVGID_21_" transform="matrix(0.973 -0.231 0.231 0.973 -35.4791 104.8682)" cx="430.15" cy="203.97" rx="10.13" ry="10.13"/>
					</defs>
					<clipPath id="SVGID_22_">
						<use xlink:href="#SVGID_21_"  style="overflow:visible;"/>
					</clipPath>
					<g class="st64">
						<path class="st33" d="M441.02,213.1c-3.34-3.82-8.32-3.74-8.32-3.74l-4.92-0.08c0,0-4.38,0.58-7.01,2.73
							c-7.88,6.46-6.57,17.79-6.57,17.79s31.97-6.92,32.01-7.15C446.24,222.43,443.25,215.65,441.02,213.1z"/>
						<path class="st21" d="M426.88,199.94c-0.99,4.01,0.81,7.01,2.36,7.24c2.22,0.33,3.46-0.76,4.11-2.73
							c0.29-0.87,0.72-4.18-0.21-5.15C431.62,197.68,427.73,196.52,426.88,199.94z"/>
						<path class="st21" d="M432.85,205.25l0.05,3.69c0,0,0.58,1.98-2.85,1.98s-2.6-1.98-2.6-1.98l0.06-4.09"/>
						<g>
							<path class="st21" d="M433.26,202.97c0.19-0.21,0.59-0.25,0.83-0.08c0.21,0.15,0.26,0.39,0.27,0.62
								c0.01,0.22,0,0.44-0.09,0.64c-0.09,0.2-0.26,0.39-0.5,0.48c-0.24,0.09-0.55,0.06-0.73-0.09"/>
						</g>
						<path class="st61" d="M432.68,206.68c0,0-0.8,0.9-2.24,0.98c-1.86,0.1-2.66-1.27-2.66-1.27"/>
						<path class="st61" d="M429.85,204.2c0,0,0.66,0.13,0.66-0.24s-0.21-1.98-0.21-1.98"/>
						<g>
							<g>
								<path class="st20" d="M428.06,202.29c-0.04,0.1-0.07,0.21-0.08,0.32c-0.11,0.57,0.77,0.68,0.77,0.1
									c0.01-0.11,0-0.23-0.02-0.34C428.69,202.01,428.19,201.9,428.06,202.29L428.06,202.29z"/>
							</g>
						</g>
						<g>
							<g>
								<path class="st20" d="M431.57,202.38c-0.02,0.11-0.03,0.22-0.02,0.34c0.01,0.56,0.88,0.47,0.77-0.1
									c-0.01-0.11-0.04-0.22-0.08-0.32C432.12,201.9,431.62,202,431.57,202.38L431.57,202.38z"/>
							</g>
						</g>
						<path class="st10" d="M431.74,205.32h-2.79c0,0,0.13,1.12,1.41,1.12C431.64,206.44,431.74,205.32,431.74,205.32z"/>
						<g>
							<path class="st20" d="M426.64,203.36c0.64-0.94,1.26-1.88,1.16-3.21c1.22,0.5,2.81,0.5,4.07,0.27c0.79-0.14,1.74-0.45,2.38-1
								c0.64-0.55,0.89-2.37,0.29-2.98c-0.63-0.66-1.66-0.25-2.42,0.2c-0.33-0.63-0.94-1.06-1.59-1.13
								c-0.65-0.06-1.32,0.24-1.74,0.8c-0.12,0.15-0.23,0.34-0.4,0.41c-0.2,0.09-0.43-0.01-0.64-0.05c-1.16-0.26-2.26,1.59-2.46,2.9
								c-0.2,1.31,0.24,2.63,0.7,3.85c0.07,0.19,0.26,0.41,0.39,0.28"/>
						</g>
						<g>
							<path class="st20" d="M433.73,198.71c1.01,1.34,1.13,3.29,0.28,4.75c-0.03,0.05-0.07,0.11-0.13,0.13
								c-0.07,0.02-0.15-0.02-0.21-0.07c-0.26-0.23-0.38-0.58-0.43-0.93c-0.04-0.35-0.01-0.7-0.03-1.05
								c-0.04-0.84-0.35-1.66-0.87-2.31"/>
						</g>
						<g>
							<path class="st21" d="M427.05,202.97c-0.19-0.21-0.59-0.25-0.83-0.08c-0.21,0.15-0.26,0.39-0.27,0.62
								c-0.01,0.22,0,0.44,0.09,0.64c0.09,0.2,0.26,0.39,0.5,0.48c0.24,0.09,0.55,0.06,0.73-0.09"/>
						</g>
					</g>
				</g>
				<g>
					<line class="st63" x1="412.11" y1="193.03" x2="352.64" y2="193.03"/>
					<line class="st63" x1="396.24" y1="200.32" x2="352.64" y2="200.32"/>
					<line class="st63" x1="412.11" y1="200.32" x2="401.92" y2="200.32"/>
					<line class="st63" x1="370.69" y1="207.61" x2="352.64" y2="207.61"/>
					<line class="st63" x1="412.11" y1="207.61" x2="377.45" y2="207.61"/>
					<line class="st63" x1="390.24" y1="214.9" x2="352.64" y2="214.9"/>
				</g>
			</g>
			<g>
				<path class="st55" d="M329.31,214.3h-26.28c-4.22,0-7.65,3.42-7.65,7.65l0,0c0,4.22,3.42,7.65,7.65,7.65h2.2l1.38,1.78
					l1.38-1.78h21.33c4.22,0,7.65-3.42,7.65-7.65l0,0C336.96,217.73,333.54,214.3,329.31,214.3z"/>
				<g>
					<path class="st10" d="M308.81,219.98c-0.15-0.97-0.93-1.76-1.9-1.93c-1.1-0.19-2.08,0.4-2.52,1.3c-0.43-0.9-1.41-1.49-2.52-1.3
						c-0.97,0.16-1.75,0.96-1.9,1.93c-0.12,0.79,0.15,1.53,0.66,2.03l3.33,3.33c0.24,0.24,0.62,0.24,0.86,0l3.33-3.33
						C308.65,221.5,308.93,220.77,308.81,219.98z"/>
					<path class="st10" d="M320.59,219.98c-0.15-0.97-0.93-1.76-1.9-1.93c-1.1-0.19-2.08,0.4-2.52,1.3c-0.43-0.9-1.41-1.49-2.52-1.3
						c-0.97,0.16-1.75,0.96-1.9,1.93c-0.12,0.79,0.15,1.53,0.66,2.03l3.33,3.33c0.24,0.24,0.62,0.24,0.86,0l3.33-3.33
						C320.44,221.5,320.71,220.77,320.59,219.98z"/>
					<path class="st10" d="M332.38,219.98c-0.15-0.97-0.93-1.76-1.9-1.93c-1.1-0.19-2.09,0.4-2.52,1.3c-0.43-0.9-1.41-1.49-2.52-1.3
						c-0.97,0.16-1.75,0.96-1.9,1.93c-0.12,0.79,0.15,1.53,0.66,2.03l3.33,3.33c0.24,0.24,0.62,0.24,0.86,0l3.33-3.33
						C332.22,221.5,332.5,220.77,332.38,219.98z"/>
				</g>
			</g>
			<g>
				<path class="st55" d="M403.53,331.47h26.28c4.22,0,7.65-3.42,7.65-7.65l0,0c0-4.22-3.42-7.65-7.65-7.65h-2.2l-1.38-1.78
					l-1.38,1.78h-21.33c-4.22,0-7.65,3.42-7.65,7.65l0,0C395.88,328.05,399.3,331.47,403.53,331.47z"/>
				<g>
					<path class="st10" d="M409.3,322.11c-0.15-0.97-0.93-1.76-1.9-1.93c-1.1-0.19-2.08,0.4-2.52,1.3c-0.43-0.9-1.41-1.49-2.52-1.3
						c-0.97,0.16-1.75,0.96-1.9,1.93c-0.12,0.79,0.15,1.53,0.66,2.03l3.33,3.33c0.24,0.24,0.62,0.24,0.86,0l3.33-3.33
						C409.15,323.64,409.42,322.91,409.3,322.11z"/>
					<path class="st10" d="M421.08,322.11c-0.15-0.97-0.93-1.76-1.9-1.93c-1.1-0.19-2.08,0.4-2.52,1.3c-0.43-0.9-1.41-1.49-2.52-1.3
						c-0.97,0.16-1.75,0.96-1.9,1.93c-0.12,0.79,0.15,1.53,0.66,2.03l3.33,3.33c0.24,0.24,0.62,0.24,0.86,0l3.33-3.33
						C420.93,323.64,421.21,322.91,421.08,322.11z"/>
					<path class="st10" d="M432.87,322.11c-0.15-0.97-0.93-1.76-1.9-1.93c-1.1-0.19-2.09,0.4-2.52,1.3c-0.43-0.9-1.41-1.49-2.52-1.3
						c-0.97,0.16-1.75,0.96-1.9,1.93c-0.12,0.79,0.15,1.53,0.66,2.03l3.33,3.33c0.24,0.24,0.62,0.24,0.86,0l3.33-3.33
						C432.72,323.64,432.99,322.91,432.87,322.11z"/>
				</g>
			</g>
			<g>
				<g>
					<path class="st58" d="M528.88,182.96h-33.21c-5.34,0-9.67,4.33-9.67,9.67l0,0c0,5.34,4.33,9.67,9.67,9.67h2.78l1.74,2.25
						l1.74-2.25h26.95c5.34,0,9.67-4.33,9.67-9.67l0,0C538.55,187.29,534.22,182.96,528.88,182.96z"/>
				</g>
				<g>
					
						<ellipse transform="matrix(0.7071 -0.7071 0.7071 0.7071 9.2991 407.511)" class="st28" cx="496.56" cy="192.53" rx="6.51" ry="6.51"/>
					<g>
						<path class="st57" d="M501.3,191.39c0.14-0.42-0.01-0.91-0.37-1.18c-0.41-0.31-0.93-0.27-1.29,0c0.01-0.46-0.26-0.9-0.75-1.05
							c-0.43-0.13-0.91,0.02-1.17,0.39c-0.22,0.3-0.26,0.65-0.16,0.96l0.66,2.05c0.05,0.15,0.2,0.23,0.35,0.18l2.05-0.66
							C500.92,191.98,501.19,191.74,501.3,191.39z"/>
					</g>
					<g>
						<path class="st57" d="M491.63,191.39c-0.14-0.42,0.01-0.91,0.37-1.18c0.41-0.31,0.93-0.27,1.29,0
							c-0.01-0.46,0.26-0.9,0.75-1.05c0.43-0.13,0.91,0.02,1.17,0.39c0.22,0.3,0.26,0.65,0.16,0.96l-0.66,2.05
							c-0.05,0.15-0.2,0.23-0.35,0.18l-2.05-0.66C492.01,191.98,491.74,191.74,491.63,191.39z"/>
					</g>
					<path class="st10" d="M499.92,193.9c0,1.86-1.5,3.36-3.36,3.36c-1.86,0-3.36-1.5-3.36-3.36H499.92z"/>
				</g>
				<g>
					
						<ellipse transform="matrix(0.1606 -0.987 0.987 0.1606 240.1363 667.4223)" class="st28" cx="512.46" cy="192.53" rx="6.51" ry="6.51"/>
					<g>
						<path class="st57" d="M517.2,191.39c0.14-0.42-0.01-0.91-0.37-1.18c-0.41-0.31-0.93-0.27-1.29,0c0.01-0.46-0.26-0.9-0.75-1.05
							c-0.43-0.13-0.91,0.02-1.17,0.39c-0.22,0.3-0.26,0.65-0.16,0.96l0.66,2.05c0.05,0.15,0.2,0.23,0.35,0.18l2.05-0.66
							C516.82,191.98,517.09,191.74,517.2,191.39z"/>
					</g>
					<g>
						<path class="st57" d="M507.53,191.39c-0.14-0.42,0.01-0.91,0.37-1.18c0.41-0.31,0.93-0.27,1.29,0
							c-0.01-0.46,0.26-0.9,0.75-1.05c0.43-0.13,0.91,0.02,1.17,0.39c0.22,0.3,0.26,0.65,0.16,0.96l-0.66,2.05
							c-0.05,0.15-0.2,0.23-0.35,0.18l-2.05-0.66C507.91,191.98,507.64,191.74,507.53,191.39z"/>
					</g>
					<path class="st10" d="M515.82,193.9c0,1.86-1.5,3.36-3.36,3.36c-1.86,0-3.36-1.5-3.36-3.36H515.82z"/>
				</g>
				<g>
					
						<ellipse transform="matrix(0.2305 -0.9731 0.9731 0.2305 219.208 662.2711)" class="st28" cx="528.36" cy="192.53" rx="6.51" ry="6.51"/>
					<g>
						<path class="st57" d="M533.1,191.39c0.14-0.42-0.01-0.91-0.37-1.18c-0.41-0.31-0.93-0.27-1.29,0c0.01-0.46-0.26-0.9-0.75-1.05
							c-0.43-0.13-0.91,0.02-1.17,0.39c-0.22,0.3-0.26,0.65-0.16,0.96l0.66,2.05c0.05,0.15,0.2,0.23,0.35,0.18l2.05-0.66
							C532.72,191.98,532.99,191.74,533.1,191.39z"/>
					</g>
					<g>
						<path class="st57" d="M523.43,191.39c-0.14-0.42,0.01-0.91,0.37-1.18c0.41-0.31,0.93-0.27,1.29,0
							c-0.01-0.46,0.26-0.9,0.75-1.05c0.43-0.13,0.91,0.02,1.17,0.39c0.22,0.3,0.26,0.65,0.16,0.96l-0.66,2.05
							c-0.05,0.15-0.2,0.23-0.35,0.18l-2.05-0.66C523.81,191.98,523.54,191.74,523.43,191.39z"/>
					</g>
					<path class="st10" d="M531.72,193.9c0,1.86-1.5,3.36-3.36,3.36c-1.86,0-3.36-1.5-3.36-3.36H531.72z"/>
				</g>
			</g>
		</g>
	</g>
</g>
<g id="DESIGNED_BY_FREEPIK">
</g>
</svg>
