<?xml version="1.0" encoding="utf-8"?>
<!-- Generator: Adobe Illustrator 23.0.2, SVG Export Plug-In . SVG Version: 6.00 Build 0)  -->
<svg version="1.1" xmlns="http://www.w3.org/2000/svg" xmlns:xlink="http://www.w3.org/1999/xlink" x="0px" y="0px"
	 viewBox="0 0 750 500" style="enable-background:new 0 0 750 500;" xml:space="preserve">
<style type="text/css">
	.st0{fill:#FFDCEA;}
	.st1{fill:none;stroke:#FFFFFF;stroke-linecap:round;stroke-miterlimit:10;}
	.st2{clip-path:url(#SVGID_2_);}
	.st3{fill:#FFC0D8;}
	.st4{clip-path:url(#SVGID_4_);}
	.st5{fill:none;stroke:#FFDCEA;stroke-linecap:round;stroke-miterlimit:10;}
	.st6{clip-path:url(#SVGID_6_);}
	.st7{clip-path:url(#SVGID_8_);}
	.st8{fill:#B7D1FF;}
	.st9{fill:none;stroke:#FFFFFF;stroke-linecap:round;stroke-linejoin:round;stroke-miterlimit:10;}
	.st10{fill:#FFFFFF;}
	.st11{fill:none;stroke:#6CA0FF;stroke-width:3;stroke-linecap:round;stroke-linejoin:round;stroke-miterlimit:10;}
	.st12{clip-path:url(#SVGID_10_);}
	.st13{fill:url(#SVGID_11_);}
	.st14{fill:url(#SVGID_12_);}
	.st15{opacity:0.25;clip-path:url(#SVGID_14_);fill:#B7D1FF;}
	.st16{clip-path:url(#SVGID_14_);}
	.st17{opacity:0.25;fill:#B7D1FF;}
	.st18{fill:none;stroke:#FFFFFF;stroke-width:1.5;stroke-linecap:round;stroke-linejoin:round;stroke-miterlimit:10;}
	.st19{fill:none;stroke:#6CA0FF;stroke-linejoin:round;stroke-miterlimit:10;}
	.st20{fill:#00276F;}
	.st21{fill:#F886BC;}
	.st22{fill:none;stroke:#D34F9B;stroke-width:0.75;stroke-miterlimit:10;}
	.st23{fill:none;stroke:#00276F;stroke-width:0.75;stroke-linecap:round;stroke-miterlimit:10;}
	.st24{fill:#DD3C91;}
	.st25{fill:#EF8318;}
	.st26{fill:none;stroke:#AF480E;stroke-width:0.75;stroke-miterlimit:10;}
	.st27{fill:none;stroke:#AF480E;stroke-width:0.75;stroke-miterlimit:10;stroke-dasharray:2,1.5;}
	.st28{fill:#FFAB37;}
	.st29{fill:none;stroke:#AF480E;stroke-width:0.75;stroke-linecap:round;stroke-miterlimit:10;}
	.st30{fill:none;stroke:#AF480E;stroke-width:0.75;stroke-miterlimit:10;stroke-dasharray:2.0216,1.5162;}
	.st31{fill:#AF480E;}
	.st32{fill:none;stroke:#2D5491;stroke-width:0.5;stroke-linecap:round;stroke-miterlimit:10;}
	.st33{fill:#0070E4;}
	.st34{fill:#D34F9B;}
	.st35{fill:none;stroke:#0E4099;stroke-width:0.75;stroke-miterlimit:10;}
	.st36{fill:none;stroke:#00276F;stroke-linecap:round;stroke-miterlimit:10;}
	.st37{fill:#00224C;}
	.st38{fill:none;stroke:#15489B;stroke-width:0.75;stroke-miterlimit:10;stroke-dasharray:2,1.5;}
	.st39{fill:none;stroke:#15489B;stroke-width:0.75;stroke-miterlimit:10;}
	.st40{fill:#15489B;}
	.st41{fill:none;stroke:#1B5ABF;stroke-width:0.75;stroke-miterlimit:10;}
	.st42{fill:none;stroke:#1B5ABF;stroke-width:0.75;stroke-miterlimit:10;stroke-dasharray:2,1.5;}
	.st43{fill:#1B5ABF;}
	.st44{fill:none;stroke:#00276F;stroke-width:0.75;stroke-miterlimit:10;}
	.st45{fill:#0A172B;}
	.st46{fill:#8DADE0;}
	.st47{fill:none;stroke:#8DADE0;stroke-width:0.25;stroke-linecap:round;stroke-miterlimit:10;}
	.st48{opacity:0.55;fill:#8DADE0;}
	.st49{opacity:0.51;fill:#FFFFFF;}
	.st50{clip-path:url(#SVGID_16_);fill:url(#SVGID_17_);}
	.st51{clip-path:url(#SVGID_16_);fill:url(#SVGID_18_);}
	.st52{fill:#6CA0FF;}
	.st53{fill:none;stroke:#225BAF;stroke-width:0.75;stroke-miterlimit:10;}
	.st54{fill:none;stroke:#6CA0FF;stroke-linecap:round;stroke-linejoin:round;stroke-miterlimit:10;}
	.st55{fill:#FF5A89;}
	.st56{fill:#D2E4FF;}
	.st57{fill:#EA3974;}
	.st58{fill:#FFFFFF;stroke:#6CA0FF;stroke-linecap:round;stroke-linejoin:round;stroke-miterlimit:10;}
	.st59{fill:#E6EFFC;}
	.st60{clip-path:url(#SVGID_20_);}
	.st61{fill:none;stroke:#D34F9B;stroke-width:0.5;stroke-linecap:round;stroke-linejoin:round;stroke-miterlimit:10;}
	.st62{fill:none;stroke:#00276F;stroke-width:0.5;stroke-linecap:round;stroke-linejoin:round;stroke-miterlimit:10;}
	.st63{fill:none;stroke:#E6EFFC;stroke-width:3;stroke-linecap:round;stroke-linejoin:round;stroke-miterlimit:10;}
	.st64{clip-path:url(#SVGID_22_);}
</style>
<g id="OBJECTS">
	<g>
		<g>
			<g>
				<g>
					<path class="st0" d="M505.66,383.14c-0.8-7.09-1.4-14.25-0.83-21.37c0.57-7.18,2.53-15.58,6.51-21.68
						c2.3-3.52,10.28-11.72,11.39-2.39c0.55,4.61-1.52,8.8-3.05,13.01c-1.47,4.04-3.5,7.93-4.78,12.03
						c-2.04,6.54-3.45,13.27-5.72,19.75"/>
				</g>
				<g>
					<path class="st0" d="M509.05,396.11c5.73-9.69,11.79-19.19,19.34-27.12c6.3-6.61,14.08-12.69,22.82-16
						c5.89-2.23,22.68-6.88,25.12,2.29c1.98,7.42-6.2,12.83-11.67,15.89c-7.82,4.38-16.25,7.55-23.99,12.15
						c-8.94,5.31-17.22,11.66-26.39,16.6"/>
				</g>
				<g>
					<path class="st0" d="M512.96,374.51c3.11-9.02,6.16-17.84,11.15-25.98c3.33-5.42,9.26-14.93,16.56-15.39
						c4.71-0.29,4.45,6.94,3.7,9.96c-1.2,4.88-4.19,9.24-7.49,12.95c-7.93,8.92-14.91,17.03-21.72,26.82"/>
				</g>
				<path class="st1" d="M538.64,339.44c0,0-15.45,17.26-26.57,46.55"/>
				<path class="st1" d="M565.55,358.28c0,0-23.86,4.04-57.39,42.53"/>
				<path class="st1" d="M518.62,339.63c0,0-10.48,13.45-12.07,48.78"/>
			</g>
			<g>
				<g>
					<path class="st0" d="M267.32,385.28c1.54-9.72,2.81-19.53,2.47-29.36c-0.34-9.92-2.51-21.61-7.62-30.25
						c-2.95-4.99-13.43-16.77-15.54-3.99c-1.04,6.32,1.55,12.21,3.4,18.1c1.77,5.65,4.33,11.13,5.83,16.85
						c2.4,9.14,3.93,18.48,6.65,27.54"/>
				</g>
				<g>
					<path class="st0" d="M262.18,390.3c-2.54-12.19-5.49-24.29-10.56-35.29c-4.23-9.17-10.2-18.31-18.17-24.89
						c-5.37-4.44-21.28-15.3-27.11-6.57c-4.72,7.06,1.91,15.65,6.54,20.8c6.62,7.38,14.32,13.71,20.77,21.28
						c7.46,8.75,13.86,18.35,21.69,26.79"/>
				</g>
				<g>
					<path class="st0" d="M242.95,383.72c-6.55-8.08-14.22-15.25-22.72-21.25c-2.87-2.03-17.53-11.97-17.49-2.28
						c0.03,6.64,7.97,10.46,12.87,13.04c10.1,5.31,21.02,9.13,30.42,15.59"/>
				</g>
				<path class="st1" d="M207.4,361.94c0,0,20.23,8.99,41.41,30.17"/>
				<path class="st1" d="M216.55,330.54c0,0,23.53,12.75,44.88,65.01"/>
				<path class="st1" d="M252.19,324.57c0,0,13.6,19.17,13.6,67.9"/>
			</g>
			<g>
				<path class="st0" d="M549.85,393.64c21.73,2.6,39.02,24.32,39.6,38.67h-79.19C510.26,411.9,525.81,390.76,549.85,393.64z"/>
				<g>
					<defs>
						<path id="SVGID_1_" d="M549.85,393.64c21.73,2.6,39.02,24.32,39.6,38.67h-79.19C510.26,411.9,525.81,390.76,549.85,393.64z"/>
					</defs>
					<clipPath id="SVGID_2_">
						<use xlink:href="#SVGID_1_"  style="overflow:visible;"/>
					</clipPath>
					<g class="st2">
						<line class="st1" x1="545" y1="390.56" x2="547.89" y2="435.91"/>
						<line class="st1" x1="546.05" y1="406.99" x2="553.7" y2="392.3"/>
						<line class="st1" x1="537.38" y1="434.86" x2="518.44" y2="402.28"/>
						<line class="st1" x1="532.82" y1="393.99" x2="530.23" y2="422.58"/>
						<line class="st1" x1="531.14" y1="437.09" x2="511.29" y2="420.51"/>
						<line class="st1" x1="518.67" y1="426.67" x2="510.09" y2="425.56"/>
						<line class="st1" x1="573.67" y1="400.7" x2="550.08" y2="434.21"/>
						<line class="st1" x1="560.4" y1="394.88" x2="563.72" y2="414.84"/>
						<line class="st1" x1="588.43" y1="417.97" x2="562.68" y2="434.86"/>
						<line class="st1" x1="582.77" y1="410.14" x2="559.72" y2="420.51"/>
						<line class="st1" x1="578.5" y1="424.48" x2="592.5" y2="426.67"/>
					</g>
				</g>
			</g>
			<g>
				<path class="st3" d="M256.18,371.89c-33.96,4.07-60.97,38-61.87,60.42h123.75C318.06,400.42,293.75,367.39,256.18,371.89z"/>
				<g>
					<defs>
						<path id="SVGID_3_" d="M256.18,371.89c-33.96,4.07-60.97,38-61.87,60.42h123.75C318.06,400.42,293.75,367.39,256.18,371.89z"
							/>
					</defs>
					<clipPath id="SVGID_4_">
						<use xlink:href="#SVGID_3_"  style="overflow:visible;"/>
					</clipPath>
					<g class="st4">
						<line class="st5" x1="263.76" y1="367.07" x2="259.25" y2="437.93"/>
						<line class="st5" x1="261.51" y1="401.89" x2="238.5" y2="374.06"/>
						<line class="st5" x1="275.68" y1="436.3" x2="305.28" y2="385.38"/>
						<line class="st5" x1="282.8" y1="372.43" x2="286.84" y2="417.1"/>
						<line class="st5" x1="285.42" y1="439.77" x2="316.43" y2="413.87"/>
						<line class="st5" x1="304.91" y1="423.49" x2="318.31" y2="421.77"/>
						<line class="st5" x1="262.15" y1="392.37" x2="277.23" y2="367.07"/>
						<line class="st5" x1="221.95" y1="377.82" x2="257.06" y2="434.74"/>
						<line class="st5" x1="208.17" y1="392.47" x2="245.28" y2="415.64"/>
						<line class="st5" x1="200.79" y1="405" x2="236.14" y2="436.3"/>
						<line class="st5" x1="194.31" y1="418.68" x2="220.7" y2="422.63"/>
					</g>
				</g>
			</g>
			<g>
				<path class="st3" d="M475.95,358.63c41.41,4.96,74.35,46.34,75.45,73.68H400.5C400.5,393.42,430.14,353.14,475.95,358.63z"/>
				<g>
					<defs>
						<path id="SVGID_5_" d="M475.95,358.63c41.41,4.96,74.35,46.34,75.45,73.68H400.5C400.5,393.42,430.14,353.14,475.95,358.63z"
							/>
					</defs>
					<clipPath id="SVGID_6_">
						<use xlink:href="#SVGID_5_"  style="overflow:visible;"/>
					</clipPath>
					<g class="st6">
						<line class="st5" x1="466.71" y1="352.75" x2="472.21" y2="439.17"/>
						<line class="st5" x1="469.46" y1="395.22" x2="497.51" y2="361.28"/>
						<line class="st5" x1="452.18" y1="437.17" x2="416.09" y2="375.08"/>
						<line class="st5" x1="443.5" y1="359.29" x2="438.57" y2="413.76"/>
						<line class="st5" x1="440.3" y1="441.41" x2="402.48" y2="409.83"/>
						<line class="st5" x1="416.53" y1="421.56" x2="400.19" y2="419.45"/>
						<line class="st5" x1="468.68" y1="383.61" x2="450.29" y2="352.75"/>
						<line class="st5" x1="517.69" y1="365.86" x2="474.89" y2="435.28"/>
						<line class="st5" x1="527.86" y1="375.08" x2="499.13" y2="395.96"/>
						<line class="st5" x1="543.5" y1="399.01" x2="500.39" y2="437.17"/>
						<line class="st5" x1="524.77" y1="415.59" x2="534.5" y2="389.79"/>
						<line class="st5" x1="512.19" y1="426.73" x2="555.06" y2="417.57"/>
					</g>
				</g>
			</g>
			<g>
				<path class="st0" d="M184.75,393.64c-21.73,2.6-39.02,24.32-39.6,38.67h79.19C224.35,411.9,208.8,390.76,184.75,393.64z"/>
				<g>
					<defs>
						<path id="SVGID_7_" d="M184.75,393.64c-21.73,2.6-39.02,24.32-39.6,38.67h79.19C224.35,411.9,208.8,390.76,184.75,393.64z"/>
					</defs>
					<clipPath id="SVGID_8_">
						<use xlink:href="#SVGID_7_"  style="overflow:visible;"/>
					</clipPath>
					<g class="st7">
						<line class="st1" x1="189.6" y1="390.56" x2="186.71" y2="435.91"/>
						<line class="st1" x1="188.16" y1="412.84" x2="180.9" y2="392.3"/>
						<line class="st1" x1="197.23" y1="434.86" x2="216.17" y2="402.28"/>
						<line class="st1" x1="201.78" y1="393.99" x2="204.37" y2="422.58"/>
						<line class="st1" x1="203.46" y1="437.09" x2="223.31" y2="420.51"/>
						<line class="st1" x1="215.94" y1="426.67" x2="224.51" y2="425.56"/>
						<line class="st1" x1="188.57" y1="406.75" x2="198.22" y2="390.56"/>
						<line class="st1" x1="160.93" y1="400.7" x2="180.9" y2="434.86"/>
						<line class="st1" x1="174.2" y1="394.88" x2="173.72" y2="422.58"/>
						<line class="st1" x1="149.3" y1="414.84" x2="171.93" y2="434.86"/>
						<line class="st1" x1="145.16" y1="423.59" x2="162.05" y2="426.12"/>
					</g>
				</g>
			</g>
		</g>
		<g>
			<g>
				<path class="st8" d="M435.13,432.31H306.08c-6.15,0-11.13-4.98-11.13-11.13V171.99c0-6.15,4.98-11.13,11.13-11.13h129.05
					c6.15,0,11.13,4.98,11.13,11.13v249.19C446.26,427.33,441.28,432.31,435.13,432.31z"/>
				<g>
					<path class="st9" d="M376.02,417.95c0,2.99-2.42,5.41-5.41,5.41c-2.99,0-5.41-2.42-5.41-5.41c0-2.99,2.42-5.41,5.41-5.41
						C373.6,412.54,376.02,414.96,376.02,417.95z"/>
				</g>
				<rect x="299" y="180.21" class="st10" width="143.21" height="223.44"/>
				<line class="st11" x1="357.61" y1="169.95" x2="383.61" y2="169.95"/>
				<line class="st11" x1="347.97" y1="169.95" x2="352.77" y2="169.95"/>
				<g>
					<defs>
						<path id="SVGID_9_" d="M435.13,432.31H306.08c-6.15,0-11.13-4.98-11.13-11.13V171.99c0-6.15,4.98-11.13,11.13-11.13h129.05
							c6.15,0,11.13,4.98,11.13,11.13v249.19C446.26,427.33,441.28,432.31,435.13,432.31z"/>
					</defs>
					<clipPath id="SVGID_10_">
						<use xlink:href="#SVGID_9_"  style="overflow:visible;"/>
					</clipPath>
					<g class="st12">
						<linearGradient id="SVGID_11_" gradientUnits="userSpaceOnUse" x1="479.751" y1="171.8436" x2="252.8299" y2="398.7648">
							<stop  offset="0.2704" style="stop-color:#FFFFFF;stop-opacity:0.4"/>
							<stop  offset="1" style="stop-color:#FFFFFF;stop-opacity:0.2"/>
						</linearGradient>
						<polygon class="st13" points="406.45,131.45 293.22,439.16 326.13,439.16 439.36,131.45 						"/>
						<linearGradient id="SVGID_12_" gradientUnits="userSpaceOnUse" x1="508.6209" y1="176.5832" x2="291.1789" y2="394.0253">
							<stop  offset="0.2704" style="stop-color:#FFFFFF;stop-opacity:0.4"/>
							<stop  offset="1" style="stop-color:#FFFFFF;stop-opacity:0.2"/>
						</linearGradient>
						<polygon class="st14" points="449.54,131.45 336.31,439.16 350.26,439.16 463.49,131.45 						"/>
					</g>
				</g>
				<g>
					<defs>
						<rect id="SVGID_13_" x="299" y="180.21" width="143.21" height="223.44"/>
					</defs>
					<clipPath id="SVGID_14_">
						<use xlink:href="#SVGID_13_"  style="overflow:visible;"/>
					</clipPath>
					<path class="st15" d="M326.18,176.1h-66.61c-11.42,0-20.69,9.26-20.69,20.69v0c0,11.42,9.26,20.69,20.69,20.69h5.94l3.72,4.81
						l3.72-4.81h53.22c11.42,0,20.69-9.26,20.69-20.69v0C346.86,185.36,337.6,176.1,326.18,176.1z"/>
					<path class="st15" d="M367.42,207.21h66.61c11.42,0,20.69,9.26,20.69,20.69l0,0c0,11.42-9.26,20.69-20.69,20.69h-2.84
						l-3.72,4.81l-3.72-4.81h-56.32c-11.42,0-20.69-9.26-20.69-20.69l0,0C346.73,216.47,355.99,207.21,367.42,207.21z"/>
					<g class="st16">
						<path class="st17" d="M396.7,279.29h-68.94c-11.42,0-20.69,9.26-20.69,20.69l0,0c0,11.42,9.26,20.69,20.69,20.69h5.94
							l3.72,4.81l3.72-4.81h55.55c11.42,0,20.69-9.26,20.69-20.69l0,0C417.38,288.56,408.12,279.29,396.7,279.29z"/>
						<g>
							<line class="st18" x1="318.63" y1="289.35" x2="404.14" y2="289.35"/>
							<line class="st18" x1="343.23" y1="296.44" x2="404.14" y2="296.44"/>
							<line class="st18" x1="318.63" y1="296.44" x2="335.82" y2="296.44"/>
							<line class="st18" x1="383.64" y1="303.52" x2="404.14" y2="303.52"/>
							<line class="st18" x1="318.63" y1="303.52" x2="375.72" y2="303.52"/>
							<line class="st18" x1="318.63" y1="310.61" x2="362.64" y2="310.61"/>
						</g>
					</g>
					<g class="st16">
						<path class="st17" d="M347.24,345.32h68.94c11.42,0,20.69,9.26,20.69,20.69v0c0,11.42-9.26,20.69-20.69,20.69h-5.94
							l-3.72,4.81l-3.72-4.81h-55.55c-11.42,0-20.69-9.26-20.69-20.69v0C326.55,354.58,335.81,345.32,347.24,345.32z"/>
						<g>
							<line class="st18" x1="338.1" y1="355.37" x2="423.62" y2="355.37"/>
							<line class="st18" x1="376.34" y1="362.46" x2="423.62" y2="362.46"/>
							<line class="st18" x1="338.1" y1="362.46" x2="369.86" y2="362.46"/>
							<line class="st18" x1="408.01" y1="369.55" x2="423.62" y2="369.55"/>
							<line class="st18" x1="338.1" y1="369.55" x2="400.1" y2="369.55"/>
							<line class="st18" x1="338.1" y1="376.64" x2="391.7" y2="376.64"/>
						</g>
					</g>
				</g>
			</g>
			<line class="st19" x1="129.95" y1="432.31" x2="611.27" y2="432.31"/>
		</g>
		<g>
			<g>
				<g>
					<path class="st20" d="M277,231.02c-0.62-0.88-1.34-1.81-2.38-2.1c-0.3-0.08-0.6-0.11-0.91-0.11c-1.23-0.02-2.46,0.29-3.53,0.9
						c-0.3,0.17-0.6,0.37-0.84,0.63c-0.28,0.3-0.4,0.55-0.37,0.95c0.02,0.3,0.03,0.6,0.01,0.89c-0.03,0.46-0.13,0.91-0.23,1.36
						c-0.28,1.21-0.23,2.36,0.03,3.57c0.1,0.46,0.11,0.95-0.07,1.38c-0.16,0.38-0.46,0.67-0.73,0.96c-0.55,0.58-1.05,1.23-1.34,1.99
						c-0.29,0.76-0.36,1.64-0.06,2.4c0.16,0.4,0.41,0.74,0.6,1.12c0.48,0.96,0.56,2.14,0.22,3.16c-0.08,0.23,0.09,0.48,0.33,0.52
						c2.13,0.4,4.3,0.62,6.44,0.38c2.32-0.25,4.62-1.06,6.43-2.6"/>
				</g>
				<path class="st21" d="M270.04,228.66c-0.9,4.07-0.21,15.06,2.84,16.43c3.05,1.37,6.89-1.69,8.04-3.07
					c1.67-2.01,4.84-10.51,2-13.22C280.07,226.1,271.3,222.95,270.04,228.66z"/>
				<path class="st21" d="M276.98,242.61l2.23,8.08l-0.89,2.18c0,0-0.59,4.36,0.13,4.58c2.89,0.89,9.26-8.01,9.26-8.01l-5.1-11.63"
					/>
				<path class="st20" d="M285.04,229.33c-0.88-3.85-5.72-6.3-9.88-5.66c-3.41-0.98-10.04,2.61-7.08,9.68c0,0,2.63-2.44,6.01-5.66
					c2.13,6.69,10.23,10.06,10.23,10.06S286.1,233.98,285.04,229.33z"/>
				<g>
					<path class="st20" d="M274.18,223.88c3.07-4.09,10.45-1.42,12.39,0.64c2.19,2.33,3.06,4.68,5.58,6.23
						c1.17,0.71,2.62,1.18,3.27,2.39c0.89,1.66-0.2,4,0.97,5.48c0.49,0.62,2.87,2.53,2.87,5.62c-2.59,1.77-4.69,1.2-7.57,2.36
						c-2.09,0.84-4.96,2.22-7.31,2.61c-0.28,0.05-0.52-0.2-0.49-0.48c0.11-1,0.3-2.27-0.13-3.06c-0.22-0.41-0.6-0.72-0.86-1.1
						c-0.65-0.94-0.58-2.18-0.4-3.31c0.18-1.12,0.45-2.29,0.1-3.38c-0.32-1-1.11-1.78-1.94-2.43"/>
				</g>
				<g>
					<path class="st20" d="M282.04,223.33c-0.59,0.06-1.01-0.56-1.22-1.11c-0.28-0.73-0.47-1.55-0.22-2.3
						c0.58-1.74,2.9-1.85,4.23-0.98c1.15,0.76,1.99,2.45,1.06,3.69c-0.65,0.87-2,1.06-2.98,1.25"/>
				</g>
				<g>
					<path class="st21" d="M280.68,236.79c0.01-0.16,0.16-0.26,0.28-0.35c0.59-0.4,1.32-0.82,1.98-0.54
						c0.34,0.15,0.58,0.46,0.72,0.81c0.46,1.15,0.33,2.68-0.55,3.62c-0.78,0.84-2.84,1.42-3.18-0.14"/>
				</g>
				<path class="st22" d="M272.95,235.58c0,0-2,3.48-1.37,4.11c0.63,0.63,1.91,0.24,1.91,0.24"/>
				<g>
					<path class="st20" d="M275.42,235.46c-0.02,0.26,0.08,0.58,0.12,0.78c0.07,0.35,0.47,0.44,0.75,0.26
						c0.51-0.35,0.06-1.72-0.62-1.44C275.5,235.13,275.43,235.28,275.42,235.46z"/>
				</g>
				<g>
					<path class="st20" d="M270.27,235.46c-0.02,0.26,0.08,0.58,0.12,0.78c0.07,0.35,0.47,0.44,0.75,0.26
						c0.51-0.35,0.06-1.72-0.62-1.44C270.35,235.13,270.28,235.28,270.27,235.46z"/>
				</g>
				<path class="st23" d="M274.05,234.04c0,0,1.25-1.56,3.38,0"/>
				<path class="st23" d="M270.07,234.14c0.47-0.46,1.24-0.83,2.08-0.1"/>
				<path class="st10" d="M272.47,241.66l3.88-0.94c0,0-0.69,2.34-2.61,2.34C272.81,243.06,272.47,241.66,272.47,241.66z"/>
				<path class="st22" d="M277.62,244.94c0,0,2.59-0.85,3.63-3.05"/>
			</g>
			<path class="st24" d="M244.07,269.19c0,0-0.62,1.69,0.44,4.59c1.37,3.74,16.14,26.83,25.51,27.69
				c9.37,0.86,18.8-27.24,18.8-35.89s-7.63-11.23-12.52-4.99c-4.89,6.24-10.53,27.92-10.53,27.92L244.07,269.19z"/>
			<g>
				<path class="st24" d="M253.74,276.76c-0.35-1.29-1.79-3.43-2.55-4.48c-0.43-0.58-1.9-2.64-2.74-2.24
					c-0.58,0.27,0.03,1.81,0.26,2.24c0.33,0.63,0.79,1.15,1.25,1.67"/>
			</g>
			<g>
				<g>
					<path class="st21" d="M253.68,411.12l-3.71,18.06c0,0-14.81,8.71-14.81,8.89c0,0.18,14.1,0.69,14.1,0.69l6.24-3.05h6.09
						c0.71,0,1.24-0.66,1.08-1.36l-1.27-5.57l6.61-19.01"/>
					<path class="st20" d="M236.17,435.98c2.22-1.29,10.55-5.41,10.55-5.41l8.72,5.14h7.54v4.35h-7.54v-3.28h-0.96
						c-0.34,0-0.66,0.11-0.93,0.32l-3.29,2.54c-0.36,0.28-0.8,0.42-1.25,0.42c0,0-11.92,0-13.87,0S232.78,437.96,236.17,435.98z"/>
					<g>
						<polygon class="st20" points="258.59,436.53 262.17,431.7 261.75,429.86 257.5,435.72 						"/>
					</g>
				</g>
				<path class="st25" d="M304.71,290.51c0,0,11.37,17.96-1.28,36.1c-5.11,7.33-22.31,37.93-22.31,37.93l-9.48,54.96h-25.07
					c0,0,8.04-54.44,11.66-64.26c3.62-9.82,26.22-55.91,26.22-55.91v-7.13"/>
				<path class="st26" d="M293.52,325.52c-5.11,7.33-20.31,39.02-20.31,39.02l-9.48,54.96"/>
				<path class="st27" d="M295.44,325.52c-5.11,7.33-20.31,39.02-20.31,39.02l-9.48,54.96"/>
				<g>
					<path class="st21" d="M290.13,397.85l12.73,12.82c0,0-7.04,15.42-6.93,15.57c0.1,0.15,11.78-7.42,11.78-7.42l3.32-6l4.92-3.45
						c0.58-0.4,0.63-1.24,0.11-1.71l-4.17-3.78l-10.93-15.23"/>
					<path class="st20" d="M295.57,423.98c1.06-2.3,5.47-10.34,5.47-10.34l9.95-0.79l6.09-4.26l2.46,3.51l-6.09,4.26l-1.86-2.65
						l-0.78,0.54c-0.27,0.19-0.47,0.47-0.57,0.78l-1.22,3.91c-0.13,0.42-0.4,0.79-0.77,1.05c0,0-9.63,6.75-11.2,7.84
						C295.49,428.94,293.95,427.49,295.57,423.98z"/>
					<g>
						<polygon class="st20" points="313.99,411.73 314.15,405.81 312.77,404.56 312.66,411.7 						"/>
					</g>
				</g>
				<path class="st28" d="M283.26,292.03l-0.92,7.29c0,0-30.09,36.88-30.09,52.45c0,15.19,33.95,53.1,33.95,53.1l19.02-14.47
					l-24.72-35.39c0,0,24.17-29.44,28.34-33.61c6.98-6.98,6.5-18.87-2.3-30.88"/>
				<path class="st26" d="M282.67,296.75c0,0,13.37,1.38,26.06-2.98"/>
				<line class="st29" x1="288.33" y1="296.96" x2="288.33" y2="292.66"/>
				<line class="st26" x1="305.06" y1="294.87" x2="303.59" y2="290.9"/>
				<path class="st26" d="M300.5,393.99l-24.78-35.77c-1.33-1.92-1.28-4.48,0.13-6.35c5.77-7.64,20.35-26.91,23.41-30.48
					c6.42-7.5,7.09-16.33,2.25-25.71"/>
				<g>
					<g>
						<line class="st26" x1="300.88" y1="390.92" x2="300.31" y2="390.1"/>
						<path class="st30" d="M299.45,388.86l-21.92-31.6c-0.93-1.34-0.9-3.13,0.09-4.43c5.17-6.85,20.93-27.7,24.12-31.43
							c6.06-7.08,6.64-15.62,2.62-24.45"/>
						<path class="st26" d="M304.03,296.26c-0.14-0.3-0.29-0.6-0.45-0.9"/>
					</g>
				</g>
				<path class="st26" d="M295.7,296.55c0,0,0.83,3,3.26,4.16c2.42,1.16,5.14,1.87,5.14,1.87"/>
				<path class="st26" d="M309.94,304.53c0,0,1.1-0.08,3.07-0.67"/>
				<path class="st26" d="M309.94,306.02c0,0,1.4-0.04,3.37-0.63"/>
				<polygon class="st31" points="283.33,401.56 286.77,406.37 306.41,390.98 302.68,386.74 				"/>
				<polygon class="st31" points="246.11,419.5 247.38,414.09 272.57,414.09 272.57,419.5 				"/>
			</g>
			<g>
				<path class="st20" d="M255.98,278.8c0.11,0.11,0.11,0.29,0,0.4l-0.67,0.68c-0.11,0.11-0.29,0.11-0.4,0l-13.16-12.98
					c-0.11-0.11-0.11-0.29,0-0.4l0.67-0.68c0.11-0.11,0.29-0.11,0.4,0"/>
				<line class="st32" x1="243.45" y1="267.54" x2="244.52" y2="268.59"/>
				<line class="st32" x1="244.94" y1="269.03" x2="245.1" y2="269.19"/>
			</g>
			<path class="st33" d="M302.75,260.71c-4.93-10.15-15.18-11.59-15.18-11.59s-8.14,6.67-9.25,3.75c-1.18,1.76-8.76,14.9-7.72,21.62
				c1.03,6.72,6.85,7.65,8.01,9.11c1.16,1.46,3.91,10.79,4.27,11.44c11.72-0.23,23.66-4.52,23.66-4.52S308.02,271.56,302.75,260.71z
				"/>
			<g>
				<path class="st21" d="M298.9,263.35c-2.06-7.85-8.63-12.02-14.41-9.94c-4.99,1.8-6,7.61-4.56,15.27c1.43,7.66,1.08,18,1.08,18
					s-18.01-6.66-21.39-8.01c-3.47-2.95-7.76-6.04-8.48-6.04c-0.73,0-0.37,1.21,0.62,2.2c1.03,1.03,2.7,2.53,1.3,2.41
					c-1.05-0.09-7.91-6.99-7.91-6.99c-0.58,0.58,0.1,2.18,0.1,2.18s0.11,2.64,2.25,5.09c14.91,16.95,32.47,28.76,43.57,24.71
					C301.52,298.41,299.64,266.14,298.9,263.35z"/>
				<g>
					<path class="st34" d="M250.36,278.08c-1.15-0.62-2.13-1.49-2.99-2.44c-0.85-0.96-1.62-2.01-2.12-3.22
						c0.98,0.86,1.83,1.79,2.68,2.72C248.76,276.09,249.6,277.02,250.36,278.08z"/>
				</g>
				<path class="st33" d="M300.32,264.64c-1.38-8.64-7.98-13.81-14.4-12.18c-5.54,1.4-7.24,7.53-6.51,15.89
					c0.21,2.45,0.42,5.15,0.62,7.75l20.28,2.39C300.73,271.59,300.5,265.81,300.32,264.64z"/>
				<path class="st35" d="M300.3,278.48c0.43-6.88,0.2-12.67,0.01-13.84c-1.38-8.64-7.98-13.81-14.4-12.18
					c-5.54,1.4-7.24,7.53-6.51,15.89c0.21,2.45,0.42,5.15,0.62,7.75"/>
			</g>
		</g>
		<g>
			<g>
				<g>
					<g>
						<path class="st20" d="M441.35,409.77l1.64-0.77l10.06,21.37c0.49,1.04,1.48,1.74,2.62,1.85l0.12,0.17l-2.64,1.24
							c-0.1,0.05-0.21,0.05-0.31,0.02l-0.1-0.03c-0.66-0.21-1.2-0.69-1.49-1.32l-10.21-21.69
							C440.9,410.3,441.03,409.92,441.35,409.77z"/>
						<path class="st21" d="M469.7,383.74l-18.63,22.4l-6.81,4.06l9.68,20.56c0.32,0.68,1.14,0.98,1.82,0.66l0,0
							c0.51-0.24,0.82-0.77,0.78-1.34l-0.99-13.65l20.41-16.78"/>
						<path class="st28" d="M456.49,415.4l0.43,15.39c0.02,0.64-0.39,1.26-1.04,1.56l0,0c-0.86,0.4-1.97-0.15-2.32-0.91L442.99,409
							l8.34-3.01C451.34,405.99,450.53,411.17,456.49,415.4z"/>
						<path class="st36" d="M457.2,418.39c-1.27-0.28-2.57-0.42-3.88-0.4"/>
						<path class="st36" d="M456.99,420.45c-1.38-0.27-2.11-0.29-3.27-0.29"/>
						<path class="st36" d="M456.91,422.15c-0.91-0.19-2.06-0.2-3-0.25"/>
					</g>
					<path class="st37" d="M479.52,305.21l2.67,6.18c0.87,2.01,2.16,3.8,3.79,5.27c7.32,6.58,25.84,32.46,26.05,43.36
						c0.25,13.18-40.23,55.65-40.23,55.65L456,397.94l31.82-37.96l-27.63-26.39c0,0-12.62-4.45-7.53-27.03"/>
					<path class="st38" d="M460.65,397.85l29.79-37.02c1.09-1.2,0.95-3.07-0.31-4.08l-25.32-25.42c0,0-12.62-4.63-7.55-28.07"/>
					<path class="st39" d="M460.56,400.58l31.61-38.86c1.55-1.71,1.35-4.36-0.45-5.81c0,0-27.01-26.5-27.11-26.54
						c-1.34-0.58-9.56-5.28-4.8-27.29"/>
					<polygon class="st40" points="458.82,394.7 453.6,399.54 470.68,417.2 475.48,412.12 					"/>
				</g>
				<g>
					<g>
						<path class="st20" d="M491.65,439.42v-1.81h23.62c1.15,0,2.21-0.6,2.8-1.59l0.2-0.04v2.92c0,0.11-0.04,0.21-0.12,0.29
							l-0.07,0.07c-0.47,0.51-1.14,0.79-1.83,0.79h-23.97C491.94,440.06,491.65,439.77,491.65,439.42z"/>
						<path class="st21" d="M482.76,406.24l9.75,22.84l0.77,7.89h22.72c0.76,0,1.37-0.61,1.37-1.37l0,0c0-0.57-0.35-1.07-0.88-1.28
							l-12.77-4.92l-6.49-25.61"/>
						<path class="st28" d="M503.19,428.12l14.11,6.17c0.58,0.25,0.97,0.89,0.97,1.6l0,0c0,0.95-0.98,1.72-1.81,1.72h-24.81
							l0.83-8.83C492.48,428.77,496.83,431.7,503.19,428.12z"/>
						<path class="st36" d="M506.2,428.75c-0.8,1.03-1.47,2.15-2.01,3.34"/>
						<path class="st36" d="M507.98,429.82c-0.83,1.13-1.16,1.79-1.65,2.84"/>
						<path class="st36" d="M509.48,430.61c-0.56,0.75-1.06,1.78-1.5,2.6"/>
					</g>
					<path class="st20" d="M443.55,309.38c0,0-0.99,13.95,5.15,27.13c6.15,13.18,31,89.72,31,89.72l22.05-9.48L475,325.66
						c0,0-0.88-11.36-5.48-26.34"/>
					<path class="st41" d="M485.88,423.58l-30.57-87.2c0,0-6.21-10.85-6.21-19.12"/>
					<path class="st42" d="M484.15,424.32l-31.31-87.94c0,0-6.21-10.85-6.21-19.12"/>
					<polygon class="st43" points="477.79,420.39 479.91,427.22 502.4,418.18 500.32,411.88 					"/>
				</g>
				<path class="st41" d="M450.86,326.96c0,0,6.25-3.13,7.87-10.23"/>
				<path class="st44" d="M475.06,328.07c0,0,2.49-2.85,2.25-5.19c-0.66-6.43-2.25-14.57-2.25-14.57"/>
			</g>
			<g>
				<path class="st21" d="M506.08,268l-5.52-5.61c0,0,5.16-12.97,5.74-12.84c1.19,0.26-0.95,5.77-0.95,5.77s3.03-5.9,3.45-5.51
					c0.76,0.7-1.42,6.74-1.42,6.74s2.64-5.84,3.16-5.22c0.52,0.62-1.89,9.68-1.89,9.68L506.08,268z"/>
				<path class="st21" d="M499.5,263l1.03-2c0,0,0.32-3.41,1.2-5.9c0.88-2.49,1.52-3.69,1.98-3.69s0,3.87,0,3.87
					s0.79,3.33-0.36,5.49"/>
				<g>
					<path class="st45" d="M506.4,262.25l-3.84-3.59c-0.17-0.14-0.22-0.39-0.14-0.61l4.36-11.46c0,0,0.2,0.05,0.34,0.09
						c0.08,0.02,0.17,0.04,0.24,0.1l4.21,3.67c0.17,0.14,0.22,0.39,0.14,0.61l-4.36,11.06c-0.06,0.16-0.21,0.26-0.35,0.27
						L506.4,262.25z"/>
					<path class="st20" d="M506.28,262.17l-4.16-3.63c-0.17-0.14-0.22-0.39-0.14-0.61l4.39-11.12c0.1-0.24,0.38-0.32,0.56-0.16
						l4.21,3.67c0.17,0.14,0.22,0.39,0.14,0.61L506.91,262C506.8,262.27,506.49,262.35,506.28,262.17z"/>
					<polygon class="st46" points="502.29,257.14 507.15,261.38 510.97,251.7 506.11,247.47 					"/>
					<path class="st46" d="M504.46,259.73c-0.04,0.15-0.16,0.23-0.27,0.16c-0.11-0.06-0.17-0.24-0.14-0.39
						c0.04-0.15,0.16-0.23,0.27-0.16C504.44,259.4,504.5,259.57,504.46,259.73z"/>
					<line class="st47" x1="508.27" y1="248.53" x2="509.12" y2="249.29"/>
					<g>
						<path class="st48" d="M505.78,250.43c-0.04,0.15-0.15,0.21-0.26,0.15c-0.11-0.06-0.17-0.23-0.13-0.37
							c0.04-0.15,0.15-0.21,0.26-0.15C505.76,250.11,505.82,250.28,505.78,250.43z"/>
						<path class="st49" d="M509.73,252.04l-2.56-2.23c-0.27-0.24-0.68-0.13-0.82,0.23l-0.31,0.81l-0.26,0.04l3.13,2.71
							c0.27,0.24,0.68,0.13,0.82-0.23l0.2-0.49C510.04,252.59,509.96,252.24,509.73,252.04z"/>
						<line class="st47" x1="506.84" y1="250.35" x2="509.43" y2="252.59"/>
						<line class="st47" x1="506.61" y1="250.96" x2="508.09" y2="252.25"/>
					</g>
					<g>
						<path class="st48" d="M503.29,256.37c-0.04,0.15-0.15,0.21-0.26,0.15c-0.11-0.06-0.17-0.23-0.13-0.37
							c0.04-0.15,0.15-0.21,0.26-0.15C503.26,256.06,503.32,256.22,503.29,256.37z"/>
						<path class="st49" d="M507.24,257.98l-2.56-2.23c-0.27-0.24-0.68-0.13-0.82,0.23l-0.31,0.81l-0.26,0.04l3.13,2.71
							c0.27,0.24,0.68,0.13,0.82-0.23l0.2-0.49C507.55,258.53,507.47,258.19,507.24,257.98z"/>
						<line class="st47" x1="504.35" y1="256.29" x2="506.93" y2="258.53"/>
						<line class="st47" x1="504.11" y1="256.9" x2="505.59" y2="258.19"/>
					</g>
					<g>
						<path class="st48" d="M508.71,256.77c-0.04,0.15-0.15,0.21-0.26,0.15c-0.11-0.06-0.17-0.23-0.13-0.37
							c0.04-0.15,0.15-0.21,0.26-0.15C508.69,256.46,508.75,256.62,508.71,256.77z"/>
						<path class="st49" d="M508.24,254.73l-2.77-2.41c-0.23-0.2-0.57-0.1-0.69,0.19l-0.3,0.77c-0.08,0.21-0.03,0.45,0.14,0.6
							l3.41,2.95l-0.09-0.41l0.43-1.08C508.46,255.12,508.41,254.87,508.24,254.73z"/>
						<line class="st47" x1="505.24" y1="252.93" x2="507.82" y2="255.18"/>
						<line class="st47" x1="505" y1="253.55" x2="506.48" y2="254.84"/>
						<line class="st47" x1="506.7" y1="255.05" x2="507.27" y2="255.55"/>
					</g>
					<g>
						<defs>
							<path id="SVGID_15_" d="M506.28,262.17l-4.16-3.63c-0.17-0.14-0.22-0.39-0.14-0.61l4.39-11.12c0.1-0.24,0.38-0.32,0.56-0.16
								l4.21,3.67c0.17,0.14,0.22,0.39,0.14,0.61L506.91,262C506.8,262.27,506.49,262.35,506.28,262.17z"/>
						</defs>
						<clipPath id="SVGID_16_">
							<use xlink:href="#SVGID_15_"  style="overflow:visible;"/>
						</clipPath>
						
							<linearGradient id="SVGID_17_" gradientUnits="userSpaceOnUse" x1="580.8923" y1="137.577" x2="588.4299" y2="124.5216" gradientTransform="matrix(-0.9735 -0.2288 0.2288 -0.9735 1045.8782 516.2875)">
							<stop  offset="0" style="stop-color:#FFFFFF;stop-opacity:0.6"/>
							<stop  offset="0.8878" style="stop-color:#FFFFFF;stop-opacity:0.1"/>
						</linearGradient>
						<polygon class="st50" points="511.07,248.71 512.03,249.66 502.31,261.17 501.36,260.22 						"/>
						
							<linearGradient id="SVGID_18_" gradientUnits="userSpaceOnUse" x1="581.6522" y1="138.8516" x2="589.1764" y2="125.8194" gradientTransform="matrix(-0.9735 -0.2288 0.2288 -0.9735 1045.8782 516.2875)">
							<stop  offset="0" style="stop-color:#FFFFFF;stop-opacity:0.6"/>
							<stop  offset="0.8878" style="stop-color:#FFFFFF;stop-opacity:0.1"/>
						</linearGradient>
						<polygon class="st51" points="511,247.64 511.24,247.88 501.52,259.39 501.28,259.15 						"/>
					</g>
				</g>
				<path class="st21" d="M483.32,270.61l5.45,8.75L500.53,261c0,0,8.39,0.78,7.43,4.94c-4.66,11.77-8.46,29.66-17.62,30.56
					c-10.07,1-22.9-17.83-22.9-17.83"/>
				<path class="st22" d="M488.77,279.36c0,0-2.43,3.38-4.24,8.35"/>
				<path class="st21" d="M507,268.28c0,0,3.38-8.24,3.8-9.81c0.41-1.57,1.49-5.89,0.8-5.89c-0.69,0-2.32,4.14-2.51,4.83
					c-1.38,0.74-3.34,2.07-3.32,4.47"/>
				<path class="st52" d="M462.21,247.47c0,0,11.5,1.07,24.19,26.8c-2.49,3.62-15.41,11.26-18.98,11.19
					c-3.87-5.65-7.51-20.12-7.51-20.12"/>
			</g>
			<g>
				<path class="st52" d="M473.56,270.04c-3.58-14.12-8.95-20.9-8.95-20.9l-11.8-3.39l-9.55,11.86c-9.6,29.18-0.42,61.26-0.42,61.26
					c6.62,2.82,34.02-2.92,40.71-9.6C483.53,309.28,476.57,281.94,473.56,270.04z"/>
				<path class="st53" d="M476.49,281.72c0,0-5.01-22.23-7.57-26.43"/>
			</g>
			<g>
				<path class="st21" d="M431.72,268c0,0-5.78,15.54-4.25,24.65c2.34,14.01,24.92,27.39,24.92,27.39s-0.76,3.77,0.83,5.56
					c3.97-2.97,5.25-6.56,5.25-6.56l-1.89-3.14c0,0-12.37-19.47-12.01-25.89c0.26-4.53,7.29-27.06,7.29-27.06"/>
				<path class="st52" d="M452.8,245.75c0,0-12.54,3.51-17.85,13.03c-6.44,11.52-7.71,21.32-7.71,21.32
					c5.49,5.49,16.55,7.87,22.62,6.61l4.33-22.05"/>
				<line class="st53" x1="449.87" y1="286.71" x2="453.85" y2="266.4"/>
			</g>
			<g>
				<path class="st21" d="M465.8,239.36l-6.36-11.04l-4.99,8.81l0.33,2.02l-1.97,6.59c1.97,5.84,10.11,6.5,11.8,3.39L465.8,239.36"
					/>
				<path class="st21" d="M471.41,224.55c1.04,3.93,1.32,17.27-1.83,18.67c-3.15,1.41-9.52,0.06-11.38-2.32
					c-1.61-2.07-3.14-13.16-0.24-15.87C460.86,222.33,469.95,219.05,471.41,224.55z"/>
				<g>
					<path class="st20" d="M461.78,227.13c2.97,0.51,5.55-0.31,7.85-1.06c2.3-0.75,4.47-2.21,5.58-4.36
						c0.93-1.79,0.99-4.32-1.28-5.3c-0.54-0.24-1.14-0.32-1.73-0.28c-1.9,0.13-3.39,1.28-4.83,2.4c0.6-2.97-5.03-1.61-6.19-0.54
						c-0.37,0.34-0.61,0.77-1.05,1.04c-1.33,0.8-3.03,0.85-4.45,1.47c-1.75,0.76-3.14,2.32-3.7,4.15c-0.46,1.52-1.03,4.06,0.21,5.9
						c0.59,0.88,1.17,1.84,1.34,2.88l0.99,4.24c0,0,1.99-1.43,2.21-1.6c0.78-0.62,1.08-1.43,1.7-2.19
						C460.04,231.93,461.13,229.13,461.78,227.13z"/>
				</g>
				<g>
					<path class="st21" d="M459.82,232.88c-0.38-0.7-0.89-1.48-1.62-1.55c-0.38-0.04-0.74,0.15-1.01,0.41
						c-1.41,1.34-1.52,3.93-0.04,5.29c0.62,0.57,1.48,0.82,2.05,0.04l0.74-3.69C459.99,233.22,459.9,233.04,459.82,232.88z"/>
				</g>
				<path class="st22" d="M465.25,243.99c0,0-5.1-0.18-7.23-3.34"/>
				<path class="st22" d="M468.78,230.98c0,0,2.07,3.53,1.43,4.5s-2.34,0.39-2.34,0.39"/>
				<g>
					<path class="st20" d="M466.26,230.85c0.09,0.25,0.06,0.59,0.08,0.79c0.02,0.36-0.37,0.56-0.69,0.45
						c-0.61-0.2-0.5-1.64,0.26-1.55C466.1,230.56,466.2,230.69,466.26,230.85z"/>
				</g>
				<g>
					<path class="st20" d="M471.34,230.85c0.09,0.25,0.06,0.59,0.08,0.79c0.02,0.36-0.37,0.56-0.69,0.45
						c-0.61-0.2-0.5-1.64,0.26-1.55C471.18,230.56,471.28,230.69,471.34,230.85z"/>
				</g>
				<path class="st10" d="M469.77,238.55l-5.24-1.49c0,0-0.21,3.99,2.96,4.58C469.42,242,469.77,238.55,469.77,238.55z"/>
				<g>
					<path class="st20" d="M466.67,228.92c-1,0.01-2.08,0.24-2.97,0.62c-0.1-0.05-0.36-0.53-0.21-0.81
						c0.12-0.22,1.69-0.77,3.12-0.74C466.61,228,466.87,228.79,466.67,228.92z"/>
				</g>
				<g>
					<path class="st20" d="M469.48,228.87c0.72,0.01,1.46,0.23,2.03,0.59c0.08-0.05,0.26-0.45,0.21-0.72
						c-0.04-0.21-1.07-0.73-2.11-0.7C469.6,228.04,469.37,228.74,469.48,228.87z"/>
				</g>
				<path class="st22" d="M456.52,236.22c0,0,1.03,1.54,2.42,1.11"/>
			</g>
		</g>
		<g>
			<g>
				<g>
					<line class="st54" x1="425.13" y1="302.5" x2="425.13" y2="306.08"/>
					<line class="st54" x1="426.92" y1="304.29" x2="423.34" y2="304.29"/>
				</g>
				<g>
					<line class="st54" x1="533.05" y1="282.44" x2="533.05" y2="286.03"/>
					<line class="st54" x1="534.84" y1="284.24" x2="531.25" y2="284.24"/>
				</g>
				<g>
					<line class="st54" x1="216.55" y1="203.24" x2="216.55" y2="206.82"/>
					<line class="st54" x1="218.34" y1="205.03" x2="214.76" y2="205.03"/>
				</g>
				<g>
					<line class="st54" x1="364.67" y1="134.6" x2="364.67" y2="138.19"/>
					<line class="st54" x1="366.47" y1="136.4" x2="362.88" y2="136.4"/>
				</g>
				<path class="st54" d="M344.37,150.54c0,0.95-0.77,1.71-1.71,1.71c-0.95,0-1.71-0.77-1.71-1.71s0.77-1.71,1.71-1.71
					C343.6,148.83,344.37,149.59,344.37,150.54z"/>
				<path class="st54" d="M395.99,193.6c0,0.95-0.77,1.71-1.71,1.71c-0.95,0-1.71-0.77-1.71-1.71s0.77-1.71,1.71-1.71
					C395.22,191.89,395.99,192.66,395.99,193.6z"/>
				<circle class="st54" cx="491.77" cy="243.44" r="1.71"/>
				<path class="st54" d="M186.47,342.27c0,0.95-0.77,1.71-1.71,1.71c-0.95,0-1.71-0.77-1.71-1.71s0.77-1.71,1.71-1.71
					C185.7,340.56,186.47,341.32,186.47,342.27z"/>
				<circle class="st54" cx="254.52" cy="309.86" r="1.71"/>
				<path class="st54" d="M202.52,193.6c0,0.95-0.77,1.71-1.71,1.71c-0.95,0-1.71-0.77-1.71-1.71s0.77-1.71,1.71-1.71
					C201.75,191.89,202.52,192.66,202.52,193.6z"/>
				<g>
					<line class="st54" x1="206.24" y1="299.1" x2="225.57" y2="299.1"/>
					<line class="st54" x1="231.46" y1="299.1" x2="240.09" y2="299.1"/>
				</g>
				<g>
					<line class="st54" x1="490.35" y1="232.18" x2="509.68" y2="232.18"/>
					<line class="st54" x1="515.57" y1="232.18" x2="524.2" y2="232.18"/>
				</g>
				<g>
					<line class="st54" x1="404.72" y1="138.19" x2="424.05" y2="138.19"/>
					<line class="st54" x1="429.94" y1="138.19" x2="438.57" y2="138.19"/>
				</g>
				<g>
					<line class="st54" x1="306.16" y1="148.12" x2="293.03" y2="148.12"/>
					<line class="st54" x1="288.69" y1="148.12" x2="281.62" y2="148.12"/>
				</g>
				<g>
					<line class="st54" x1="254.18" y1="225.06" x2="237.95" y2="225.06"/>
					<line class="st54" x1="235.16" y1="225.06" x2="229.63" y2="225.06"/>
				</g>
				<line class="st54" x1="246.49" y1="232.18" x2="260.62" y2="232.18"/>
				<line class="st54" x1="520.22" y1="227.01" x2="534.35" y2="227.01"/>
				<line class="st54" x1="391.12" y1="152.05" x2="405.26" y2="152.05"/>
				<line class="st54" x1="542.79" y1="317.33" x2="556.92" y2="317.33"/>
			</g>
			<g>
				<g>
					<path class="st55" d="M217.3,260.12c-0.34-2.17-2.09-3.95-4.26-4.32c-2.47-0.42-4.67,0.9-5.64,2.92
						c-0.96-2.02-3.16-3.34-5.64-2.92c-2.17,0.37-3.92,2.15-4.26,4.32c-0.28,1.78,0.34,3.42,1.47,4.55l7.47,7.47
						c0.53,0.53,1.39,0.53,1.92,0l7.47-7.47C216.96,263.54,217.57,261.9,217.3,260.12z"/>
				</g>
				<g>
					<line class="st54" x1="207.4" y1="245.69" x2="207.4" y2="248.63"/>
					<line class="st54" x1="207.4" y1="277.23" x2="207.4" y2="280.17"/>
					<line class="st54" x1="224.64" y1="262.93" x2="221.7" y2="262.93"/>
					<line class="st54" x1="193.1" y1="262.93" x2="190.17" y2="262.93"/>
					<line class="st54" x1="195.21" y1="250.74" x2="197.29" y2="252.82"/>
					<line class="st54" x1="217.51" y1="273.04" x2="219.59" y2="275.12"/>
					<line class="st54" x1="219.59" y1="250.74" x2="217.51" y2="252.82"/>
					<line class="st54" x1="197.29" y1="273.04" x2="195.21" y2="275.12"/>
					<line class="st54" x1="200.8" y1="247.01" x2="201.93" y2="249.72"/>
					<line class="st54" x1="212.87" y1="276.14" x2="214" y2="278.85"/>
					<line class="st54" x1="223.32" y1="256.33" x2="220.61" y2="257.46"/>
					<line class="st54" x1="194.19" y1="268.4" x2="191.48" y2="269.53"/>
					<line class="st54" x1="191.48" y1="256.33" x2="194.19" y2="257.46"/>
					<line class="st54" x1="220.61" y1="268.4" x2="223.32" y2="269.53"/>
					<line class="st54" x1="214" y1="247.01" x2="212.87" y2="249.72"/>
					<line class="st54" x1="201.93" y1="276.14" x2="200.8" y2="278.85"/>
				</g>
			</g>
			<g>
				<g>
					<path class="st55" d="M530.12,308.76c-0.34-2.17-2.09-3.95-4.26-4.32c-2.47-0.42-4.67,0.9-5.64,2.92
						c-0.96-2.02-3.16-3.34-5.64-2.92c-2.17,0.37-3.92,2.15-4.26,4.32c-0.28,1.78,0.34,3.42,1.47,4.55l7.47,7.47
						c0.53,0.53,1.39,0.53,1.92,0l7.47-7.47C529.78,312.19,530.39,310.54,530.12,308.76z"/>
				</g>
				<g>
					<line class="st54" x1="520.22" y1="294.34" x2="520.22" y2="297.28"/>
					<line class="st54" x1="520.22" y1="325.87" x2="520.22" y2="328.81"/>
					<line class="st54" x1="537.46" y1="311.57" x2="534.52" y2="311.57"/>
					<line class="st54" x1="505.92" y1="311.57" x2="502.99" y2="311.57"/>
					<line class="st54" x1="508.03" y1="299.39" x2="510.11" y2="301.47"/>
					<line class="st54" x1="530.33" y1="321.68" x2="532.41" y2="323.76"/>
					<line class="st54" x1="532.41" y1="299.39" x2="530.33" y2="301.47"/>
					<line class="st54" x1="510.11" y1="321.68" x2="508.03" y2="323.76"/>
					<line class="st54" x1="513.63" y1="295.65" x2="514.75" y2="298.37"/>
					<line class="st54" x1="525.69" y1="324.78" x2="526.82" y2="327.5"/>
					<line class="st54" x1="536.14" y1="304.98" x2="533.43" y2="306.1"/>
					<line class="st54" x1="507.01" y1="317.05" x2="504.3" y2="318.17"/>
					<line class="st54" x1="504.3" y1="304.98" x2="507.01" y2="306.1"/>
					<line class="st54" x1="533.43" y1="317.05" x2="536.14" y2="318.17"/>
					<line class="st54" x1="526.82" y1="295.65" x2="525.69" y2="298.37"/>
					<line class="st54" x1="514.75" y1="324.78" x2="513.63" y2="327.5"/>
				</g>
			</g>
			<g>
				<g>
					<path class="st55" d="M475.52,159.18c-0.22-1.43-1.38-2.6-2.81-2.85c-1.63-0.28-3.08,0.59-3.71,1.92
						c-0.64-1.33-2.09-2.2-3.71-1.92c-1.43,0.24-2.58,1.42-2.81,2.85c-0.18,1.17,0.22,2.26,0.97,3l4.92,4.92
						c0.35,0.35,0.92,0.35,1.27,0l4.92-4.92C475.3,161.44,475.7,160.35,475.52,159.18z"/>
				</g>
				<g>
					<line class="st54" x1="469" y1="149.68" x2="469" y2="151.61"/>
					<line class="st54" x1="469" y1="170.46" x2="469" y2="172.39"/>
					<line class="st54" x1="480.36" y1="161.03" x2="478.42" y2="161.03"/>
					<line class="st54" x1="459.58" y1="161.03" x2="457.64" y2="161.03"/>
					<line class="st54" x1="460.97" y1="153" x2="462.34" y2="154.37"/>
					<line class="st54" x1="475.66" y1="167.7" x2="477.03" y2="169.07"/>
					<line class="st54" x1="477.03" y1="153" x2="475.66" y2="154.37"/>
					<line class="st54" x1="462.34" y1="167.7" x2="460.97" y2="169.07"/>
					<line class="st54" x1="464.65" y1="150.54" x2="465.39" y2="152.33"/>
					<line class="st54" x1="472.61" y1="169.74" x2="473.35" y2="171.53"/>
					<line class="st54" x1="479.49" y1="156.69" x2="477.7" y2="157.43"/>
					<line class="st54" x1="460.29" y1="164.64" x2="458.5" y2="165.38"/>
					<line class="st54" x1="458.5" y1="156.69" x2="460.29" y2="157.43"/>
					<line class="st54" x1="477.7" y1="164.64" x2="479.49" y2="165.38"/>
					<line class="st54" x1="473.35" y1="150.54" x2="472.61" y2="152.33"/>
					<line class="st54" x1="465.39" y1="169.74" x2="464.65" y2="171.53"/>
				</g>
			</g>
			<g>
				<g>
					<circle class="st56" cx="327.79" cy="346.39" r="11.09"/>
					<g>
						<path class="st57" d="M339.97,350.63c0.24-0.72-0.02-1.55-0.63-2.01c-0.69-0.52-1.58-0.46-2.2,0.01
							c0.02-0.78-0.45-1.53-1.27-1.79c-0.73-0.23-1.55,0.04-2,0.66c-0.37,0.5-0.44,1.11-0.27,1.64l1.12,3.48
							c0.08,0.25,0.34,0.38,0.59,0.3l3.48-1.12C339.32,351.64,339.77,351.23,339.97,350.63z"/>
					</g>
				</g>
				<ellipse class="st52" cx="323.95" cy="346.39" rx="1.02" ry="1.69"/>
				<g>
					<path class="st52" d="M321.26,343.68c-0.06,0-0.11-0.01-0.17-0.04c-0.19-0.09-0.28-0.32-0.19-0.52c0.05-0.1,1.16-2.4,4.07-2.4
						c0.21,0,0.39,0.17,0.39,0.39c0,0.21-0.17,0.39-0.39,0.39c-2.42,0-3.36,1.94-3.36,1.96
						C321.55,343.6,321.41,343.68,321.26,343.68z"/>
				</g>
				<g>
					<path class="st52" d="M334.85,344.32c-0.11,0-0.22-0.05-0.29-0.13c-0.06-0.07-1.46-1.63-3.77-0.99
						c-0.21,0.06-0.42-0.06-0.48-0.27c-0.06-0.21,0.06-0.42,0.27-0.48c2.8-0.77,4.49,1.15,4.56,1.23c0.14,0.16,0.12,0.41-0.04,0.55
						C335.03,344.29,334.94,344.32,334.85,344.32z"/>
				</g>
				<g>
					<path class="st52" d="M330.83,346.78c-0.08,0-0.16-0.02-0.23-0.08c-0.17-0.13-0.21-0.37-0.08-0.54
						c1.15-1.56,2.86-1.07,3.6-0.58c0.18,0.12,0.23,0.36,0.11,0.53c-0.12,0.18-0.35,0.23-0.54,0.12c-0.16-0.1-1.57-0.94-2.55,0.39
						C331.07,346.72,330.95,346.78,330.83,346.78z"/>
				</g>
				<g>
					<path class="st52" d="M328.22,353.96c-0.11,0-0.23-0.05-0.3-0.15c-0.13-0.17-0.11-0.41,0.06-0.54l1.13-0.89l-0.71-0.3
						c-0.12-0.05-0.2-0.16-0.23-0.28c-0.02-0.13,0.02-0.26,0.11-0.35l0.72-0.7l-1.34-0.52c-0.2-0.08-0.3-0.3-0.22-0.5
						c0.08-0.2,0.3-0.3,0.5-0.22l1.9,0.73c0.12,0.05,0.21,0.15,0.24,0.28c0.03,0.13-0.01,0.26-0.11,0.36l-0.73,0.72l0.78,0.33
						c0.12,0.05,0.21,0.17,0.23,0.3c0.02,0.14-0.04,0.27-0.14,0.36l-1.64,1.3C328.39,353.93,328.31,353.96,328.22,353.96z"/>
				</g>
			</g>
			<g>
				<g>
					<g>
						<circle class="st56" cx="397.85" cy="261" r="14.11"/>
					</g>
				</g>
				<g>
					<path class="st52" d="M397.85,269.08c-2.44,0-3.48-1.86-3.69-2.85c-0.07-0.3,0.13-0.6,0.43-0.67c0.31-0.06,0.6,0.13,0.67,0.43
						c0.02,0.08,0.46,1.96,2.59,1.96c2.15,0,2.58-1.88,2.6-1.96c0.06-0.3,0.36-0.49,0.67-0.43c0.31,0.06,0.5,0.36,0.43,0.67
						C401.34,267.21,400.29,269.08,397.85,269.08z"/>
				</g>
				<g>
					<g>
						<g>
							<path class="st52" d="M389.37,257.83c-0.17,0-0.35-0.08-0.46-0.23c-0.18-0.25-0.13-0.6,0.12-0.78
								c1.21-0.89,4.18-2.03,6.74-0.02c0.24,0.19,0.29,0.55,0.1,0.79c-0.2,0.24-0.55,0.29-0.79,0.1c-2.53-1.98-5.27-0.04-5.38,0.05
								C389.6,257.8,389.48,257.83,389.37,257.83z"/>
						</g>
						<g>
							<path class="st52" d="M394.48,261.57c-0.17,0-0.34-0.08-0.45-0.23c-1.22-1.65-2.96-0.61-3.16-0.48
								c-0.26,0.17-0.61,0.09-0.78-0.17c-0.17-0.26-0.09-0.61,0.16-0.78c0.96-0.63,3.17-1.27,4.68,0.76
								c0.18,0.25,0.13,0.6-0.12,0.79C394.71,261.53,394.6,261.57,394.48,261.57z"/>
						</g>
					</g>
					<g>
						<g>
							<path class="st52" d="M406.33,257.83c-0.12,0-0.23-0.03-0.33-0.11c-0.12-0.08-2.85-2.03-5.38-0.05
								c-0.25,0.19-0.6,0.15-0.79-0.1c-0.19-0.25-0.15-0.6,0.1-0.79c2.57-2.01,5.54-0.86,6.74,0.02c0.25,0.18,0.31,0.53,0.12,0.78
								C406.68,257.75,406.51,257.83,406.33,257.83z"/>
						</g>
						<g>
							<path class="st52" d="M401.22,261.57c-0.12,0-0.23-0.04-0.33-0.11c-0.25-0.18-0.3-0.54-0.12-0.79
								c1.5-2.03,3.72-1.39,4.68-0.76c0.26,0.17,0.33,0.52,0.16,0.78c-0.17,0.26-0.51,0.34-0.78,0.17c-0.2-0.12-1.94-1.17-3.16,0.48
								C401.56,261.49,401.39,261.57,401.22,261.57z"/>
						</g>
					</g>
				</g>
			</g>
			<g>
				<path class="st58" d="M315.72,170.1h-64.61c-11.08,0-20.06,8.98-20.06,20.06v0c0,11.08,8.98,20.06,20.06,20.06h5.76l3.61,4.67
					l3.61-4.67h51.62c11.08,0,20.06-8.98,20.06-20.06v0C335.79,179.08,326.8,170.1,315.72,170.1z"/>
				<g>
					<circle class="st59" cx="249.85" cy="190.16" r="12.42"/>
					
						<ellipse transform="matrix(0.2298 -0.9732 0.9732 0.2298 7.3735 389.6437)" class="st55" cx="249.85" cy="190.16" rx="9.55" ry="9.55"/>
				</g>
				<g>
					<defs>
						
							<ellipse id="SVGID_19_" transform="matrix(0.2298 -0.9732 0.9732 0.2298 7.3735 389.6437)" cx="249.85" cy="190.16" rx="9.55" ry="9.55"/>
					</defs>
					<clipPath id="SVGID_20_">
						<use xlink:href="#SVGID_19_"  style="overflow:visible;"/>
					</clipPath>
					<g class="st60">
						<g>
							<path class="st20" d="M246.04,184.12c1.95-1.78,5.72-2.22,7.22-0.05c0.67,0.96,0.81,2.31,1.69,3.06
								c0.3,0.25,0.67,0.43,0.89,0.76c0.37,0.54,0.18,1.29-0.06,1.9c-0.24,0.61-0.54,1.28-0.35,1.91c0.13,0.45,0.49,0.85,0.43,1.31
								c-0.09,0.62-0.85,0.83-1.46,0.88c-0.5,0.04-0.99,0.06-1.49,0.02c-0.76-0.05-1.51-0.24-2.28-0.21
								c-0.93,0.04-1.82,0.41-2.73,0.6c-0.99,0.2-2.01,0.19-2.99-0.03c-0.59-0.13-1.26-0.46-1.32-1.08
								c-0.04-0.42,0.23-0.81,0.25-1.24c0.02-0.71-0.69-1.28-0.69-1.99c0-0.84,0.91-1.32,1.31-2.05c0.35-0.64,0.29-1.44,0.5-2.14
								C245.15,185.14,245.53,184.58,246.04,184.12z"/>
						</g>
						<g>
							<path class="st33" d="M239.61,198.77c3.15-3.61,7.85-3.53,7.85-3.53l4.64-0.08c0,0,4.13,0.54,6.61,2.58
								c7.43,6.09,6.2,16.78,6.2,16.78s-30.14-6.52-30.18-6.74C234.68,207.57,237.51,201.18,239.61,198.77z"/>
							<path class="st21" d="M252.63,186.36c0.94,3.78-0.77,6.61-2.23,6.83c-2.09,0.31-3.26-0.71-3.88-2.58
								c-0.27-0.82-0.68-3.94,0.19-4.86C248.17,184.24,251.83,183.14,252.63,186.36z"/>
							<path class="st21" d="M247.7,191.43l-0.21,3.48c0,0-0.49,1.87,2.37,1.87c2.86,0,2.17-1.87,2.17-1.87l-0.47-3.86"/>
						</g>
						<g>
							<path class="st21" d="M246.67,189.22c-0.18-0.2-0.56-0.23-0.78-0.07c-0.19,0.14-0.24,0.37-0.26,0.58
								c-0.01,0.2,0,0.41,0.08,0.61s0.24,0.37,0.47,0.45c0.22,0.08,0.51,0.06,0.69-0.09"/>
						</g>
						<g>
							<path class="st21" d="M252.51,189.22c0.18-0.2,0.56-0.23,0.78-0.07c0.19,0.14,0.24,0.37,0.26,0.58c0.01,0.2,0,0.41-0.08,0.61
								c-0.08,0.19-0.24,0.37-0.47,0.45c-0.22,0.08-0.51,0.06-0.69-0.09"/>
						</g>
						<g>
							<path class="st20" d="M245.54,188.73c1.78-0.38,3.41-1.42,4.51-2.88c0.94,1.15,2.18,2.06,3.57,2.6
								c0.11-0.93,0.22-1.92-0.19-2.77c-0.28-0.59-0.77-1.04-1.26-1.47c-0.42-0.37-0.85-0.74-1.38-0.93c-1-0.38-2.15-0.05-3.03,0.56
								c-1.25,0.86-2.1,2.26-2.28,3.76"/>
						</g>
						<g>
							<path class="st20" d="M250.55,183.1c-0.1,0.06-0.21-0.03-0.28-0.12c-0.29-0.33-0.59-0.75-0.45-1.16
								c0.06-0.19,0.21-0.34,0.37-0.46c0.39-0.27,0.91-0.36,1.35-0.17c0.43,0.19,0.74,0.67,0.68,1.13c-0.06,0.47-0.53,0.86-1,0.79"
								/>
						</g>
						<path class="st61" d="M247.81,192.72c0,0,0.6,0.85,1.7,0.92c1.41,0.1,2.02-1.19,2.02-1.19"/>
						<path class="st61" d="M249.86,191.09c0,0-0.62,0.13-0.62-0.25c0-0.39,0.19-2.11,0.19-2.11"/>
						<g>
							<g>
								<path class="st20" d="M250.89,189.11c-0.02,0.1-0.03,0.21-0.02,0.32c0.01,0.56,0.89,0.47,0.77-0.1
									c-0.01-0.11-0.04-0.21-0.08-0.3C251.43,188.63,250.94,188.73,250.89,189.11L250.89,189.11z"/>
							</g>
						</g>
						<path class="st62" d="M250.7,188.27c0,0,0.49-0.37,1.27,0.1"/>
						<g>
							<g>
								<path class="st20" d="M247.58,189.01c-0.04,0.1-0.07,0.2-0.08,0.3c-0.11,0.57,0.77,0.67,0.77,0.1
									c0.01-0.11,0-0.21-0.02-0.32C248.2,188.73,247.71,188.63,247.58,189.01L247.58,189.01z"/>
							</g>
						</g>
						<path class="st62" d="M248.44,188.27c0,0-0.49-0.37-1.27,0.1"/>
						<path class="st10" d="M248.64,191.63h2.05c0,0-0.29,1.06-1.04,1.06C248.91,192.69,248.64,191.63,248.64,191.63z"/>
					</g>
				</g>
				<g>
					<line class="st63" x1="266.87" y1="179.85" x2="322.94" y2="179.85"/>
					<line class="st63" x1="266.87" y1="186.73" x2="322.94" y2="186.73"/>
					<line class="st63" x1="311.73" y1="193.6" x2="322.94" y2="193.6"/>
					<line class="st63" x1="266.87" y1="193.6" x2="305.35" y2="193.6"/>
					<line class="st63" x1="266.87" y1="200.48" x2="296.54" y2="200.48"/>
				</g>
			</g>
			<g>
				<path class="st58" d="M364.3,197.38h64.61c11.08,0,20.06,8.98,20.06,20.06v0c0,11.08-8.98,20.06-20.06,20.06h-2.75l-3.61,4.67
					l-3.61-4.67H364.3c-11.08,0-20.06-8.98-20.06-20.06v0C344.24,206.37,353.22,197.38,364.3,197.38z"/>
				<g>
					<circle class="st59" cx="430.17" cy="217.45" r="12.42"/>
					
						<ellipse transform="matrix(0.973 -0.231 0.231 0.973 -38.5927 105.2358)" class="st55" cx="430.17" cy="217.45" rx="9.55" ry="9.55"/>
				</g>
				<g>
					<defs>
						
							<ellipse id="SVGID_21_" transform="matrix(0.973 -0.231 0.231 0.973 -38.5927 105.2358)" cx="430.17" cy="217.45" rx="9.55" ry="9.55"/>
					</defs>
					<clipPath id="SVGID_22_">
						<use xlink:href="#SVGID_21_"  style="overflow:visible;"/>
					</clipPath>
					<g class="st64">
						<path class="st33" d="M440.41,226.06c-3.15-3.61-7.85-3.53-7.85-3.53l-4.64-0.08c0,0-4.13,0.54-6.61,2.58
							c-7.43,6.09-6.2,16.78-6.2,16.78s30.14-6.52,30.18-6.74C445.34,234.86,442.51,228.46,440.41,226.06z"/>
						<path class="st21" d="M427.08,213.65c-0.94,3.78,0.77,6.61,2.23,6.83c2.09,0.31,3.26-0.71,3.88-2.58
							c0.27-0.82,0.68-3.94-0.19-4.86C431.55,211.52,427.88,210.42,427.08,213.65z"/>
						<path class="st21" d="M432.71,218.65l0.05,3.48c0,0,0.55,1.87-2.68,1.87c-3.23,0-2.45-1.87-2.45-1.87l0.06-3.86"/>
						<g>
							<path class="st21" d="M433.1,216.5c0.18-0.2,0.56-0.23,0.78-0.07c0.19,0.14,0.24,0.37,0.26,0.58c0.01,0.2,0,0.41-0.08,0.61
								c-0.08,0.19-0.24,0.37-0.47,0.45c-0.22,0.08-0.51,0.06-0.69-0.09"/>
						</g>
						<path class="st61" d="M432.55,220.01c0,0-0.75,0.85-2.11,0.92c-1.75,0.1-2.51-1.19-2.51-1.19"/>
						<path class="st61" d="M429.88,217.67c0,0,0.62,0.12,0.62-0.22c0-0.34-0.19-1.86-0.19-1.86"/>
						<g>
							<g>
								<path class="st20" d="M428.17,215.86c-0.04,0.1-0.07,0.2-0.08,0.3c-0.11,0.57,0.77,0.67,0.77,0.1
									c0.01-0.11,0-0.21-0.02-0.32C428.8,215.58,428.31,215.47,428.17,215.86L428.17,215.86z"/>
							</g>
						</g>
						<g>
							<g>
								<path class="st20" d="M431.48,215.95c-0.02,0.1-0.03,0.21-0.02,0.32c0.01,0.56,0.89,0.47,0.77-0.1
									c-0.01-0.11-0.04-0.21-0.08-0.3C432.03,215.47,431.53,215.58,431.48,215.95L431.48,215.95z"/>
							</g>
						</g>
						<path class="st10" d="M431.66,218.72h-2.63c0,0,0.12,1.06,1.33,1.06C431.56,219.78,431.66,218.72,431.66,218.72z"/>
						<g>
							<path class="st20" d="M426.85,216.88c0.6-0.89,1.19-1.77,1.09-3.03c1.15,0.48,2.65,0.47,3.84,0.26
								c0.75-0.13,1.64-0.42,2.25-0.94c0.6-0.52,0.84-2.23,0.28-2.81c-0.6-0.62-1.56-0.24-2.28,0.19c-0.31-0.59-0.89-1-1.5-1.06
								c-0.61-0.06-1.24,0.23-1.64,0.75c-0.11,0.15-0.21,0.32-0.37,0.39c-0.19,0.08-0.4-0.01-0.6-0.05c-1.1-0.25-2.13,1.5-2.32,2.73
								c-0.19,1.23,0.22,2.48,0.66,3.63c0.07,0.18,0.24,0.39,0.37,0.26"/>
						</g>
						<g>
							<path class="st20" d="M433.54,212.49c0.95,1.27,1.06,3.11,0.27,4.48c-0.03,0.05-0.06,0.1-0.12,0.12
								c-0.07,0.02-0.14-0.02-0.2-0.07c-0.25-0.22-0.36-0.55-0.4-0.88c-0.04-0.33-0.01-0.66-0.03-0.99
								c-0.04-0.79-0.33-1.56-0.82-2.18"/>
						</g>
						<g>
							<path class="st21" d="M427.24,216.5c-0.18-0.2-0.56-0.23-0.78-0.07c-0.19,0.14-0.24,0.37-0.26,0.58
								c-0.01,0.2,0,0.41,0.08,0.61c0.08,0.19,0.24,0.37,0.47,0.45s0.51,0.06,0.69-0.09"/>
						</g>
					</g>
				</g>
				<g>
					<line class="st63" x1="413.15" y1="207.13" x2="357.08" y2="207.13"/>
					<line class="st63" x1="398.19" y1="214.01" x2="357.08" y2="214.01"/>
					<line class="st63" x1="413.15" y1="214.01" x2="403.55" y2="214.01"/>
					<line class="st63" x1="374.1" y1="220.89" x2="357.08" y2="220.89"/>
					<line class="st63" x1="413.15" y1="220.89" x2="380.48" y2="220.89"/>
					<line class="st63" x1="392.53" y1="227.76" x2="357.08" y2="227.76"/>
				</g>
			</g>
			<g>
				<path class="st55" d="M335.08,227.19h-24.78c-3.98,0-7.21,3.23-7.21,7.21l0,0c0,3.98,3.23,7.21,7.21,7.21h2.07l1.3,1.68
					l1.3-1.68h20.11c3.98,0,7.21-3.23,7.21-7.21l0,0C342.3,230.42,339.07,227.19,335.08,227.19z"/>
				<g>
					<path class="st10" d="M315.75,232.54c-0.14-0.91-0.88-1.66-1.79-1.82c-1.04-0.18-1.97,0.38-2.37,1.23
						c-0.41-0.85-1.33-1.4-2.37-1.23c-0.91,0.16-1.65,0.9-1.79,1.82c-0.12,0.75,0.14,1.44,0.62,1.92l3.14,3.14
						c0.22,0.22,0.58,0.22,0.81,0l3.14-3.14C315.61,233.98,315.87,233.29,315.75,232.54z"/>
					<path class="st10" d="M326.86,232.54c-0.14-0.91-0.88-1.66-1.79-1.82c-1.04-0.18-1.97,0.38-2.37,1.23
						c-0.41-0.85-1.33-1.4-2.37-1.23c-0.91,0.16-1.65,0.9-1.79,1.82c-0.12,0.75,0.14,1.44,0.62,1.92l3.14,3.14
						c0.22,0.22,0.58,0.22,0.81,0l3.14-3.14C326.72,233.98,326.98,233.29,326.86,232.54z"/>
					<path class="st10" d="M337.97,232.54c-0.14-0.91-0.88-1.66-1.79-1.82c-1.04-0.18-1.97,0.38-2.37,1.23
						c-0.41-0.85-1.33-1.4-2.37-1.23c-0.91,0.16-1.65,0.9-1.79,1.82c-0.12,0.75,0.14,1.44,0.62,1.92l3.14,3.14
						c0.22,0.22,0.58,0.22,0.81,0l3.14-3.14C337.83,233.98,338.09,233.29,337.97,232.54z"/>
				</g>
			</g>
			<g>
				<path class="st55" d="M405.06,337.67h24.78c3.98,0,7.21-3.23,7.21-7.21l0,0c0-3.98-3.23-7.21-7.21-7.21h-2.07l-1.3-1.68
					l-1.3,1.68h-20.11c-3.98,0-7.21,3.23-7.21,7.21l0,0C397.85,334.44,401.08,337.67,405.06,337.67z"/>
				<g>
					<path class="st10" d="M410.5,328.85c-0.14-0.91-0.88-1.66-1.79-1.82c-1.04-0.18-1.97,0.38-2.37,1.23
						c-0.41-0.85-1.33-1.4-2.37-1.23c-0.91,0.16-1.65,0.9-1.79,1.82c-0.12,0.75,0.14,1.44,0.62,1.92l3.14,3.14
						c0.22,0.22,0.58,0.22,0.81,0l3.14-3.14C410.36,330.29,410.62,329.6,410.5,328.85z"/>
					<path class="st10" d="M421.62,328.85c-0.14-0.91-0.88-1.66-1.79-1.82c-1.04-0.18-1.97,0.38-2.37,1.23
						c-0.41-0.85-1.33-1.4-2.37-1.23c-0.91,0.16-1.65,0.9-1.79,1.82c-0.12,0.75,0.14,1.44,0.62,1.92l3.14,3.14
						c0.22,0.22,0.58,0.22,0.81,0l3.14-3.14C421.47,330.29,421.73,329.6,421.62,328.85z"/>
					<path class="st10" d="M432.73,328.85c-0.14-0.91-0.88-1.66-1.79-1.82c-1.04-0.18-1.97,0.38-2.37,1.23
						c-0.41-0.85-1.33-1.4-2.37-1.23c-0.91,0.16-1.65,0.9-1.79,1.82c-0.12,0.75,0.14,1.44,0.62,1.92l3.14,3.14
						c0.22,0.22,0.58,0.22,0.81,0l3.14-3.14C432.59,330.29,432.85,329.6,432.73,328.85z"/>
				</g>
			</g>
			<g>
				<g>
					<path class="st58" d="M523.25,197.64h-31.31c-5.03,0-9.12,4.08-9.12,9.12l0,0c0,5.03,4.08,9.12,9.12,9.12h2.62l1.64,2.12
						l1.64-2.12h25.41c5.03,0,9.12-4.08,9.12-9.12l0,0C532.37,201.72,528.29,197.64,523.25,197.64z"/>
				</g>
				<g>
					
						<ellipse transform="matrix(0.7071 -0.7071 0.7071 0.7071 -1.8026 408.9789)" class="st28" cx="492.78" cy="206.67" rx="6.14" ry="6.14"/>
					<g>
						<path class="st57" d="M497.25,205.59c0.13-0.4-0.01-0.86-0.35-1.11c-0.38-0.29-0.88-0.26-1.22,0
							c0.01-0.43-0.25-0.85-0.71-0.99c-0.4-0.13-0.86,0.02-1.11,0.36c-0.2,0.28-0.24,0.61-0.15,0.91l0.62,1.93
							c0.04,0.14,0.19,0.21,0.33,0.17l1.93-0.62C496.9,206.15,497.15,205.92,497.25,205.59z"/>
					</g>
					<g>
						<path class="st57" d="M488.13,205.59c-0.13-0.4,0.01-0.86,0.35-1.11c0.38-0.29,0.88-0.26,1.22,0
							c-0.01-0.43,0.25-0.85,0.71-0.99c0.4-0.13,0.86,0.02,1.11,0.36c0.2,0.28,0.24,0.61,0.15,0.91l-0.62,1.93
							c-0.04,0.14-0.19,0.21-0.33,0.17l-1.93-0.62C488.49,206.15,488.24,205.92,488.13,205.59z"/>
					</g>
					<path class="st10" d="M495.95,207.96c0,1.75-1.42,3.17-3.17,3.17c-1.75,0-3.17-1.42-3.17-3.17H495.95z"/>
				</g>
				<g>
					
						<ellipse transform="matrix(0.1606 -0.987 0.987 0.1606 222.2506 674.6613)" class="st28" cx="507.77" cy="206.67" rx="6.14" ry="6.14"/>
					<g>
						<path class="st57" d="M512.25,205.59c0.13-0.4-0.01-0.86-0.35-1.11c-0.38-0.29-0.88-0.26-1.22,0
							c0.01-0.43-0.25-0.85-0.71-0.99c-0.4-0.13-0.86,0.02-1.11,0.36c-0.2,0.28-0.24,0.61-0.15,0.91l0.62,1.93
							c0.04,0.14,0.19,0.21,0.33,0.17l1.93-0.62C511.89,206.15,512.14,205.92,512.25,205.59z"/>
					</g>
					<g>
						<path class="st57" d="M503.12,205.59c-0.13-0.4,0.01-0.86,0.35-1.11c0.38-0.29,0.88-0.26,1.22,0
							c-0.01-0.43,0.25-0.85,0.71-0.99c0.4-0.13,0.86,0.02,1.11,0.36c0.2,0.28,0.24,0.61,0.15,0.91l-0.62,1.93
							c-0.04,0.14-0.19,0.21-0.33,0.17l-1.93-0.62C503.48,206.15,503.23,205.92,503.12,205.59z"/>
					</g>
					<path class="st10" d="M510.94,207.96c0,1.75-1.42,3.17-3.17,3.17s-3.17-1.42-3.17-3.17H510.94z"/>
				</g>
				<g>
					
						<ellipse transform="matrix(0.2305 -0.9731 0.9731 0.2305 201.1488 667.7033)" class="st28" cx="522.76" cy="206.67" rx="6.14" ry="6.14"/>
					<g>
						<path class="st57" d="M527.24,205.59c0.13-0.4-0.01-0.86-0.35-1.11c-0.38-0.29-0.88-0.26-1.22,0
							c0.01-0.43-0.25-0.85-0.71-0.99c-0.4-0.13-0.86,0.02-1.11,0.36c-0.2,0.28-0.24,0.61-0.15,0.91l0.62,1.93
							c0.04,0.14,0.19,0.21,0.33,0.17l1.93-0.62C526.88,206.15,527.13,205.92,527.24,205.59z"/>
					</g>
					<g>
						<path class="st57" d="M518.11,205.59c-0.13-0.4,0.01-0.86,0.35-1.11c0.38-0.29,0.88-0.26,1.22,0
							c-0.01-0.43,0.25-0.85,0.71-0.99c0.4-0.13,0.86,0.02,1.11,0.36c0.2,0.28,0.24,0.61,0.15,0.91l-0.62,1.93
							c-0.04,0.14-0.19,0.21-0.33,0.17l-1.93-0.62C518.47,206.15,518.22,205.92,518.11,205.59z"/>
					</g>
					<path class="st10" d="M525.93,207.96c0,1.75-1.42,3.17-3.17,3.17s-3.17-1.42-3.17-3.17H525.93z"/>
				</g>
			</g>
		</g>
	</g>
</g>
<g id="DESIGNED_BY_FREEPIK">
</g>
</svg>
